<svg width="24" height="24" viewBox="0 0 24 24" fill="none" xmlns="http://www.w3.org/2000/svg">
<path d="M13.7053 15.5099C12.4746 14.2778 9.72003 11.5254 8.48895 10.2932C8.11225 9.9006 7.43422 9.90305 7.0577 10.2958L4.24465 13.109C4.05325 13.3003 3.94749 13.5544 3.94697 13.8249C3.94645 14.0957 4.05115 14.3495 4.24204 14.5404L5.18892 15.4875L5.74269 16.0413L0.113729 21.6705C-0.0378223 21.8161 -0.0379968 22.0785 0.113729 22.2243L1.77503 23.8853C1.85142 23.9617 1.95158 24 2.05191 24C2.15208 24 2.25224 23.9617 2.3288 23.8853L7.95776 18.2561C8.29198 18.5945 9.11474 19.4102 9.45841 19.7568C9.85293 20.1514 10.4953 20.1484 10.8898 19.7542L13.7027 16.941C14.0979 16.5459 14.0991 15.904 13.7053 15.5099ZM10.3581 16.4096L8.78818 17.9797C8.0944 17.2857 6.71331 15.9047 6.01935 15.2107L9.15911 12.0708L11.9279 14.8394L10.3581 16.4096ZM4.79802 13.6628L7.61107 10.8496C7.70039 10.7601 7.84547 10.7577 7.93497 10.847L8.60518 11.5174L5.46542 14.6573L4.79539 13.9867C4.70694 13.8981 4.708 13.7527 4.79802 13.6628ZM2.05174 23.0547L0.944201 21.9473L6.29616 16.5951L7.4037 17.7027L2.05174 23.0547ZM13.1486 16.3872L10.3357 19.2004C10.2458 19.2903 10.1004 19.2915 10.0116 19.2031L9.34176 18.5332C10.1243 17.7506 11.6991 16.1753 12.4815 15.3929L13.1514 16.0633C13.2398 16.1521 13.2386 16.297 13.1486 16.3872Z" fill="#8E7370"/>
<path d="M23.6087 3.06119C23.8248 3.06119 24 2.87861 24 2.65303V0.408158C24 0.18258 23.8248 0 23.6087 0H6.3913C6.17521 0 6 0.18258 6 0.408158V2.65303C6 2.87861 6.17521 3.06119 6.3913 3.06119H8.15217V6.73461H7.56522C7.34913 6.73461 7.17391 6.91719 7.17391 7.14277V8.97949C7.18247 9.51555 7.94798 9.51648 7.95652 8.97949V7.55093H12.2609V11.8366C12.2691 12.3718 13.0348 12.3743 13.0435 11.8366V7.14301C13.0435 6.91743 12.8683 6.73485 12.6522 6.73485H12.163V3.06142H14.6087V17.347C14.6087 17.5725 14.7839 17.7551 15 17.7551C17.3847 17.754 20.8414 17.7559 23.2174 17.7551V19.1837H13.8261C13.316 19.191 13.3085 19.9909 13.8261 20H23.6087C23.8248 20 24 19.8174 24 19.5918V17.347C24 17.1214 23.8248 16.9388 23.6087 16.9388H21.8478V3.06142L23.6087 3.06119ZM6.78261 0.816317H23.2174V2.24487H6.78261V0.816317ZM11.3803 6.73485H8.93465V3.06142H11.3803V6.73485ZM17.8371 3.06142V16.9388H15.3914V3.06142H17.8371ZM21.0654 16.9388H18.6197V3.06142H21.0654V16.9388Z" fill="#8E7370"/>
</svg>
