<svg id="Layer_4" xmlns="http://www.w3.org/2000/svg" viewBox="0 0 21.43 22.07">
<defs><style>.cls-1{fill:none;}.cls-1,.cls-2{stroke:#000;stroke-miterlimit:10;stroke-width:1.3px;}</style></defs>
<path class="cls-1" d="M11.99,17.06h8.19c.17,0,.3-.13,.3-.3v-1.33c0-.17-.13-.3-.3-.3h-1.58V3.29h1.58c.17,0,.3-.13,.3-.3V1.67c0-.17-.13-.3-.3-.3H6.04c-.17,0-.3,.13-.3,.3v1.31c0,.17,.13,.3,.3,.3h1.58l-.03,3.61h-.86l.03,1.82"/>
<polyline class="cls-1" points="11.07 10.95 11.07 6.89 10.39 6.89 10.39 3.29 7.62 3.29 7.59 6.89 10.43 6.89"/>
<path class="cls-1" d="M18.6,15.14h-5.18c-.17,0-.3-.14-.3-.3V3.29h5.49"/>
<line class="cls-1" x1="15.85" y1="3.29" x2="15.85" y2="15.14"/>
<path class="cls-1" d="M1.07,19.49l.97,.97c.12,.12,.3,.12,.42,0l4.81-4.66,1.7,1.71c.12,.12,.31,.12,.42,0l2.7-2.7c.12-.12,.12-.31,0-.42l-4.79-4.79c-.12-.12-.31-.12-.42,0l-2.74,2.74c-.12,.12-.12,.31,0,.42l.87,.87,.8,.8L1.07,19.06c-.12,.12-.12,.31,0,.43Z"/>
<polyline class="cls-1" points="11.07 13.36 7.94 16.48 5.07 13.69 8.23 10.52"/>
<line class="cls-1" x1="8.93" y1="3.29" x2="13.58" y2="3.29"/>
</svg>