<svg width="16" height="16" viewBox="0 0 16 16" fill="none" xmlns="http://www.w3.org/2000/svg">
<path d="M14.8051 9.63135L6.36758 1.19385C4.96133 -0.268646 2.65508 -0.268647 1.19258 1.1376C-0.269922 2.54385 -0.269922 4.90635 1.19258 6.3126L1.24883 6.36885L2.82383 8.0001L3.61133 7.2126L1.98008 5.58135C1.02383 4.6251 1.02383 2.99385 1.98008 2.0376C2.93633 1.08135 4.56758 1.0251 5.52383 1.98135L5.58008 2.0376L13.9613 10.4189C14.9738 11.3751 14.9738 13.0064 14.0176 13.9626C13.0613 14.9751 11.4301 14.9751 10.4738 14.0189L10.4176 13.9626L6.25508 9.8001C5.69258 9.2376 5.74883 8.3376 6.25508 7.83135C6.81758 7.3251 7.66133 7.3251 8.22383 7.83135L10.5301 10.1376L11.3176 9.3501L8.95508 6.9876C7.94258 6.03135 6.36758 6.0876 5.41133 7.1001C4.51133 8.05635 4.51133 9.5751 5.41133 10.5876L9.63008 14.8064C11.0363 16.2689 13.3426 16.2689 14.8051 14.8626C16.2676 13.4564 16.2676 11.0939 14.8051 9.63135Z" fill="#231B1B"/>
</svg>
