<svg width="81" height="80" viewBox="0 0 81 80" fill="none" xmlns="http://www.w3.org/2000/svg">
    <g clip-path="url(#clip0_1807_2080)">
        <path d="M63.3455 63.2578L63.3379 63.2655H63.3455V63.2578Z" fill="#111010"/>
        <path d="M65.6631 17.7891C65.6631 17.7891 65.6548 17.7891 65.6465 17.7891C65.6465 17.7891 65.6465 17.7891 65.6465 17.7974L65.6631 17.7891Z" fill="#111010"/>
        <path d="M63.828 22.16V22.1523H63.8203L63.828 22.16Z" fill="#111010"/>
        <path d="M53.1109 13.1211C53.1109 13.1292 53.1028 13.1372 53.0947 13.1534C53.0947 13.1534 53.1028 13.1372 53.1109 13.1292V13.1211Z" fill="#111010"/>
        <path d="M40.5234 68.7459H40.5311L40.5234 68.7383V68.7459Z" fill="#111010"/>
        <path d="M20.0527 21.2655H20.0604V21.2578L20.0527 21.2655Z" fill="#111010"/>
        <path d="M63.498 63.1797V63.1873H63.5057V63.1797H63.498Z" fill="#111010"/>
        <path d="M63.6582 63.0938V63.1014H63.6659V63.0938H63.6582Z" fill="#111010"/>
        <path d="M63.2578 21.2695L63.2655 21.2772L63.2578 21.2695L63.2655 21.2772V21.2695H63.2578Z" fill="#111010"/>
        <path d="M63.8203 22.1523L63.828 22.16L63.8203 22.1523Z" fill="#111010"/>
        <path d="M15.104 31.7604C15.104 31.7604 15.1281 31.704 15.1362 31.6799C15.1523 31.6477 15.1603 31.6236 15.1764 31.5914C15.3051 31.2856 15.4339 30.9879 15.5787 30.6901C15.5787 30.674 15.5868 30.666 15.5948 30.6499C15.6351 30.5694 15.6753 30.4889 15.7075 30.4085C15.7799 30.2556 15.8604 30.1027 15.9409 29.9418C15.9972 29.7567 16.0616 29.5716 16.1259 29.3946C16.1903 29.2256 16.2547 29.0486 16.3191 28.8796C16.3191 28.8796 16.3191 28.8635 16.3271 28.8554C16.3915 28.6864 16.4559 28.5255 16.5283 28.3646C16.5283 28.3565 16.5283 28.3485 16.5363 28.3324C16.6248 28.1312 16.7134 27.93 16.8019 27.7289C16.818 27.6967 16.826 27.6725 16.8421 27.6403C16.8904 27.5357 16.9387 27.4392 16.9869 27.3346C17.0111 27.2863 17.0352 27.238 17.0594 27.1897C17.1157 27.069 17.1801 26.9564 17.2444 26.8357C17.2444 26.8357 17.2444 26.8196 17.2525 26.8196C17.333 26.6586 17.4215 26.5057 17.51 26.3528C17.3088 26.5218 17.1157 26.7069 16.8662 26.8115C16.8501 26.9081 16.7858 26.9483 16.7053 26.9725C16.5524 27.1897 16.3512 27.3426 16.142 27.4955C16.1742 27.246 16.4317 27.0046 16.7053 26.9725C16.6731 26.8357 16.6973 26.7471 16.8582 26.8035C16.7858 26.6828 16.9306 26.6506 16.9628 26.5701C17.0111 26.5379 17.0594 26.4977 17.0996 26.4655C17.2284 26.377 17.3571 26.2965 17.4778 26.208C17.5583 26.1356 17.6307 26.0632 17.7112 25.9907C17.9526 25.5723 18.2181 25.17 18.4917 24.7757C18.6366 24.5745 18.7814 24.3733 18.9262 24.1721C18.9343 24.1641 18.9423 24.148 18.9504 24.14C19.1033 23.9388 19.2642 23.7376 19.4252 23.5364C19.4252 23.5364 19.4252 23.5364 19.4252 23.5284C19.5298 23.3996 19.6344 23.2789 19.739 23.1502C19.7792 23.1019 19.8275 23.0456 19.8677 22.9973C19.9804 22.8685 20.093 22.7478 20.2057 22.6271C20.2298 22.603 20.2459 22.5789 20.2701 22.5628C20.4552 22.3696 20.6402 22.1765 20.8253 21.9834C20.8253 21.9834 20.8414 21.9673 20.8414 21.9592C21.0184 21.7903 21.1874 21.6132 21.3725 21.4523C21.3805 21.4442 21.3886 21.4362 21.4047 21.4201C21.3645 21.4201 21.3242 21.4362 21.3081 21.4845C21.2357 21.4845 21.1552 21.5006 21.0828 21.5086C21.2518 21.3718 21.4208 21.2511 21.622 21.1948C21.9277 20.881 22.2335 20.5752 22.5473 20.2855C23.0221 19.851 23.513 19.4406 24.0119 19.0543C24.5188 18.6681 25.0419 18.314 25.573 17.976C25.3879 18.0163 25.1948 18.0485 25.0097 18.0967C23.8429 18.3542 22.7244 18.7727 21.63 19.2313C20.6644 19.6337 19.6987 20.036 18.8377 20.6315C18.7331 20.7039 18.6366 20.6637 18.5963 20.5349C19.1596 20.2372 19.7309 19.9395 20.2942 19.6337C20.3264 19.6096 20.3586 19.5935 20.3827 19.5693C20.4632 19.5371 20.5356 19.5049 20.6161 19.4728C20.6724 19.4888 20.6885 19.4567 20.7046 19.4084C20.8575 19.344 21.0506 19.3521 21.1472 19.1831C21.2035 19.167 21.2598 19.1509 21.3242 19.1428C21.4127 19.0946 21.5415 19.1428 21.5978 19.0221C21.7266 18.9819 21.8634 18.9417 21.9921 18.9014C21.9921 18.8853 22.0002 18.8612 22.0082 18.8531C22.0082 18.8692 21.9921 18.8853 21.9921 18.9014C22.0806 18.9256 22.0887 18.8371 22.137 18.8049C22.1531 18.821 22.1691 18.821 22.1852 18.8049C22.2818 18.8129 22.3381 18.7485 22.4025 18.6922C22.6037 18.7485 22.7324 18.5795 22.9014 18.5474C23.0704 18.5474 23.2233 18.4669 23.3681 18.4025C23.4164 18.4267 23.4406 18.4025 23.4486 18.3623C23.69 18.2738 23.9234 18.1853 24.1648 18.0967C24.197 18.0967 24.2291 18.0967 24.2533 18.0887C24.3901 18.1289 24.4625 17.976 24.5913 17.9841C24.6395 17.968 24.6878 17.9519 24.7361 17.9358C24.8488 17.9599 24.9534 17.9358 25.058 17.8875C25.066 17.8714 25.0821 17.8634 25.0982 17.8634C25.1224 17.6944 25.2511 17.6944 25.3718 17.7185C25.581 17.7507 25.7902 17.7507 25.9914 17.7266C26.2167 17.5978 26.442 17.4691 26.6674 17.3484C26.6674 17.3484 26.6754 17.3484 26.6834 17.3403C26.9007 17.2277 27.126 17.115 27.3433 17.0024C27.3674 16.9943 27.3835 16.9782 27.4077 16.9702C27.5525 16.8978 27.7054 16.8334 27.8583 16.761C27.8744 16.761 27.8905 16.7449 27.9066 16.7368C28.0756 16.6644 28.2526 16.5839 28.4216 16.5115C28.4538 16.4954 28.486 16.4874 28.5181 16.4713C28.7354 16.3827 28.9527 16.2942 29.178 16.2138C29.186 16.2138 29.1941 16.2138 29.2102 16.2057C29.4355 16.1252 29.6688 16.0448 29.8942 15.9643C30.1597 15.8275 30.4253 15.6988 30.6908 15.57C30.7552 15.5378 30.8196 15.5056 30.8839 15.4815C30.9885 15.4332 31.0931 15.3849 31.1978 15.3447C31.2702 15.3125 31.3426 15.2803 31.415 15.2562C31.5679 15.1918 31.7208 15.1274 31.8737 15.0711C31.8898 15.0711 31.9059 15.055 31.922 15.055C32.1795 14.9584 32.4289 14.8619 32.6864 14.7734C32.7025 14.7734 32.7267 14.7573 32.7428 14.7573C32.952 14.6849 33.1612 14.6205 33.3704 14.5561C33.3865 14.5561 33.3946 14.5481 33.4107 14.54C33.5635 14.4917 33.7164 14.4515 33.8693 14.4113C33.8693 14.4113 33.8854 14.4113 33.8935 14.4113C34.2878 14.3067 34.6901 14.2101 35.0924 14.1216C35.0924 14.1216 35.1005 14.1216 35.1085 14.1216C35.2695 14.0894 35.4224 14.0572 35.5833 14.025C37.241 13.6629 38.963 13.5181 40.7414 13.5824C40.9828 13.5824 41.2322 13.5824 41.4736 13.5985C40.7333 13.2927 39.985 13.0352 39.2125 12.826C39.1803 12.818 39.132 12.826 39.0918 12.8341C39.1078 12.8743 39.1159 12.9065 39.132 12.9467C39.1159 12.9065 39.0998 12.8743 39.0918 12.8341C38.9952 12.6812 38.8262 12.7456 38.6894 12.6973C38.617 12.6249 38.5285 12.649 38.44 12.649C38.4158 12.6409 38.3917 12.6329 38.3675 12.6249C38.0698 12.5605 37.7721 12.4881 37.4743 12.4237C37.4421 12.4237 37.4019 12.4156 37.3858 12.4317C37.3617 12.4156 37.3214 12.4156 37.2812 12.4317V12.4237C37.241 12.4237 37.2007 12.4156 37.1605 12.4076C36.7903 12.2949 36.4121 12.2466 36.0259 12.2547C35.9776 12.2225 35.9213 12.2145 35.865 12.2466C35.8408 12.2466 35.8086 12.2466 35.7845 12.2386C35.6879 12.1662 35.5753 12.1823 35.4626 12.1903C35.3821 12.1903 35.3017 12.1903 35.2132 12.1823C34.0624 12.0294 32.9037 12.1179 31.753 12.1823C31.3506 12.2466 30.9322 12.1823 30.5379 12.3432C30.1114 12.303 29.701 12.4237 29.2987 12.5283C28.7756 12.6651 28.2204 12.6812 27.7134 12.8904C27.287 12.9226 26.8927 13.0674 26.5064 13.2203C26.3374 13.2123 26.2006 13.2847 26.0558 13.3491C26.0719 13.3571 26.088 13.3732 26.096 13.3813C26.0799 13.3732 26.0638 13.3571 26.0558 13.3491C25.7902 13.3974 25.5408 13.4939 25.2994 13.6146C24.3579 13.9043 23.4808 14.3147 22.6278 14.7975C22.5152 14.8458 22.3945 14.8699 22.322 14.9745C22.2174 15.0309 22.1048 15.0792 22.0002 15.1355C21.9358 15.1435 21.8714 15.1435 21.8392 15.224C21.6541 15.3125 21.4691 15.401 21.284 15.4976C21.0506 15.731 20.7288 15.8356 20.4713 16.0287C20.1896 16.2218 19.8999 16.4149 19.6183 16.6081C19.5378 16.6644 19.4734 16.761 19.4171 16.592C19.2481 16.6081 19.0711 16.6161 19.0228 16.8334C18.8055 16.8173 18.6848 16.9138 18.7009 17.1472C18.6768 17.1472 18.6527 17.1633 18.6285 17.1633C18.5963 17.1955 18.5722 17.2196 18.54 17.2518C18.5159 17.276 18.4837 17.3001 18.4595 17.3242C18.2986 17.3323 18.2181 17.4128 18.2181 17.5737C18.1698 17.6381 18.1135 17.6944 18.0652 17.7588C17.4698 18.3945 16.7536 18.9095 16.1984 19.5935C16.134 19.6739 15.9489 19.7544 16.0535 19.8671C16.2144 20.0441 16.2949 19.8107 16.3432 19.7303C16.6248 19.2957 17.1157 19.0865 17.4456 18.6922C17.6066 18.5071 17.7997 18.2255 18.1377 18.2818C18.1457 18.4991 18.0974 18.7244 18.2101 18.9336C18.2423 18.998 18.3147 19.0785 18.2342 19.1428C18.1457 19.2153 18.0652 19.1428 17.9848 19.0946C17.8238 19.0221 17.679 19.0946 17.5341 19.1589C17.7514 19.4084 17.3812 19.4808 17.3732 19.6578C17.3571 19.682 17.341 19.7061 17.3249 19.7303C17.1398 20.0441 16.7938 20.1728 16.5283 20.3981C16.3432 20.551 16.1662 20.7281 15.965 20.8568C15.8443 20.9373 15.9167 21.0097 15.9087 21.0902H15.8765C15.8765 21.0902 15.8523 21.1224 15.8362 21.1385C15.8523 21.1224 15.8604 21.1063 15.8765 21.0902C15.7558 21.0017 15.6914 21.0499 15.6753 21.1867C15.6029 21.1867 15.5305 21.1867 15.458 21.1867C15.5063 21.3316 15.3856 21.3638 15.2971 21.4281C15.2488 21.5328 15.1683 21.5971 15.0557 21.6293C15.0557 21.7339 15.0074 21.7903 14.8948 21.75C14.8948 21.7903 14.8948 21.8305 14.8948 21.8707C14.7338 21.9029 14.5729 21.9432 14.4119 21.9834C14.3878 21.9271 14.3556 21.8949 14.3315 21.9834C14.2832 21.9834 14.2349 21.9834 14.1947 21.9914C14.1223 22.0558 13.8487 21.9914 14.0418 22.2328C14.0337 22.2811 14.0257 22.3294 14.0176 22.3857C13.913 22.4501 13.8084 22.5225 13.7682 22.6513V22.6754C13.6394 22.7237 13.6314 22.8364 13.6233 22.949C13.4624 23.1341 13.2934 23.3272 13.1325 23.5123C13.0681 23.5445 13.044 23.6089 13.044 23.6732C12.883 23.7215 12.706 23.7617 12.8026 24.0032C12.7301 24.1158 12.6497 24.2204 12.5773 24.3331C12.1025 24.4055 12.0703 24.7837 11.9255 25.1539C11.6599 25.8298 11.3783 26.4977 11.1208 27.1817C11.0886 27.2219 11.0644 27.2702 11.0322 27.3104C10.8713 27.3748 10.8552 27.5116 10.8713 27.6564C10.6862 28.2439 10.4931 28.8232 10.308 29.4107C10.1471 29.4992 10.2517 29.7325 10.0827 29.8211C9.8574 29.8211 9.7367 29.9579 9.7367 30.1751C9.7367 30.5211 9.57576 30.835 9.53553 31.1729C9.49529 31.4626 9.43092 31.8247 9.19756 32.042C8.90787 32.3075 8.98029 32.5087 9.19756 32.7501C9.15732 33.1364 9.18146 33.5307 8.93201 33.8686C8.83545 33.9974 8.86764 34.1744 8.85959 34.3273C8.85154 34.3273 8.8274 34.3434 8.8274 34.3515C8.8274 34.3756 8.84349 34.3917 8.85959 34.4078C8.83545 34.4883 8.81131 34.5687 8.78717 34.6492C8.20779 35.2768 8.4331 36.0252 8.46529 36.7414C8.4331 36.7655 8.40091 36.7977 8.36873 36.8218C7.92615 37.0874 8.23193 37.4093 8.30435 37.7151C8.30435 37.7633 8.30435 37.8197 8.30435 37.8679C8.13537 37.9001 8.09513 37.9806 8.22388 38.1094C8.22388 38.1657 8.22388 38.214 8.22388 38.2703C8.13537 38.2864 8.02271 38.2381 8.01466 38.4151C8.01466 38.6244 8.07904 38.8094 8.14341 38.9945C8.14341 39.0991 8.14341 39.2118 8.14341 39.3164C7.98248 39.4773 8.02271 39.7187 7.91005 39.9038C7.72498 40.2096 7.7974 40.459 8.0549 40.6844L8.18365 40.4993C8.14341 40.5637 8.09513 40.62 8.0549 40.6844C8.07904 41.304 8.09513 41.9236 8.11927 42.5432C7.82959 42.8409 7.83763 43.018 8.15146 43.3559C8.15146 43.3801 8.15146 43.4042 8.15146 43.4203C8.15146 43.7019 7.98248 44.0077 8.28826 44.233C8.28826 44.2894 8.28826 44.3457 8.29631 44.402C8.26412 44.4423 8.22388 44.4825 8.20779 44.5308C7.97443 45.1906 8.35263 45.7539 8.48138 46.3574C8.48138 46.3816 8.57795 46.3977 8.62623 46.4137C8.64232 46.462 8.65842 46.5184 8.66646 46.5666C8.5699 46.5827 8.47334 46.623 8.48138 46.7356C8.48138 47.0253 8.4331 47.315 8.53771 47.6047C8.65842 47.9266 8.83545 48.2323 8.92396 48.5462C9.2056 49.4957 9.3424 50.4935 9.80107 51.3948C9.97006 51.7327 9.86545 52.2799 10.469 52.296C10.646 52.6903 10.9115 53.0363 11.0564 53.4467C11.1127 53.6077 11.1771 53.841 11.4426 53.833C11.2254 53.1088 11.0081 52.3765 10.7908 51.6523C10.5736 50.8073 10.4529 49.9383 10.3241 49.0773C10.3322 48.8359 10.3483 48.5864 10.2758 48.353C10.2356 48.1841 10.3322 47.9829 10.1712 47.83C10.2839 47.838 10.2437 47.7656 10.2356 47.7093C10.2356 47.146 10.2356 46.5827 10.2356 46.0114C10.2356 45.7941 10.2356 45.5849 10.2437 45.3676C10.2437 45.3435 10.2437 45.3113 10.2437 45.2872C10.2758 44.9653 10.3 44.6434 10.3322 44.3216C10.3965 44.2733 10.3805 44.2169 10.3563 44.1606C10.4287 43.8951 10.4126 43.6215 10.3885 43.3559C10.3885 43.2996 10.4046 43.2513 10.4046 43.195C10.5333 42.5754 10.6621 41.9638 10.7908 41.3442C10.815 41.2074 10.8391 41.0706 10.8633 40.9338C10.8633 40.8855 10.8794 40.8292 10.8794 40.7809C11.2334 39.6302 11.5472 38.4715 11.9898 37.3529C12.014 37.2886 11.9898 37.2322 11.9415 37.184L11.9576 37.1679C12.1347 37.1679 12.1186 37.015 12.1588 36.9104C12.2312 36.846 12.2473 36.7575 12.2554 36.669C12.2715 36.6448 12.2876 36.6207 12.2956 36.5965C12.36 36.4356 12.4244 36.2747 12.4968 36.1137C12.5612 36.0413 12.6336 35.9689 12.537 35.8723C12.6738 35.8884 12.698 35.7758 12.7382 35.6872C13.4061 34.3193 14.1625 33.0157 15.0718 31.8006L15.104 31.7604ZM20.7529 21.6213C20.6644 21.7742 20.5678 21.8064 20.431 21.8064C20.4793 21.6293 20.6 21.6374 20.7529 21.6213ZM20.3264 21.7983C20.3103 21.9512 20.2218 21.9512 20.093 21.9351C20.1655 21.8385 20.2298 21.7983 20.3264 21.7983ZM19.8034 22.0397C19.8034 22.0397 19.8919 22.0397 19.8677 22.1121C19.8597 22.1282 19.8436 22.1685 19.8275 22.2007C19.7953 22.1685 19.747 22.1363 19.7309 22.096C19.7148 22.0478 19.7712 22.0397 19.8034 22.0397ZM23.4888 18.3381C23.4888 18.2899 23.4888 18.2496 23.4647 18.2174C23.4808 18.2496 23.4888 18.2899 23.4888 18.3381ZM18.3549 20.543C18.3147 20.5832 18.2744 20.6154 18.2423 20.6235C18.2744 20.6154 18.3147 20.5913 18.3549 20.543ZM17.518 21.3155C17.3088 21.6535 16.9789 21.8064 16.6329 21.9512C16.8341 21.6132 17.172 21.4523 17.518 21.3155ZM8.23998 40.4269C8.20779 40.3705 8.19974 40.3142 8.19974 40.2579C8.19974 40.3142 8.20779 40.3786 8.23998 40.4269ZM9.4631 34.5446C9.4631 34.5526 9.46311 34.5607 9.47115 34.5768C9.47115 34.5687 9.47115 34.5607 9.4631 34.5446ZM9.37459 34.609C9.37459 34.609 9.43092 34.5607 9.45506 34.5365C9.43092 34.5607 9.39873 34.5848 9.37459 34.609ZM9.29412 40.0165C9.24584 40.0165 9.2056 40.0084 9.16537 39.9682C9.19756 40.0004 9.24584 40.0165 9.29412 40.0165ZM9.24584 33.7801C9.18146 33.8767 9.13318 34.0054 9.14123 34.1342C9.14123 34.0054 9.18146 33.8767 9.24584 33.7801ZM8.71474 36.5483C8.65842 36.5563 8.59404 36.5643 8.55381 36.5965C8.60209 36.5643 8.65842 36.5643 8.71474 36.5483ZM8.56185 45.1021C8.52162 45.1584 8.49748 45.2067 8.48943 45.263C8.50552 45.2067 8.52967 45.1584 8.56185 45.1021ZM8.88373 42.9133C8.79521 42.9294 8.74693 42.9616 8.71474 43.018C8.74693 42.9697 8.79521 42.9294 8.88373 42.9133ZM8.80326 39.5015C8.75498 39.8314 8.69865 40.1694 8.65037 40.4993C8.56185 40.628 8.56185 40.7648 8.5699 40.9097C8.5699 40.9097 8.49748 40.8453 8.45724 40.8212C8.51357 40.3625 8.53771 39.8958 8.81131 39.5015C8.77107 39.3647 8.77912 39.2279 8.89178 39.1233C8.91592 39.1554 8.9481 39.1876 8.97224 39.2198C8.9481 39.2762 8.93201 39.3325 8.90787 39.3808C8.87568 39.421 8.84349 39.4612 8.81131 39.5015H8.80326ZM9.03662 47.8219C9.06881 47.7817 9.09295 47.7817 9.11709 47.8219C9.10099 47.7817 9.07685 47.7817 9.03662 47.8219ZM8.98834 46.8724C9.05271 46.8966 9.10904 46.9368 9.17342 46.9529C9.10904 46.9287 9.05271 46.8966 8.98834 46.8724ZM9.51943 41.7868C9.39068 42.004 9.37459 42.2535 9.28607 42.4869C9.2056 42.4547 9.12514 42.4225 9.04467 42.3903C9.10099 42.1328 9.51943 42.0201 9.31021 41.6661C9.36654 41.65 9.43092 41.6098 9.48725 41.6178C9.57576 41.6419 9.54357 41.7385 9.51943 41.7787V41.7868ZM10.1551 43.4203C9.9942 43.533 9.89764 43.4605 9.80912 43.372C9.89764 43.4605 9.9942 43.541 10.1551 43.4203C10.1793 43.3801 10.2115 43.3559 10.2437 43.3398C10.2034 43.3479 10.1793 43.372 10.1551 43.4203ZM10.3885 30.8108C10.3885 30.8108 10.3724 30.8832 10.3644 30.9235C10.3402 30.9879 10.3241 31.0281 10.2678 31.0764C10.3161 31.0281 10.3402 30.9959 10.3644 30.9235C10.3724 30.8832 10.3805 30.8511 10.3885 30.8108ZM15.4017 30.6016C15.3615 30.6579 15.3293 30.7062 15.281 30.7464C15.3293 30.7143 15.3615 30.6579 15.4017 30.6016ZM14.428 22.2972C14.4763 22.3133 14.4924 22.3294 14.4844 22.3374C14.4844 22.3214 14.4683 22.3053 14.428 22.2972C14.3878 22.2972 14.3395 22.2811 14.2993 22.2731C14.3395 22.2731 14.3878 22.2892 14.428 22.2972ZM13.2532 26.5621C13.2532 26.5621 13.1808 26.6103 13.1486 26.6506C13.1808 26.6103 13.213 26.5782 13.2532 26.5621ZM12.8911 27.8415C12.9394 27.7691 13.0037 27.6967 13.052 27.6162L13.6716 26.9886C13.7843 26.9886 13.8004 26.9161 13.8004 26.8276C14.2188 26.4575 14.6533 26.1034 15.0557 25.701C15.4017 25.355 15.796 25.0653 16.1903 24.7837C16.1903 24.7435 16.1903 24.7032 16.1581 24.6871C16.2466 24.7032 16.3432 24.6228 16.4156 24.7193C16.3673 24.7596 16.3191 24.8078 16.2708 24.8481C15.5546 25.4999 14.8304 26.1597 14.1142 26.8115C14.0096 26.9161 13.905 27.0288 13.7923 27.1334C13.6636 27.2219 13.5348 27.3024 13.4624 27.4553C13.4383 27.4794 13.4061 27.5036 13.3819 27.5277C13.3498 27.5518 13.3176 27.584 13.2934 27.6082C13.1888 27.7128 13.0842 27.8254 12.9796 27.93C12.9313 27.9139 12.7784 28.0025 12.8911 27.8335V27.8415ZM12.1749 26.2804C12.537 26.7471 11.9657 26.5782 11.8933 26.7471C11.9094 26.5379 12.0783 26.4414 12.1749 26.2804ZM10.6299 39.3083C10.5253 39.2198 10.5736 39.1394 10.5736 39.0669C10.5977 39.0267 10.646 38.9784 10.646 38.9462C10.6219 38.6968 10.8311 38.6324 10.9598 38.4956C10.9598 38.8175 10.7426 39.0347 10.6299 39.3083ZM10.9598 38.4956C10.9598 38.2622 11.0886 38.2542 11.2656 38.2944C11.1127 38.2864 11.0966 38.4795 10.9598 38.4956ZM11.7082 34.3997C11.7967 34.4802 11.668 34.5526 11.676 34.625C11.6358 34.625 11.5875 34.6411 11.5472 34.6492C11.5472 34.7136 11.5633 34.786 11.4748 34.794C11.4507 34.794 11.4105 34.794 11.4024 34.7779C11.3702 34.6894 11.4507 34.6492 11.4909 34.5929C11.5633 34.5285 11.5633 34.3997 11.684 34.3836C11.7162 34.3193 11.7565 34.2468 11.7887 34.1825C11.853 34.1583 11.9174 34.1181 11.9415 34.2308C11.8691 34.2951 11.853 34.4561 11.7001 34.3997H11.7082ZM12.0059 33.9008C12.0623 33.8767 12.1186 33.8445 12.1669 33.8204C12.1669 33.7962 12.1749 33.7721 12.183 33.7479C12.2554 33.7238 12.2715 33.6675 12.2715 33.6031C12.3278 33.587 12.4405 33.5468 12.4324 33.6111C12.4244 33.7479 12.3519 33.8767 12.1669 33.8284C12.2151 33.8928 12.191 33.9491 12.1347 33.9813C12.0703 34.0135 12.0059 33.9893 11.9979 33.9089L12.0059 33.9008ZM12.1749 35.3573C12.1749 35.3573 12.1347 35.3573 12.1186 35.3493C12.1347 35.3493 12.1508 35.3493 12.1749 35.3573C12.199 35.3815 12.2232 35.4136 12.2554 35.4378C12.2312 35.4136 12.2071 35.3815 12.1749 35.3573ZM12.2554 35.1481C12.3439 34.963 12.5048 34.8825 12.6658 34.8101C12.4968 34.8825 12.3439 34.963 12.2554 35.1481ZM15.0074 31.1005C14.943 31.189 14.8465 31.2534 14.766 31.3339C14.6694 31.4304 14.5729 31.5189 14.4844 31.6155C14.3556 31.696 14.3154 31.9052 14.1142 31.8891C14.0981 32.0822 13.9774 32.1788 13.7923 32.211C13.7923 32.4363 13.5912 32.5168 13.4624 32.6536C13.3819 32.6938 13.3498 32.8145 13.229 32.7823C13.2371 32.8065 13.229 32.8225 13.221 32.8386C13.1486 32.8386 13.1244 32.8708 13.1405 32.9352C13.1325 33.0881 13.0118 33.1766 12.9072 33.2651C12.7221 33.2732 12.706 33.6111 12.4565 33.4904C12.4726 33.4663 12.4807 33.4422 12.4968 33.418C12.5129 33.41 12.5209 33.3939 12.5209 33.3778L12.6094 33.2973C12.7462 33.1122 12.9957 33.0318 13.0842 32.8065C13.0681 32.7662 13.052 32.7421 13.0198 32.726C13.044 32.7421 13.0681 32.7662 13.0842 32.8065C13.1083 32.7823 13.1405 32.7582 13.1647 32.734C13.1888 32.726 13.213 32.7179 13.2371 32.7099C13.2371 32.6938 13.2451 32.6857 13.2532 32.6697C13.3337 32.565 13.4785 32.5248 13.5187 32.388C13.5429 32.38 13.559 32.3558 13.567 32.3317C13.6475 32.2915 13.7199 32.2593 13.8004 32.219C13.8406 32.05 13.9533 31.9454 14.1223 31.8972C14.0981 31.7925 14.2188 31.7684 14.243 31.696V31.6879C14.3073 31.6477 14.3717 31.5994 14.4361 31.5592C14.4522 31.527 14.4602 31.4948 14.4763 31.4707C14.5005 31.4465 14.5326 31.4224 14.5568 31.3982C14.6131 31.358 14.6694 31.3258 14.7177 31.2856C14.7499 31.2454 14.7821 31.2051 14.8143 31.1649L14.8465 31.1488C14.8465 31.1488 14.9108 31.0683 14.943 31.0281C14.9189 30.9959 14.8867 30.9718 14.8626 30.9396C14.8626 30.8591 14.8948 30.8189 14.943 30.7947C14.9028 30.8189 14.8706 30.8591 14.8626 30.9396L14.943 31.0281C14.9913 31.0442 15.1442 30.9637 15.0316 31.1166L15.0074 31.1005ZM14.9269 28.6704C14.4602 29.0646 14.0257 29.4992 13.6153 29.9498C13.5751 29.982 13.5429 30.0142 13.5026 30.0464C13.4865 30.0464 13.4785 30.0625 13.4785 30.0786C13.4302 30.1188 13.39 30.1671 13.3417 30.2073C13.3256 30.2073 13.3176 30.2234 13.3176 30.2395C13.221 30.3361 13.1244 30.4326 13.0279 30.5292C12.8106 30.7706 12.6014 31.012 12.3841 31.2534L12.36 31.2775C12.2715 31.3178 12.2151 31.3902 12.183 31.4787C12.0944 31.5029 12.0623 31.5753 12.0381 31.6477C11.9818 31.6557 11.9576 31.6879 11.9576 31.7443C11.9576 31.7604 11.9576 31.7765 11.9576 31.8006C11.9576 31.7845 11.9576 31.7604 11.9576 31.7443C11.8369 31.8086 11.7565 31.9132 11.7082 32.042C11.676 32.0661 11.6519 32.0822 11.6197 32.1064C11.5392 32.1305 11.5231 32.3075 11.3944 32.219C11.499 32.38 11.33 32.4041 11.2576 32.4202C11.1932 32.4363 11.2576 32.3478 11.2576 32.2995C11.3058 32.2673 11.3461 32.2351 11.3944 32.2029C12.2232 31.0522 13.1888 30.0303 14.2269 29.0727C14.5166 28.8071 14.7177 28.4933 14.9511 28.1956C15.1844 28.2841 15.281 27.9461 15.5144 28.0186C15.5063 27.8496 15.5787 27.7611 15.7558 27.7852C15.8041 27.5921 15.8845 27.4472 16.1179 27.5438C15.9972 27.6323 15.9328 27.7932 15.7558 27.7932C15.7316 27.93 15.6592 28.0186 15.5144 28.0346C15.3293 28.2519 15.1683 28.5014 14.9511 28.6864L14.9269 28.6704Z" fill="#111010"/>
        <path d="M8.98695 40.5283C8.98695 40.5283 8.92258 40.5202 8.89844 40.4961C8.89844 40.4961 8.95477 40.5283 8.98695 40.5283Z" fill="#111010"/>
        <path d="M22.7077 17.3398C22.7077 17.3398 22.6836 17.4123 22.6836 17.4525C22.6836 17.4123 22.6997 17.372 22.7077 17.3398Z" fill="#111010"/>
        <path d="M8.80371 43.1204C8.80371 43.1204 8.82822 43.0632 8.85273 43.0469C8.83639 43.0632 8.82005 43.0877 8.80371 43.1204Z" fill="#111010"/>
        <path d="M37.4823 12.5116L37.4746 12.5039L37.4823 12.5116Z" fill="#111010"/>
        <path d="M11.8207 33.9961C11.8207 33.9961 11.8207 34.0288 11.8125 34.0451C11.8125 34.0288 11.8125 34.0124 11.8207 33.9961Z" fill="#111010"/>
        <path d="M12.3193 32.6037C12.3193 32.6037 12.3357 32.571 12.3438 32.5547C12.3438 32.5547 12.3275 32.5874 12.3193 32.6037Z" fill="#111010"/>
        <path d="M13.4385 31.4614C13.4868 31.4614 13.535 31.4534 13.5833 31.4453C13.535 31.4453 13.4868 31.4534 13.4385 31.4614Z" fill="#111010"/>
        <path d="M23.3362 17.082C23.3362 17.1223 23.3362 17.1705 23.3281 17.2188C23.3281 17.1786 23.3281 17.1303 23.3362 17.082Z" fill="#111010"/>
        <path d="M21.7278 17.0345C21.7278 17.0345 21.687 16.9773 21.6543 16.9609C21.687 16.9773 21.7115 17.0018 21.7278 17.0345Z" fill="#111010"/>
        <path d="M19.9979 22.0245C19.9979 22.0245 19.9734 22.0082 19.957 22C19.957 22 19.9815 22.0163 19.9979 22.0245Z" fill="#111010"/>
        <path d="M16.2394 24.4062C16.2394 24.4062 16.2148 24.4389 16.2148 24.4634C16.2148 24.4471 16.2312 24.4226 16.2394 24.4062Z" fill="#111010"/>
        <path d="M15.8781 23.0714C15.8618 23.0714 15.8454 23.0469 15.8291 23.0469C15.8454 23.0469 15.8618 23.0632 15.8781 23.0714Z" fill="#111010"/>
        <path d="M15.4345 22.9219C15.4345 22.9219 15.3855 22.9546 15.3691 22.9546C15.3855 22.9546 15.4182 22.9382 15.4345 22.9219Z" fill="#111010"/>
        <path d="M14.9829 22.1172L14.9746 22.1338L14.9829 22.1172Z" fill="#111010"/>
        <path d="M13.2864 23.9766C13.2864 23.9766 13.2456 24.0092 13.2129 24.0092C13.2456 24.0092 13.2701 23.9929 13.2864 23.9766Z" fill="#111010"/>
        <path d="M10.3555 30.4336L10.3638 30.4502C10.3638 30.4502 10.3638 30.4336 10.3555 30.4336Z" fill="#111010"/>
        <path d="M9.01367 44.7099C9.01367 44.7099 9.03001 44.669 9.03818 44.6445C9.03001 44.669 9.02184 44.6854 9.01367 44.7099Z" fill="#111010"/>
        <path d="M8.99614 43.0586C8.99614 43.0586 8.97194 43.0828 8.96387 43.0909C8.96387 43.0909 8.98807 43.0667 8.99614 43.0586Z" fill="#111010"/>
        <path d="M8.61031 38.2211C8.61031 38.2211 8.59422 38.1648 8.57812 38.1406C8.57812 38.1406 8.60227 38.197 8.61031 38.2211Z" fill="#111010"/>
        <path d="M8.46575 39.8296C8.46575 39.8296 8.41673 39.8132 8.40039 39.7969C8.4249 39.805 8.44941 39.8132 8.46575 39.8296Z" fill="#111010"/>
        <path d="M9.3025 47.6687C9.23008 47.6687 9.1657 47.6606 9.10938 47.6445C9.1657 47.6526 9.23008 47.6606 9.3025 47.6687Z" fill="#111010"/>
        <path d="M9.29367 47.9062C9.29367 47.9062 9.27758 47.9062 9.26953 47.9062C9.27758 47.9062 9.28562 47.9062 9.29367 47.9062C9.31781 47.9062 9.34195 47.9143 9.35805 47.9223C9.34195 47.9223 9.32586 47.9062 9.29367 47.9062Z" fill="#111010"/>
        <path d="M9.30176 46.2227C9.30176 46.2227 9.38223 46.2388 9.41441 46.2468C9.38223 46.2307 9.34199 46.2307 9.30176 46.2227Z" fill="#111010"/>
        <path d="M9.56738 45.7955C9.56738 45.7955 9.58372 45.7546 9.60823 45.7383C9.58372 45.7546 9.57555 45.771 9.56738 45.7955Z" fill="#111010"/>
        <path d="M9.86535 41.3039C9.86535 41.3039 9.79293 41.3039 9.76074 41.32C9.79293 41.3039 9.82512 41.2959 9.86535 41.3039Z" fill="#111010"/>
        <path d="M72.8157 40.397C72.8157 40.397 72.7996 40.3729 72.7996 40.3649C72.8077 40.3488 72.8238 40.3246 72.8399 40.3085C73.1135 40.051 72.9767 39.8177 72.7916 39.5924C72.7916 39.5119 72.7916 39.4234 72.7916 39.3429C72.7996 39.3429 72.8157 39.3268 72.8157 39.3188C72.8157 39.3027 72.8077 39.2866 72.7996 39.2624C72.7996 39.2302 72.7916 39.1981 72.7835 39.1739C72.7835 39.1498 72.7835 39.1337 72.7835 39.1095C72.7835 39.0452 72.7835 38.9888 72.7835 38.9245C72.7996 38.7394 72.9686 38.5463 72.7675 38.3692C72.7594 38.1198 72.7353 37.8703 72.7433 37.6209C72.7433 37.4036 72.8399 37.1702 72.6065 37.0093C72.8721 36.6633 72.6628 36.3173 72.6065 35.9713C72.6065 35.8747 72.6307 35.7781 72.518 35.7138C72.5985 35.3275 72.4053 34.9734 72.3651 34.6033C72.341 34.547 72.3168 34.4906 72.2927 34.4343C72.2525 34.4343 72.2122 34.4343 72.18 34.4423C72.2203 34.4423 72.2605 34.4343 72.2927 34.4343C72.3007 34.0963 72.172 33.7825 72.1318 33.4606C72.1478 33.0663 72.011 32.6881 71.8501 32.3502C71.7616 32.1731 71.995 31.9478 71.7294 31.8512C71.7053 31.8271 71.6731 31.7949 71.6489 31.7708C71.5765 31.6501 71.6892 31.4811 71.5524 31.3684C71.5202 31.1109 71.488 30.8534 71.319 30.6362C71.319 30.5557 71.319 30.4833 71.311 30.4028C71.2627 30.3223 71.2144 30.2338 71.1661 30.1534C71.1661 30.0487 71.1098 29.9844 71.0052 29.9602V29.928C70.9489 29.928 70.9006 29.9119 70.8442 29.9039C70.9006 29.9039 70.9489 29.92 71.0052 29.928C71.0052 29.8073 71.0213 29.6786 70.9006 29.5901C70.8442 29.3808 70.796 29.1716 70.7396 28.9624C70.6994 28.9061 70.6672 28.8417 70.627 28.7854C70.4821 28.4635 70.3856 28.1175 70.1844 27.8198C70.1603 27.522 70.0154 27.2645 69.8867 27.0151C69.6453 26.5403 69.4682 26.0172 69.0578 25.639C68.921 25.1482 68.567 24.77 68.3578 24.3113C68.3256 24.2469 68.2371 24.2711 68.1888 24.3354C68.1244 24.4159 68.0278 24.424 67.9393 24.432C68.0037 24.593 68.0761 24.7539 68.1405 24.9068C68.1566 24.939 68.1727 24.9631 68.1888 24.9953C68.1968 25.116 68.2451 25.2287 68.3256 25.3252C68.3256 25.4701 68.3899 25.5908 68.4704 25.7034C68.4704 25.7276 68.4704 25.7517 68.4946 25.7678L68.744 26.4518C68.7279 26.5805 68.8084 26.6771 68.8486 26.7898C68.9452 27.0794 69.0417 27.3772 69.1383 27.6669C69.1705 27.8037 69.2027 27.9405 69.2429 28.0773C69.7016 29.743 70.0396 31.4328 70.1522 33.1548C70.1522 33.179 70.1683 33.2031 70.1683 33.2273C70.1683 33.3319 70.1844 33.4365 70.1925 33.5491C70.1925 33.6055 70.1924 33.6537 70.2005 33.7101C70.2005 33.7664 70.2005 33.8147 70.2005 33.871C70.2005 33.8952 70.2005 33.9273 70.2005 33.9515C70.2005 34.0319 70.2005 34.1124 70.2005 34.1929C70.2005 34.2492 70.2005 34.2975 70.2005 34.3538C70.2005 34.6998 70.2005 35.0539 70.2005 35.3999V35.7218C70.1924 35.8264 70.1844 35.9391 70.1844 36.0437C70.1925 36.1724 70.0798 36.3092 70.2005 36.438C70.0557 36.615 70.1522 36.8242 70.1281 37.0173C70.0235 37.7979 69.951 38.5784 69.7901 39.3509C69.42 40.7592 69.0578 42.1674 68.567 43.5353C68.5428 43.5917 68.5187 43.648 68.5026 43.7043C68.4785 43.7606 68.4624 43.817 68.4382 43.8652C68.406 43.9457 68.3739 44.0262 68.3417 44.1067C68.2692 44.1388 68.2773 44.2113 68.2692 44.2676C68.2049 44.2998 68.2049 44.3722 68.1968 44.4285L68.1485 44.501C67.7542 45.2815 67.3599 46.054 66.9656 46.8346C66.7806 47.0599 66.6116 47.3013 66.5231 47.5829C66.4265 47.6553 66.3621 47.7519 66.3139 47.8646C66.1529 48.0577 65.992 48.2508 65.9115 48.4922C65.8874 48.5244 65.8552 48.5646 65.831 48.5968C65.7506 48.6531 65.6862 48.7336 65.6379 48.806C65.5816 48.9348 65.5253 49.0635 65.4689 49.1923C65.4206 49.3049 65.3643 49.4096 65.316 49.5222C65.2838 49.5866 65.2517 49.651 65.2275 49.7073C65.147 49.8682 65.0666 50.0292 64.9781 50.1982C64.9217 50.3752 64.8574 50.5603 64.793 50.7373C64.8574 50.6729 64.9298 50.6085 65.0424 50.6246C64.9861 50.5281 65.0988 50.512 65.131 50.4557C65.1631 50.4557 65.1953 50.4557 65.2275 50.4637C65.2275 50.4959 65.2356 50.52 65.2436 50.5522C65.1953 50.6166 65.131 50.6246 65.0585 50.6327C65.0585 50.8017 64.8493 50.8017 64.8091 50.9304C64.7769 50.9304 64.7528 50.9465 64.7206 50.9546C64.6401 51.1638 64.5596 51.373 64.4792 51.5822C64.4792 51.5822 64.4792 51.5983 64.4711 51.5983C64.3826 51.8156 64.2941 52.0248 64.1975 52.2421C64.1975 52.2421 64.1975 52.2421 64.1975 52.2501C64.117 52.4352 64.0285 52.6122 63.9481 52.7892C63.94 52.8134 63.9239 52.8375 63.9159 52.8536C63.8274 53.0307 63.7388 53.2077 63.6423 53.3847C63.6423 53.3847 63.6181 53.433 63.602 53.4571C63.4974 53.6503 63.3928 53.8353 63.2882 54.0285C63.2882 54.0285 63.2882 54.0285 63.2882 54.0365C63.1756 54.2216 63.0629 54.4067 62.9503 54.5917C62.8376 54.7768 62.7169 54.9619 62.5962 55.1389C62.4755 55.324 62.3467 55.5011 62.218 55.6781C62.3467 55.5976 62.4835 55.5171 62.6123 55.4367C62.4916 55.6781 62.2582 55.7827 62.0731 55.9436C62.0731 55.9436 62.0168 55.9839 61.9846 56C61.5581 56.5552 61.1075 57.0943 60.6167 57.6174C60.5845 57.6496 60.5603 57.6818 60.5281 57.7139C60.3752 57.8749 60.2224 58.0278 60.0695 58.1807C60.0695 58.1807 60.0453 58.2048 60.0292 58.2209C59.8602 58.3899 59.6832 58.5669 59.5062 58.7279C59.3452 58.8968 59.1843 59.0658 59.0234 59.2268C58.7739 59.4762 58.5245 59.7257 58.267 59.959C58.2187 60.0073 58.1704 60.0556 58.1141 60.0958C57.8646 60.3211 57.6152 60.5384 57.3577 60.7476C57.2933 60.804 57.2289 60.8522 57.1645 60.9005C56.384 61.5282 55.5632 62.0834 54.7022 62.5743C54.67 62.5904 54.6378 62.6145 54.6056 62.6306C54.5171 62.6789 54.4205 62.7352 54.332 62.7835C54.3159 62.7915 54.2918 62.7996 54.2757 62.8157C54.1148 62.9042 53.9538 62.9847 53.7929 63.0732C53.7285 63.1054 53.6641 63.1376 53.5998 63.1697C53.4791 63.2261 53.3584 63.2904 53.2457 63.3468C53.1411 63.3951 53.0445 63.4433 52.9399 63.4836C52.8514 63.5238 52.7709 63.564 52.6824 63.5962C52.6261 63.6204 52.5617 63.6445 52.5054 63.6686C52.1835 63.8054 51.8616 63.9342 51.5237 64.0549C51.3305 64.1273 51.1294 64.1917 50.9282 64.2561C50.8155 64.3124 50.7029 64.3687 50.5902 64.425C52.2962 64.6825 54.0263 64.8033 55.7644 64.6986C55.9012 64.6826 56.038 64.6665 56.1748 64.6504C56.3679 64.6986 56.5932 64.4653 56.7702 64.7147C56.6898 64.8596 56.3598 64.6745 56.384 64.9803C56.384 64.9803 56.3196 64.9964 56.2794 65.0044C56.2311 64.594 55.9173 64.932 55.7644 64.8274C54.6056 64.9964 53.463 64.8837 52.3123 64.7711L52.1433 64.763C51.5317 64.7469 50.9282 64.6665 50.3247 64.5619C49.5441 64.9401 48.7555 65.2619 47.9428 65.5355C47.9589 65.5758 47.975 65.6079 47.983 65.6482C47.983 65.6482 47.9508 65.5758 47.9428 65.5355C47.8865 65.5516 47.8301 65.5758 47.7658 65.5919C47.6451 65.6321 47.5244 65.6723 47.4037 65.7045C47.3312 65.7286 47.2588 65.7447 47.1864 65.7689C47.122 65.785 47.0576 65.8091 46.9852 65.8252C46.8162 65.8735 46.6473 65.9137 46.4863 65.962C46.4863 65.962 46.4783 65.962 46.4702 65.962C46.2851 66.0103 46.092 66.0505 45.9069 66.0908C45.8023 66.1149 45.6897 66.139 45.5851 66.1551C45.4402 66.1873 45.2954 66.2115 45.1505 66.2356C45.0781 66.2517 44.9976 66.2597 44.9252 66.2758C44.7965 66.3 44.6597 66.3161 44.5309 66.3402C44.5068 66.3402 44.4826 66.3402 44.4585 66.3483C44.2332 66.3804 44.0079 66.4046 43.7826 66.4287C43.7826 66.4287 43.7343 66.4287 43.7101 66.4287C43.4848 66.4529 43.2595 66.469 43.0342 66.4851C42.825 66.5012 42.6158 66.5092 42.4065 66.5172C42.3985 66.5172 42.3824 66.5172 42.3744 66.5172C42.2778 66.5172 42.1812 66.5172 42.0927 66.5172C41.9961 66.5172 41.8996 66.5172 41.803 66.5172C41.803 66.5172 41.7467 66.5172 41.7145 66.5172C41.6904 66.5172 41.6743 66.5172 41.6501 66.5172C41.5616 66.5172 41.4731 66.5172 41.3926 66.5172C41.3283 66.5172 41.2639 66.5172 41.1995 66.5172C41.1995 66.5172 41.1915 66.5172 41.1834 66.5172C41.1351 66.5172 41.0868 66.5172 41.0386 66.5172C41.0386 66.5494 41.0386 66.5816 41.0386 66.6219C41.0386 66.5897 41.0386 66.5494 41.0386 66.5172C40.942 66.5172 40.8374 66.5172 40.7408 66.5172C40.5638 66.5172 40.3948 66.5172 40.2178 66.5092C39.9361 66.5092 39.6545 66.5092 39.3729 66.4931C39.1878 66.4931 39.0108 66.477 38.8257 66.469C38.7613 66.469 38.6969 66.469 38.6325 66.4609C38.3992 66.4448 38.1658 66.4287 37.9325 66.4126C37.86 66.4126 37.7957 66.4046 37.7233 66.3965C37.5704 66.3804 37.4175 66.3643 37.2646 66.3483C37.1519 66.3322 37.0393 66.3241 36.9266 66.308C36.7576 66.2839 36.5886 66.2678 36.4197 66.2436C36.3231 66.2276 36.2346 66.2195 36.138 66.2034C35.9529 66.1793 35.7759 66.1471 35.5908 66.1149C35.5747 66.1149 35.5586 66.1149 35.5425 66.1069C35.285 66.0586 35.0275 66.0103 34.7781 65.962C34.7781 65.962 34.7539 65.962 34.7379 65.954C34.4804 65.8976 34.2309 65.8413 33.9814 65.785C34.4079 66.0827 34.8425 66.3563 35.3011 66.5977C35.5747 66.8633 35.9288 67.0081 36.2668 67.169C36.2989 67.2495 36.3714 67.2334 36.4357 67.2415C36.4679 67.33 36.5645 67.3058 36.6208 67.3461C36.653 67.3622 36.6932 67.3702 36.7254 67.3863C36.822 67.4426 36.9105 67.4909 37.0071 67.5472C37.0875 67.5794 37.168 67.6116 37.2404 67.6358C37.2887 67.7323 37.3772 67.7323 37.4658 67.7404C37.5221 67.7645 37.5865 67.7806 37.6428 67.8047C37.6911 67.9174 37.8037 67.9013 37.8922 67.9415C38.5279 68.2151 39.1556 68.4968 39.8154 68.6899C40.0488 68.7865 40.2661 68.9474 40.5477 68.9152C41.0305 69.0198 41.457 69.2693 41.9559 69.3417C42.8169 69.4705 43.6779 69.6555 44.539 69.7843C45.1103 69.8728 45.6897 69.8969 46.261 69.9452H46.3495C46.3978 69.9372 46.4461 69.9372 46.4944 69.9452C47.3876 69.9452 48.2727 69.9452 49.1659 69.9533C49.7131 69.8808 50.2603 69.7762 50.8075 69.744C51.2903 69.7119 51.757 69.5831 52.2237 69.4946C52.8916 69.3256 53.5676 69.1566 54.2355 68.9876C54.2918 68.9876 54.3481 68.9957 54.4045 69.0037C54.493 68.9715 54.5734 68.9474 54.662 68.9152C54.7987 68.9152 54.9436 68.9394 55.008 68.7704C55.1689 68.7865 55.3057 68.7543 55.4023 68.6094C55.6437 68.5772 55.8288 68.4324 56.0138 68.2876C56.207 68.5692 56.3116 68.3922 56.4162 68.2071C56.4725 68.2071 56.5208 68.191 56.5771 68.191C56.738 68.2554 57.5266 68.0622 57.6071 67.8933C57.7117 67.7001 57.8324 67.6116 58.0497 67.6358C58.1302 67.6438 58.2187 67.6358 58.2509 67.5392C58.3877 67.0564 58.8624 66.9759 59.2084 66.7828C59.482 66.6299 59.6591 66.477 59.7234 66.1793C60.0051 66.1793 60.1017 65.8976 60.3189 65.793C60.3752 65.7608 60.2626 65.7206 60.2063 65.7045C60.2063 65.6562 60.2063 65.6079 60.2143 65.5597C60.3431 65.5355 60.5925 65.616 60.5845 65.5919C60.4396 65.1815 61.0753 65.4148 61.0109 65.0608C60.9949 64.9803 61.2604 65.1573 61.3248 64.9722C61.357 64.9722 61.3811 64.9722 61.4133 64.9722C61.4133 64.9722 61.4374 64.9803 61.4455 64.9883C61.4374 64.9883 61.4213 64.9803 61.4133 64.9722C61.4294 64.7711 61.6869 64.763 61.7352 64.586C61.88 64.5538 61.9283 64.4572 61.9202 64.3204C62.0651 64.3446 62.1697 64.2882 62.2824 64.1917C62.6203 63.902 62.9905 63.6365 63.3043 63.3226C63.425 63.2019 63.6906 63.2019 63.6745 62.9444C63.8032 62.7915 63.7871 62.5179 63.9883 62.4536C64.286 62.357 64.4711 62.2122 64.5033 61.8822C64.5033 61.834 64.5918 61.7615 64.6401 61.7535C64.9217 61.7374 64.9942 61.504 65.1229 61.327C65.1471 61.3029 65.1792 61.2707 65.2034 61.2465C65.4448 61.1339 65.4528 60.8603 65.6057 60.6833C65.6057 60.6591 65.6057 60.6269 65.6057 60.6028C65.6057 60.5786 65.6057 60.5545 65.6057 60.5304C65.6621 60.5304 65.7103 60.5304 65.7667 60.5223C65.9276 60.5143 65.9276 60.4016 65.9276 60.2809C65.9276 60.2809 65.9839 60.2246 66.0081 60.2004C66.0081 60.1763 66.0161 60.1441 66.0242 60.12C66.0885 60.12 66.1368 60.0958 66.169 60.0314C66.169 59.9751 66.169 59.9268 66.169 59.8705C66.1931 59.8464 66.2253 59.8142 66.2495 59.79C66.3058 59.7659 66.3541 59.7337 66.4104 59.7096C66.676 59.6935 66.6518 59.4923 66.6599 59.3072C66.7564 59.3072 66.8128 59.2429 66.8208 59.1463C67.376 58.8968 67.714 58.5106 67.6255 57.8588C67.6496 57.8588 67.6738 57.8588 67.6979 57.8588C68.0278 57.7944 68.0198 57.545 68.0198 57.2955C68.5589 57.3196 68.4865 56.8851 68.5831 56.5632C68.736 56.2092 68.8245 55.7988 69.0659 55.5171C69.3958 55.1309 69.4763 54.6481 69.7338 54.2377C69.7821 54.1572 70.0315 54.1814 69.8625 53.9882C69.8947 53.9078 69.9269 53.8353 69.9591 53.7549C70.1764 53.5296 70.5224 53.3445 70.2649 52.9421C70.3534 52.7329 70.4499 52.5157 70.5465 52.3064C70.5707 52.2823 70.5867 52.2501 70.6109 52.226C70.9086 52.1053 70.8121 51.8236 70.8684 51.6064C71.1259 51.5017 70.9891 51.2764 71.0293 51.1074C71.0052 51.0592 70.973 51.0028 70.9489 50.9546C71.0052 50.9224 71.0535 50.8982 71.1098 50.866C71.1339 50.8339 71.1661 50.8097 71.1903 50.7775C71.1903 50.7534 71.1903 50.7292 71.1983 50.7051C71.2225 50.6729 71.2385 50.6327 71.2627 50.6005C71.2949 50.4476 71.319 50.3028 71.3512 50.1499C71.5846 49.5705 71.7455 48.975 71.9145 48.3715C71.9145 48.2669 71.9306 48.1542 71.9386 48.0496C72.18 47.6875 72.1317 47.2449 72.2364 46.8426C72.3812 46.561 72.0593 46.1988 72.4053 45.9494C72.4939 45.716 72.5824 45.4746 72.4778 45.2252C72.5421 44.9274 72.5985 44.6377 72.6628 44.34C72.9203 44.1469 72.8157 43.9216 72.7272 43.6963C72.7916 43.2939 72.8238 42.8916 72.7996 42.4892C72.9203 42.3685 72.9847 42.1995 72.9525 42.0547C72.8962 41.7167 72.9767 41.4029 72.9928 41.081C73.0089 40.8396 73.2261 40.5338 72.9203 40.3085L72.8157 40.397ZM39.6545 67.0322C39.6143 67.0081 39.5821 66.9759 39.5901 66.9518C39.5901 66.9759 39.6143 67.0081 39.6545 67.0322ZM50.6144 66.0747C50.0189 65.9459 49.5522 65.793 48.9969 65.5677C49.3832 65.5919 50.2603 65.8654 50.6063 66.0666C50.5822 66.0425 50.55 66.0183 50.5259 65.9942C50.7834 66.0586 50.9362 66.0988 51.0891 66.1471C50.9121 66.2115 50.7834 66.2115 50.6144 66.0747ZM58.2106 64.3768C58.1463 64.3768 58.0738 64.3848 58.0095 64.3929C58.0738 64.3929 58.1463 64.3768 58.2106 64.3768C58.2348 64.3526 58.267 64.3446 58.2911 64.3446C58.267 64.3446 58.2428 64.3446 58.2106 64.3768ZM58.2267 61.4879C57.7037 61.5845 57.1806 61.6569 56.6656 61.7454C56.6656 61.7937 56.6656 61.842 56.6576 61.8903C56.6656 61.8501 56.6576 61.7937 56.6656 61.7454C56.5852 61.7293 56.4645 61.8259 56.4323 61.6811C56.4162 61.6006 56.5127 61.6006 56.5771 61.5925C57.253 61.5121 57.929 61.4316 58.6049 61.3511C58.5245 61.5282 58.3555 61.4638 58.2187 61.4879H58.2267ZM59.7476 66.0264C59.7476 66.0264 59.6913 66.0264 59.6591 66.0264C59.6913 66.0264 59.7154 66.0264 59.7476 66.0264ZM60.1741 63.7733C60.1821 63.7733 60.1982 63.7733 60.2063 63.7572C60.1982 63.7572 60.1902 63.7652 60.1741 63.7733ZM60.2867 65.3665C60.3189 65.3183 60.3511 65.27 60.3752 65.2217C60.3431 65.27 60.3109 65.3183 60.2867 65.3665ZM69.0096 44.0986C69.0096 44.0986 69.0498 44.1308 69.0498 44.1469C69.0498 44.1308 69.0337 44.1147 69.0096 44.0986C69.0096 44.0745 69.0096 44.0503 69.0015 44.0262C69.0015 44.0503 69.0015 44.0745 69.0096 44.0986ZM68.3014 46.5288C68.2934 46.4885 68.3417 46.4322 68.3175 46.392C68.3417 46.4322 68.2853 46.4805 68.3014 46.5288C68.3256 46.6334 68.3014 46.7219 68.2532 46.8104C68.2934 46.7219 68.3175 46.6334 68.2934 46.5288H68.3014ZM66.5874 47.7278C66.6357 47.7921 66.6599 47.8324 66.6679 47.8646C66.6679 47.8324 66.6357 47.7921 66.5874 47.7278ZM65.7264 49.1118C65.7667 49.144 65.823 49.1601 65.8632 49.1923C65.823 49.1601 65.7586 49.144 65.7264 49.1118ZM65.4689 49.4256C65.4689 49.4256 65.5092 49.4256 65.5333 49.4256C65.5092 49.4256 65.485 49.4256 65.4689 49.4256C65.4528 49.4739 65.4528 49.5544 65.4287 49.5946C65.4528 49.5544 65.4448 49.4739 65.4689 49.4256ZM62.1617 62.8881C62.1617 62.9766 62.0731 62.9605 62.0409 63.0088C61.7513 63.1215 61.526 63.3629 61.196 63.3709C61.188 63.4916 61.1156 63.4755 61.0351 63.4514C61.019 63.5479 60.9788 63.5962 60.8742 63.5318C60.9063 63.6204 60.8259 63.5962 60.7856 63.6043C60.7856 63.5801 60.7856 63.5479 60.7856 63.5238C60.8098 63.5238 60.8339 63.5238 60.8661 63.5238C60.8742 63.4192 60.9627 63.4433 61.027 63.4353C61.0512 63.3468 61.1236 63.3548 61.188 63.3548C61.188 63.3307 61.1799 63.2985 61.1719 63.2743C61.4455 63.1697 61.6386 62.88 61.9685 62.9364C61.9685 62.9122 61.9685 62.8881 61.9846 62.864C62.0409 62.864 62.0973 62.864 62.1536 62.872C62.1536 62.8479 62.1536 62.8157 62.1536 62.7915C62.2019 62.8076 62.2985 62.7432 62.2904 62.8398C62.2904 62.8881 62.218 62.8961 62.1617 62.88V62.8881ZM63.5377 62.7352C63.586 62.6467 63.4492 62.5179 63.4411 62.4214C63.3365 62.357 63.2721 62.2846 63.1836 62.357C63.2721 62.2846 63.3445 62.357 63.4411 62.4214C63.4492 62.526 63.586 62.6467 63.5377 62.7433V62.7352ZM63.4089 61.9949C63.4089 61.9949 63.425 61.9949 63.4331 61.9949C63.4733 61.9708 63.5055 61.9466 63.5377 61.9144C63.5055 61.9386 63.4653 61.9708 63.4331 61.9949C63.4331 61.9949 63.417 61.9949 63.4089 61.9949ZM64.0929 61.4477C64.0929 61.3994 64.0929 61.3511 64.109 61.3109C64.0929 61.3511 64.0849 61.3914 64.0929 61.4477ZM64.7367 59.5728C64.7367 59.5728 64.6884 59.5164 64.6642 59.5084C64.6884 59.5164 64.7125 59.5567 64.7367 59.5728C64.7367 59.5969 64.7528 59.6211 64.7608 59.6372C64.7608 59.613 64.7447 59.5889 64.7367 59.5728ZM63.4492 57.9956C63.1836 58.2048 62.9342 58.4221 62.6364 58.583C62.4272 58.6957 62.2904 58.9451 62.0088 58.9049C61.9283 58.8968 61.8076 58.9693 61.7754 58.8244C61.7754 58.7922 61.7835 58.752 61.7915 58.7118C61.9283 59.0497 62.0249 58.7279 62.1214 58.6876C62.2904 58.6152 62.4513 58.5186 62.6123 58.4221C62.7571 58.3336 62.8939 58.2209 63.0307 58.1243C63.1595 58.0358 63.2641 57.899 63.4331 57.8749C63.4733 57.6978 63.7067 57.73 63.763 57.5691C64.0929 57.3921 64.3665 57.1426 64.6481 56.9093C64.7286 56.8368 64.8171 56.7725 64.8976 56.7C65.2034 56.5391 65.4367 56.2816 65.6942 56.0482C65.992 55.7907 66.2897 55.5413 66.6357 55.2516C66.4667 55.7666 64.4389 57.4806 63.4411 57.9956H63.4492ZM66.6679 57.9634C66.6679 57.8588 66.6679 57.7542 66.6679 57.6496C66.7967 57.73 66.8771 57.6979 66.9013 57.5369C66.9254 57.3679 67.0381 57.384 67.199 57.4323C66.9817 57.6013 66.9496 57.899 66.6599 57.9553L66.6679 57.9634ZM67.6899 55.0987C67.6899 55.0987 67.7623 55.0746 67.7945 55.0665C67.7945 55.0665 67.7945 55.0826 67.8025 55.0907C67.8025 55.0907 67.8025 55.1068 67.8106 55.1148C67.8106 55.1148 67.8106 55.1228 67.8106 55.1309C67.8106 55.1389 67.8106 55.147 67.8186 55.155C67.8186 55.155 67.8186 55.155 67.8186 55.147C67.8186 55.147 67.8186 55.155 67.8186 55.1631L67.883 55.316C67.7462 55.0987 67.6818 55.0826 67.6657 55.0987H67.6899ZM67.7864 53.6825C67.8025 53.6342 67.8106 53.5859 67.8106 53.5376C67.8106 53.5778 67.8106 53.6261 67.7864 53.6825ZM68.5187 49.6671C68.2692 50.2062 67.8428 50.6246 67.4646 51.0592C66.8288 51.7834 66.169 52.4835 65.4448 53.1272C65.2999 53.2238 65.2838 53.3928 65.2034 53.5296C64.5274 53.8756 64.0446 54.4791 63.4331 54.9136C63.1917 55.0826 62.9824 55.2918 62.741 55.4447C62.556 55.5654 62.5881 55.4206 62.6284 55.3079C62.8054 55.2677 62.902 55.1229 63.0388 55.0182C63.2882 54.809 63.5296 54.5918 63.7791 54.3825C63.7549 54.3745 63.7388 54.3584 63.7147 54.3423C63.7308 54.3584 63.7549 54.3664 63.7791 54.3825C63.9722 54.2457 64.1734 54.117 64.3182 53.9319C64.3987 53.9239 64.4228 53.8514 64.4631 53.7951C65.0907 53.1835 65.7264 52.58 66.3541 51.9685C66.4104 51.9121 66.5553 51.8478 66.4265 51.719L66.4506 51.7512H66.4828C66.5874 51.7592 66.6277 51.6949 66.6599 51.6144C66.7806 51.5098 66.9174 51.4052 66.9898 51.2523C66.9898 51.2523 67.0622 51.1799 67.0944 51.1396C67.1024 51.1235 67.1105 51.1155 67.1185 51.0994C67.1185 51.0994 67.1185 51.0833 67.1185 51.0753C67.1588 51.0431 67.199 51.0109 67.2473 50.9707C67.6416 50.6166 67.9393 50.1821 68.2934 49.7878C68.3497 49.7234 68.3819 49.5866 68.5187 49.6751C68.5589 49.4015 68.8486 49.0314 69.082 48.9509C68.9532 49.2406 68.7601 49.482 68.5187 49.6751V49.6671ZM69.2429 43.5353C69.2429 43.5353 69.2429 43.5917 69.2429 43.6158C69.2429 43.6802 69.2268 43.7285 69.2027 43.7687C69.2268 43.7285 69.251 43.6721 69.2429 43.6158C69.2429 43.5917 69.2429 43.5595 69.2429 43.5353C69.2429 43.487 69.2429 43.4227 69.3234 43.4549C69.3234 43.5112 69.2992 43.5353 69.2349 43.5273L69.2429 43.5353ZM69.3153 43.2939C69.2671 43.2859 69.2107 43.2778 69.2027 43.2135C69.2027 43.2054 69.2027 43.1893 69.2188 43.1813C69.2831 43.1491 69.3073 43.1974 69.3395 43.2456C69.3395 43.2698 69.3395 43.2859 69.3153 43.302V43.2939ZM69.4924 43.133C69.5004 43.0203 69.5326 42.9238 69.6533 42.8916C69.6533 43.0123 69.6533 43.1169 69.4924 43.133ZM69.7418 42.7467V42.7306C69.7499 42.7065 69.7579 42.6904 69.766 42.6663C69.7901 42.6904 69.8062 42.7065 69.8303 42.7306C69.8062 42.7628 69.7821 42.7628 69.7499 42.7467H69.7418ZM69.7338 42.3202C69.7338 42.1915 69.6292 42.1754 69.5406 42.1432C69.6292 42.1754 69.7257 42.1915 69.7338 42.3202C69.7821 42.3363 69.8303 42.3605 69.8625 42.3363C69.8303 42.3524 69.7821 42.3363 69.7338 42.3202ZM70.112 28.6727C70.112 28.6727 70.2085 28.6727 70.3132 28.6325C70.2085 28.6727 70.1442 28.6808 70.112 28.6727ZM70.0637 42.2478C70.0637 42.2478 70.0637 42.2478 70.0557 42.2398C70.0557 42.2398 70.0557 42.2478 70.0557 42.2559C70.0557 42.2559 70.0557 42.3042 70.0476 42.3283C69.9913 42.3283 69.9671 42.3042 69.9591 42.2559C69.9913 42.2156 70.0154 42.2156 70.0396 42.2559C69.9671 42.0708 70.1764 41.9823 70.1925 41.8294C70.2649 41.7731 70.2568 41.6524 70.3614 41.6282C70.3614 41.8938 70.2085 42.0869 70.0476 42.272L70.0637 42.2478ZM70.9569 35.1183C71.0615 34.9252 71.0937 34.724 71.0937 34.5148C71.1017 34.3458 71.2144 34.2009 71.1742 34.0239C71.2064 33.9434 71.2305 33.863 71.2627 33.7905C71.2627 33.7262 71.2385 33.6457 71.3432 33.6296C71.2707 34.2251 71.1983 34.8205 71.0213 35.3919C70.8764 35.3355 71.0052 35.2068 70.9569 35.1263C70.9328 35.0941 70.8845 35.0459 70.8442 35.0217C70.8764 35.0459 70.9328 35.0941 70.9569 35.1263V35.1183ZM71.1983 36.438C71.1983 36.438 71.142 36.3897 71.1098 36.3655C71.0374 36.269 71.0052 36.1644 70.9971 36.0598C71.0052 36.1644 71.0374 36.2609 71.1098 36.3575C71.142 36.3816 71.1661 36.4058 71.1983 36.4299V36.438ZM70.5868 50.3913C70.6833 50.3671 70.7396 50.3269 70.6189 50.2303C70.7396 50.3269 70.6833 50.3591 70.5868 50.3913ZM70.6833 43.8009C70.6833 43.8009 70.7075 43.7767 70.7235 43.7687C70.7075 43.7767 70.6994 43.7928 70.6833 43.8009ZM71.5765 48.1864C71.2305 48.7256 71.0696 49.3452 70.7557 49.9246C70.7155 49.6671 70.7155 49.6671 70.9167 49.2406C71.0213 49.0153 71.1098 48.7739 71.2305 48.5566C71.3271 48.3876 71.1983 48.0979 71.496 48.0496C71.5202 48.0979 71.5443 48.1381 71.5604 48.1864H71.5765ZM72.2444 42.5777C72.2283 42.6582 72.2203 42.7628 72.1076 42.7065C72.0432 42.6743 71.9628 42.5375 71.9708 42.5295C72.2927 42.2237 72.18 41.7811 72.3088 41.419C72.3088 41.4029 72.349 41.3949 72.4295 41.3546C72.4053 41.8052 72.341 42.1915 72.2444 42.5777Z" fill="#111010"/>
        <path d="M66.4121 59.1385C66.4121 59.1385 66.4611 59.114 66.4856 59.0977C66.4856 59.0977 66.4366 59.1222 66.4121 59.1385Z" fill="#111010"/>
        <path d="M66.3223 53.8086C66.3223 53.8086 66.3303 53.8891 66.3303 53.9293C66.3303 53.8891 66.3223 53.8488 66.3223 53.8086Z" fill="#111010"/>
        <path d="M67.2962 54.9846C67.2962 54.9846 67.2158 54.9766 67.1836 54.9766C67.2158 54.9766 67.256 54.9766 67.2962 54.9846Z" fill="#111010"/>
        <path d="M67.1523 54.413C67.1523 54.413 67.1932 54.3722 67.2095 54.3477C67.1932 54.3722 67.1769 54.3885 67.1523 54.413Z" fill="#111010"/>
        <path d="M39.6398 67.5119C39.6398 67.5119 39.6241 67.4961 39.6162 67.4883C39.6241 67.4961 39.6319 67.504 39.6398 67.5119Z" fill="#111010"/>
        <path d="M44.6514 67.4766C44.6755 67.557 44.6996 67.6295 44.7318 67.7099C44.7077 67.6295 44.6836 67.557 44.6514 67.4766Z" fill="#111010"/>
        <path d="M59.4824 64.3359C59.4824 64.3359 59.4905 64.4003 59.5066 64.4245C59.4905 64.4003 59.4824 64.3681 59.4824 64.3359Z" fill="#111010"/>
        <path d="M59.338 65.3555C59.338 65.3555 59.2898 65.4198 59.2656 65.444C59.2978 65.4198 59.3139 65.3796 59.338 65.3555Z" fill="#111010"/>
        <path d="M58.9912 63.6914C58.9912 63.6914 59.0402 63.7323 59.0566 63.7486C59.0321 63.7323 59.0076 63.7077 58.9912 63.6914Z" fill="#111010"/>
        <path d="M59.0732 63.7656C59.0732 63.7656 59.0732 63.7814 59.0811 63.7892C59.0811 63.7892 59.0732 63.7735 59.0732 63.7656Z" fill="#111010"/>
        <path d="M59.1602 65.4681C59.1602 65.4681 59.1765 65.419 59.1847 65.3945C59.1847 65.419 59.1683 65.4435 59.1602 65.4681Z" fill="#111010"/>
        <path d="M59.7157 65.6469C59.6836 65.6227 59.6594 65.5986 59.6514 65.5664C59.6594 65.5986 59.6755 65.6227 59.7157 65.6469Z" fill="#111010"/>
        <path d="M69.0098 44.1758C69.0098 44.1758 68.9937 44.1758 68.9775 44.1838C68.9775 44.1838 69.0017 44.1839 69.0098 44.1758Z" fill="#111010"/>
        <path d="M67.5381 48.0557C67.5381 48.0557 67.5381 48.0315 67.5462 48.0234C67.5462 48.0315 67.5462 48.0476 67.5381 48.0557Z" fill="#111010"/>
        <path d="M64.7132 59.2578L64.7296 59.2742C64.7296 59.2742 64.7132 59.3068 64.7051 59.3232C64.7132 59.3068 64.7214 59.2905 64.7296 59.2742C64.7296 59.2742 64.7296 59.2742 64.7132 59.2578Z" fill="#111010"/>
        <path d="M66.4104 59.5768C66.4104 59.5768 66.4104 59.5205 66.4023 59.4883C66.4023 59.5205 66.4023 59.5446 66.4104 59.5768Z" fill="#111010"/>
        <path d="M66.4922 59.4464C66.5085 59.4382 66.5249 59.43 66.5412 59.4219C66.5249 59.4219 66.5085 59.4301 66.4922 59.4464Z" fill="#111010"/>
        <path d="M64.335 56.2468C64.335 56.2468 64.3676 56.2386 64.3758 56.2305C64.3595 56.2305 64.3431 56.2386 64.335 56.2468Z" fill="#111010"/>
        <path d="M66.3301 53.9453C66.3301 53.9453 66.3059 53.9614 66.2979 53.9695C66.3059 53.9614 66.3221 53.9534 66.3301 53.9453Z" fill="#111010"/>
        <path d="M66.5068 54.4184C66.5068 54.4184 66.5712 54.4104 66.6034 54.4023C66.5712 54.4104 66.539 54.4184 66.5068 54.4184Z" fill="#111010"/>
        <path d="M67.0469 54.5088C67.0469 54.5088 67.0552 54.5005 67.0635 54.4922L67.0469 54.5088Z" fill="#111010"/>
        <path d="M67.7227 51.422C67.7227 51.422 67.7384 51.4063 67.7463 51.3984C67.7463 51.3984 67.7227 51.4142 67.7227 51.422Z" fill="#111010"/>
        <path d="M67.7787 53.6875C67.7546 53.7438 67.7304 53.7921 67.6982 53.8484C67.7224 53.7921 67.7465 53.7438 67.7787 53.6875Z" fill="#111010"/>
        <path d="M69.3244 48.0597C69.3244 48.0597 69.2917 48.0352 69.2754 48.0352C69.2917 48.0352 69.3081 48.0515 69.3244 48.0597Z" fill="#111010"/>
        <path d="M69.373 48.0469C69.373 48.0469 69.3894 48.0714 69.3894 48.0877C69.3894 48.0714 69.3894 48.055 69.373 48.0469Z" fill="#111010"/>
        <path d="M69.8467 50.8125C69.8467 50.8125 69.8712 50.8533 69.8794 50.8779C69.8712 50.8533 69.8548 50.8288 69.8467 50.8125Z" fill="#111010"/>
        <path d="M70.2159 50.9531C70.2159 50.9531 70.2002 50.9689 70.2002 50.9767C70.2002 50.9767 70.2159 50.961 70.2159 50.9531Z" fill="#111010"/>
        <path d="M70.4344 50.5508C70.4344 50.5508 70.4017 50.5753 70.3936 50.5835C70.4017 50.5671 70.4181 50.559 70.4344 50.5508Z" fill="#111010"/>
        <path d="M70.4746 51.0412C70.4746 51.0412 70.4909 51.0085 70.4991 50.9922C70.4991 50.9922 70.4746 51.0249 70.4746 51.0412Z" fill="#111010"/>
        <path d="M70.5792 41.2312C70.5792 41.2312 70.5792 41.2475 70.5792 41.2639C70.5792 41.2557 70.5792 41.2475 70.5792 41.2312C70.571 41.2312 70.5547 41.2148 70.5547 41.2148C70.5547 41.2148 70.571 41.223 70.5792 41.2312Z" fill="#111010"/>
        <path d="M70.6836 50.0245C70.6836 50.0245 70.6675 50.0083 70.6514 49.9922C70.6594 50.0003 70.6675 50.0083 70.6836 50.0245Z" fill="#111010"/>
        <path d="M71.8662 42.8459C71.8662 42.8459 71.8744 42.8296 71.8826 42.8132C71.8826 42.8132 71.8826 42.805 71.8744 42.7969C71.8744 42.7969 71.8744 42.805 71.8826 42.8132C71.8826 42.8214 71.8744 42.8296 71.8662 42.8459Z" fill="#111010"/>
        <path d="M47.6366 71.2538C47.2343 71.2538 46.8319 71.2538 46.4296 71.2538C46.3733 71.2538 46.3169 71.2538 46.2606 71.2538C44.7478 71.294 43.2672 71.0285 41.7865 70.779C41.1267 70.6664 40.4749 70.4411 39.8231 70.248C39.7346 70.1594 39.6139 70.1916 39.5012 70.1755C39.3966 70.0468 39.2035 70.1594 39.0908 70.0307C39.0345 70.0065 38.9782 69.9904 38.9218 69.9663C38.8575 69.9019 38.777 69.8697 38.6804 69.8858C38.6241 69.8617 38.5678 69.8376 38.5195 69.8134C38.5034 69.7973 38.4793 69.7893 38.4551 69.7893C37.9401 69.5801 37.4171 69.3789 36.9021 69.1697C36.8216 69.1375 36.7411 69.1053 36.6687 69.0731C36.54 69.0087 36.4112 68.9444 36.2825 68.88C36.1457 68.8156 36.0169 68.7512 35.8801 68.6788C35.5421 68.4535 35.1881 68.2523 34.7938 68.1397C34.7535 68.1316 34.7133 68.1236 34.6811 68.1155C34.657 67.9626 34.5282 67.9224 34.4156 67.8741C34.2868 67.7856 34.1742 67.6569 34.0132 67.6247C33.8362 67.4476 33.635 67.3028 33.4017 67.2062C33.0717 66.9568 32.7338 66.7154 32.4039 66.4659C31.9452 66.1279 31.5267 65.7256 31.0278 65.444C30.7784 65.1382 30.4646 64.8968 30.1507 64.6554C29.9576 64.5749 29.7645 64.4944 29.5633 64.4059C29.5311 64.3898 29.507 64.3818 29.4748 64.3657C29.2978 64.2852 29.1127 64.2047 28.9356 64.1243C28.6862 64.0116 28.4367 63.8909 28.1953 63.7622C27.9942 63.6575 27.7849 63.5529 27.5838 63.4483C27.5516 63.4322 27.5113 63.4081 27.4792 63.392C27.2458 63.2632 27.0124 63.1345 26.771 62.9977L23.6086 60.5595C24.019 61.34 24.5099 62.0804 24.9927 62.8207C25.9744 64.3013 27.1412 65.6451 28.2999 66.989C28.2919 67.0211 28.2758 67.0453 28.2677 67.0775C28.2114 67.1499 28.1712 67.0614 28.1229 67.0614C27.962 66.828 27.7849 66.6027 27.5596 66.4257C27.4067 66.2567 27.2538 66.0877 27.101 65.9107C27.0849 65.8543 27.0768 65.79 27.0044 65.7739C26.7308 65.4359 26.5135 65.0416 26.1353 64.7922L26.1192 64.7761C26.1917 64.7197 26.1514 64.6795 26.1031 64.6473C26.0549 64.591 26.0146 64.5347 25.9663 64.4783C25.9663 64.4542 25.9502 64.43 25.9261 64.4059C25.8859 64.3576 25.8537 64.3174 25.8134 64.2691H25.7813L25.7571 64.2933C25.8215 64.2208 25.7732 64.1806 25.7088 64.1484C25.5157 63.899 25.3306 63.6495 25.1375 63.4C25.1375 63.3759 25.1214 63.3598 25.1053 63.3437C25.0651 63.2874 25.0168 63.223 24.9766 63.1667C24.9605 63.0218 24.8559 62.9494 24.7593 62.8609C24.7352 62.8046 24.7352 62.7322 24.6627 62.708C24.1719 61.8792 23.673 61.0504 23.1821 60.2215C22.5947 59.7709 22.0073 59.3122 21.4198 58.8616C21.2348 58.6765 21.0577 58.4914 20.8888 58.3064C20.8405 58.2581 20.8002 58.2098 20.752 58.1615C20.7359 58.1454 20.7198 58.1293 20.7117 58.1132C20.5186 57.904 20.3335 57.7028 20.1565 57.4936C20.1565 57.4936 20.1565 57.4936 20.1565 57.4856C19.9634 57.2603 19.7702 57.035 19.5852 56.8016C19.4001 56.5682 19.215 56.3349 19.038 56.1015C19.1748 56.4475 19.2955 56.8016 19.3759 57.1637C19.4966 57.3166 19.5852 57.4856 19.6173 57.6868C19.7059 57.735 19.7059 57.8075 19.6978 57.896C19.899 58.1937 20.076 58.5075 20.1806 58.8616C20.3094 58.934 20.3416 59.0467 20.3416 59.1835C20.4462 59.1996 20.422 59.28 20.422 59.3444C20.5508 59.3766 20.5025 59.4732 20.5025 59.5536C20.422 59.5054 20.3577 59.449 20.414 59.3444C20.3094 59.3283 20.2772 59.28 20.3335 59.1835C20.1806 59.1271 20.1162 59.0225 20.1726 58.8616C20.1082 58.9421 20.068 58.8455 20.0197 58.8455C19.9955 58.7972 19.9714 58.7409 19.9473 58.6926C19.899 58.419 19.6254 58.2098 19.6817 57.896C19.553 57.8718 19.5208 57.8075 19.6012 57.6948C19.392 57.5821 19.3598 57.381 19.3598 57.1718C19.3357 57.1718 19.3035 57.1718 19.2794 57.1718C19.2472 57.0913 19.215 57.0108 19.1828 56.9303C19.1587 56.8096 19.1265 56.697 19.046 56.6004C18.9334 56.2625 18.7966 55.9406 18.6678 55.6107C18.5632 55.4578 18.4586 55.3049 18.354 55.152C18.3218 55.1037 18.2816 55.0474 18.2494 54.9991C18.2091 54.9428 18.1769 54.8864 18.1367 54.8382C18.0241 54.6692 17.9114 54.4921 17.7987 54.3232C17.7102 54.1864 17.6298 54.0496 17.5493 53.9128C17.5171 53.8484 17.4769 53.7921 17.4447 53.7357C17.3401 53.5587 17.2355 53.3897 17.1389 53.2127C17.1148 53.1724 17.0906 53.1322 17.0665 53.0839C16.9216 52.8184 16.7768 52.5609 16.64 52.2873V52.8828C16.5998 52.8828 16.5595 52.8828 16.5193 52.8828V52.0459C16.4791 51.9654 16.4388 51.8769 16.3986 51.7884C16.3262 51.6435 16.2618 51.5067 16.1974 51.3619C16.1411 51.2412 16.0848 51.1205 16.0365 51.0078C15.9882 50.9032 15.9399 50.7986 15.8997 50.694C15.8514 50.5894 15.8031 50.4767 15.7629 50.3721C15.6663 50.1468 15.5778 49.9215 15.4893 49.6962C15.4732 49.6479 15.4571 49.5996 15.433 49.5513C15.3605 49.3582 15.2881 49.1651 15.2237 48.972C15.1916 48.8915 15.1674 48.803 15.1352 48.7225C15.0789 48.5535 15.0226 48.3765 14.9662 48.1995C14.9421 48.119 14.918 48.0466 14.8938 47.9661C14.8133 47.7167 14.7409 47.4672 14.6685 47.2177L13.727 40.1848C13.727 40.0077 13.719 39.8388 13.719 39.6617C13.719 39.5571 13.719 39.4525 13.719 39.3398C13.5983 39.5813 13.5419 39.8468 13.4615 40.0963C11.667 46.1395 11.6268 52.0539 14.749 57.735C14.8777 57.9523 15.0145 58.1696 15.1433 58.3868C15.1433 58.4432 15.1594 58.4673 15.2076 58.4673C15.272 58.5236 15.2881 58.6524 15.4008 58.6121C15.3686 58.6363 15.3605 58.6685 15.3847 58.7168C15.5698 59.0064 15.7066 59.3283 15.948 59.5778C15.9721 59.6341 15.9882 59.6904 16.0123 59.7548C16.0123 59.8031 15.9962 59.8514 15.9962 59.8997C16.0445 60.0686 16.1652 60.1813 16.2859 60.302C16.3342 60.3583 16.3825 60.4146 16.4308 60.471C16.648 60.8089 16.8975 61.1147 17.2113 61.3722C17.2113 61.3964 17.2113 61.4205 17.2274 61.4447C17.2998 61.7343 17.4205 61.8631 17.6861 61.6056C17.6861 61.7424 17.5895 61.8792 17.7022 62.0079C17.7344 62.0804 17.7987 62.0964 17.8712 62.0964C17.847 62.193 17.9034 62.2735 17.9436 62.3459C18.0241 62.9011 18.6195 63.4966 19.1506 63.5449C19.1506 63.5208 19.1345 63.4966 19.1184 63.4805C19.1345 63.4966 19.1426 63.5208 19.1506 63.5449C19.1748 63.5932 19.207 63.6495 19.2311 63.6978C19.2311 63.7219 19.2391 63.7461 19.2391 63.7622C19.3437 64.0679 19.4805 64.3335 19.8748 64.2611C19.907 64.2852 19.9312 64.3093 19.9634 64.3254C19.9553 64.7358 20.1645 64.8726 20.5508 64.8083C20.5508 64.8083 20.591 64.8646 20.6071 64.8887C20.6473 65.1704 20.768 65.3715 21.0899 65.3796C21.1463 65.4681 21.2428 65.46 21.3313 65.4681C21.3555 66.0072 21.3716 66.0233 22.0314 66.0314C22.0395 66.0555 22.0555 66.0877 22.0636 66.1119C22.0958 66.1762 22.1521 66.1923 22.2245 66.1923C22.2809 66.2245 22.3372 66.2567 22.3855 66.2889C22.3613 66.651 22.651 66.7476 22.8924 66.8119C23.1258 66.8763 23.2706 66.9165 23.2948 67.1982C23.3189 67.4154 23.4718 67.5764 23.7213 67.3994C23.8017 67.343 23.8902 67.3189 23.9868 67.3269C24.1719 67.3028 24.1719 67.4798 24.2363 67.5683C24.5179 67.8661 24.8317 68.1155 25.1536 68.3569C25.2743 68.4454 25.395 68.4454 25.5318 68.4454H25.6123C25.7732 68.7995 26.0549 68.9041 26.425 68.8317C26.4733 68.8639 26.5296 68.9041 26.5779 68.9363C26.6986 69.3226 26.9481 69.3628 27.278 69.2179C27.3826 69.2179 27.447 69.2904 27.4872 69.3789C27.6079 69.6444 27.5918 69.3386 27.6481 69.3386H27.6723C27.7125 69.395 27.7527 69.4594 27.7849 69.5157C27.7367 69.8617 27.8735 70.0387 28.2356 69.9904C28.3241 69.9824 28.4206 69.9904 28.5092 69.9904C28.9195 69.9824 29.2495 70.256 29.6357 70.3123C29.684 70.3445 29.7403 70.3687 29.7886 70.4008C30.1668 70.7066 30.6255 70.779 31.0842 70.8836C31.1888 71.1009 31.4221 71.1653 31.5911 71.286C31.7521 71.3987 31.9613 71.4389 32.1383 71.2699C32.2671 71.2699 32.3958 71.2779 32.5326 71.286C32.5004 71.2055 32.4763 71.1251 32.4441 71.0526C32.4763 71.1331 32.5004 71.2136 32.5326 71.286C32.5567 71.286 32.5889 71.286 32.6131 71.286C32.9349 71.4952 33.3212 71.6481 33.6592 71.7366C34.319 71.9056 35.003 72.0344 35.6789 72.1712C35.7916 72.1712 35.8962 72.1712 36.0089 72.1712C36.0571 72.1712 36.0974 72.1712 36.1457 72.1712C36.1457 72.1712 36.21 72.1712 36.2503 72.1712C36.2905 72.1953 36.3388 72.2194 36.379 72.2436C36.4112 72.2436 36.4514 72.2436 36.4836 72.2516C36.5078 72.2516 36.5319 72.2677 36.5641 72.2758C36.5882 72.4045 36.7009 72.4287 36.7894 72.4769C37.0871 72.654 37.4251 72.6137 37.747 72.6459C38.2057 72.6942 38.6724 72.4528 39.1311 72.7022C39.3242 72.8069 39.5495 72.7747 39.7346 72.6298C39.9036 72.5976 40.0725 72.6379 40.2335 72.6862C40.4186 72.7425 40.5393 72.6862 40.5554 72.485C40.5956 72.485 40.6358 72.485 40.6761 72.485C40.66 72.8712 41.0221 72.6459 41.1589 72.7827C41.183 72.8551 41.2152 72.8551 41.2474 72.7827C41.2957 72.7666 41.3439 72.7505 41.4003 72.7344C41.6658 72.839 41.9394 72.7747 42.213 72.7988C42.2693 72.8873 42.3257 72.8873 42.382 72.7988C43.1304 72.7425 43.8787 72.6862 44.6271 72.6298C44.949 72.6057 45.2789 72.5815 45.6007 72.5574C45.7215 72.5735 45.8422 72.6218 45.9468 72.6057C46.2445 72.5574 46.6227 72.7183 46.8078 72.316C46.8722 72.308 46.8802 72.2194 46.9929 72.2275C47.2262 72.2516 47.5079 72.3401 47.6929 72.0746C47.8861 72.2194 48.0229 72.0505 48.1758 71.9941C48.1999 71.9941 48.2321 71.9941 48.2562 71.9941C48.3286 71.9941 48.393 71.9941 48.4333 71.9217C48.4333 71.8654 48.4252 71.809 48.4172 71.7527C48.393 71.6642 48.3528 71.6079 48.2965 71.5757C48.3528 71.6159 48.393 71.6722 48.4172 71.7527C48.4172 71.809 48.4252 71.8654 48.4333 71.9217C48.7793 71.8895 49.1414 71.9056 49.4633 71.7447C49.4874 71.7205 49.5115 71.6964 49.5437 71.6722C49.6483 71.6562 49.7127 71.5998 49.7449 71.5113H49.769C49.9622 71.632 50.107 71.4872 50.276 71.4228C50.6462 71.3665 51.0083 71.2458 51.3623 71.1492C51.7808 71.0365 52.2314 70.9319 52.5372 70.5537C52.2475 70.6101 51.9578 70.6744 51.6681 70.7308C50.3645 71.0365 49.0368 71.2297 47.6929 71.2619L47.6366 71.2538ZM16.6159 54.6048C16.5917 54.1944 16.5756 53.784 16.5515 53.3736C16.5837 53.3736 16.6159 53.3736 16.6561 53.3736C16.7285 53.784 16.6963 54.1944 16.6159 54.6128V54.6048ZM17.8068 60.1732C17.847 60.1974 17.8712 60.2376 17.8873 60.2939C17.8792 60.2376 17.8551 60.1974 17.8068 60.1732ZM18.5149 62.2332C18.1528 62.2011 17.9838 61.9757 17.8712 61.6941C17.9758 61.9757 18.1448 62.193 18.5149 62.2332C18.4747 62.362 18.4908 62.4264 18.5552 62.4586C18.4988 62.4264 18.4747 62.37 18.5149 62.2332ZM19.6656 60.0445C19.5691 60.1974 19.5127 60.3583 19.4886 60.5193C19.5127 60.3583 19.561 60.1974 19.6656 60.0445ZM19.392 61.847C19.6576 62.0321 19.7461 62.2413 19.7944 62.4666C19.6093 62.3218 19.4886 62.1447 19.392 61.847ZM19.8105 63.8587C19.8346 63.8185 19.8909 63.7702 19.9312 63.7622C19.8909 63.7622 19.8427 63.8104 19.8105 63.8587ZM19.7944 62.5471C19.9714 62.5229 19.9634 62.6919 20.0519 62.7241C20.0519 62.7724 20.0519 62.8207 20.0599 62.8689C19.9151 62.8046 19.8587 62.6839 19.7863 62.5471H19.7944ZM20.1082 63.1184C20.1484 63.1828 20.2128 63.2391 20.3013 63.2713C20.2128 63.2311 20.1484 63.1828 20.1082 63.1184ZM20.4462 63.1104C20.4945 63.1425 20.5508 63.1586 20.5991 63.1667C20.5508 63.1667 20.4945 63.1425 20.4462 63.1104ZM21.3635 64.5749C21.2026 64.5186 21.1543 64.253 20.9531 64.2852C21.0175 64.2128 21.0175 64.0518 21.0819 64.1162C21.1945 64.2369 21.4923 64.2852 21.3635 64.5749ZM21.5647 64.8485C21.5164 64.7841 21.3796 64.7197 21.4681 64.6554C21.5566 64.5829 21.5969 64.7197 21.621 64.7922C21.7739 64.9129 21.9751 65.0014 22.0153 65.2589C21.7739 65.2025 21.6934 64.9933 21.5647 64.8485ZM21.9992 65.9187C22.1199 65.9831 22.2406 66.0153 22.3452 65.967C22.2406 66.0072 22.1199 65.975 21.9992 65.9187ZM22.9005 66.5947C22.9568 66.5383 22.997 66.4901 22.989 66.4257C23.0051 66.2889 22.9407 66.2245 22.8522 66.1682C22.9407 66.2165 23.0051 66.2889 22.989 66.4257C22.989 66.4981 22.9568 66.5383 22.9005 66.5947ZM25.4674 68.1155C25.4191 67.9385 25.3145 67.8258 25.1938 67.7293C25.3145 67.8178 25.4111 67.9385 25.4674 68.1155C25.4916 68.1316 25.5238 68.1477 25.5559 68.1558C25.5318 68.1397 25.4916 68.1236 25.4674 68.1155ZM25.9663 68.5903C25.8617 68.5903 25.7893 68.5098 25.7008 68.4615C25.7893 68.5098 25.8537 68.5983 25.9663 68.5903ZM29.1288 65.629C28.9517 65.5486 28.8713 65.3876 28.7908 65.2347C28.8632 65.3876 28.9517 65.5486 29.1288 65.629ZM29.7242 70.2801C29.7564 70.1836 29.7242 70.0951 29.684 70.0065C29.7242 70.0951 29.7564 70.1755 29.7242 70.2801ZM29.7162 67.2465C29.7725 67.3028 29.8449 67.2947 29.9174 67.2947C29.8449 67.2947 29.7806 67.2947 29.7162 67.2465ZM30.1427 67.3833C30.0944 67.3913 30.0461 67.3833 30.022 67.3591C30.0542 67.3833 30.0944 67.3913 30.1427 67.3833ZM30.714 70.3686C30.6416 70.3445 30.5611 70.3445 30.4806 70.3365C30.5611 70.3365 30.6335 70.3526 30.714 70.3686ZM30.714 70.433C30.8749 70.4169 31.0117 70.4652 31.1485 70.5376C31.0117 70.4733 30.8749 70.425 30.714 70.433ZM31.2129 68.2604C31.2692 68.2443 31.3256 68.3006 31.3899 68.3086C31.3336 68.3006 31.2692 68.2362 31.2129 68.2604ZM31.6716 70.9319C31.6716 70.9319 31.6153 70.8917 31.5911 70.8676C31.6153 70.8917 31.6474 70.9078 31.6716 70.9319C31.6957 71.0365 31.7681 71.0607 31.8486 71.0768C31.7681 71.0607 31.6957 71.0285 31.6716 70.9319ZM33.4178 70.2238C33.4419 70.2801 33.466 70.3284 33.4902 70.3526C33.466 70.3284 33.4419 70.2721 33.4178 70.2238ZM37.8114 70.2077C37.6343 70.2158 37.5458 70.1192 37.4895 69.9663C37.2883 70.0065 37.1998 69.8456 37.0871 69.7249C37.063 69.7249 37.0389 69.7169 37.0147 69.7088C37.0308 69.7169 37.055 69.7249 37.0871 69.7249C37.2803 69.7088 37.3929 69.8215 37.4895 69.9663C37.6424 69.9824 37.7631 70.0548 37.8114 70.2077ZM39.0184 72.316C38.8333 72.316 38.6724 72.2355 38.4953 72.1953C38.6724 72.2355 38.8414 72.308 39.0184 72.316C39.0989 72.4045 39.2035 72.4367 39.3081 72.4608C39.2035 72.4367 39.0908 72.4045 39.0184 72.316Z" fill="#111010"/>
        <path d="M35.874 71.7852C35.874 71.7852 35.9545 71.7852 35.9867 71.8013C35.9545 71.7852 35.9143 71.7852 35.874 71.7852Z" fill="#111010"/>
        <path d="M19.3439 59.9648C19.3439 59.9648 19.3118 60.0292 19.3037 60.0695C19.3198 60.0373 19.3359 60.0051 19.3439 59.9648Z" fill="#111010"/>
        <path d="M22.3635 61.805C22.3635 61.805 22.3308 61.805 22.3145 61.7969C22.3308 61.7969 22.3471 61.805 22.3635 61.805Z" fill="#111010"/>
        <path d="M20.2449 62.3072C20.2449 62.2909 20.2367 62.2663 20.2285 62.25C20.2285 62.2663 20.2449 62.2909 20.2449 62.3072Z" fill="#111010"/>
        <path d="M20.3096 64.4727C20.3096 64.4727 20.3586 64.4972 20.3749 64.5217C20.3586 64.5053 20.3341 64.489 20.3096 64.4727Z" fill="#111010"/>
        <path d="M20.6719 61.4441C20.6719 61.4441 20.7127 61.4277 20.7291 61.4359C20.7127 61.4359 20.6882 61.4359 20.6719 61.4441Z" fill="#111010"/>
        <path d="M23.3359 64.4219C23.3359 64.4219 23.3768 64.4464 23.385 64.4627C23.3768 64.4382 23.3604 64.43 23.3359 64.4219Z" fill="#111010"/>
        <path d="M23.4487 64.7493C23.4324 64.733 23.4242 64.7003 23.416 64.6758C23.416 64.7085 23.4324 64.733 23.4487 64.7493Z" fill="#111010"/>
        <path d="M23.4007 64.5135C23.4007 64.5135 23.4007 64.489 23.3926 64.4727C23.3926 64.4808 23.3926 64.4972 23.4007 64.5135Z" fill="#111010"/>
        <path d="M23.7715 67.1353C23.7715 67.1353 23.796 67.0863 23.8123 67.0781C23.796 67.0781 23.7878 67.1026 23.7715 67.1353Z" fill="#111010"/>
        <path d="M23.9238 65.2773C23.9238 65.2773 23.9483 65.3019 23.9647 65.31C23.9565 65.3019 23.9402 65.2855 23.9238 65.2773Z" fill="#111010"/>
        <path d="M24.6327 63.893C24.6327 63.893 24.5837 63.8603 24.5674 63.8685C24.5837 63.8685 24.6082 63.8848 24.6327 63.893Z" fill="#111010"/>
        <path d="M24.8242 64.9575C24.8242 64.9575 24.8484 64.9495 24.8565 64.9414C24.8484 64.9414 24.8323 64.9495 24.8242 64.9575Z" fill="#111010"/>
        <path d="M28.7754 68.0273C28.7754 68.0273 28.8317 68.0917 28.8639 68.0998C28.8317 68.0917 28.8076 68.0676 28.7754 68.0273Z" fill="#111010"/>
        <path d="M33.4511 67.8594C33.435 67.8996 33.427 67.9398 33.4189 67.9801C33.4189 67.9398 33.435 67.8996 33.4511 67.8594Z" fill="#111010"/>
        <path d="M32.8478 68.2695C32.8478 68.2695 32.8314 68.3022 32.8232 68.3186C32.8232 68.3022 32.8478 68.2859 32.8478 68.2695Z" fill="#111010"/>
        <path d="M32.8879 70.1729C32.8879 70.1729 32.8552 70.1566 32.8389 70.1484C32.8389 70.1484 32.8715 70.1729 32.8879 70.1729Z" fill="#111010"/>
        <path d="M30.5054 66.1836C30.5054 66.1836 30.4893 66.2078 30.4893 66.2159C30.4893 66.2159 30.4973 66.1917 30.5054 66.1836Z" fill="#111010"/>
        <path d="M29.661 68.1053L29.6533 68.0977L29.661 68.1053Z" fill="#111010"/>
        <path d="M29.6524 65.6914C29.6524 65.6914 29.6282 65.7075 29.6201 65.7156L29.6524 65.6914Z" fill="#111010"/>
        <path d="M29.1777 65.5275L29.2013 65.5117C29.2013 65.5117 29.1856 65.5196 29.1777 65.5275Z" fill="#111010"/>
        <path d="M30.0631 67.2167C30.0631 67.2167 30.1195 67.2409 30.1355 67.265C30.1275 67.2409 30.1034 67.2248 30.0631 67.2167C30.0309 67.1926 29.9988 67.1684 29.9746 67.1523C29.9988 67.1684 30.0229 67.1845 30.0631 67.2167Z" fill="#111010"/>
        <path d="M31.2305 70.6751C31.2305 70.6751 31.2631 70.6261 31.2713 70.6016C31.2713 70.6016 31.2468 70.6506 31.2305 70.6751Z" fill="#111010"/>
        <path d="M32.9199 67.5625C32.9199 67.5625 32.9526 67.587 32.9689 67.587C32.9526 67.587 32.9363 67.5707 32.9199 67.5625Z" fill="#111010"/>
        <path d="M33.6279 71.4497C33.6279 71.4497 33.6923 71.4497 33.7245 71.4336C33.6923 71.4416 33.6601 71.4497 33.6279 71.4497Z" fill="#111010"/>
        <path d="M33.8767 71.0586C33.8767 71.0586 33.8604 71.0994 33.8604 71.124C33.8604 71.0994 33.8603 71.0749 33.8767 71.0586Z" fill="#111010"/>
        <path d="M34.7383 71.4872C34.7624 71.4389 34.7785 71.4067 34.8107 71.3906C34.7866 71.4067 34.7624 71.4389 34.7383 71.4872Z" fill="#111010"/>
        <path d="M39.1253 70.3398C39.1253 70.3398 39.1253 70.364 39.1172 70.3721C39.1172 70.3721 39.1172 70.3479 39.1253 70.3398Z" fill="#111010"/>
        <path d="M42.826 72.3221C42.826 72.3221 42.7933 72.2976 42.7852 72.2812C42.8015 72.2976 42.8097 72.3058 42.826 72.3221Z" fill="#111010"/>
        <path d="M43.0431 72.293C43.0431 72.293 42.9707 72.301 42.9385 72.3091C42.9707 72.3091 43.0109 72.301 43.0431 72.293Z" fill="#111010"/>
        <path d="M68.6801 32.823C68.6801 32.5413 68.6881 32.2678 68.6962 31.9861C68.6962 31.8654 68.672 31.7688 68.5272 31.7608C68.5272 31.7447 68.5272 31.7286 68.5272 31.7125C68.5916 31.7045 68.672 31.7125 68.664 31.6079C68.6077 31.1251 68.5594 30.6503 68.503 30.1675C68.503 29.8054 68.4306 29.4594 68.3341 29.1134C68.0444 27.7132 67.7064 26.3291 67.2236 24.9773C66.5557 23.0943 65.6303 21.3481 64.4635 19.7226C63.8841 18.8858 63.2001 18.1294 62.5403 17.3569C62.3311 17.1798 62.1621 16.9787 61.969 16.689C61.9609 16.689 61.9448 16.697 61.9287 16.689C61.8885 16.6568 61.8563 16.6165 61.8402 16.5763C61.8402 16.5602 61.8644 16.4958 61.9126 16.5361C61.9529 16.5683 61.9851 16.6005 62.0172 16.6326C62.0012 16.6568 61.9851 16.6809 61.977 16.697C62.3069 16.8097 62.3874 17.1074 62.6208 17.204C62.6208 17.2281 62.6288 17.2523 62.6369 17.2764C62.7415 17.3649 62.838 17.4615 62.9426 17.55C63.1116 17.204 62.838 17.2281 62.6369 17.1879C62.4437 16.689 62.146 16.2866 61.5827 16.1498C61.5747 16.0372 61.5022 15.9889 61.3976 16.005C60.9792 15.6268 60.5044 15.313 60.1262 14.8865C60.1262 14.7336 60.086 14.5485 59.9492 14.5083C59.6515 14.4197 59.4744 14.1542 59.2089 14.0496C58.9594 13.945 58.8468 13.6312 58.5329 13.6553C58.4525 13.599 58.364 13.5426 58.2835 13.4863C58.2513 13.4622 58.2272 13.438 58.195 13.4139C58.1708 13.4139 58.1467 13.4139 58.1226 13.4139C58.0099 13.1483 57.6397 13.084 57.5995 12.746C57.5995 12.6816 57.4868 12.7219 57.4225 12.7058C57.1167 12.6575 56.7868 12.6816 56.6017 12.3437C56.5534 12.2632 56.4327 12.1666 56.3522 12.1666C55.8533 12.1586 55.5878 11.7401 55.1854 11.5551C54.8072 11.3861 54.5658 10.8791 54.0347 11.0642C53.8175 10.9757 53.6163 10.8389 53.3749 10.8228C53.3186 10.4446 53.1335 10.7021 52.9967 10.7504C52.9967 10.6538 53.0047 10.5492 52.8921 10.5009C52.8679 10.5009 52.8518 10.5009 52.8277 10.5009C52.7633 10.4848 52.6989 10.4768 52.6426 10.4607C52.6265 10.4446 52.6024 10.4285 52.5782 10.4204C52.5702 10.4044 52.5621 10.3883 52.5541 10.3722C52.4736 10.1468 52.3851 9.93763 52.0793 10.1147C52.023 10.1147 51.9747 10.1066 51.9184 10.0986C51.8379 10.0744 51.7575 10.0503 51.6689 10.0261C51.4034 10.0744 51.2666 9.78474 51.0252 9.77669C51.0011 9.77669 50.9769 9.77669 50.9528 9.77669C50.8804 9.67208 50.7838 9.67208 50.6792 9.69622H50.6631C50.2849 9.47896 49.8986 9.25364 49.44 9.22146C49.2468 8.99614 48.9169 9.09271 48.7238 8.93982C48.3617 8.66622 47.895 8.82716 47.5168 8.60989C47.4524 8.57771 47.211 8.46505 47.0822 8.64208C46.5753 8.53747 46.0683 8.43286 45.5533 8.32825C45.497 8.30411 45.4487 8.27192 45.3924 8.24778C45.3441 8.15927 45.2878 8.15122 45.2234 8.23974C45.1671 8.23974 45.1188 8.23974 45.0625 8.23974C44.9498 8.12708 44.8613 7.98224 44.6762 7.99833C43.9439 8.0627 43.2197 7.82935 42.4874 7.91786C41.7632 7.77302 41.031 7.78911 40.2987 7.84544C39.7515 7.86958 39.2124 8.00638 38.6652 7.91786C38.5847 7.90981 38.5042 7.91786 38.456 7.99028C38.3594 7.942 38.2709 7.84544 38.1743 7.99028C37.9651 7.84544 37.7639 7.93395 37.5547 7.99028C37.265 8.0788 36.9673 7.77302 36.6776 7.99028C36.4764 8.0788 36.2752 8.10294 36.0499 8.11099C35.3659 8.12708 34.7141 8.38458 34.0382 8.48114C34.006 8.48114 33.9658 8.48114 33.9336 8.48114C33.9175 8.52942 33.8934 8.57771 33.8773 8.62599C33.7646 8.64208 33.6841 8.60185 33.5956 8.52942C33.4749 8.43286 33.4106 8.50528 33.3864 8.63403C33.1289 8.61794 32.9036 8.75474 32.6622 8.79497C32.461 8.8513 32.2518 8.88349 32.0909 9.02833C31.946 9.00419 31.8736 9.13294 31.777 9.19732C31.7609 9.05247 31.6563 9.00419 31.5517 9.06052C31.2379 9.23755 30.8677 9.23755 30.57 9.44677C30.5378 9.44677 30.5056 9.44677 30.4734 9.44677C30.3527 9.5031 30.1918 9.5031 30.1596 9.68013C29.6527 9.69622 29.2503 10.0101 28.7997 10.171C28.7031 10.171 28.6066 10.171 28.5502 10.2756C28.2525 10.4044 28.0111 10.6377 27.6812 10.7101C27.5766 10.7343 27.3834 10.7745 27.5363 10.9676C27.2627 10.9515 26.9811 10.863 26.7719 11.1447C26.6834 11.1929 26.5868 11.2493 26.4983 11.2976C26.4822 11.2976 26.4661 11.3217 26.458 11.3378C26.3052 11.5309 25.9752 11.4424 25.8545 11.6999C25.6855 11.8689 25.4441 11.8367 25.251 11.9494C25.0337 12.0862 24.8245 12.2149 24.6073 12.3517C24.4061 12.4322 24.2532 12.569 24.1164 12.7379C24.0923 12.7701 24.0601 12.8023 24.0359 12.8345C23.9635 12.8345 23.9072 12.8506 23.8669 12.915C23.8428 12.915 23.8187 12.923 23.7865 12.923C23.7623 12.9472 23.7382 12.9713 23.7141 12.9954C23.4244 13.1644 23.1266 13.3334 22.8369 13.5105C22.7323 13.5748 22.7404 13.6875 22.7404 13.8001C23.0381 13.6392 23.3358 13.4783 23.6336 13.3173C23.6658 13.2932 23.698 13.2771 23.7301 13.2529C23.8187 13.2208 23.9072 13.1886 23.9876 13.1403C26.5787 11.8126 29.3388 11.0642 32.2196 10.7262C33.3864 10.5894 34.5613 10.5572 35.7361 10.5572C35.7602 10.5492 35.7924 10.5331 35.8166 10.5251L35.8327 10.517C35.897 10.6216 35.9453 10.5975 35.9936 10.5009C36.0419 10.5411 36.0902 10.6136 36.1465 10.6136C36.8707 10.6136 37.5869 10.7584 38.3031 10.7986C38.3996 10.8872 38.5123 10.8952 38.633 10.863C40.4113 11.2332 42.1253 11.7965 43.7749 12.577C43.8554 12.6172 43.9842 12.6897 44.0324 12.6575C44.298 12.4724 44.2578 12.7621 44.3463 12.8426C44.6118 12.9794 44.8532 13.1725 45.159 13.2127C45.2636 13.3656 45.4326 13.43 45.5855 13.5185C45.9798 13.7277 46.35 13.9611 46.7201 14.2025C46.8569 14.2347 46.9857 14.2669 47.1225 14.299C47.219 14.3232 47.3075 14.3473 47.4041 14.3715C47.6053 14.4197 47.7984 14.4761 47.9996 14.5324C48.1042 14.5646 48.2007 14.5887 48.3053 14.6209C48.5548 14.6933 48.7962 14.7738 49.0376 14.8543C49.0376 14.8543 49.0376 14.8543 49.0457 14.8543C49.2951 14.9347 49.5365 15.0233 49.786 15.1118C49.8825 15.144 49.9791 15.1842 50.0757 15.2164C50.2849 15.2969 50.4941 15.3773 50.6953 15.4658C50.7516 15.49 50.8079 15.5141 50.8723 15.5383C51.0493 15.6107 51.2183 15.6831 51.3954 15.7636C51.4839 15.8038 51.5804 15.844 51.6689 15.8843C51.7253 15.9084 51.7816 15.9326 51.8379 15.9648C52.0552 16.0613 52.2725 16.1659 52.4897 16.2786C52.5622 16.3188 52.6426 16.351 52.715 16.3912C52.9162 16.4958 53.1174 16.5924 53.3105 16.697C53.3105 16.697 53.391 16.7373 53.4232 16.7614C53.6565 16.8901 53.8899 17.0189 54.1232 17.1557C54.1232 17.1557 54.1393 17.1637 54.1393 17.1718C54.1072 17.1235 54.075 17.0672 54.0589 16.9948C54.252 16.9948 54.2681 17.1315 54.3325 17.2362C54.3566 17.2683 54.3807 17.2925 54.4049 17.3247C54.4612 17.373 54.5015 17.4293 54.5497 17.4776C56.1913 18.749 57.8329 20.0204 59.4825 21.2837C59.6515 21.4527 59.8204 21.6298 59.9814 21.7987C60.1504 21.9838 60.3194 22.1609 60.4803 22.3459C60.4803 22.3459 60.4964 22.362 60.5044 22.3701C60.6734 22.5552 60.8344 22.7483 61.0033 22.9414C60.8022 22.5069 60.601 22.0643 60.3918 21.6298C60.3033 21.4286 60.1021 21.2757 60.1101 21.0343C60.0055 21.0182 59.9653 20.9699 60.0297 20.8653C59.7641 20.6963 59.6756 20.4066 59.5469 20.1411C59.4503 20.0204 59.2974 19.9319 59.3054 19.7387C59.225 19.7709 59.233 19.6985 59.2169 19.6583C59.2491 19.6583 59.2894 19.6583 59.3215 19.6502C59.3215 19.6824 59.3215 19.7066 59.3135 19.7387C59.5066 19.8031 59.5871 19.9399 59.5549 20.1411C59.8687 20.2779 59.9975 20.5434 60.0377 20.8653C60.1504 20.8734 60.1423 20.9538 60.1182 21.0262C60.263 21.0826 60.3515 21.1872 60.3757 21.3401C60.3998 21.4205 60.424 21.501 60.4561 21.5734C60.4803 21.5734 60.5044 21.5815 60.5205 21.5895C60.6895 21.9355 60.8504 22.2816 61.0194 22.6276C61.0436 22.7241 61.0677 22.8207 61.1562 22.877C61.2045 23.0138 61.2608 23.1506 61.3091 23.2874C61.3091 23.2874 61.3091 23.2874 61.3091 23.3035C61.5666 23.6173 61.8161 23.9392 62.0494 24.2611C62.0655 24.2852 62.0897 24.3174 62.1058 24.3416C62.2184 24.4945 62.3311 24.6473 62.4357 24.8002C62.4598 24.8405 62.484 24.8727 62.5081 24.9129C62.6208 25.0738 62.7334 25.2348 62.838 25.3957C62.8622 25.4359 62.8863 25.4762 62.9185 25.5164C63.0312 25.6854 63.1358 25.8463 63.2404 26.0153C63.2806 26.0797 63.3208 26.1521 63.3611 26.2165C63.6508 26.6913 63.9244 27.1821 64.1819 27.673C64.1819 27.681 64.198 27.6971 64.198 27.7052C64.2945 27.8902 64.3911 28.0753 64.4796 28.2684C64.544 28.3892 64.6003 28.5179 64.6566 28.6466C64.7049 28.7513 64.7532 28.8559 64.8015 28.9605C64.8578 29.0812 64.9141 29.2099 64.9705 29.3387C65.0751 29.5801 65.1797 29.8215 65.2762 30.0629C65.3165 30.1595 65.3567 30.256 65.3969 30.3606C65.4291 30.4492 65.4613 30.5377 65.4935 30.6181C65.6142 30.932 65.7188 31.2458 65.8315 31.5677C65.8395 31.5999 65.8556 31.632 65.8637 31.6642C65.928 31.8493 65.9844 32.0344 66.0407 32.2275C66.1051 32.4448 66.1775 32.6621 66.2338 32.8793C66.5476 35.221 66.8615 37.5707 67.1753 39.9123C67.1753 40.0974 67.1833 40.2825 67.1914 40.4675C67.1914 40.54 67.1914 40.6124 67.1914 40.6848C67.1914 40.8216 67.1914 40.9584 67.1914 41.0952C67.1914 41.2239 67.1914 41.3527 67.1833 41.4814C67.8512 39.6065 68.3341 37.6833 68.5272 35.6796C68.6077 34.8669 68.6398 34.0542 68.664 33.2334C68.664 33.0644 68.6318 32.8874 68.6157 32.7184L68.6801 32.823ZM32.7427 10.2676C32.3403 10.1951 31.938 10.1227 31.5356 10.0503C31.6322 10.0342 31.7288 10.0261 31.8334 10.0101C31.8414 9.92958 31.8736 9.86521 31.9138 9.82497C31.8656 9.86521 31.8414 9.92958 31.8334 10.0101C31.9702 10.0101 32.115 10.0101 32.2438 10.0744C32.292 10.0744 32.3484 10.0744 32.3966 10.0744C32.5173 10.1227 32.6381 10.171 32.7507 10.2193V10.2676H32.7427ZM35.5993 9.65599C35.4384 9.78474 35.3257 9.56747 35.1889 9.55943C35.3418 9.59966 35.4625 9.47091 35.5993 9.51919C35.6154 9.51919 35.6234 9.6399 35.5993 9.66404V9.65599ZM35.6717 9.72841C35.8729 9.63185 36.0017 9.7606 36.1706 9.83302C35.9453 9.88935 35.8166 9.80888 35.6717 9.72841ZM36.5006 10.0503C36.4442 10.0342 36.3959 10.0261 36.3396 10.0101C36.3396 9.99396 36.3235 9.97786 36.3155 9.96177C36.2913 9.93763 36.2431 9.90544 36.2431 9.8974C36.2752 9.84107 36.3155 9.84911 36.3638 9.8813C36.404 9.88935 36.4442 9.90544 36.4925 9.91349C36.5408 9.92958 36.5971 9.93763 36.6454 9.95372C36.6695 10.0905 36.6052 10.1066 36.5006 10.0503ZM36.6454 8.4731C36.6454 8.4731 36.6937 8.43286 36.7178 8.44091C36.6937 8.43286 36.6695 8.44896 36.6454 8.4731ZM36.8788 8.457C37.2087 8.52138 37.5708 8.42481 37.8524 8.7145C37.4823 8.7145 37.1685 8.5938 36.8788 8.457ZM40.862 8.11903C41.1999 8.11903 41.5138 8.23974 41.8356 8.28802C41.9483 8.30411 41.9403 8.38458 41.9403 8.46505C41.5862 8.34435 41.2241 8.26388 40.8539 8.31216C40.8539 8.24778 40.8539 8.18341 40.8539 8.11903H40.862ZM41.8356 9.84107C41.8115 9.8813 41.7713 9.92958 41.731 9.93763C41.6345 9.96177 41.6747 9.87326 41.6828 9.84107C41.6988 9.80083 41.7391 9.76865 41.7793 9.72036C41.8115 9.77669 41.8517 9.81693 41.8437 9.83302L41.8356 9.84107ZM40.6367 9.52724C40.6367 9.52724 40.6528 9.47091 40.6688 9.47091C40.8056 9.45482 40.8942 9.52724 40.9907 9.69622C40.8298 9.6399 40.701 9.65599 40.6367 9.52724ZM41.1195 9.79279C41.1195 9.79279 41.0712 9.75255 41.0471 9.73646C41.0631 9.72036 41.0792 9.71232 41.1034 9.68818C41.1275 9.71232 41.1436 9.73646 41.1597 9.7606C41.1597 9.7606 41.1275 9.80083 41.1195 9.79279ZM41.2965 9.8974C41.2965 9.8974 41.2402 9.82497 41.2402 9.81693C41.2885 9.76865 41.3206 9.80083 41.3448 9.84107C41.3689 9.86521 41.4092 9.90544 41.4092 9.90544C41.3689 9.95372 41.3287 9.92154 41.2965 9.88935V9.8974ZM41.9403 10.3158C41.8839 10.2917 41.8276 10.2595 41.7713 10.2354C41.731 10.1951 41.6828 10.1549 41.6425 10.1227L41.5299 10.0664C41.5299 10.0664 41.4414 10.0101 41.4896 9.95372C41.5379 9.90544 41.5701 9.95372 41.6023 9.99396C41.6345 10.0101 41.6667 10.0342 41.6988 10.0503C41.7471 10.0905 41.7874 10.1308 41.8356 10.1629C41.9 10.1629 41.9724 10.1629 41.9966 10.2515C41.9805 10.2676 41.9644 10.2917 41.9483 10.3078L41.9403 10.3158ZM42.061 8.57771C42.1495 8.57771 42.1817 8.53747 42.2058 8.48114C42.1817 8.53747 42.1414 8.57771 42.061 8.57771ZM42.8335 10.1227C42.8335 10.1227 42.8093 10.1227 42.8013 10.1227C42.8093 10.1227 42.8254 10.1227 42.8335 10.1227C42.8898 10.1227 42.93 10.1549 42.93 10.2193C42.93 10.1549 42.8898 10.1308 42.8335 10.1227ZM42.7128 8.65818C42.6967 8.60989 42.6725 8.56966 42.6564 8.52138C42.7208 8.52138 42.7852 8.53747 42.8576 8.53747C42.9059 8.5938 42.9703 8.56966 43.0346 8.56161C43.0829 8.58575 43.1392 8.60989 43.1875 8.63403C43.2439 8.63403 43.3002 8.65013 43.3485 8.65818C43.3726 8.66622 43.4048 8.67427 43.4289 8.69036C43.4933 8.74669 43.6221 8.7306 43.6301 8.8513C43.6301 8.85935 43.5014 8.88349 43.437 8.89153L43.4289 8.89958C43.2841 8.83521 43.1392 8.60185 42.9864 8.86739C43.0427 8.62599 42.8254 8.69841 42.7047 8.65818H42.7128ZM43.4611 11.4504C43.4611 11.4504 43.4128 11.4022 43.3887 11.378C43.3485 11.3378 43.3082 11.2976 43.2599 11.2573C43.1875 11.2171 43.1071 11.1769 43.0185 11.1286C43.1714 11.0481 43.2519 11.0883 43.3002 11.209C43.3485 11.2493 43.3967 11.2815 43.437 11.3217C43.4611 11.3458 43.4853 11.378 43.5174 11.4022C43.6462 11.3861 43.6623 11.5229 43.7508 11.5792C43.5818 11.716 43.5577 11.5068 43.4611 11.4585V11.4504ZM43.8313 11.7482C43.7589 11.7079 43.6703 11.6758 43.7508 11.5711C43.7749 11.5711 43.7991 11.5711 43.8313 11.5631C43.8313 11.6275 43.8313 11.6838 43.8313 11.7482ZM43.9922 9.03638C43.952 9.02028 43.9198 8.98005 43.8796 8.95591C43.9037 8.93177 43.9278 8.90763 43.952 8.89153C43.9922 8.93177 44.0324 8.96396 44.0646 8.99614C44.0405 9.01224 44.0003 9.04443 43.9842 9.04443L43.9922 9.03638ZM45.1992 12.8989C45.1188 12.8587 45.0383 12.8345 44.99 12.7621C45.0383 12.8265 45.1188 12.8587 45.1992 12.8989ZM45.9476 9.6399C45.9878 9.6399 46.0361 9.6399 46.0764 9.65599C46.0361 9.6399 45.9878 9.64794 45.9476 9.6399ZM47.4604 10.5814C47.5248 10.6538 47.565 10.7504 47.6535 10.8308C47.557 10.7504 47.5168 10.6538 47.4604 10.5814ZM53.0852 12.9069C53.0852 12.9069 53.1335 12.8587 53.1576 12.8345C53.1335 12.8587 53.1093 12.8828 53.0852 12.9069C52.9082 13.0035 52.6748 13.0437 52.5219 13.1725C52.6748 13.0357 52.9082 13.0035 53.0852 12.9069ZM52.2242 12.062C52.3047 12.0701 52.3851 12.062 52.4736 12.062C52.3932 12.062 52.3047 12.0781 52.2242 12.062C52.2242 12.1022 52.1437 12.1183 52.0954 12.1425C52.1437 12.1183 52.2161 12.1022 52.2242 12.062ZM51.9828 11.8126C51.9828 11.8126 52.0311 11.8689 52.0552 11.9011C52.0311 11.8689 52.0069 11.8447 51.9828 11.8126C51.9506 11.8126 51.9104 11.8126 51.8701 11.8126C51.9023 11.8126 51.9506 11.7965 51.9828 11.8126ZM50.4217 10.2756C50.655 10.3561 50.9125 10.4365 51.0493 10.686C51.0091 10.686 50.9608 10.686 50.9206 10.694C50.8401 10.6538 50.7677 10.6136 50.6872 10.5733C50.6309 10.5572 50.5746 10.5411 50.5102 10.5251C50.5021 10.4446 50.4297 10.4446 50.3734 10.4365C50.3814 10.3722 50.2446 10.2112 50.4136 10.2756H50.4217ZM49.6653 9.88935C49.8664 9.90544 50.0757 9.99396 50.1803 10.1308C50.2929 10.2836 50.1159 10.2273 50.0435 10.2193C49.9469 10.0905 49.8021 10.0503 49.6572 10.0181C49.6492 9.96982 49.5928 9.88935 49.6653 9.88935ZM48.6514 9.49505C48.8445 9.40654 48.9652 9.53529 49.102 9.61575C49.2146 9.66404 49.3353 9.71232 49.448 9.75255C49.279 9.82497 49.1342 9.85716 49.0215 9.68818C48.9008 9.6238 48.7479 9.6238 48.6433 9.49505H48.6514ZM49.3917 12.0781C49.3434 12.1344 49.2871 12.062 49.2388 12.062C49.2146 12.0379 49.1825 12.0057 49.1583 11.9815C49.0778 11.9011 48.9974 11.8126 48.925 11.7321C48.9089 11.724 48.8847 11.7079 48.8686 11.6999C48.8847 11.6758 48.9089 11.6516 48.925 11.6275C48.9652 11.6597 48.9652 11.6919 48.925 11.724C49.1503 11.724 49.2629 11.9091 49.3997 12.0459C49.4802 12.0701 49.5607 12.1022 49.6411 12.1264C49.6411 12.2069 49.5687 12.2551 49.5124 12.2229C49.4561 12.1908 49.3434 12.1747 49.3836 12.0701L49.3917 12.0781ZM49.786 14.3795C49.6572 14.4117 49.5365 14.4358 49.4078 14.3876C49.4078 14.122 49.6814 14.3071 49.7618 14.1783C49.794 14.2025 49.8343 14.2266 49.8423 14.2588C49.8664 14.3151 49.8423 14.3634 49.7779 14.3795H49.786ZM52.9404 15.6912C52.53 15.2566 52.1357 14.806 51.7253 14.3795C51.6609 14.3071 51.5885 14.1059 51.4195 14.2749C51.5804 14.1462 51.4195 14.0576 51.3551 13.9933C50.9769 13.6151 50.655 13.1725 50.1561 12.9311C50.0193 12.8667 50.0515 12.6575 49.8825 12.6172C49.9067 12.5126 49.6089 12.5046 49.8021 12.3517C50.6389 12.9713 51.3632 13.7116 52.0632 14.4761C52.192 14.6129 52.3207 14.7497 52.4495 14.8784C52.5702 15.0313 52.6829 15.1922 52.8438 15.2969C52.876 15.4578 52.9967 15.5463 53.1093 15.6348C53.1093 15.659 53.1093 15.6751 53.1335 15.6912C53.1335 15.7877 53.3186 15.8038 53.2381 15.9326C53.053 15.9567 53.0128 15.7877 52.9243 15.6912H52.9404ZM53.2622 15.9326C53.391 15.9165 53.4071 16.0694 53.5117 16.0935C53.6565 16.3027 53.7933 16.5119 53.9382 16.7292C53.906 16.7533 53.8818 16.7694 53.8497 16.7936C53.7048 16.4717 53.2703 16.3671 53.2622 15.9406V15.9326ZM54.0508 17.0028C53.9864 16.9787 53.9382 16.9465 53.9221 16.858C53.9382 16.8419 53.9543 16.8177 53.9704 16.8016C54.0025 16.8338 54.0508 16.858 54.075 16.8982C54.083 16.9223 54.0589 16.9626 54.0508 16.9948V17.0028ZM54.1876 11.539C54.3003 11.6838 54.4934 11.724 54.5658 11.9333C54.4934 11.7321 54.3003 11.6838 54.1876 11.539ZM55.113 12.0701C55.0325 12.0379 54.9521 12.0057 54.8636 11.9735C54.944 12.0057 55.0245 12.0379 55.113 12.0701C55.1854 12.1586 55.274 12.231 55.3625 12.3115C55.274 12.239 55.1854 12.1586 55.113 12.0701ZM56.9155 13.3254C56.8753 13.1966 56.7948 13.1322 56.6902 13.092C56.7948 13.1242 56.8833 13.1966 56.9155 13.3254ZM57.2776 13.9933C57.2293 13.9933 57.165 14.0094 57.1408 13.9369C57.3661 13.7438 57.0443 13.6553 57.0604 13.5105C57.2857 13.599 57.511 13.6955 57.5029 13.9933C57.4305 14.0094 57.3501 13.7438 57.2776 13.9933ZM58.7422 18.9984C58.6617 18.9743 58.5893 18.9421 58.6617 18.8375C58.3559 18.6605 58.2272 18.3305 57.9777 18.0972C57.9536 18.0248 57.9214 17.9523 57.8972 17.8799C57.9616 17.8799 58.0662 17.8799 58.0743 17.9041C58.2111 18.2501 58.6134 18.4351 58.6617 18.8375C58.8226 18.8294 58.7824 18.9099 58.7422 18.9984ZM58.2996 14.8704C58.2513 14.806 58.2352 14.7577 58.2835 14.6933C58.3318 14.637 58.372 14.6612 58.4122 14.7094C58.6134 14.975 58.8065 15.2486 58.9997 15.5141C58.6617 15.3854 58.5008 15.1037 58.2996 14.8623V14.8704ZM59.0238 15.5544C59.2008 15.7394 59.3698 15.9245 59.5469 16.1096C59.225 16.0613 59.0801 15.844 59.0238 15.5544ZM60.0619 19.3605C60.0619 19.3605 60.094 19.3042 60.094 19.272C60.086 19.2559 60.0779 19.2318 60.0619 19.2157C60.0699 19.2318 60.086 19.2559 60.094 19.272C60.094 19.3042 60.086 19.3444 60.0619 19.3605ZM61.7839 16.4717C61.7758 16.5683 61.6954 16.4958 61.6471 16.4958C61.6471 16.4637 61.6471 16.4315 61.6471 16.3993C61.7034 16.3993 61.8 16.4073 61.7919 16.4717H61.7839ZM61.5666 19.5617C61.5666 19.5617 61.5344 19.61 61.5183 19.61C61.5344 19.61 61.5505 19.5939 61.5666 19.5617C61.631 19.5215 61.7356 19.5939 61.8 19.5537C61.7356 19.5939 61.631 19.5295 61.5666 19.5617ZM62.7978 23.9634C62.669 23.2552 62.5403 22.5552 62.4035 21.847C62.2587 21.3642 62.154 20.8814 62.1299 20.3744C62.2426 20.8492 62.4598 21.3079 62.4437 21.8148C62.6771 22.5069 62.7978 23.223 62.9024 23.9473C62.8702 23.9473 62.83 23.9634 62.7978 23.9714V23.9634ZM63.0472 25.3072C62.9909 24.9934 62.9346 24.6795 62.8783 24.3577C63.1679 24.6313 63.0955 24.9773 63.0472 25.3072ZM64.9061 26.8602C64.8337 26.8441 64.7693 26.8281 64.6969 26.8039C64.7693 26.82 64.8337 26.8361 64.9061 26.8602L64.9383 26.7315C64.9302 26.7717 64.9222 26.82 64.9141 26.8602H64.9061ZM66.2258 28.3891C66.2901 28.3248 66.3384 28.2202 66.4108 28.1719C66.3384 28.2282 66.2901 28.3248 66.2258 28.3891Z" fill="#111010"/>
        <path d="M65.5989 24.4061C65.5989 24.3659 65.5989 24.3256 65.607 24.2773C65.607 24.3176 65.5909 24.3659 65.5989 24.4061Z" fill="#111010"/>
        <path d="M66.5713 28.0752C66.6196 28.0752 66.6598 28.0591 66.7081 28.043C66.6679 28.0591 66.6196 28.0671 66.5713 28.0752Z" fill="#111010"/>
        <path d="M65.6152 24.2773C65.6152 24.2773 65.6796 24.2773 65.7118 24.2773C65.6877 24.2854 65.6474 24.2773 65.6152 24.2773Z" fill="#111010"/>
        <path d="M64.6415 23.6406C64.6415 23.6406 64.6013 23.705 64.5771 23.7291C64.6013 23.705 64.6174 23.6648 64.6415 23.6406Z" fill="#111010"/>
        <path d="M63.772 22.5898C63.7557 22.6062 63.7394 22.6144 63.7148 22.6307C63.7312 22.6144 63.7475 22.6062 63.772 22.5898Z" fill="#111010"/>
        <path d="M61.5752 19.5156C61.5752 19.5156 61.5752 19.5156 61.5835 19.5322L61.5752 19.5156Z" fill="#111010"/>
        <path d="M61.4863 19.54C61.4863 19.54 61.4946 19.5317 61.5029 19.5234C61.5029 19.5234 61.4946 19.5317 61.4863 19.54Z" fill="#111010"/>
        <path d="M60.0547 19.6094L60.0381 19.6177H60.0547V19.6094Z" fill="#111010"/>
        <path d="M60.0379 19.6769C60.0379 19.6769 60.0379 19.6605 60.0379 19.6523C60.0379 19.6605 60.0379 19.6687 60.0379 19.6769C60.0298 19.6932 60.0052 19.7095 59.9971 19.7177C59.9971 19.7095 60.0216 19.685 60.0379 19.6769Z" fill="#111010"/>
        <path d="M57.6954 16.207C57.6391 16.207 57.6069 16.207 57.5908 16.2312C57.6069 16.2151 57.6391 16.207 57.6954 16.207Z" fill="#111010"/>
        <path d="M56.5859 13.0312C56.5859 13.0312 56.5776 13.0395 56.5693 13.0478C56.5693 13.0478 56.5776 13.0395 56.5859 13.0312Z" fill="#111010"/>
        <path d="M48.9659 12.168C48.9659 12.168 48.9496 12.1761 48.9414 12.1843C48.9414 12.1843 48.9577 12.1761 48.9659 12.168C48.9659 12.1761 48.9741 12.1925 48.9823 12.2006C48.9823 12.1843 48.9741 12.1761 48.9659 12.168Z" fill="#111010"/>
        <path d="M51.3325 14.299C51.3325 14.299 51.3161 14.2663 51.2998 14.25C51.308 14.2663 51.3161 14.2827 51.3325 14.299C51.3325 14.299 51.3407 14.299 51.3488 14.2827L51.3325 14.299Z" fill="#111010"/>
        <path d="M56.2644 17.0156C56.2644 17.0156 56.2644 17.08 56.2644 17.1122C56.2644 17.1685 56.2483 17.2329 56.2402 17.2892C56.2402 17.2329 56.2563 17.1685 56.2644 17.1122C56.2644 17.08 56.2644 17.0478 56.2644 17.0156Z" fill="#111010"/>
        <path d="M56.2637 14.9336C56.2637 14.9336 56.2959 14.998 56.32 15.0302C56.3039 14.998 56.2798 14.9658 56.2637 14.9336Z" fill="#111010"/>
        <path d="M56.5368 12.6914C56.5368 12.6914 56.4724 12.7155 56.4482 12.7155C56.4804 12.7155 56.5046 12.7075 56.5368 12.6914Z" fill="#111010"/>
        <path d="M56.2633 14.9333C56.2633 14.9333 56.1989 14.9252 56.1748 14.9333C56.1989 14.9333 56.2311 14.9333 56.2633 14.9333Z" fill="#111010"/>
        <path d="M55.8369 15.7148C55.8369 15.7148 55.8696 15.7557 55.8778 15.772C55.8614 15.7557 55.8451 15.7312 55.8369 15.7148Z" fill="#111010"/>
        <path d="M53.9941 13.9609C53.9941 13.9609 54.0187 13.9691 54.035 13.9773C54.0187 13.9773 54.0105 13.9773 53.9941 13.9609Z" fill="#111010"/>
        <path d="M46.6415 9.41549C46.617 9.40732 46.6007 9.39098 46.5762 9.38281C46.6007 9.38281 46.617 9.40732 46.6415 9.41549Z" fill="#111010"/>
        <path d="M44.8213 12.5161C44.8213 12.5161 44.8454 12.508 44.8535 12.5C44.8454 12.5 44.8374 12.5 44.8213 12.5161Z" fill="#111010"/>
        <path d="M44.5478 10.8642C44.5478 10.8642 44.5395 10.8559 44.5312 10.8477C44.5312 10.8477 44.5395 10.8559 44.5478 10.8642Z" fill="#111010"/>
        <path d="M40.1066 9.66904C40.1066 9.66904 40.074 9.64453 40.0576 9.64453C40.074 9.64453 40.0903 9.66087 40.1066 9.66904Z" fill="#111010"/>
        <path d="M36.0334 8.72266C36.0334 8.72266 36.0334 8.78703 36.0254 8.81922C36.0254 8.78703 36.0254 8.76289 36.0334 8.72266Z" fill="#111010"/>
        <path d="M31.5449 10.0499C31.5368 10.0177 31.5207 9.9775 31.5127 9.94531C31.5288 9.9775 31.5368 10.0177 31.5449 10.0499Z" fill="#111010"/>
        <path d="M75.7447 57.9307V57.9468C75.4952 57.8342 75.4148 58.0273 75.3343 58.1802C74.7227 59.3953 73.9261 60.4977 73.234 61.6645C71.3994 64.4487 68.8324 66.6294 66.8448 69.3653C67.5208 69.2849 67.9151 68.8503 68.3093 68.448C69.5244 67.2007 70.7476 65.9535 71.9144 64.666C72.6788 63.8291 73.4674 63.0003 73.9905 61.9703C74.7066 60.9644 75.286 59.8861 75.7849 58.7595C75.8815 58.6308 75.978 58.5021 75.978 58.3331C76.0022 58.2928 76.0263 58.2606 76.0505 58.2204C76.0746 58.1641 76.0907 58.1158 76.1148 58.0595C76.4045 57.5525 76.654 57.0214 76.823 56.4581C76.9598 56.2972 77.0322 56.1202 77.0402 55.9029C77.2816 55.7339 77.0644 55.2028 77.5713 55.2431C77.6437 55.4201 77.7081 55.3799 77.7805 55.2431L77.8127 55.2109C77.9495 55.0097 78.1185 54.8246 78.1266 54.5591C78.3116 54.2453 78.3358 53.8831 78.3921 53.5291C78.4806 52.9819 78.376 52.4025 78.6255 51.8875C79.3738 50.3586 79.6394 48.717 79.8003 47.0513C79.913 46.7375 79.9049 46.4156 79.9049 46.0937C80.0417 45.788 80.0176 45.4741 80.0095 45.1523C80.0095 45.0155 80.0256 44.8867 80.0337 44.7499C80.0578 44.6212 80.1061 44.4924 80.1141 44.3556C80.2509 41.33 80.1866 38.3124 79.583 35.3431C77.2897 24.1579 71.681 15.1856 62.0489 8.78837C52.8915 2.72906 42.9777 0.306948 32.1627 2.30258C21.0339 4.35453 12.4961 10.3656 6.50119 19.9655C6.02642 20.7219 5.63212 21.5266 4.83548 22.0255C4.65845 22.1382 4.52165 22.3474 4.42509 22.5405C4.00665 23.3774 3.56407 24.2062 3.25829 25.0994C1.12587 31.4484 0.401646 37.9905 0.755709 44.6614C0.892506 47.3008 1.36727 49.8999 2.41337 52.3542C4.36072 56.949 6.81502 61.2299 9.9533 65.1166C12.8743 68.7216 16.1333 71.9404 20.2614 74.1854C25.9586 77.2754 32.0742 78.579 38.5037 78.6193C39.1635 78.6193 39.8877 78.3698 40.4591 78.9814C40.5476 79.0779 40.8051 79.0297 40.9821 79.0216C42.2616 78.9975 43.5249 78.8124 44.7883 78.6193C48.5542 78.0479 52.2236 77.1467 55.7562 75.6661C57.269 75.0304 58.4358 73.9118 59.8762 73.1876C61.735 72.2542 63.5617 71.2725 65.1308 69.8643C66.9575 68.2307 68.4622 66.3075 70.1119 64.505C72.3006 62.1151 74.1031 59.4596 75.3665 56.4581C76.3321 54.1487 77.1931 51.807 77.6357 49.3286C78.0622 47.7675 78.3438 46.1823 78.2231 44.5487C77.7725 46.1098 77.8288 47.7434 77.4828 49.3206C77.3058 49.6746 77.3219 50.1655 76.9919 50.4069C76.5252 50.7449 76.3965 51.2196 76.2436 51.7105C75.5274 53.9958 74.6181 56.2006 73.5237 58.325C73.0812 59.1941 72.5581 60.0229 71.8419 60.6989C71.6327 60.6103 71.7534 60.3287 71.4798 60.3528C71.0533 61.0046 70.7476 61.7449 70.5062 62.5014C70.4498 62.6864 70.4337 62.8715 70.2969 63.0244C66.8207 67.0318 62.7248 70.2425 57.8886 72.4232C55.555 73.4773 53.1007 74.274 50.7832 75.3844C49.9544 75.7787 49.0853 75.9236 48.1438 75.9397C46.623 75.9638 45.1665 76.5432 43.6617 76.7202C38.3749 77.3398 33.1203 77.1708 27.9462 75.7868C25.6367 75.1672 23.3111 74.4912 21.2753 73.2359C16.0368 69.985 11.619 65.8328 8.23932 60.6586C5.67236 56.7237 3.38704 52.6439 2.63868 47.8802C1.93055 43.3498 1.60063 38.8194 2.30876 34.2487C3.4836 26.749 6.37244 20.0701 11.7317 14.5821C12.6973 13.5924 13.6227 12.5624 14.701 11.645C15.1757 12.2083 15.4654 11.814 15.8195 11.5324C17.6059 10.1402 19.0785 8.38602 21.1546 7.33188C26.2 4.77297 31.4707 3.09922 37.1679 2.90609C38.0209 2.87391 38.7612 3.24406 39.582 3.22797C41.0384 3.19578 42.4949 3.2682 43.9434 3.16359C45.1987 3.06703 46.3172 3.50961 47.484 3.7832C47.6449 3.82344 47.7898 3.91195 47.8381 4.06485C47.991 4.56375 48.3933 4.53961 48.6991 4.37867C49.2865 4.07289 49.8096 4.22578 50.3728 4.39477C53.0042 5.19141 55.37 6.48696 57.7035 7.92735C60.7453 9.81032 63.8594 11.5726 66.3942 14.1556C67.8668 15.6524 69.4279 17.0767 70.4659 18.9435C71.0453 19.9816 71.689 20.9714 72.3972 21.9209C73.5237 23.4257 74.5698 24.9787 75.3987 26.6766C77.0402 30.0643 77.8449 33.6533 78.1024 37.387C78.1507 38.1354 78.2312 38.8837 78.4243 39.7126C78.6818 39.278 78.3519 38.8033 78.7542 38.5055C79.0037 38.9401 78.9956 38.9401 79.0359 39.4631C79.3014 42.7382 79.06 45.9811 78.5128 49.2079C78.4967 49.2964 78.4887 49.3769 78.4726 49.4654C78.3438 49.7631 78.2634 50.0689 78.2634 50.3988H78.2714C77.6518 52.2416 77.1851 54.1245 76.4769 55.919C76.3884 55.9834 76.3401 56.0719 76.3482 56.1926C76.1068 56.6674 75.8654 57.1341 75.6159 57.6088C75.5435 57.7537 75.4389 57.8985 75.7044 57.9468L75.7447 57.9307Z" fill="black"/>
    </g>
    <defs>
        <clipPath id="clip0_1807_2080">
            <rect width="81" height="79.9217" fill="white"/>
        </clipPath>
    </defs>
</svg>
