<svg width="18" height="10" viewBox="0 0 18 10" fill="none" xmlns="http://www.w3.org/2000/svg">
<path d="M1.24442 0.787994C1.07066 0.958176 0.975586 1.19381 0.975586 1.43599C0.975586 1.67818 1.07394 1.91381 1.24442 2.08399L8.39809 9.21854C8.57185 9.39199 8.80462 9.4869 9.04723 9.4869C9.28983 9.4869 9.52589 9.38872 9.69637 9.21854L16.85 2.08399C17.0828 1.85163 17.1713 1.51454 17.0894 1.19708C17.0041 0.87963 16.7582 0.634175 16.4402 0.549085C16.1222 0.463994 15.7845 0.55563 15.5517 0.787994L9.04723 7.27454L2.54926 0.787994C2.3755 0.614539 2.14273 0.516357 1.89684 0.516357C1.65095 0.516357 1.4149 0.614539 1.24442 0.787994Z" fill="#F5F0D4"/>
</svg>
