<svg width="18" height="10" viewBox="0 0 18 10" fill="none" xmlns="http://www.w3.org/2000/svg">
<path d="M1.24442 9.21201C1.07066 9.04182 0.975586 8.80619 0.975586 8.56401C0.975586 8.32182 1.07394 8.08619 1.24442 7.91601L8.39809 0.781461C8.57185 0.608006 8.80462 0.513097 9.04723 0.513097C9.28983 0.513097 9.52589 0.611279 9.69637 0.781461L16.85 7.91601C17.0828 8.14837 17.1713 8.48546 17.0894 8.80292C17.0041 9.12037 16.7582 9.36582 16.4402 9.45092C16.1222 9.53601 15.7845 9.44437 15.5517 9.21201L9.04723 2.72546L2.54926 9.21201C2.3755 9.38546 2.14273 9.48364 1.89684 9.48364C1.65095 9.48364 1.4149 9.38546 1.24442 9.21201Z" fill="#F5F0D4"/>
</svg>
