<?xml version="1.0" encoding="UTF-8"?><svg xmlns="http://www.w3.org/2000/svg" viewBox="0 0 55 55"><defs><style>.cls-1{stroke:#000;stroke-miterlimit:10;}</style></defs><g id="Layer_4"><path class="cls-1" d="M35,3.61c-4.78,1.82-9.87,4.32-15.34,6.89-.09,.05-.17,.11-.24,.19-1.51,1.88-2.35,4.71-2.96,7.75-.59,2.94-.93,6.06-1.26,8.73l-10.87,13.65c-.22,.27-.19,.71,.06,.94l12.22,11.13H4.18v1.37H44.65v-1.37H23.94l16.42-18.72c.22-.25,.21-.68-.02-.92l-4.65-4.64c.93-.82,1.8-1.63,2.53-2.46,1.79-2.05,2.86-4.42,2.96-7.72l9.28-4.24c.22-.12,.37-.37,.36-.62V1.5c0-.34-.3-.66-.64-.68-5.19-.43-10.98,1.21-15.18,2.79h0Zm14.45-1.42V13.15l-9.24,4.22c-.22,.11-.36,.35-.36,.6,0,3.29-.93,5.28-2.66,7.25-2.55,2.66-5.25,4.72-7.44,6.65-1.14,1.06-3.11,2.57-4.42,1.41-.58-.96,.33-2.07,.9-2.82,1.07-1.39,2.81-3.12,4.54-5.2,.21-.26,.2-.68-.04-.92l-6.86-6.85c-.27-.27-.77-.23-1.01,.06-2,2.46-3.99,4.99-5.98,7.49,.26-2.1,.48-4.24,.9-6.33,.58-2.9,1.44-5.51,2.64-7.06,5.37-2.52,10.33-4.93,14.94-6.69,5.08-1.89,9.96-2.95,14.09-2.78h0ZM23.45,19.01l5.85,5.84c-1.54,1.79-3.08,3.39-4.14,4.77-1.2,1.36-1.93,3.19-.9,4.58,2.01,1.84,4.78,.27,6.43-1.35,1.34-1.15,2.75-2.35,3.94-3.36l4.27,4.26-16.76,19.13h-3.52l-12.82-11.7c5.9-7.41,11.79-14.75,17.64-22.17h0Z"/></g><g id="Layer_5"><g><path d="M16.04,39.66c0-1.84,1.49-3.32,3.32-3.32,.7,0,1.34,.22,1.88,.58l1.41-1.41c-.97-.46-2.07-.77-3.29-.77-4.89,0-7.88,4.92-7.88,4.92,0,0,1.26,2.07,3.48,3.53l1.65-1.65c-.37-.53-.58-1.18-.58-1.88h0Z"/><path d="M23.76,36.14l-1.65,1.65c.37,.53,.58,1.18,.58,1.88,0,1.84-1.49,3.32-3.32,3.32-.7,0-1.34-.22-1.88-.58l-1.41,1.41c.97,.46,2.07,.77,3.29,.77,4.89,0,7.88-4.92,7.88-4.92,0,0-1.26-2.07-3.48-3.53h0Z"/><path d="M17.7,39.66c0,.23,.05,.46,.14,.66l2.19-2.19c-.2-.09-.43-.14-.66-.14-.92,0-1.66,.74-1.66,1.66h0Z"/><path d="M21.03,39.66c0-.23-.05-.46-.14-.66l-2.19,2.19c.2,.09,.43,.14,.66,.14,.92,0,1.66-.74,1.66-1.66h0Z"/></g></g></svg>