<svg id="Layer_5" xmlns="http://www.w3.org/2000/svg" viewBox="0 0 21.43 22.07">
<defs><style>.cls-1{fill:none;stroke-width:1.3px;}.cls-1,.cls-2{stroke:#000;stroke-miterlimit:10;}.cls-2{stroke-width:0.5px;}.cls-3{fill:#000;stroke-width:0.5px;}</style></defs>
<g>
<path class="cls-3" d="M6.21,16.18c0-.73,.6-1.33,1.33-1.33,.28,0,.54,.09,.75,.23l.56-.56c-.39-.18-.83-.31-1.32-.31-1.96,0-3.15,1.97-3.15,1.97,0,0,.5,.83,1.39,1.41l.66-.66c-.15-.21-.23-.47-.23-.75h0Z"/>
<path class="cls-3" d="M9.3,14.77l-.66,.66c.15,.21,.23,.47,.23,.75,0,.73-.6,1.33-1.33,1.33-.28,0-.54-.09-.75-.23l-.56,.56c.39,.18,.83,.31,1.32,.31,1.96,0,3.15-1.97,3.15-1.97,0,0-.5-.83-1.39-1.41h0Z"/>
<path class="cls-3" d="M6.88,16.18c0,.09,.02,.18,.05,.26l.87-.87c-.08-.04-.17-.05-.26-.05-.37,0-.66,.3-.66,.66h0Z"/>
<path class="cls-3" d="M8.21,16.18c0-.09-.02-.18-.05-.26l-.87,.87c.08,.04,.17,.05,.26,.05,.37,0,.66-.3,.66-.67h0Z"/>
</g>
<path class="cls-1" d="M19.16,5.59V1.32c0-.16-.13-.3-.29-.3-.75,0-2.84,.06-5.14,.91-2.88,1.05-5.28,2.31-5.28,2.31,0,0-.99,.07-1.51,2.08s-.89,4.45-.89,4.45l-3.92,5.11c-.09,.12-.08,.3,.04,.4l4.5,4.09c.06,.05,.13,.08,.2,.08h1.78c.09,0,.17-.04,.22-.1l5.95-6.69c.1-.12,.1-.3,0-.41l-1.64-1.68s1.53-1.41,1.88-2.11,.5-1.36,.45-1.85c-.05-.43,2.71-1.46,3.47-1.74,.12-.04,.19-.15,.19-.28Z"/>
<path class="cls-1" d="M3.9,13.56l4.53-5.84c.11-.14,.31-.16,.44-.03l2.3,2.19c.12,.11,.13,.29,.02,.41l-1.46,1.94s-1.19,2.18,.53,1.33,2.6-1.74,2.6-1.74"/>
<line class="cls-1" x1="1.52" y1="20.65" x2="17.01" y2="20.65"/>
</svg>