<svg width="20" height="23" viewBox="0 0 20 23" fill="none" xmlns="http://www.w3.org/2000/svg">
<path d="M6.61581 4.14497C6.53629 4.18187 6.46534 4.23762 6.41053 4.3062C5.72595 5.16433 5.3732 6.38204 5.11591 7.6725C4.87237 8.89401 4.73287 10.1727 4.59816 11.2716L0.124968 16.921C-0.0526062 17.1456 -0.0235093 17.5065 0.187549 17.6999L4.72309 21.8541L0 21.8415V22.9874L17.1426 23V21.8541H9.1519L15.5712 14.4947C15.7575 14.2787 15.7452 13.9183 15.5445 13.7158L13.8214 11.9879C14.1287 11.7079 14.4213 11.4322 14.6786 11.1374C15.4256 10.2815 15.8975 9.24409 15.9732 7.8874L19.6965 6.07529C19.8798 5.97763 20.0016 5.77327 20 5.56491V0.640786C19.9964 0.358022 19.7543 0.0989038 19.4733 0.0766741C14.5716 -0.505304 10.2862 2.35967 6.61631 4.14488L6.61581 4.14497ZM18.8569 1.21362V5.22447L15.1606 7.02775C14.9799 7.12401 14.8587 7.32395 14.8571 7.52911C14.8571 8.84667 14.5085 9.58888 13.8213 10.3762C12.7545 11.4814 11.6456 12.3309 10.741 13.1427C10.3153 13.5442 9.66065 14.0881 9.33045 13.7604C9.19553 13.5171 9.54928 13.1345 9.70552 12.9277C10.1294 12.3718 10.8463 11.6446 11.5805 10.761C11.7597 10.5439 11.7433 10.1905 11.5448 9.99117L8.68772 7.1262C8.45953 6.90199 8.03763 6.92866 7.83952 7.17995L6.00919 9.48979C6.08373 8.94534 6.13714 8.41829 6.24137 7.89607C6.47494 6.72493 6.82473 5.70031 7.25916 5.11176C11.4288 3.21904 14.5269 1.08945 18.8569 1.21359V1.21362ZM8.33925 8.39748L10.3571 10.4207C9.78953 11.0695 9.20837 11.6868 8.79465 12.2293C8.24777 12.9135 7.98849 13.8484 8.45545 14.5301C9.45294 15.3692 10.6698 14.7826 11.5268 13.975C12.0085 13.5422 12.5308 13.1137 12.9643 12.7485L14.3572 14.145L7.63434 21.8536H6.42002L1.34878 17.207C3.68813 14.2618 6.02105 11.3487 8.33948 8.39722L8.33925 8.39748Z" fill="#8E7370"/>
</svg>
