<svg width="22" height="24" viewBox="0 0 22 24" fill="none" xmlns="http://www.w3.org/2000/svg">
<path d="M14.2729 1.57528C12.1871 2.36946 9.96604 3.46037 7.57913 4.58182C7.53985 4.60364 7.50495 4.62982 7.4744 4.66473C6.81549 5.48509 6.44895 6.72 6.18276 8.04655C5.92531 9.32946 5.77695 10.6909 5.63295 11.856L0.889673 17.8124C0.793673 17.9302 0.806764 18.1222 0.915855 18.2225L6.24822 23.0793H0.824219V23.6771H18.4839V23.0793H9.44676L16.6119 14.9105C16.7079 14.8015 16.7035 14.6138 16.6031 14.5091L14.574 12.4844C14.9799 12.1265 15.3595 11.7731 15.678 11.4109C16.4591 10.5164 16.926 9.48218 16.9697 8.04219L21.0191 6.192C21.1151 6.13964 21.1806 6.03055 21.1762 5.92146V0.654549C21.1762 0.506186 21.0453 0.366549 20.8969 0.357822C18.6322 0.170186 16.1057 0.885822 14.2729 1.57528ZM20.5784 0.95564V5.73818L16.5464 7.57964C16.4504 7.62764 16.3893 7.73237 16.3893 7.84146C16.3893 9.27709 15.9835 10.1455 15.2286 11.0051C14.1159 12.1658 12.9377 13.0647 11.982 13.9069C11.4846 14.3695 10.6249 15.0284 10.0533 14.5222C9.80022 14.1033 10.1973 13.6189 10.446 13.2916C10.9129 12.6851 11.6722 11.9302 12.4271 11.0225C12.5188 10.9091 12.5144 10.7258 12.4097 10.6211L9.41622 7.632C9.2984 7.51418 9.08022 7.53164 8.97549 7.65818C8.10276 8.73164 7.2344 9.83564 6.36604 10.9265C6.47949 10.0102 6.57549 9.07637 6.75876 8.16437C7.01185 6.89891 7.38713 5.76 7.91076 5.08364C10.254 3.984 12.4184 2.93237 14.43 2.16437C16.6468 1.33964 18.7762 0.877095 20.5784 0.951276V0.95564ZM9.23295 8.29528L11.7857 10.8436C11.1137 11.6247 10.4417 12.3229 9.97913 12.9251C9.45549 13.5185 9.13695 14.3171 9.5864 14.9236C10.4635 15.7265 11.6722 15.0415 12.3922 14.3345C12.9769 13.8327 13.5922 13.3091 14.1115 12.8684L15.9748 14.7273L8.66131 23.0749H7.12531L1.53113 17.9695C4.10567 14.736 6.67585 11.5331 9.22858 8.29528H9.23295Z" fill="#8E7370" stroke="#8E7370" stroke-width="0.418182" stroke-miterlimit="10"/>
<path d="M5.9991 17.3061C5.9991 16.5032 6.64928 15.8574 7.44782 15.8574C7.75328 15.8574 8.03255 15.9534 8.26819 16.1105L8.88346 15.4952C8.46019 15.2945 7.98019 15.1592 7.44782 15.1592C5.31401 15.1592 4.00928 17.3061 4.00928 17.3061C4.00928 17.3061 4.5591 18.2094 5.52782 18.8465L6.24782 18.1265C6.08637 17.8952 5.99473 17.6116 5.99473 17.3061H5.9991Z" fill="#8E7370"/>
<path d="M9.36763 15.7702L8.64763 16.4902C8.80909 16.7215 8.90072 17.0051 8.90072 17.3106C8.90072 18.1135 8.25054 18.7593 7.45199 18.7593C7.14654 18.7593 6.86727 18.6633 6.63163 18.5062L6.01636 19.1215C6.43963 19.3222 6.91963 19.4575 7.45199 19.4575C9.58581 19.4575 10.8905 17.3106 10.8905 17.3106C10.8905 17.3106 10.3407 16.4073 9.37199 15.7702H9.36763Z" fill="#8E7370"/>
</svg>
