<svg width="19" height="19" viewBox="0 0 19 19" fill="none" xmlns="http://www.w3.org/2000/svg">
<path d="M8.77002 10.37V5.37H9.77002V10.37H8.77002Z" fill="black" stroke="#7D0808"/>
<path d="M9.27002 12.09C9.54616 12.09 9.77002 12.3139 9.77002 12.59C9.77002 12.8661 9.54616 13.09 9.27002 13.09C8.99388 13.09 8.77002 12.8661 8.77002 12.59C8.77002 12.3139 8.99388 12.09 9.27002 12.09Z" fill="black" stroke="#7D0808"/>
<path d="M9.26999 17.89C14.0528 17.89 17.93 14.0128 17.93 9.23001C17.93 4.44722 14.0528 0.570007 9.26999 0.570007C4.4872 0.570007 0.609985 4.44722 0.609985 9.23001C0.609985 14.0128 4.4872 17.89 9.26999 17.89Z" stroke="#7D0808" stroke-width="1.05" stroke-miterlimit="10"/>
</svg>
