<svg width="24" height="24" viewBox="0 0 24 24" fill="none" xmlns="http://www.w3.org/2000/svg">
<path d="M1.48168 23.8025C1.77161 23.9506 2.10986 24 2.44812 24C3.41456 24 4.28435 23.4074 4.67093 22.5185L6.16891 19.0618C6.26555 18.8149 6.16891 18.5186 5.9273 18.4198L5.68569 18.3211L6.84542 15.5557C7.13535 15.605 7.37696 15.605 7.66689 15.605C7.9085 15.605 8.10179 15.605 8.29508 15.5557V22.0244C8.29508 22.3207 8.48836 22.5183 8.7783 22.5183H23.5168C23.8067 22.5183 24 22.3207 24 22.0244V0.493821C24 0.197529 23.8067 0 23.5168 0H8.7783C8.48836 0 8.29508 0.197529 8.29508 0.493821V3.06169C8.10179 3.06169 7.86018 3.01231 7.66689 3.01231C5.20247 3.01231 3.02798 4.49377 2.01294 6.76535C1.33643 8.2962 1.33643 10.0246 1.9163 11.5554C2.30287 12.5924 2.93106 13.4319 3.75253 14.1233L2.59281 16.8887L2.3512 16.7899C2.25455 16.7405 2.10959 16.7405 1.96462 16.7899C1.86798 16.8393 1.77133 16.9381 1.67469 17.0368L0.176706 20.4936C-0.306514 21.7775 0.225028 23.259 1.4814 23.8022L1.48168 23.8025ZM23.0333 2.37063H13.9487L13.3689 0.987925H23.0333V2.37063ZM9.26124 0.987925H12.3538L13.1753 3.06197C13.272 3.2595 13.4169 3.35827 13.6102 3.35827H23.0327V21.5309H9.26069V15.3578C11.0486 14.864 12.4983 13.5801 13.2714 11.8023C13.9479 10.2715 13.9479 8.54311 13.3681 7.01226C12.7882 5.43204 11.6285 4.24686 10.1305 3.55551C9.84055 3.45675 9.55062 3.35799 9.30901 3.25922V0.987643L9.26124 0.987925ZM2.83414 11.2097C2.35092 9.87643 2.35092 8.44435 2.93078 7.16041C3.75226 5.23451 5.63681 3.99995 7.66634 3.99995C8.39117 3.99995 9.06768 4.1481 9.74418 4.44439C11.0006 4.9876 11.967 6.02462 12.4985 7.35794C12.9818 8.69126 12.9818 10.1233 12.4019 11.4073C11.5804 13.3332 9.69586 14.5677 7.66634 14.5677C6.94151 14.5677 6.265 14.4196 5.58849 14.1233C4.33212 13.5801 3.36568 12.5431 2.83414 11.2097ZM4.57373 14.7159C4.76702 14.8146 5.00863 14.9628 5.20192 15.0616C5.44353 15.1603 5.63682 15.2591 5.87843 15.3085L4.76702 17.8763L3.46233 17.2837L4.57373 14.7159ZM1.09455 20.8889L2.39924 17.8766L2.64085 17.9754L4.81534 18.963L5.05695 19.0618L3.80058 22.1235C3.55897 22.6667 3.02743 23.0124 2.44756 23.0124C2.25428 23.0124 2.06099 22.963 1.8677 22.8642C1.09455 22.5679 0.756295 21.679 1.09455 20.8889Z" fill="#8E7370"/>
</svg>
