<svg width="25" height="25" viewBox="0 0 25 25" fill="none" xmlns="http://www.w3.org/2000/svg">
<path className="circle" d="M12.4367 17.8734C15.4393 17.8734 17.8734 15.4393 17.8734 12.4367C17.8734 9.43409 15.4393 7 12.4367 7C9.43409 7 7 9.43409 7 12.4367C7 15.4393 9.43409 17.8734 12.4367 17.8734Z" stroke="#8E7370" stroke-width="1.05821" stroke-miterlimit="10"/>
<path d="M22.97 8.55793H22.4603C22.1691 8.55793 21.9118 8.38318 21.8001 8.1162C21.6885 7.84922 21.7516 7.5434 21.9555 7.33953L22.3195 6.99003C22.5623 6.74732 22.6933 6.42209 22.6933 6.08229C22.6933 5.7425 22.5574 5.41727 22.3195 5.17456L19.0915 1.93682C18.8488 1.69411 18.5236 1.56305 18.1838 1.56305C17.844 1.56305 17.5188 1.69896 17.276 1.93682L16.9168 2.29603C16.713 2.49991 16.4071 2.56301 16.1402 2.45136C15.8732 2.33972 15.6984 2.08245 15.6984 1.79119V1.2815C15.6984 0.941712 15.5625 0.611627 15.3198 0.373772C15.0771 0.131063 14.7519 0 14.4121 0H9.84429C9.50449 0 9.17926 0.135917 8.93655 0.378626C8.69385 0.621336 8.55793 0.946566 8.55793 1.28636V1.79605C8.55793 2.0873 8.38318 2.34457 8.1162 2.45622C7.84922 2.56786 7.5434 2.50476 7.33953 2.30088L6.99003 1.93682C6.74732 1.69411 6.42209 1.56305 6.08229 1.56305C5.7425 1.56305 5.41727 1.69896 5.17456 1.93682L1.93682 5.16485C1.69411 5.40756 1.56305 5.73279 1.56305 6.07259C1.56305 6.41238 1.69896 6.73761 1.93682 6.98032L2.29603 7.33953C2.49991 7.5434 2.56301 7.84922 2.45136 8.1162C2.33972 8.38318 2.08245 8.55793 1.79119 8.55793H1.2815C0.941712 8.55793 0.611627 8.69384 0.373772 8.93655C0.131063 9.17926 0 9.50449 0 9.84429V14.4121C0 14.7519 0.135917 15.0771 0.378626 15.3198C0.621336 15.5625 0.946566 15.6984 1.28636 15.6984H1.79605C2.0873 15.6984 2.34457 15.8732 2.45622 16.1402C2.56786 16.4071 2.50476 16.713 2.30088 16.9168L1.93682 17.2663C1.69411 17.509 1.56305 17.8343 1.56305 18.1741C1.56305 18.5139 1.69896 18.8391 1.93682 19.0818L5.16485 22.3195C5.40756 22.5623 5.73279 22.6933 6.07259 22.6933C6.41238 22.6933 6.73761 22.5574 6.98032 22.3195L7.33953 21.9603C7.5434 21.7565 7.84922 21.6933 8.1162 21.805C8.38318 21.9166 8.55793 22.1739 8.55793 22.4652V22.9749C8.55793 23.3146 8.69385 23.6447 8.93655 23.8826C9.17926 24.1253 9.50449 24.2564 9.84429 24.2564H14.4121C14.7519 24.2564 15.0771 24.1204 15.3198 23.8777C15.5625 23.635 15.6984 23.3098 15.6984 22.97V22.4603C15.6984 22.1691 15.8732 21.9118 16.1402 21.8001C16.4071 21.6885 16.713 21.7516 16.9168 21.9555L17.2663 22.3195C17.509 22.5623 17.8343 22.6933 18.1741 22.6933C18.5139 22.6933 18.8391 22.5574 19.0818 22.3195L22.3195 19.0867C22.5623 18.8439 22.6933 18.5187 22.6933 18.1789C22.6933 17.8391 22.5574 17.5139 22.3195 17.2712L21.9603 16.912C21.7565 16.7081 21.6934 16.4023 21.805 16.1353C21.9166 15.8683 22.1739 15.6936 22.4652 15.6936H22.9749C23.3147 15.6936 23.6399 15.5577 23.8826 15.315C24.1253 15.0722 24.2612 14.747 24.2612 14.4072V9.83943C24.2612 9.49964 24.1253 9.17441 23.8826 8.9317C23.6399 8.68899 23.3147 8.55307 22.9749 8.55307L22.97 8.55793ZM22.8292 14.2664H22.4603C21.8924 14.2664 21.3487 14.4946 20.9458 14.8926C20.5429 15.2955 20.3196 15.8392 20.3196 16.4071C20.3196 16.9751 20.5429 17.5188 20.9458 17.9216L21.2079 18.1838L18.1789 21.2128L17.9168 20.9507C17.5139 20.5478 16.9702 20.3245 16.4023 20.3245C15.8344 20.3245 15.2907 20.5478 14.8878 20.9507C14.4849 21.3536 14.2616 21.8972 14.2616 22.4652V22.8341H9.98021V22.4652C9.98021 21.8972 9.75206 21.3536 9.35402 20.9507C8.95112 20.5478 8.40745 20.3245 7.83951 20.3245C7.27157 20.3245 6.7279 20.5478 6.325 20.9507L6.06288 21.2128L3.03387 18.1838L3.29599 17.9216C3.69889 17.5188 3.92218 16.9751 3.92218 16.4071C3.92218 15.8392 3.69889 15.2955 3.29599 14.8926C2.89309 14.4897 2.34943 14.2664 1.78149 14.2664H1.41257V9.98506H1.78149C2.34943 9.98506 2.89309 9.75691 3.29599 9.35887C3.69889 8.95597 3.92218 8.4123 3.92218 7.84436C3.92218 7.27642 3.69889 6.73275 3.29599 6.32986L3.03387 6.06773L6.06288 3.03872L6.325 3.30085C6.7279 3.70374 7.27157 3.92704 7.83951 3.92704C8.40745 3.92704 8.95112 3.70374 9.35402 3.30085C9.75691 2.89795 9.98021 2.35428 9.98021 1.78634V1.41742H14.2616V1.78634C14.2616 2.35428 14.4897 2.89795 14.8878 3.30085C15.2907 3.70374 15.8344 3.92704 16.4023 3.92704C16.9702 3.92704 17.5139 3.70374 17.9168 3.30085L18.1789 3.03872L21.2079 6.06773L20.9458 6.32986C20.5429 6.73275 20.3196 7.27642 20.3196 7.84436C20.3196 8.4123 20.5429 8.95597 20.9458 9.35887C21.3487 9.76177 21.8924 9.98506 22.4603 9.98506H22.8292V14.2664Z" fill="#8E7370"/>
</svg>
