<svg width="28" height="28" viewBox="0 0 28 28" fill="none" xmlns="http://www.w3.org/2000/svg">
<path d="M13.6203 19.7345C16.9943 19.7345 19.7294 16.9994 19.7294 13.6254C19.7294 10.2515 16.9943 7.51636 13.6203 7.51636C10.2464 7.51636 7.51123 10.2515 7.51123 13.6254C7.51123 16.9994 10.2464 19.7345 13.6203 19.7345Z" stroke="#8E7370" stroke-width="1.18909" stroke-miterlimit="10"/>
<path d="M25.8109 9.61636H25.2382C24.9109 9.61636 24.6218 9.42 24.4964 9.12C24.3709 8.82 24.4418 8.47636 24.6709 8.24727L25.08 7.85454C25.3527 7.58182 25.5 7.21636 25.5 6.83455C25.5 6.45273 25.3473 6.08727 25.08 5.81454L21.4527 2.17636C21.18 1.90364 20.8145 1.75636 20.4327 1.75636C20.0509 1.75636 19.6855 1.90909 19.4127 2.17636L19.0091 2.58C18.78 2.80909 18.4364 2.88 18.1364 2.75455C17.8364 2.62909 17.64 2.34 17.64 2.01273V1.44C17.64 1.05818 17.4873 0.687273 17.2145 0.42C16.9418 0.147273 16.5764 0 16.1945 0H11.0618C10.68 0 10.3145 0.152727 10.0418 0.425454C9.76909 0.698182 9.61636 1.06364 9.61636 1.44545V2.01818C9.61636 2.34545 9.42 2.63455 9.12 2.76C8.82 2.88545 8.47636 2.81455 8.24727 2.58545L7.85455 2.17636C7.58182 1.90364 7.21636 1.75636 6.83455 1.75636C6.45273 1.75636 6.08727 1.90909 5.81455 2.17636L2.17636 5.80364C1.90364 6.07636 1.75636 6.44182 1.75636 6.82364C1.75636 7.20545 1.90909 7.57091 2.17636 7.84364L2.58 8.24727C2.80909 8.47636 2.88 8.82 2.75455 9.12C2.62909 9.42 2.34 9.61636 2.01273 9.61636H1.44C1.05818 9.61636 0.687273 9.76909 0.42 10.0418C0.147273 10.3145 0 10.68 0 11.0618V16.1945C0 16.5764 0.152727 16.9418 0.425455 17.2145C0.698182 17.4873 1.06364 17.64 1.44545 17.64H2.01818C2.34545 17.64 2.63455 17.8364 2.76 18.1364C2.88545 18.4364 2.81455 18.78 2.58545 19.0091L2.17636 19.4018C1.90364 19.6745 1.75636 20.04 1.75636 20.4218C1.75636 20.8036 1.90909 21.1691 2.17636 21.4418L5.80364 25.08C6.07636 25.3527 6.44182 25.5 6.82364 25.5C7.20545 25.5 7.57091 25.3473 7.84364 25.08L8.24727 24.6764C8.47636 24.4473 8.82 24.3764 9.12 24.5018C9.42 24.6273 9.61636 24.9164 9.61636 25.2436V25.8164C9.61636 26.1982 9.76909 26.5691 10.0418 26.8364C10.3145 27.1091 10.68 27.2564 11.0618 27.2564H16.1945C16.5764 27.2564 16.9418 27.1036 17.2145 26.8309C17.4873 26.5582 17.64 26.1927 17.64 25.8109V25.2382C17.64 24.9109 17.8364 24.6218 18.1364 24.4964C18.4364 24.3709 18.78 24.4418 19.0091 24.6709L19.4018 25.08C19.6745 25.3527 20.04 25.5 20.4218 25.5C20.8036 25.5 21.1691 25.3473 21.4418 25.08L25.08 21.4473C25.3527 21.1745 25.5 20.8091 25.5 20.4273C25.5 20.0455 25.3473 19.68 25.08 19.4073L24.6764 19.0036C24.4473 18.7745 24.3764 18.4309 24.5018 18.1309C24.6273 17.8309 24.9164 17.6345 25.2436 17.6345H25.8164C26.1982 17.6345 26.5636 17.4818 26.8364 17.2091C27.1091 16.9364 27.2618 16.5709 27.2618 16.1891V11.0564C27.2618 10.6745 27.1091 10.3091 26.8364 10.0364C26.5636 9.76364 26.1982 9.61091 25.8164 9.61091L25.8109 9.61636ZM25.6527 16.0309H25.2382C24.6 16.0309 23.9891 16.2873 23.5364 16.7345C23.0836 17.1873 22.8327 17.7982 22.8327 18.4364C22.8327 19.0745 23.0836 19.6855 23.5364 20.1382L23.8309 20.4327L20.4273 23.8364L20.1327 23.5418C19.68 23.0891 19.0691 22.8382 18.4309 22.8382C17.7927 22.8382 17.1818 23.0891 16.7291 23.5418C16.2764 23.9945 16.0255 24.6055 16.0255 25.2436V25.6582H11.2145V25.2436C11.2145 24.6055 10.9582 23.9945 10.5109 23.5418C10.0582 23.0891 9.44727 22.8382 8.80909 22.8382C8.17091 22.8382 7.56 23.0891 7.10727 23.5418L6.81273 23.8364L3.40909 20.4327L3.70364 20.1382C4.15636 19.6855 4.40727 19.0745 4.40727 18.4364C4.40727 17.7982 4.15636 17.1873 3.70364 16.7345C3.25091 16.2818 2.64 16.0309 2.00182 16.0309H1.58727V11.22H2.00182C2.64 11.22 3.25091 10.9636 3.70364 10.5164C4.15636 10.0636 4.40727 9.45273 4.40727 8.81454C4.40727 8.17636 4.15636 7.56545 3.70364 7.11273L3.40909 6.81818L6.81273 3.41455L7.10727 3.70909C7.56 4.16182 8.17091 4.41273 8.80909 4.41273C9.44727 4.41273 10.0582 4.16182 10.5109 3.70909C10.9636 3.25636 11.2145 2.64545 11.2145 2.00727V1.59273H16.0255V2.00727C16.0255 2.64545 16.2818 3.25636 16.7291 3.70909C17.1818 4.16182 17.7927 4.41273 18.4309 4.41273C19.0691 4.41273 19.68 4.16182 20.1327 3.70909L20.4273 3.41455L23.8309 6.81818L23.5364 7.11273C23.0836 7.56545 22.8327 8.17636 22.8327 8.81454C22.8327 9.45273 23.0836 10.0636 23.5364 10.5164C23.9891 10.9691 24.6 11.22 25.2382 11.22H25.6527V16.0309Z" fill="#8E7370"/>
</svg>
