<svg id="Layer_4" xmlns="http://www.w3.org/2000/svg" viewBox="0 0 20.68 20.78">
<defs><style>.cls-1{fill:none;stroke:#000;stroke-miterlimit:10;stroke-width:1px;}</style></defs>
<circle class="cls-1" cx="10.34" cy="10.51" r="4.57"/>
<path class="cls-1" d="M19.28,7.57h-.42c-.24,0-.45-.14-.54-.36-.09-.22-.04-.47,.13-.64l.3-.29c.2-.2,.31-.47,.31-.75s-.11-.55-.31-.75l-2.66-2.67c-.2-.2-.47-.31-.75-.31s-.55,.11-.75,.31l-.3,.3c-.17,.17-.42,.22-.64,.13-.22-.09-.36-.31-.36-.54v-.42c0-.28-.11-.55-.31-.75-.2-.2-.47-.31-.75-.31h-3.76c-.28,0-.55,.11-.75,.31-.2,.2-.31,.47-.31,.75v.42c0,.24-.14,.45-.36,.54-.22,.09-.47,.04-.64-.13l-.29-.3c-.2-.2-.47-.31-.75-.31s-.55,.11-.75,.31L1.94,4.77c-.2,.2-.31,.47-.31,.75s.11,.55,.31,.75l.3,.3c.17,.17,.22,.42,.13,.64-.09,.22-.31,.36-.54,.36h-.42c-.28,0-.55,.11-.75,.31-.2,.2-.31,.47-.31,.75v3.76c0,.28,.11,.55,.31,.75,.2,.2,.47,.31,.75,.31h.42c.24,0,.45,.14,.54,.36,.09,.22,.04,.47-.13,.64l-.3,.29c-.2,.2-.31,.47-.31,.75s.11,.55,.31,.75l2.66,2.67c.2,.2,.47,.31,.75,.31s.55-.11,.75-.31l.3-.3c.17-.17,.42-.22,.64-.13,.22,.09,.36,.31,.36,.54v.42c0,.28,.11,.55,.31,.75,.2,.2,.47,.31,.75,.31h3.76c.28,0,.55-.11,.75-.31,.2-.2,.31-.47,.31-.75v-.42c0-.24,.14-.45,.36-.54,.22-.09,.47-.04,.64,.13l.29,.3c.2,.2,.47,.31,.75,.31s.55-.11,.75-.31l2.67-2.66c.2-.2,.31-.47,.31-.75s-.11-.55-.31-.75l-.3-.3h0c-.17-.17-.22-.42-.13-.64s.31-.36,.54-.36h.42c.28,0,.55-.11,.75-.31,.2-.2,.31-.47,.31-.75v-3.76c0-.28-.11-.55-.31-.75-.2-.2-.47-.31-.75-.31h0Zm-.12,4.7h-.3c-.47,0-.92,.19-1.25,.52-.33,.33-.52,.78-.52,1.25s.19,.92,.52,1.25l.21,.21-2.5,2.5-.21-.21h0c-.33-.33-.78-.52-1.25-.52s-.92,.19-1.25,.52c-.33,.33-.52,.78-.52,1.25v.3h-3.53v-.3c0-.47-.19-.92-.52-1.25-.33-.33-.78-.52-1.25-.52s-.92,.19-1.25,.52l-.21,.21-2.5-2.5,.21-.21h0c.33-.33,.52-.78,.52-1.25s-.19-.92-.52-1.25c-.33-.33-.78-.52-1.25-.52h-.3v-3.53h.3c.47,0,.92-.19,1.25-.52,.33-.33,.52-.78,.52-1.25s-.19-.92-.52-1.25l-.21-.21,2.5-2.5,.21,.21h0c.33,.33,.78,.52,1.25,.52s.92-.19,1.25-.52c.33-.33,.52-.78,.52-1.25v-.3h3.53v.3c0,.47,.19,.92,.52,1.25,.33,.33,.78,.52,1.25,.52s.92-.19,1.25-.52l.21-.21,2.5,2.5-.21,.21h0c-.33,.33-.52,.78-.52,1.25s.19,.92,.52,1.25c.33,.33,.78,.52,1.25,.52h.3v3.53Z"/>
</svg>