<svg width="29" height="28" viewBox="0 0 29 28" fill="none" xmlns="http://www.w3.org/2000/svg">
    <path d="M15.7431 27.7898C18.7194 27.402 21.3351 26.134 23.59 23.9858C25.6707 22.002 26.9997 19.6255 27.5761 16.8553C28.0234 14.7042 27.9764 12.5697 27.4341 10.4506C26.6276 7.30266 24.9675 4.78218 22.4539 2.88811C20.6468 1.52704 18.6584 0.646703 16.4879 0.248155C15.824 0.125867 15.1463 0.059279 14.4549 0.04946C11.2736 0.0012899 8.36712 0.95422 5.73533 2.90718C5.00737 3.44718 4.31641 4.08592 3.6645 4.82235C1.42985 7.34373 0.259568 10.29 0.155705 13.6611C0.133148 14.376 0.164831 15.089 0.251782 15.799C0.604264 18.6892 1.7182 21.1886 3.59562 23.2981C4.04851 23.8078 4.54974 24.2865 5.10137 24.7343C7.61367 26.7752 10.4803 27.83 13.7013 27.8976C14.3947 27.9128 15.0754 27.8765 15.7431 27.7898ZM10.0163 24.9459C9.89784 24.9165 9.7784 24.8861 9.65898 24.8546C9.56508 24.8296 9.47322 24.8047 9.38444 24.7787C8.84868 24.6246 8.39699 24.4495 8.02834 24.2542C7.96724 24.2218 7.90819 24.1884 7.85119 24.155C7.68529 24.0569 7.52048 23.9502 7.35779 23.8349C6.86971 23.4913 6.39761 23.0738 5.94148 22.5845C5.34242 21.9425 4.81833 21.2676 4.36715 20.5617C4.18749 20.2792 4.01914 19.9913 3.86207 19.6992C3.78354 19.5532 3.70912 19.405 3.63674 19.2568C3.41963 18.8101 3.23025 18.3517 3.06653 17.8827C3.01162 17.726 2.96081 17.5683 2.91205 17.4095C2.81455 17.0918 2.73039 16.7678 2.65651 16.4395C2.58365 16.1112 2.52208 15.7776 2.47284 15.4387C2.36953 14.7276 2.31201 14.0456 2.30128 13.3938C2.29086 12.7066 2.33873 12.0218 2.44491 11.3382C2.47959 11.1132 2.52448 10.8914 2.57854 10.674C2.63259 10.4566 2.69583 10.2424 2.76926 10.0325C2.91613 9.61171 3.10071 9.20604 3.32406 8.81443C3.81645 7.95097 4.33741 7.21518 4.88795 6.60705C6.03655 5.33735 7.33724 4.34474 8.78898 3.62921C9.07871 3.48653 9.37552 3.35353 9.67836 3.2334C9.9812 3.11221 10.2891 3.00282 10.604 2.90311C10.9189 2.80447 11.2389 2.71656 11.5659 2.6394C12.1594 2.49988 12.7485 2.40752 13.3361 2.36125C13.6883 2.33348 14.0393 2.32286 14.3891 2.32939C14.7389 2.33593 15.0876 2.35853 15.435 2.39829C15.7825 2.43804 16.1289 2.49495 16.475 2.56793C16.7058 2.61694 16.9355 2.67346 17.1641 2.73747C17.4601 2.81993 17.7549 2.91311 18.0477 3.01593C18.3404 3.11983 18.632 3.23336 18.9225 3.35762C19.0672 3.42028 19.2119 3.48508 19.3566 3.55203C19.7896 3.75394 20.2194 3.9805 20.6459 4.22957C21.333 4.63172 21.9426 5.1151 22.4728 5.67753C22.7911 6.01521 23.0815 6.38173 23.3431 6.77603C23.4289 6.90603 23.5126 7.04246 23.5953 7.18531C23.7182 7.4012 23.838 7.63208 23.9525 7.87902C24.068 8.12597 24.1782 8.38898 24.2853 8.66806C24.3393 8.80867 24.3913 8.94928 24.4402 9.09095C24.539 9.37429 24.6297 9.65867 24.7121 9.94518C24.7528 10.089 24.7925 10.2317 24.8291 10.3765C24.9023 10.6651 24.9683 10.9548 25.0241 11.2466C25.0809 11.5383 25.1285 11.8322 25.1689 12.1272C25.2477 12.7181 25.2937 13.3154 25.3048 13.92C25.3159 14.5247 25.2933 15.1356 25.2367 15.754C25.17 16.4881 25.0023 17.1961 24.7334 17.8792C24.5022 18.468 24.2355 19.0256 23.9343 19.5531C23.3308 20.607 22.5872 21.5372 21.7034 22.3446C21.261 22.7484 20.7842 23.1209 20.2717 23.4622C20.1194 23.5636 19.9662 23.6617 19.8129 23.7555C19.5054 23.9431 19.195 24.1158 18.8805 24.2723C18.41 24.5076 17.9325 24.7086 17.4482 24.8753C17.125 24.9857 16.7988 25.0822 16.4697 25.1615C15.9756 25.2821 15.4756 25.3672 14.9677 25.418C14.6288 25.4523 14.288 25.4704 13.9432 25.4736C13.4265 25.4783 12.902 25.4486 12.3716 25.3847C12.16 25.3593 11.9455 25.3286 11.7268 25.2936C11.6175 25.276 11.5072 25.2574 11.3958 25.2378C11.1742 25.1984 10.9485 25.1537 10.7187 25.1047C10.489 25.0557 10.2562 25.0024 10.0204 24.9437L10.0163 24.9459Z" fill="#1A0906"/>
    <path d="M18.1301 21.3014C18.3285 21.1985 18.431 21.0501 18.4385 20.8542C18.4394 20.8221 18.4283 20.7888 18.4061 20.7609C17.8388 20.0793 17.3127 19.3636 16.8276 18.6139L16.5607 18.1618C16.555 18.1136 16.5661 18.0772 16.5929 18.0506L16.8114 18.3011C16.8468 18.2895 16.8787 18.2972 16.907 18.3241C16.9468 18.3682 16.9714 18.4197 16.9817 18.4808C17.4488 19.0163 17.918 19.5496 18.3892 20.0809C18.6331 20.3551 18.7595 20.4949 18.7683 20.5014C18.9521 20.6308 19.1637 20.5943 19.404 20.392C19.5519 20.2675 19.5544 20.1443 19.4125 20.0205C18.6797 19.382 17.9999 18.7084 17.3733 18.0008L16.895 17.4728C16.895 17.4728 16.8892 17.4653 16.8873 17.461C16.8864 17.4577 16.8854 17.4556 16.8845 17.4524C16.8846 17.4502 16.8827 17.447 16.8827 17.4449L16.8831 17.4299C16.8831 17.4299 16.8843 17.4256 16.8853 17.4235C16.8854 17.4213 16.8875 17.4192 16.8885 17.4171C16.8906 17.4139 16.8937 17.4107 16.8968 17.4085L16.9376 17.3841C17.8583 18.1156 18.7757 18.9295 19.6907 19.827C19.7951 19.9292 19.9053 19.9329 20.0202 19.8382C20.1383 19.7403 20.2273 19.6068 20.2892 19.4369C20.3447 19.284 20.3069 19.1682 20.1768 19.0884C19.2249 18.5023 18.3048 17.8565 17.4164 17.1498C17.1568 16.9355 17.0009 16.8116 16.9487 16.7792C16.8619 16.7263 16.854 16.6899 16.9236 16.672C16.9438 16.6667 16.9669 16.6679 16.9917 16.6745C17.1837 16.73 17.3617 16.8154 17.5268 16.9319C18.5281 17.4389 19.46 18.0591 20.3235 18.7925C20.3294 18.7978 20.3752 18.8452 20.4619 18.9345C20.5622 19.0377 20.6678 19.0629 20.7796 19.0088C20.8517 18.9749 20.9344 18.8875 21.0286 18.7477C21.6135 17.8821 22.0315 16.9622 22.2847 15.9891C22.692 14.4202 22.6438 12.8631 22.1411 11.3166C21.7832 10.2185 21.2054 9.23698 20.4078 8.37117C20.2327 8.1808 20.1353 8.0786 20.1157 8.06245C20.0079 7.97627 19.8772 7.91996 19.7235 7.89245C19.6527 7.87926 19.5798 7.90674 19.531 7.96433C18.8858 8.7268 18.1627 9.37433 17.3627 9.90584L17.6683 9.41477C18.1744 8.81866 18.6871 8.27291 19.2075 7.77752C19.3156 7.67418 19.3186 7.5714 19.2152 7.46704C19.0456 7.29704 18.8819 7.16562 18.7251 7.07384C18.085 6.6992 17.4141 6.42291 16.7113 6.24391C16.0673 6.07911 15.4055 6.01274 14.7279 6.0448C13.4007 6.10799 12.1434 6.49809 10.9551 7.21726C10.7664 7.33092 10.6633 7.39573 10.6449 7.40956C10.5455 7.48511 10.4616 7.58 10.3932 7.69424C10.3606 7.74976 10.3625 7.82151 10.3981 7.87736L11.6165 9.81383L11.607 9.86732C11.0991 9.35626 10.6321 8.78436 10.2058 8.15055C10.0971 7.98834 9.95401 7.94482 9.7764 8.02105C9.58054 8.1047 9.42502 8.28598 9.30886 8.56488C9.27548 8.6461 9.29991 8.73937 9.36672 8.78788C10.1174 9.32903 10.8133 9.92666 11.4535 10.5797C11.4896 10.6152 11.4851 10.6323 11.4421 10.63C11.418 10.6299 11.3903 10.6179 11.3588 10.5953C10.6452 10.0929 9.94838 9.56164 9.26743 9.00155C9.18805 8.93692 9.07796 8.92996 8.98918 8.98521C8.72786 9.14992 8.59884 9.35167 8.60108 9.59153C8.60017 9.62365 8.61733 9.65479 8.64592 9.67206C9.50292 10.2105 10.3473 10.7703 11.1801 11.3493C11.2027 11.3655 11.2203 11.3827 11.2327 11.4031C11.2796 11.4826 11.244 11.4985 11.1251 11.4519C10.1534 11.0692 9.2973 10.5682 8.55682 9.95109C8.37956 9.80247 8.23327 9.83496 8.11597 10.0475C6.78643 12.462 6.59284 14.9463 7.53419 17.5004C7.62455 17.7439 7.74143 17.9714 7.88686 18.182C7.91955 18.2314 7.98443 18.2414 8.03158 18.2052C8.97356 17.4763 9.9928 16.8869 11.0903 16.4371C11.1146 16.4276 11.1397 16.4288 11.1564 16.4407C11.1849 16.4612 11.1753 16.4804 11.1296 16.5005C11.1093 16.509 11.093 16.5185 11.0807 16.5281C10.1601 17.2122 9.169 17.8327 8.10556 18.3897C8.0791 18.4035 8.06714 18.4366 8.07734 18.4656C8.2162 18.8378 8.41811 19.1782 8.68305 19.4879C9.52652 20.4696 10.5163 21.2035 11.6526 21.6887C12.2707 21.953 12.9136 22.121 13.5813 22.1938C15.1325 22.363 16.6488 22.0651 18.1301 21.3024L18.1301 21.3014ZM20.2023 9.2921L19.762 9.68722C19.0756 10.2407 18.3278 10.6611 17.5187 10.9484C17.4852 10.9601 17.4834 10.9547 17.5111 10.9323C18.3439 10.2704 19.2406 9.72325 20.2023 9.2921ZM10.819 14.4046C10.7304 13.8485 10.7604 13.3218 10.9078 12.8235C11.0608 12.3071 11.3119 11.8286 11.6623 11.3859C12.0917 10.843 12.593 10.4535 13.1671 10.2175C13.7118 9.99421 14.2994 9.92209 14.9317 10.0033C15.9397 10.1313 16.7533 10.6417 17.3728 11.5334C17.6935 11.9965 17.8951 12.5264 17.9755 13.1211C18.051 13.6772 18.0131 14.2381 17.8618 14.8027C17.5625 15.9191 16.8936 16.7414 15.8571 17.2686C15.1298 17.6388 14.401 17.7423 13.6727 17.5803C13.0261 17.437 12.4456 17.1151 11.9314 16.6157C11.3313 16.0325 10.9612 15.2951 10.819 14.4046ZM9.08025 19.4106C9.0736 19.3977 9.07806 19.3816 9.09261 19.3635C9.6825 18.6415 10.3866 18.0281 11.206 17.5224C11.3295 17.4437 11.3584 17.4503 11.2936 17.5431C10.9521 17.9216 10.5969 18.285 10.2291 18.6334C9.89641 18.9477 9.53009 19.2093 9.13223 19.4162C9.10984 19.4278 9.08785 19.4256 9.08025 19.4106Z" fill="#1A0906"/>
    <path d="M14.982 16.385C15.0924 16.3459 15.1999 16.3015 15.3044 16.2538C15.409 16.2061 15.5107 16.153 15.6095 16.0967C15.7573 16.0118 15.8992 15.9171 16.0345 15.8128C16.2209 15.6692 16.3779 15.505 16.5064 15.3203C16.5837 15.2093 16.6502 15.0907 16.7059 14.9636C16.8794 14.5724 16.9627 14.1776 16.955 13.777C16.9528 13.6774 16.9457 13.5767 16.9325 13.4759C16.9259 13.4255 16.9183 13.3752 16.9087 13.3248C16.8618 13.0718 16.7788 12.8175 16.6607 12.5621C16.6003 12.4311 16.5337 12.3076 16.4598 12.1916C16.313 11.9606 16.1413 11.7606 15.9426 11.5914C15.8438 11.5074 15.7387 11.4309 15.6264 11.3618C15.5733 11.3283 15.518 11.2981 15.4637 11.2699C15.353 11.2126 15.2401 11.165 15.124 11.1269C15.0078 11.0889 14.8884 11.0594 14.7667 11.0395C14.7058 11.0296 14.6439 11.0218 14.5819 11.0161C14.457 11.0048 14.3297 11.0042 14.1982 11.011C13.9633 11.0249 13.7406 11.0677 13.5291 11.1417C13.3601 11.2008 13.1985 11.2782 13.0444 11.375C12.9292 11.4472 12.8175 11.5313 12.7096 11.625C12.5668 11.7507 12.4304 11.8957 12.3025 12.059C11.9937 12.4527 11.8024 12.8737 11.7295 13.3221C11.6967 13.5255 11.6878 13.7354 11.7038 13.9497C11.7147 14.0932 11.7338 14.2336 11.763 14.3709C11.8073 14.5756 11.8719 14.7709 11.9588 14.9587C11.9871 15.021 12.0184 15.0822 12.0518 15.1434C12.1185 15.2648 12.1953 15.3819 12.2813 15.4947C12.4098 15.6635 12.5539 15.8142 12.7135 15.9456C12.8732 16.077 13.0483 16.1904 13.2391 16.2855C13.3666 16.3483 13.5003 16.4035 13.6413 16.4503C13.7346 16.4807 13.8292 16.5037 13.9239 16.5191C14.2103 16.5644 14.5076 16.5391 14.815 16.4431C14.8716 16.4252 14.9273 16.4072 14.983 16.3872L14.983 16.385L14.982 16.385Z" fill="#1A0906"/>
</svg>
