<svg width="16" height="17" viewBox="0 0 16 17" fill="none" xmlns="http://www.w3.org/2000/svg">
<path d="M8.5562 0.707487L8.55595 0.707437C8.22783 0.639378 7.89267 0.599602 7.55014 0.588833L7.54971 0.588819C5.96223 0.537357 4.51706 1.00336 3.20096 1.99961L3.2009 1.99966C2.84236 2.27095 2.49952 2.59554 2.17399 2.97463L2.17382 2.97482C1.06217 4.26781 0.487259 5.78497 0.447753 7.54374L0.447746 7.54405C0.439114 7.91649 0.457737 8.28807 0.504077 8.65841L0.504104 8.65862C0.692767 10.1724 1.26087 11.4771 2.20761 12.5866L2.20782 12.5868C2.43475 12.8531 2.68612 13.1046 2.96338 13.3412L2.9635 13.3413C4.2323 14.4246 5.66471 14.9923 7.27493 15.0542L7.27534 15.0543C7.62152 15.0679 7.9602 15.0548 8.29163 15.0156C9.7723 14.8402 11.0712 14.2096 12.1974 13.108C13.2332 12.094 13.8882 10.8743 14.1669 9.43821C14.3838 8.31956 14.3521 7.20811 14.0714 6.09858L8.5562 0.707487ZM8.5562 0.707487C9.6404 0.931737 10.637 1.40327 11.5504 2.1277L8.5562 0.707487ZM5.35449 14.2972L5.18912 14.252C5.12418 14.2343 5.05842 14.2159 4.99242 14.1968L4.99151 14.1965C4.94072 14.1817 4.8879 14.166 4.83554 14.1492C4.52967 14.0531 4.25907 13.9415 4.02877 13.8116C3.98913 13.7893 3.95191 13.7669 3.91764 13.7456L3.91624 13.7447C3.8175 13.6828 3.71959 13.6157 3.62307 13.5436M5.35449 14.2972L1.57526 9.87762M5.35449 14.2972L5.3582 14.2953M5.35449 14.2972L5.3582 14.2953M3.62307 13.5436C3.33497 13.3296 3.06048 13.0741 2.79888 12.7811C2.46086 12.4029 2.16382 12.0053 1.90713 11.5895L1.90658 11.5886C1.80442 11.4223 1.70865 11.253 1.61925 11.0815C1.57337 10.9935 1.5306 10.9057 1.49029 10.8208L1.48994 10.82C1.3654 10.5564 1.25675 10.2867 1.16275 10.0118M3.62307 13.5436C3.62327 13.5438 3.62346 13.5439 3.62366 13.5441L3.87939 13.1954L3.62261 13.5433C3.62276 13.5434 3.62292 13.5435 3.62307 13.5436ZM1.16275 10.0118L1.57526 9.87762M1.16275 10.0118C1.1628 10.012 1.16286 10.0121 1.16291 10.0123L1.57526 9.87762M1.16275 10.0118C1.1307 9.91841 1.1014 9.82566 1.07382 9.73427C1.01716 9.54652 0.968485 9.35663 0.925926 9.16621L0.925653 9.16499C0.883419 8.97347 0.847468 8.77883 0.818395 8.5811C0.758326 8.17255 0.723263 7.77826 0.714498 7.39918L0.714485 7.39864C0.705678 6.99614 0.729801 6.59561 0.786775 6.1967M1.57526 9.87762C1.54545 9.79079 1.51782 9.70342 1.49128 9.61547C1.43819 9.43959 1.39218 9.2603 1.3516 9.07876C1.31157 8.89723 1.27752 8.71287 1.25 8.52569C1.19226 8.13296 1.15896 7.75667 1.15065 7.39742C1.14237 7.01868 1.16507 6.64176 1.21875 6.26604M0.786775 6.1967L1.21875 6.26604M0.786775 6.1967C0.786798 6.19654 0.78682 6.19638 0.786843 6.19622L1.21875 6.26604M0.786775 6.1967C0.806135 6.06013 0.831471 5.9258 0.862158 5.79434C0.892749 5.6633 0.928941 5.5333 0.971484 5.40513M1.21875 6.26604C1.23628 6.14237 1.25925 6.02058 1.2871 5.90125C1.31496 5.78193 1.3477 5.66447 1.38588 5.54948M4.86235 1.45852C5.03347 1.39019 5.20685 1.32909 5.38341 1.27394L5.38473 1.27353C5.56189 1.21883 5.74193 1.17045 5.92594 1.12843L5.92632 1.12834C6.26279 1.05182 6.5981 1.00276 6.93369 0.980958L4.86235 1.45852ZM4.86235 1.45852C4.6901 1.52671 4.52225 1.60221 4.3594 1.68294L4.35926 1.68301C3.53771 2.09065 2.80711 2.66126 2.16795 3.38922L4.86235 1.45852ZM1.38588 5.54948L0.971484 5.40513M1.38588 5.54948C1.46224 5.31892 1.55871 5.09704 1.67582 4.88325M1.38588 5.54948L0.971587 5.40482C0.971553 5.40493 0.971519 5.40503 0.971484 5.40513M0.971484 5.40513C1.05598 5.15 1.16278 4.90437 1.2923 4.66793M1.67582 4.88325L1.2923 4.66793M1.67582 4.88325L1.29229 4.66794C1.29229 4.66794 1.2923 4.66793 1.2923 4.66793M1.67582 4.88325L2.16784 3.38934C1.85322 3.74745 1.56222 4.17513 1.2923 4.66793M5.3582 14.2953C5.43193 14.3143 5.50499 14.3323 5.57735 14.3495C5.70377 14.3795 5.82904 14.4073 5.95294 14.4321L5.95328 14.4322C6.01483 14.4445 6.07589 14.4562 6.13646 14.4672C6.25746 14.4893 6.37748 14.5092 6.49681 14.526C6.49691 14.526 6.49701 14.526 6.49711 14.526L6.54985 14.0939M5.3582 14.2953L13.4976 10.2281C13.3702 10.5691 13.2223 10.8926 13.0542 11.1989L13.054 11.1994C12.7165 11.8129 12.2977 12.3546 11.798 12.8229L11.7978 12.8231C11.5479 13.057 11.2786 13.2719 10.9895 13.4677L10.9893 13.4678C10.9045 13.5252 10.8188 13.5809 10.7327 13.6343L10.7322 13.6347C10.5597 13.7414 10.3846 13.8399 10.2062 13.9294M6.54985 14.0939C6.83196 14.1338 7.11082 14.1548 7.38536 14.1568C7.56856 14.1582 7.7496 14.1512 7.92956 14.1353M6.54985 14.0939C6.43734 14.078 6.3232 14.0592 6.20688 14.038C6.14872 14.0273 6.09002 14.0161 6.03078 14.0043L6.54985 14.0939ZM7.92956 14.1353L7.97564 14.5701M7.92956 14.1353L7.97606 14.5701C7.97592 14.5701 7.97578 14.5701 7.97564 14.5701M7.92956 14.1353L7.97564 14.5701M7.97564 14.5701C8.26575 14.5449 8.55162 14.4991 8.83415 14.4323C9.02342 14.3881 9.20952 14.3339 9.39229 14.2721L9.39327 14.2717C9.66909 14.1777 9.94008 14.0635 10.2062 13.9294M10.2062 13.9294C10.206 13.9295 10.2058 13.9296 10.2056 13.9297L10.0042 13.5388L10.2063 13.9294C10.2063 13.9294 10.2062 13.9294 10.2062 13.9294ZM8.73113 1.13347L8.73178 1.13362C8.86401 1.16491 8.99555 1.2006 9.1264 1.24069L9.00594 1.65779L9.12584 1.24052C9.29337 1.29162 9.45981 1.34883 9.62461 1.41144L9.62598 1.41196C9.79048 1.47509 9.95462 1.54389 10.1183 1.619L10.1201 1.61982L10.1201 1.61983C10.2007 1.65722 10.2812 1.69581 10.3616 1.73561L10.3628 1.73619C10.607 1.8579 10.8482 1.99336 11.0866 2.14104L11.087 2.14128C11.4888 2.39075 11.8473 2.68947 12.1599 3.03587C12.3474 3.2435 12.5181 3.46775 12.6716 3.7076L12.6721 3.70838C12.7235 3.78897 12.7728 3.87228 12.8208 3.95796L12.8223 3.96053L12.8223 3.96054C12.894 4.09071 12.9638 4.22946 13.0306 4.37732C13.0977 4.52502 13.1611 4.6802 13.2218 4.84224L8.73113 1.13347ZM8.73113 1.13347C8.53379 1.08711 8.33561 1.05003 8.1361 1.02305C7.93659 0.996072 7.73689 0.979337 7.53709 0.972129C7.33637 0.964888 7.13524 0.967844 6.93373 0.980955L8.73113 1.13347ZM13.4657 5.58648L13.4657 5.58649C13.4882 5.66685 13.5111 5.7505 13.5326 5.83662C13.5743 6.00258 13.6124 6.1708 13.645 6.34145C13.678 6.51125 13.7057 6.68124 13.7292 6.85062L13.7295 6.85215C13.7758 7.1941 13.8039 7.5396 13.8127 7.88914C13.8214 8.23812 13.8113 8.58988 13.7826 8.94492L13.4657 5.58648ZM13.4657 5.58648L13.4652 5.58472M13.4657 5.58648L13.4652 5.58472M13.4652 5.58472C13.4182 5.4186 13.3666 5.25381 13.3105 5.08978M13.4652 5.58472L13.3105 5.08978M13.3105 5.08978C13.2821 5.00583 13.2523 4.92344 13.2219 4.84247L13.3105 5.08978ZM11.5505 2.12777C12.8126 3.12935 13.6528 4.44626 14.0713 6.09847L11.5505 2.12777ZM13.4976 10.2281C13.6519 9.81648 13.7468 9.38862 13.7826 8.94513L13.4976 10.2281Z" fill="#7B7676" stroke="#7B7676" stroke-width="0.872691"/>
<mask id="path-2-inside-1_1936_1645" fill="white">
<path d="M9.4349 12.0717C9.54101 12.0214 9.59432 11.9443 9.59539 11.8393C9.59538 11.8221 9.58885 11.804 9.57633 11.7884C9.25791 11.4085 8.96126 11.0114 8.68637 10.597L8.5345 10.3477C8.53068 10.3217 8.53612 10.3025 8.55027 10.2888L8.67274 10.4287C8.69178 10.4233 8.7092 10.4282 8.72498 10.4434C8.7473 10.468 8.76145 10.4963 8.76799 10.5293C9.02979 10.8283 9.29269 11.1262 9.55667 11.4229C9.69329 11.5762 9.76405 11.6543 9.76894 11.658C9.87072 11.732 9.98499 11.7176 10.1123 11.615C10.1907 11.5517 10.1901 11.4857 10.1112 11.4157C9.70353 11.0549 9.32416 10.6766 8.97309 10.2813L8.7053 9.98609C8.7053 9.98609 8.70203 9.9819 8.70095 9.97955C8.7004 9.97781 8.69986 9.97663 8.69931 9.97488C8.69931 9.97373 8.69822 9.97196 8.69822 9.97081L8.69822 9.96277C8.69822 9.96277 8.69876 9.9605 8.69931 9.95938C8.69931 9.95824 8.7004 9.95714 8.70094 9.95602C8.70203 9.95435 8.70366 9.95271 8.70529 9.95165L8.72706 9.93954C9.23812 10.3549 9.74865 10.8144 10.2592 11.3187C10.3174 11.3761 10.3773 11.3809 10.4382 11.3328C10.5008 11.2832 10.547 11.2138 10.578 11.124C10.6058 11.0434 10.5834 10.9803 10.5116 10.9342C9.98586 10.5961 9.47644 10.2268 8.98334 9.82554C8.83911 9.70409 8.75258 9.63375 8.72373 9.61508C8.67584 9.58455 8.67094 9.56479 8.70848 9.55692C8.71937 9.5546 8.73188 9.5558 8.74549 9.55992C8.85052 9.59446 8.94848 9.64472 9.03991 9.71129C9.59122 10.0081 10.1066 10.364 10.5867 10.779C10.5899 10.782 10.6155 10.8085 10.664 10.8586C10.72 10.9165 10.7777 10.9326 10.8376 10.9063C10.8762 10.8899 10.9197 10.845 10.9687 10.7723C11.2728 10.322 11.4855 9.83853 11.6078 9.32235C11.8046 8.49022 11.7544 7.65315 11.4577 6.81061C11.2464 6.21227 10.9176 5.67118 10.4713 5.18675C10.3733 5.08025 10.3189 5.02299 10.308 5.01384C10.2481 4.96492 10.1763 4.93147 10.0925 4.91292C10.0539 4.90409 10.0147 4.91705 9.98912 4.94676C9.65072 5.34018 9.26823 5.66997 8.84219 5.93558L9.00049 5.6795C9.26599 5.37197 9.53585 5.09163 9.81061 4.83851C9.86774 4.7857 9.86772 4.7306 9.81003 4.67203C9.71533 4.5766 9.62443 4.50202 9.5379 4.44889C9.18469 4.23201 8.81625 4.06717 8.43204 3.95377C8.07994 3.84945 7.71968 3.79752 7.35236 3.79804C6.63296 3.79927 5.95659 3.97772 5.32269 4.3345C5.22203 4.39087 5.16708 4.42312 5.15728 4.43009C5.1045 4.4682 5.06044 4.51707 5.02508 4.57671C5.00821 4.60571 5.0104 4.64428 5.03054 4.67513L5.72185 5.74466L5.7175 5.77314C5.43393 5.48629 5.17158 5.16778 4.93044 4.81705C4.86893 4.7273 4.79056 4.70041 4.69534 4.73696C4.59032 4.77703 4.50871 4.87052 4.44997 5.01738C4.43311 5.06015 4.44781 5.11082 4.48482 5.13851C4.90063 5.44749 5.28761 5.78545 5.6452 6.15178C5.66534 6.17173 5.66316 6.1808 5.63976 6.17848C5.6267 6.17783 5.61146 6.17075 5.59405 6.15782C5.19892 5.87054 4.8125 5.5682 4.43423 5.25076C4.39015 5.21412 4.33029 5.20767 4.28295 5.23514C4.14366 5.31712 4.07674 5.42225 4.08167 5.55106C4.08167 5.56828 4.09147 5.58542 4.10725 5.59539C4.58074 5.90555 5.04771 6.22685 5.50869 6.55819C5.52121 6.56743 5.53101 6.5771 5.53808 6.58836C5.56476 6.63217 5.54571 6.63983 5.4804 6.61187C4.94707 6.38251 4.47467 6.0925 4.0632 5.74299C3.96469 5.65884 3.88579 5.67268 3.82541 5.78387C3.14108 7.04729 3.0744 8.37612 3.62484 9.77033C3.67765 9.90327 3.7446 10.0283 3.8268 10.1449C3.8453 10.1723 3.88068 10.1792 3.90571 10.1609C4.40573 9.79285 4.94985 9.50159 5.53861 9.28718C5.55167 9.28266 5.56527 9.28392 5.57452 9.2907C5.59031 9.3024 5.58541 9.31248 5.56092 9.32216C5.55004 9.32621 5.54134 9.33093 5.53481 9.33577C5.04566 9.6803 4.51733 9.989 3.94872 10.2618C3.93457 10.2686 3.92859 10.2861 3.93458 10.3019C4.0157 10.5051 4.13055 10.6928 4.27915 10.8656C4.75214 11.4133 5.30075 11.8317 5.92498 12.1201C6.26457 12.2772 6.61613 12.3832 6.97965 12.4388C7.82424 12.5678 8.64265 12.4453 9.4349 12.0723L9.4349 12.0717ZM10.374 5.67606L10.1411 5.87732C9.77713 6.15753 9.37774 6.36479 8.94297 6.49911C8.92501 6.50452 8.92392 6.5016 8.93862 6.49028C9.38042 6.15543 9.8587 5.88382 10.374 5.67606ZM5.3599 8.1894C5.30325 7.88867 5.31136 7.60669 5.38368 7.34285C5.45872 7.06938 5.58765 6.81871 5.77099 6.58971C5.99568 6.30883 6.26174 6.1121 6.56972 5.99955C6.86193 5.8931 7.17972 5.86886 7.52419 5.92803C8.07329 6.02158 8.52283 6.31561 8.87283 6.80955C9.05409 7.06602 9.17169 7.35545 9.22454 7.67666C9.27412 7.97703 9.2622 8.27719 9.1888 8.57657C9.04362 9.16851 8.69325 9.59346 8.13879 9.85092C7.74974 10.0317 7.35576 10.0694 6.95795 9.96446C6.60476 9.87156 6.28475 9.68447 5.99791 9.40377C5.66318 9.07589 5.45088 8.67093 5.3599 8.1894ZM4.49355 10.8338C4.48974 10.8268 4.49191 10.8183 4.49953 10.8089C4.80855 10.4358 5.18125 10.1239 5.61817 9.87259C5.68401 9.83342 5.69979 9.83766 5.66606 9.8859C5.48652 10.0807 5.29936 10.267 5.10512 10.4449C4.92939 10.6054 4.7346 10.7369 4.52185 10.8381C4.50987 10.8438 4.4979 10.8421 4.49355 10.8338Z"/>
</mask>
<path d="M9.4349 12.0717C9.54101 12.0214 9.59432 11.9443 9.59539 11.8393C9.59538 11.8221 9.58885 11.804 9.57633 11.7884C9.25791 11.4085 8.96126 11.0114 8.68637 10.597L8.5345 10.3477C8.53068 10.3217 8.53612 10.3025 8.55027 10.2888L8.67274 10.4287C8.69178 10.4233 8.7092 10.4282 8.72498 10.4434C8.7473 10.468 8.76145 10.4963 8.76799 10.5293C9.02979 10.8283 9.29269 11.1262 9.55667 11.4229C9.69329 11.5762 9.76405 11.6543 9.76894 11.658C9.87072 11.732 9.98499 11.7176 10.1123 11.615C10.1907 11.5517 10.1901 11.4857 10.1112 11.4157C9.70353 11.0549 9.32416 10.6766 8.97309 10.2813L8.7053 9.98609C8.7053 9.98609 8.70203 9.9819 8.70095 9.97955C8.7004 9.97781 8.69986 9.97663 8.69931 9.97488C8.69931 9.97373 8.69822 9.97196 8.69822 9.97081L8.69822 9.96277C8.69822 9.96277 8.69876 9.9605 8.69931 9.95938C8.69931 9.95824 8.7004 9.95714 8.70094 9.95602C8.70203 9.95435 8.70366 9.95271 8.70529 9.95165L8.72706 9.93954C9.23812 10.3549 9.74865 10.8144 10.2592 11.3187C10.3174 11.3761 10.3773 11.3809 10.4382 11.3328C10.5008 11.2832 10.547 11.2138 10.578 11.124C10.6058 11.0434 10.5834 10.9803 10.5116 10.9342C9.98586 10.5961 9.47644 10.2268 8.98334 9.82554C8.83911 9.70409 8.75258 9.63375 8.72373 9.61508C8.67584 9.58455 8.67094 9.56479 8.70848 9.55692C8.71937 9.5546 8.73188 9.5558 8.74549 9.55992C8.85052 9.59446 8.94848 9.64472 9.03991 9.71129C9.59122 10.0081 10.1066 10.364 10.5867 10.779C10.5899 10.782 10.6155 10.8085 10.664 10.8586C10.72 10.9165 10.7777 10.9326 10.8376 10.9063C10.8762 10.8899 10.9197 10.845 10.9687 10.7723C11.2728 10.322 11.4855 9.83853 11.6078 9.32235C11.8046 8.49022 11.7544 7.65315 11.4577 6.81061C11.2464 6.21227 10.9176 5.67118 10.4713 5.18675C10.3733 5.08025 10.3189 5.02299 10.308 5.01384C10.2481 4.96492 10.1763 4.93147 10.0925 4.91292C10.0539 4.90409 10.0147 4.91705 9.98912 4.94676C9.65072 5.34018 9.26823 5.66997 8.84219 5.93558L9.00049 5.6795C9.26599 5.37197 9.53585 5.09163 9.81061 4.83851C9.86774 4.7857 9.86772 4.7306 9.81003 4.67203C9.71533 4.5766 9.62443 4.50202 9.5379 4.44889C9.18469 4.23201 8.81625 4.06717 8.43204 3.95377C8.07994 3.84945 7.71968 3.79752 7.35236 3.79804C6.63296 3.79927 5.95659 3.97772 5.32269 4.3345C5.22203 4.39087 5.16708 4.42312 5.15728 4.43009C5.1045 4.4682 5.06044 4.51707 5.02508 4.57671C5.00821 4.60571 5.0104 4.64428 5.03054 4.67513L5.72185 5.74466L5.7175 5.77314C5.43393 5.48629 5.17158 5.16778 4.93044 4.81705C4.86893 4.7273 4.79056 4.70041 4.69534 4.73696C4.59032 4.77703 4.50871 4.87052 4.44997 5.01738C4.43311 5.06015 4.44781 5.11082 4.48482 5.13851C4.90063 5.44749 5.28761 5.78545 5.6452 6.15178C5.66534 6.17173 5.66316 6.1808 5.63976 6.17848C5.6267 6.17783 5.61146 6.17075 5.59405 6.15782C5.19892 5.87054 4.8125 5.5682 4.43423 5.25076C4.39015 5.21412 4.33029 5.20767 4.28295 5.23514C4.14366 5.31712 4.07674 5.42225 4.08167 5.55106C4.08167 5.56828 4.09147 5.58542 4.10725 5.59539C4.58074 5.90555 5.04771 6.22685 5.50869 6.55819C5.52121 6.56743 5.53101 6.5771 5.53808 6.58836C5.56476 6.63217 5.54571 6.63983 5.4804 6.61187C4.94707 6.38251 4.47467 6.0925 4.0632 5.74299C3.96469 5.65884 3.88579 5.67268 3.82541 5.78387C3.14108 7.04729 3.0744 8.37612 3.62484 9.77033C3.67765 9.90327 3.7446 10.0283 3.8268 10.1449C3.8453 10.1723 3.88068 10.1792 3.90571 10.1609C4.40573 9.79285 4.94985 9.50159 5.53861 9.28718C5.55167 9.28266 5.56527 9.28392 5.57452 9.2907C5.59031 9.3024 5.58541 9.31248 5.56092 9.32216C5.55004 9.32621 5.54134 9.33093 5.53481 9.33577C5.04566 9.6803 4.51733 9.989 3.94872 10.2618C3.93457 10.2686 3.92859 10.2861 3.93458 10.3019C4.0157 10.5051 4.13055 10.6928 4.27915 10.8656C4.75214 11.4133 5.30075 11.8317 5.92498 12.1201C6.26457 12.2772 6.61613 12.3832 6.97965 12.4388C7.82424 12.5678 8.64265 12.4453 9.4349 12.0723L9.4349 12.0717ZM10.374 5.67606L10.1411 5.87732C9.77713 6.15753 9.37774 6.36479 8.94297 6.49911C8.92501 6.50452 8.92392 6.5016 8.93862 6.49028C9.38042 6.15543 9.8587 5.88382 10.374 5.67606ZM5.3599 8.1894C5.30325 7.88867 5.31136 7.60669 5.38368 7.34285C5.45872 7.06938 5.58765 6.81871 5.77099 6.58971C5.99568 6.30883 6.26174 6.1121 6.56972 5.99955C6.86193 5.8931 7.17972 5.86886 7.52419 5.92803C8.07329 6.02158 8.52283 6.31561 8.87283 6.80955C9.05409 7.06602 9.17169 7.35545 9.22454 7.67666C9.27412 7.97703 9.2622 8.27719 9.1888 8.57657C9.04362 9.16851 8.69325 9.59346 8.13879 9.85092C7.74974 10.0317 7.35576 10.0694 6.95795 9.96446C6.60476 9.87156 6.28475 9.68447 5.99791 9.40377C5.66318 9.07589 5.45088 8.67093 5.3599 8.1894ZM4.49355 10.8338C4.48974 10.8268 4.49191 10.8183 4.49953 10.8089C4.80855 10.4358 5.18125 10.1239 5.61817 9.87259C5.68401 9.83342 5.69979 9.83766 5.66606 9.8859C5.48652 10.0807 5.29936 10.267 5.10512 10.4449C4.92939 10.6054 4.7346 10.7369 4.52185 10.8381C4.50987 10.8438 4.4979 10.8421 4.49355 10.8338Z" fill="#7B7676" stroke="#7B7676" stroke-width="1.74538" mask="url(#path-2-inside-1_1936_1645)"/>
<path d="M7.51486 8.95502L7.5126 8.94192C7.55787 8.92797 7.60359 8.91124 7.65011 8.89212C7.69193 8.87493 7.73425 8.85484 7.77733 8.83218C7.8391 8.79926 7.89786 8.76242 7.95332 8.72173L7.95347 8.72162C8.01792 8.67439 8.06884 8.62181 8.10922 8.56386L8.10931 8.56374C8.13312 8.52961 8.15357 8.49271 8.17077 8.452L8.17153 8.4502L8.17154 8.4502C8.23616 8.29926 8.26194 8.15347 8.25501 8.00786C8.25301 7.96912 8.24911 7.931 8.24315 7.8938C8.23968 7.87209 8.2363 7.85372 8.23269 7.83729L8.23224 7.83526L8.23225 7.83526C8.21134 7.73785 8.17539 7.63406 8.12162 7.52333L8.12152 7.52314C8.09449 7.46741 8.06597 7.41684 8.03585 7.37074L8.03564 7.37042C7.97469 7.27699 7.90676 7.19905 7.83141 7.13376L8.10702 6.80949M7.51486 8.95502L6.93513 6.92716C7.00721 6.90531 7.08697 6.89299 7.17703 6.89171C7.23203 6.89142 7.27971 6.89418 7.32273 6.89997L7.35932 6.467M7.51486 8.95502L7.51085 8.94381C7.48977 8.95044 7.46705 8.95678 7.43778 8.9647M7.51486 8.95502L7.43778 8.9647M8.10702 6.80949L7.83165 7.13397C7.79327 7.10076 7.75281 7.07041 7.70964 7.04267L7.70595 7.04029L7.70596 7.04028C7.69071 7.03027 7.67186 7.01917 7.64746 7.00577L7.6473 7.00568C7.606 6.98298 7.56517 6.9644 7.52418 6.9494C7.48072 6.9335 7.43686 6.92094 7.393 6.91191C7.37014 6.9072 7.34645 6.90318 7.32244 6.89993L7.35932 6.467M8.10702 6.80949C8.05205 6.76193 7.99382 6.71823 7.93178 6.67836C7.9024 6.65908 7.87192 6.64147 7.84199 6.62504C7.78104 6.59154 7.71901 6.56315 7.65534 6.53986C7.59167 6.51656 7.52637 6.49778 7.45998 6.48411C7.42679 6.47728 7.39305 6.47156 7.35932 6.467M8.10702 6.80949C8.2175 6.9052 8.31383 7.01686 8.39711 7.14452C8.43902 7.20865 8.47712 7.27662 8.51196 7.34843C8.58 7.48854 8.629 7.62712 8.65841 7.76414C8.6644 7.79143 8.6693 7.81867 8.67366 7.84589C8.68238 7.90031 8.68783 7.95457 8.69056 8.00812L7.15091 6.45482C7.22219 6.45438 7.2913 6.45784 7.35932 6.467M7.43778 8.9647C7.33023 8.99318 7.23693 8.9947 7.15318 8.97803C7.12389 8.97196 7.09415 8.96356 7.0643 8.95272C7.00681 8.93141 6.95213 8.90688 6.89969 8.87942C6.82303 8.8386 6.75388 8.79184 6.69136 8.73932C6.62944 8.6873 6.57213 8.62747 6.51952 8.5593L6.51944 8.5592C6.48356 8.51273 6.45242 8.46621 6.42587 8.41974C6.41054 8.3926 6.39803 8.36893 6.38764 8.3472L6.38765 8.3472L6.38639 8.34462C6.3511 8.27203 6.3239 8.1965 6.30413 8.11605C6.29147 8.0635 6.28207 8.0076 6.27571 7.94759C6.26726 7.86591 6.2686 7.7883 6.27851 7.71507L5.84631 7.63513M7.43778 8.9647L7.58417 9.35747L7.58843 9.38216C7.58228 9.38385 7.57611 9.38552 7.56992 9.38719C7.40451 9.43116 7.24345 9.43744 7.08728 9.40606C7.03558 9.39542 6.98389 9.38077 6.93274 9.36212C6.85546 9.33355 6.782 9.30057 6.7118 9.26374C6.60677 9.20793 6.5099 9.14276 6.42119 9.06824C6.33249 8.99372 6.25194 8.90927 6.17955 8.81547C6.13111 8.75273 6.08757 8.68794 6.04946 8.62113C6.03041 8.58744 6.01245 8.5538 5.99612 8.51967C5.94604 8.41665 5.90793 8.3102 5.8807 8.19914C5.86273 8.12472 5.8502 8.04885 5.84202 7.97148C5.83003 7.85601 5.83164 7.74352 5.84631 7.63513M5.84631 7.63513C5.87891 7.39611 5.97627 7.17471 6.13784 6.97088C6.20475 6.88636 6.27656 6.81185 6.35218 6.74787M5.84631 7.63513L6.27845 7.7155C6.29989 7.55829 6.36405 7.40503 6.48459 7.25296L6.48474 7.25277C6.53572 7.18838 6.58866 7.13377 6.64214 7.08841M6.35218 6.74787L6.64109 7.08928C6.64144 7.08899 6.64179 7.0887 6.64214 7.08841M6.35218 6.74787C6.40931 6.7002 6.46861 6.6578 6.53009 6.62183L6.35218 6.74787ZM6.64214 7.08841C6.68385 7.05368 6.7245 7.02498 6.76388 7.00195L6.76412 7.00181C6.81807 6.97019 6.87478 6.94551 6.93497 6.92721L6.64214 7.08841Z" fill="#7B7676" stroke="#7B7676" stroke-width="0.872691"/>
<path d="M0.65625 15.6328L14.6562 1.63281" stroke="#7B7676" stroke-linecap="round"/>
</svg>
