<svg id="Layer_1" data-name="Layer 1" xmlns="http://www.w3.org/2000/svg" viewBox="0 0 22.38 25.88"><defs></defs><path d="M16,24.24c0-.53,0-2.29,0-4.47a3.9,3.9,0,0,0-1.1-3c3.63-.41,7.44-1.78,7.44-8A6.3,6.3,0,0,0,20.7,4.35,5.82,5.82,0,0,0,20.54,0S19.17-.4,16.06,1.71a15.37,15.37,0,0,0-8.15,0C4.8-.4,3.43,0,3.43,0a5.82,5.82,0,0,0-.16,4.31A6.3,6.3,0,0,0,1.59,8.72c0,6.24,3.8,7.64,7.42,8A3.54,3.54,0,0,0,8,19a3.47,3.47,0,0,1-4.74-1.36,3.41,3.41,0,0,0-2.5-1.67s-1.59,0-.11,1a4.3,4.3,0,0,1,1.81,2.38s1,3.17,5.49,2.18c0,1.36,0,2.39,0,2.77a.79.79,0,0,1-.89.81,15,15,0,0,0,9.84,0A.78.78,0,0,1,16,24.24Z"/></svg>
