<?xml version="1.0" encoding="UTF-8"?><svg id="Layer_1" xmlns="http://www.w3.org/2000/svg" viewBox="0 0 681.95 660.77"><defs><style>.cls-1{fill:#fff;}.cls-2{fill:#1a0906;}.cls-3{fill:none;}</style></defs><path class="cls-2" d="M340.98,622.59s-.01-.05-.01-.08c0,.03,0,.05,.01,.08Z"/><path class="cls-2" d="M340.94,622.89s.07,.02,.1,.02c-.05,0-.09-.02-.13-.03,0,0,.01,0,.02,.01h.01Z"/><path class="cls-2" d="M341.01,622.84s-.04-.03-.06-.04c.02,.02,.04,.03,.06,.04Z"/><path class="cls-2" d="M341,622.73s-.03-.04-.04-.07c0,.02,.02,.04,.04,.07Z"/><path class="cls-2" d="M340.7,322.79c.33,3.31,.51,6.64,.55,10.01-.04-3.37-.23-6.7-.55-10.01Z"/><path class="cls-2" d="M341.59,357.72c-.36,2.17-.77,4.38-1.22,6.63,.45-2.25,.86-4.46,1.22-6.63Z"/><path d="M341.15,340.68c-.27-3.44-.38-6.87-.33-10.29-.05,3.42,.07,6.85,.33,10.29Z"/><path class="cls-2" d="M341.01,622.88s-.05-.03-.07-.04c.02,.02,.04,.03,.07,.04Z"/><path class="cls-2" d="M341,622.79s-.03-.04-.04-.06c.01,.02,.03,.04,.04,.06Z"/><path class="cls-2" d="M340.97,622.49v.02s0-.09,.02-.13c-.01,.03-.02,.07-.02,.11Z"/><path class="cls-2" d="M340.99,622.66s-.01-.05-.02-.07c0,.02,0,.05,.02,.07Z"/><g><path class="cls-2" d="M469.8,320.89c-3.71-29.06-15.62-54.52-35.73-76.38-18.57-20.17-40.78-32.96-66.64-38.36-20.08-4.19-39.99-3.55-59.74,1.93-29.34,8.15-52.8,24.59-70.39,49.32-12.64,17.78-20.79,37.29-24.44,58.54-1.12,6.5-1.72,13.13-1.79,19.89-.35,31.1,8.63,59.43,26.93,84.99,5.06,7.07,11.04,13.77,17.93,20.08,23.59,21.63,51.11,32.82,82.56,33.55,6.67,.16,13.32-.21,19.94-1.12,26.95-3.69,50.23-14.79,69.85-33.32,4.74-4.47,9.19-9.41,13.35-14.84,18.96-24.73,28.71-52.84,29.24-84.33,.12-6.78-.24-13.43-1.07-19.95h0Zm-26.35,56.22c-.27,1.16-.55,2.33-.84,3.5-.23,.92-.46,1.82-.7,2.69-1.42,5.25-3.04,9.68-4.85,13.3-.3,.6-.61,1.18-.92,1.74-.91,1.63-1.9,3.25-2.97,4.85-3.19,4.8-7.07,9.45-11.62,13.95-5.97,5.91-12.25,11.09-18.82,15.56-2.63,1.78-5.31,3.45-8.03,5.01-1.36,.78-2.74,1.52-4.12,2.24-4.16,2.16-8.43,4.05-12.8,5.69-1.46,.55-2.93,1.06-4.41,1.55-2.96,.98-5.98,1.83-9.04,2.58-3.06,.74-6.17,1.37-9.33,1.88-6.63,1.07-12.99,1.69-19.07,1.85-6.41,.16-12.8-.25-19.18-1.23-2.1-.32-4.17-.74-6.2-1.25s-4.03-1.11-5.99-1.81c-3.93-1.4-7.72-3.17-11.38-5.32-8.07-4.74-14.95-9.77-20.64-15.1-11.88-11.12-21.18-23.75-27.9-37.88-1.34-2.82-2.59-5.71-3.72-8.66-1.14-2.95-2.17-5.95-3.11-9.02-.93-3.07-1.76-6.19-2.49-9.38-1.32-5.79-2.2-11.54-2.65-17.28-.27-3.44-.38-6.87-.33-10.29,.05-3.42,.25-6.83,.61-10.23,.36-3.4,.88-6.79,1.55-10.18,.45-2.26,.97-4.51,1.56-6.75,.76-2.9,1.62-5.79,2.57-8.66,.96-2.87,2.01-5.73,3.16-8.58,.58-1.42,1.18-2.84,1.8-4.26,1.87-4.25,3.97-8.47,6.28-12.66,3.73-6.75,8.22-12.75,13.45-17.98,3.14-3.14,6.55-6.01,10.22-8.6,1.21-.85,2.48-1.68,3.81-2.5,2.01-1.22,4.16-2.41,6.46-3.55,2.3-1.15,4.75-2.25,7.35-3.32,1.31-.54,2.62-1.06,3.94-1.55,2.64-.99,5.29-1.9,7.96-2.73,1.34-.41,2.67-.81,4.02-1.18,2.69-.74,5.39-1.41,8.11-1.98,2.72-.58,5.46-1.07,8.21-1.49,5.51-.82,11.08-1.32,16.72-1.48s11.34,.01,17.11,.51c6.85,.59,13.46,2.17,19.84,4.74,5.5,2.21,10.71,4.77,15.64,7.67,9.85,5.81,18.55,13,26.11,21.57,3.78,4.29,7.27,8.92,10.47,13.9,.95,1.48,1.87,2.97,2.75,4.46,1.76,2.99,3.38,6.01,4.85,9.07,2.21,4.58,4.1,9.23,5.67,13.95,1.04,3.15,1.95,6.33,2.7,9.54,1.14,4.82,1.95,9.7,2.44,14.66,.33,3.31,.51,6.64,.55,10.01,.06,5.05-.2,10.18-.78,15.37-.23,2.07-.51,4.17-.83,6.31-.16,1.07-.33,2.15-.51,3.24-.36,2.17-.77,4.38-1.22,6.63s-.94,4.53-1.48,6.84l.02,.04Z"/><g><path class="cls-2" d="M407.72,303.24c-.97-1.95-2.36-2.93-4.19-2.95-.3,0-.61,.12-.87,.35-6.34,5.85-13,11.3-19.98,16.35l-4.21,2.79c-.45,.07-.79-.03-1.04-.29l2.33-2.25c-.11-.35-.04-.67,.21-.96,.41-.41,.89-.67,1.46-.79,4.98-4.81,9.94-9.64,14.88-14.49,2.55-2.51,3.85-3.81,3.91-3.9,1.2-1.87,.85-3.97-1.05-6.31-1.17-1.44-2.32-1.43-3.47,.02-5.93,7.49-12.19,14.46-18.77,20.91l-4.91,4.92s-.07,.06-.11,.08c-.03,.01-.05,.02-.08,.03-.02,0-.05,.02-.07,.02h-.14s-.04-.01-.06-.02c-.02,0-.04-.02-.06-.03-.03-.02-.06-.05-.08-.08l-.23-.4c6.79-9.39,14.35-18.77,22.69-28.15,.95-1.07,.98-2.17,.09-3.29-.92-1.15-2.17-2-3.76-2.57-1.43-.51-2.51-.1-3.25,1.22-5.43,9.66-11.42,19.02-17.98,28.08-1.99,2.65-3.14,4.24-3.44,4.77-.49,.88-.83,.97-1,.28-.05-.2-.04-.43,.02-.68,.51-1.93,1.3-3.73,2.38-5.41,4.69-10.13,10.44-19.6,17.25-28.42,.05-.06,.49-.53,1.32-1.42,.96-1.03,1.19-2.09,.68-3.19-.32-.71-1.14-1.51-2.45-2.41-8.11-5.59-16.72-9.5-25.82-11.75-14.67-3.62-29.21-2.7-43.63,2.75-10.24,3.88-19.38,9.92-27.43,18.12-1.77,1.8-2.72,2.8-2.87,3-.8,1.1-1.32,2.42-1.57,3.96-.12,.71,.14,1.43,.68,1.9,7.15,6.22,13.23,13.25,18.23,21.08l-4.6-2.91c-5.59-4.88-10.71-9.84-15.36-14.89-.97-1.05-1.93-1.05-2.9,.01-1.58,1.74-2.8,3.41-3.65,5-3.47,6.49-6.02,13.26-7.66,20.32-1.51,6.47-2.1,13.09-1.77,19.84,.65,13.22,4.35,25.65,11.12,37.3,1.07,1.85,1.68,2.86,1.81,3.04,.71,.97,1.6,1.78,2.67,2.43,.52,.31,1.19,.27,1.71-.1l18.03-12.7,.5,.08c-4.75,5.21-10.07,10.03-15.97,14.46-1.51,1.13-1.91,2.57-1.19,4.32,.79,1.93,2.49,3.43,5.1,4.51,.76,.31,1.63,.04,2.08-.64,5.02-7.64,10.57-14.75,16.64-21.32,.33-.37,.49-.33,.47,.1,0,.24-.11,.52-.32,.84-4.66,7.26-9.59,14.36-14.79,21.31-.6,.81-.66,1.91-.14,2.78,1.55,2.56,3.44,3.79,5.68,3.7,.3,0,.59-.18,.75-.47,4.99-8.7,10.18-17.28,15.55-25.75,.15-.23,.31-.41,.5-.54,.74-.49,.89-.14,.46,1.06-3.53,9.8-8.17,18.48-13.9,26.04-1.38,1.81-1.07,3.26,.92,4.37,22.61,12.58,45.82,13.81,69.63,3.7,2.27-.97,4.39-2.2,6.35-3.71,.46-.34,.55-.99,.21-1.45-6.85-9.19-12.4-19.19-16.65-30.01-.09-.24-.08-.49,.03-.66,.19-.29,.37-.2,.56,.25,.08,.2,.17,.36,.26,.48,6.43,8.99,12.27,18.7,17.52,29.15,.13,.26,.44,.37,.71,.26,3.47-1.49,6.64-3.6,9.52-6.33,9.13-8.69,15.94-18.77,20.42-30.24,2.44-6.24,3.98-12.7,4.63-19.38,1.51-15.52-1.34-30.56-8.53-45.12h0Zm-112.25-17.28l3.71,4.28c5.2,6.69,9.16,14.03,11.88,22.02,.11,.33,.06,.35-.15,.08-6.22-8.12-11.37-16.91-15.44-26.38h0Zm48.17,92.15c-5.19,1.04-10.11,.89-14.77-.44-4.83-1.38-9.31-3.75-13.46-7.12-5.09-4.13-8.75-9.02-10.98-14.68-2.11-5.37-2.81-11.21-2.08-17.54,1.15-10.09,5.88-18.35,14.18-24.78,4.31-3.33,9.25-5.49,14.8-6.46,5.19-.91,10.43-.69,15.71,.66,10.44,2.67,18.15,9.11,23.12,19.3,3.49,7.15,4.49,14.39,3.01,21.7-1.31,6.49-4.29,12.37-8.93,17.64-5.42,6.15-12.29,10.05-20.6,11.72h0Zm46.83,15.93c-.12,.07-.27,.03-.44-.11-6.77-5.68-12.53-12.53-17.29-20.56-.74-1.21-.68-1.5,.19-.88,3.55,3.3,6.96,6.74,10.23,10.31,2.95,3.23,5.41,6.81,7.36,10.72,.11,.22,.09,.44-.05,.52Z"/><path class="cls-2" d="M361.94,335.83c-.37-1.09-.79-2.15-1.24-3.18s-.95-2.03-1.48-3c-.8-1.45-1.69-2.84-2.67-4.16-1.35-1.82-2.89-3.34-4.62-4.57-1.04-.74-2.15-1.37-3.34-1.89-3.66-1.62-7.35-2.34-11.09-2.15-.93,.05-1.87,.15-2.81,.31-.47,.08-.94,.17-1.41,.28-2.36,.54-4.73,1.44-7.11,2.69-1.22,.64-2.37,1.34-3.45,2.11-2.15,1.53-4.01,3.3-5.58,5.33-.78,1.01-1.49,2.08-2.13,3.22-.31,.54-.59,1.1-.85,1.65-.53,1.12-.97,2.26-1.32,3.43s-.62,2.37-.8,3.59c-.09,.61-.16,1.23-.21,1.85-.1,1.25-.1,2.52-.03,3.83,.14,2.34,.55,4.55,1.25,6.64,.56,1.67,1.29,3.26,2.2,4.77,.68,1.13,1.47,2.22,2.35,3.27,1.18,1.39,2.54,2.71,4.07,3.94,3.69,2.97,7.63,4.76,11.82,5.36,1.9,.27,3.86,.3,5.86,.08,1.34-.15,2.65-.38,3.93-.71,1.91-.5,3.73-1.2,5.48-2.12,.58-.3,1.15-.63,1.72-.98,1.13-.7,2.22-1.5,3.27-2.39,1.57-1.33,2.97-2.81,4.19-4.44s2.27-3.41,3.15-5.34c.58-1.29,1.09-2.64,1.52-4.06,.28-.94,.49-1.89,.63-2.84,.41-2.87,.16-5.83-.75-8.87-.17-.56-.34-1.11-.53-1.66h-.02Z"/></g></g><path class="cls-2" d="M342,504.39c-1.04,.1-1.83,.43-2.36,.99,1.09-.28,1.6,.07,1.54,1.04l1.03-1.62c.19-.31,.12-.44-.21-.41Z"/><g><path class="cls-2" d="M321.49,597.54c-.05,.08-.09,.16-.15,.23,.02-.02,.03-.03,.05-.05,.05-.05,.07-.12,.1-.18Z"/><path class="cls-2" d="M627.33,267.48c-.95-.89-2.09-1.15-3.42-.79-1.21,.33-2.41,1.03-3.59,2.1-14.77,13.47-27.69,25.93-38.74,37.37-6.89,7.13-11.51,11.94-13.86,14.42-10.63,11.21-21.43,23.95-32.4,38.21-12.06,15.68-26.5,31.09-43.31,46.23-2.06,1.93-4.06,3.91-6.01,5.94-.38,.4-.77,.64-1.16,.72-.89,.19-1.23-.18-1.02-1.09,.08-.36,.28-.72,.61-1.08,1.38-1.56,2.81-3.07,4.29-4.53,7.34-8.49,14.76-16.91,22.27-25.26,9.47-10.51,15.79-17.86,18.96-22.05,16.69-22.07,34.39-43.28,53.11-63.63,3.08-3.35,5.96-6.85,8.63-10.51,1.35-1.84,2.08-3.37,2.21-4.6,.19-1.88-.44-3.61-1.89-5.2-1.79-1.95-3.95-3.64-6.49-5.07-.33-.18-.55-.46-.58-.73l-.44-3.45c-.05-.39-.18-.7-.36-.84-.93-.73-1.87-.68-2.82,.15-2.49,2.2-4.99,5.12-7.5,8.75-1.87,2.71-6.5,8.33-13.88,16.85-24.97,28.81-49.3,58.16-72.99,88.03-7.96,10.03-17.72,21.65-29.27,34.87-4.33,4.95-8.63,10.03-12.92,15.26-14.55,17.75-29.54,35.14-44.95,52.15-.04,.05-.66,.81-1.85,2.28-1.04,1.28-2.26,2.31-3.65,3.09-1.3,.72-3.24,1.22-5.82,1.5-40.82,4.35-80.21-.2-118.17-13.65-45.6-16.15-85.35-41.99-119.25-77.5-4.95-5.19-8.69-9.04-11.21-11.53-1.83-1.82-3.49-2.87-4.96-3.16-2.25-.45-4.31,.2-6.2,1.94-1.37,1.26-2.65,2.83-3.83,4.71-.94,1.5-1.88,2.74-2.82,3.71-1.09,1.13-2.17,2.28-3.22,3.45-3.33,3.7-3.46,7.45-.38,11.25,3.08,3.81,8.02,8.95,14.82,15.44,37.37,35.63,74.98,71.02,112.81,106.17,24.85,23.09,49.93,45.96,75.22,68.61,.02,.02,.03,.03,.05,.05h0s-.03-.03-.05-.05c.07,.06,.11,.15,.16,.22-.03-.04-.05-.07-.07-.11,.02,.04,.05,.08,.07,.11,.05,.07,.1,.13,.13,.2,0,.01,0,.03,.01,.04,0-.01,0-.02-.01-.03,.03,.07,.04,.15,.06,.22,.02,.08,.04,.15,.04,.23,0,.08-.02,.15-.03,.22-.01,.08-.02,.15-.05,.23-.03,.07-.08,.14-.12,.21-.04,.06-.06,.12-.1,.18-.02,.02-.03,.03-.05,.05-5.37,5.32-10.8,10.83-16.27,16.52-.66,.69-1.27,1.9-1.84,3.65-.02,.04-.02,.09-.02,.13,0,.03,0,.05,.01,.08,0,.02,0,.05,.02,.07,0,.02,.02,.04,.04,.07,.01,.02,.03,.04,.04,.06,.02,.02,.04,.03,.06,.04,.02,.02,.04,.03,.07,.04,.04,.02,.08,.03,.13,.03,2.39,.17,4.53-.5,6.4-2.03,5.63-4.56,11.33-9.03,17.11-13.4,.57-.43,1.36-.42,1.91,.04,6.62,5.45,13.33,10.82,20.14,16.09,1.65,1.28,3.1,1.93,4.33,1.94,2.18,.03,3.56-1.25,4.14-3.82,.07-.31,0-.64-.21-.9-5.7-7.51-11.88-14.75-18.55-21.72-.83-.87-.92-1.8-.26-2.81,.73-1.11,1.84-2.37,3.31-3.76,4.81-4.52,9.49-9.16,14.06-13.93,10.43-10.89,20.98-21.68,31.64-32.36,6.3-6.31,15.29-15.81,26.98-28.52,10.88-11.83,21.75-23.66,32.62-35.5h-.01c4.13-4.51,8.68-9.38,13.65-14.62,18.69-19.73,34.76-37.19,48.23-52.38,30.3-34.16,64.08-73.46,101.33-117.89,7.97-9.51,13.57-16.5,16.8-20.98,1.31-1.81,1.35-3.29,.13-4.44Z"/></g><g><path class="cls-2" d="M473.05,37.17c.67,.35,1.92,.58,3.75,.67,4.11,.21,11.55,.77,22.33,1.67,10.99,.92,26.29,1.19,45.89,.82,.01,0,2.42-.12,7.21-.37,2.83-.15,6.05-.13,9.65,.05,4.79,.24,14.96,.33,30.5,.28,2.37,0,6.19-.26,11.47-.75,3.83-.35,7.67-.45,11.53-.3,5.37,.21,8.95-.04,10.75-.73,2.96-1.15,3.4-2.68,1.31-4.59-.94-.87-2.05-1.33-3.32-1.38-17.23-.73-34.23-1.05-50.99-.97-22.59,.11-45.17-.09-67.75-.6-10-.23-20-.31-30-.25-1.67,0-3,.62-4.01,1.83-.21,.25-.32,.57-.33,.9-.03,1.76,.64,3,2.01,3.72h0Z"/><path class="cls-2" d="M645.19,130.01c.19,19.83,.39,39.67,.6,59.5,.05,4.43,.24,8.8,.58,13.12,.1,1.25,.74,2.06,1.93,2.44,1.65,.53,2.97,.31,3.98-.65,.69-.66,1.04-1.76,1.03-3.3-.21-28.27-.16-53.46,.13-75.55,.41-30.94,.5-58.52,.26-82.75-.02-2.57-1.2-3.67-3.54-3.28-.85,.14-1.48,.85-1.53,1.7-.54,9.83-.98,19.67-1.33,29.51-.07,1.97-.39,5.45-.97,10.46-.41,3.49-.56,7.01-.43,10.55,.11,3.42-.14,8.17-.77,14.25-.34,3.26-.44,7.26-.29,12,.23,7.31,.34,11.31,.35,12Z"/><path class="cls-2" d="M110.46,52.41c.61-2.65-.16-3.88-2.31-3.69-.93,.08-2,.51-3.19,1.28-3.81,2.47-7.25,5.37-10.34,8.69-2.25,2.42-3.4,3.65-3.43,3.68-7.97,8.18-15.92,16.38-23.85,24.61-3.03,3.14-4.68,6.73-4.96,10.78-.29,4.16-.51,13.33-.68,27.5-.07,5.35-.28,10.69-.65,16.02-.73,10.5-1.1,15.83-1.11,15.98-.42,7.59-.86,15.17-1.31,22.75-.13,2.06,.58,4.04,2.12,5.93,.2,.26,.5,.44,.82,.48,1.43,.22,2.45-.21,3.08-1.3,.34-.59,.55-1.65,.62-3.19,1.15-23.32,2.45-46.63,3.88-69.93,.33-5.24,.57-10.38,.72-15.41,.03-.94,.41-1.83,1.06-2.5l38.15-39.16c.69-.7,1.16-1.57,1.38-2.52h0Z"/><path class="cls-2" d="M162.99,51.39c-1.63-.36-3.06,.04-4.27,1.19-13.01,12.31-24.37,25.69-34.08,40.16-3.43,5.11-5.44,8.62-6.01,10.52-.45,1.48-1.43,3.42-2.94,5.81-5.24,8.31-9.59,14.64-13.05,18.98-.84,1.05-1.55,2.29-2.12,3.73-.38,.94-.03,2.02,.83,2.56,1.01,.64,2,.59,2.98-.14,1.11-.83,2.07-1.78,2.9-2.87,.97-1.27,1.48-1.92,1.51-1.96,18.77-22.43,36.91-45.36,54.44-68.78,1.76-2.35,2.66-3.87,2.7-4.58,.15-2.62-.81-4.16-2.89-4.62Z"/><path class="cls-2" d="M594.44,74.73c1.45,.23,2.57,.27,3.38,.14,2.79-.44,3-1.92,.61-4.43-1.19-1.25-2.64-1.98-4.35-2.19-2.01-.23-4.02-.46-6.04-.67-1.17-.13-2.82-.14-4.94-.04-2.07,.09-3.73-.08-4.97-.53-2.27-.82-4.6-1.32-7-1.5-13.79-1.05-27.56-2.38-41.3-4-3.5-.41-7.61-1.03-12.34-1.85-4.11-.72-8.22-1.39-12.34-2.02-2.09-.31-3.62-.02-4.59,.88-1.51,1.39-1.39,2.61,.37,3.67,2.79,1.67,5.76,2.72,8.91,3.13,1.92,.25,3.54,.64,4.87,1.19,2.75,1.14,4.64,1.72,5.67,1.75,7.13,.19,15.04,.78,23.75,1.75,7.29,.81,19.03,1.95,35.23,3.41,.43,.04,2.94,.2,7.54,.48,2.53,.16,5.04,.44,7.54,.83h0Z"/><path class="cls-2" d="M39.16,138.76c-.33-16.08-.59-32.17-.78-48.26-.02-1.77-.61-3.33-1.78-4.67-1.27-1.47-2.41-1.62-3.41-.45-.48,.57-.78,1.44-.89,2.6-.88,9.13-1.24,18.27-1.09,27.44,.13,7.73,.2,11.63,.2,11.69,.13,26.39,.36,52.77,.67,79.15,0,1.35,.36,2.52,1.04,3.51,.73,1.07,1.7,1.62,2.92,1.65,1.55,.05,2.58-.84,3.09-2.66,.53-1.9,.76-4.4,.7-7.5-.28-14.17-.43-28.33-.46-42.5,0-7.09-.08-13.76-.21-20h0Z"/><path class="cls-2" d="M617.09,107.05c-.42-.05-2.56-.05-6.42,.02-6.42,.11-12.83,.18-19.22,.19-1.27,0-2.44,.35-3.5,1.06-1.75,1.15-1.78,2.29-.08,3.42,1.71,1.14,3.58,1.69,5.59,1.64,1.81-.03,2.76-.05,2.85-.05,9.94,.52,16.05,.91,18.32,1.18,2.79,.33,5.44-.11,7.95-1.32,1.8-.87,1.96-1.98,.49-3.33-1.7-1.56-3.69-2.5-5.98-2.81h0Z"/><path class="cls-2" d="M642.01,560.69c.07,5.1,.32,11.48,.74,19.13,.46,8.37,.75,17.52,.88,27.44,.03,1.89,.72,3.54,2.08,4.96,.23,.24,.54,.37,.86,.36,1.37-.05,2.23-.74,2.56-2.07,.89-3.57,1.3-7.82,1.23-12.75-.64-41.58-1.22-83.34-1.74-125.28-.02-1.82-.84-3.15-2.45-4-1.09-.57-2.11-.46-3.05,.32-.62,.51-1.06,1.3-1.33,2.37-.43,1.73-.65,3.76-.66,6.09-.09,25.11,.07,46.53,.5,64.26,.15,6.39,.28,12.78,.38,19.17Z"/><path class="cls-2" d="M615.65,577.15c1.5-.44,2.24-1.65,2.23-3.64-.07-11.55,.16-21.46,.69-29.75,1.23-19.08,2.35-38.16,3.37-57.25,.15-2.76-.82-4.92-2.91-6.47-.24-.18-.57-.21-.85-.07-1.67,.87-2.59,2.3-2.76,4.29-.63,7.65-1.03,15.31-1.22,22.98-.04,1.63-.31,3.96-.8,6.97-.39,2.33-.55,4.68-.49,7.05,.17,7.5-.11,14.98-.84,22.44-.71,7.24-1.11,16.68-1.2,28.31-.01,1.73,.48,3.13,1.48,4.19,.94,1,2.04,1.32,3.3,.95h0Z"/><path class="cls-2" d="M36.38,495.51c.11-5.41-.06-8.74-.5-10-.89-2.55-2.45-3.28-4.69-2.19-1.79,.87-2.57,2.36-2.36,4.45,.17,1.69,.25,2.56,.25,2.62,.11,9.03,.05,20.07-.2,33.12-.25,13.1-.41,33.35-.48,60.76,0,.07-.08,6.4-.25,18.97-.11,8.09,.01,16.17,.36,24.26,.06,1.51,.75,2.53,2.06,3.07,1.75,.73,2.69,.04,2.81-2.06,.66-11.91,1.16-23.82,1.5-35.75,.13-4.41,.32-8.19,.59-11.36,.51-5.97,.79-9.74,.83-11.31,.35-12.77,.45-25.55,.3-38.33-.23-19.83-.31-31.92-.22-36.25Z"/><path class="cls-2" d="M62.58,571.99c1.04,.32,2.47,.44,4.28,.36,9.37-.41,15.13-.52,17.27-.34,2.05,.17,3.95-.26,5.69-1.31,2.16-1.31,1.95-2.47-.63-3.5-1.29-.52-2.63-.78-4.02-.77-1.66,0-2.52,.01-2.59,.01-5.83-.34-11.65-.76-17.46-1.27-2.01-.17-3.91,.21-5.69,1.16-1.6,.85-1.81,1.96-.62,3.33,.92,1.06,2.18,1.84,3.77,2.33h0Z"/><path class="cls-2" d="M79.63,593.94c-1.65,.39-2.05,1.3-1.19,2.72,.45,.74,1.16,1.36,2.14,1.86,2.97,1.51,6.13,2.21,9.48,2.08,2.33-.09,4.15-.02,5.48,.2,6.26,1.02,13.29,1.67,21.09,1.96,9.33,.35,19.97,1.5,31.92,3.45,1.43,.23,2.66,.28,3.69,.15,3.58-.47,4.19-1.82,1.83-4.05-.86-.81-1.97-1.44-3.34-1.9-3.94-1.31-7.98-2.05-12.13-2.21-5.91-.23-9.05-.37-9.42-.4-15.67-1.52-31.35-2.84-47.05-3.95-1.08-.08-1.91-.05-2.5,.09h0Z"/><path class="cls-2" d="M180.29,623.64c-15.97-1.09-31.48-1.65-46.51-1.66-2.21,0-6.47,.21-12.78,.62-4.26,.27-8.53,.32-12.81,.15-10.58-.44-21.15-.38-31.72,.17-2.77,.15-6.5,.24-11.2,.27-3.74,.03-7.47,.21-11.2,.54-1.75,.15-2.78,1-3.11,2.53-.07,.31,0,.65,.16,.94,1.07,1.77,2.66,2.64,4.77,2.61,.93-.02,1.42-.03,1.46-.02,15.17,.55,28.26,.79,39.28,.72,26.33-.16,52.67-.24,79.01-.25,.05,0,.54,.02,1.47,.05,1.77,.06,3.45-.29,5.05-1.05,2.45-1.17,2.8-2.62,1.03-4.33-.81-.78-1.77-1.21-2.9-1.29h0Z"/></g><g><path class="cls-2" d="M473.05,36.17c.67,.35,1.92,.58,3.75,.67,4.11,.21,11.55,.77,22.33,1.67,10.99,.92,26.29,1.19,45.89,.82,.01,0,2.42-.12,7.21-.37,2.83-.15,6.05-.13,9.65,.05,4.79,.24,14.96,.33,30.5,.28,2.37,0,6.19-.26,11.47-.75,3.83-.35,7.67-.45,11.53-.3,5.37,.21,8.95-.04,10.75-.73,2.96-1.15,3.4-2.68,1.31-4.59-.94-.87-2.05-1.33-3.32-1.38-17.23-.73-34.23-1.05-50.99-.97-22.59,.11-45.17-.09-67.75-.6-10-.23-20-.31-30-.25-1.67,0-3,.62-4.01,1.83-.21,.25-.32,.57-.33,.9-.03,1.76,.64,3,2.01,3.72h0Z"/><path class="cls-2" d="M645.19,129.01c.19,19.83,.39,39.67,.6,59.5,.05,4.43,.24,8.8,.58,13.12,.1,1.25,.74,2.06,1.93,2.44,1.65,.53,2.97,.31,3.98-.65,.69-.66,1.04-1.76,1.03-3.3-.21-28.27-.16-53.46,.13-75.55,.41-30.94,.5-58.52,.26-82.75-.02-2.57-1.2-3.67-3.54-3.28-.85,.14-1.48,.85-1.53,1.7-.54,9.83-.98,19.67-1.33,29.51-.07,1.97-.39,5.45-.97,10.46-.41,3.49-.56,7.01-.43,10.55,.11,3.42-.14,8.17-.77,14.25-.34,3.26-.44,7.26-.29,12,.23,7.31,.34,11.31,.35,12Z"/><path class="cls-2" d="M110.46,51.41c.61-2.65-.16-3.88-2.31-3.69-.93,.08-2,.51-3.19,1.28-3.81,2.47-7.25,5.37-10.34,8.69-2.25,2.42-3.4,3.65-3.43,3.68-7.97,8.18-15.92,16.38-23.85,24.61-3.03,3.14-4.68,6.73-4.96,10.78-.29,4.16-.51,13.33-.68,27.5-.07,5.35-.28,10.69-.65,16.02-.73,10.5-1.1,15.83-1.11,15.98-.42,7.59-.86,15.17-1.31,22.75-.13,2.06,.58,4.04,2.12,5.93,.2,.26,.5,.44,.82,.48,1.43,.22,2.45-.21,3.08-1.3,.34-.59,.55-1.65,.62-3.19,1.15-23.32,2.45-46.63,3.88-69.93,.33-5.24,.57-10.38,.72-15.41,.03-.94,.41-1.83,1.06-2.5l38.15-39.16c.69-.7,1.16-1.57,1.38-2.52h0Z"/><path class="cls-2" d="M162.99,50.39c-1.63-.36-3.06,.04-4.27,1.19-13.01,12.31-24.37,25.69-34.08,40.16-3.43,5.11-5.44,8.62-6.01,10.52-.45,1.48-1.43,3.42-2.94,5.81-5.24,8.31-9.59,14.64-13.05,18.98-.84,1.05-1.55,2.29-2.12,3.73-.38,.94-.03,2.02,.83,2.56,1.01,.64,2,.59,2.98-.14,1.11-.83,2.07-1.78,2.9-2.87,.97-1.27,1.48-1.92,1.51-1.96,18.77-22.43,36.91-45.36,54.44-68.78,1.76-2.35,2.66-3.87,2.7-4.58,.15-2.62-.81-4.16-2.89-4.62Z"/><path class="cls-2" d="M594.44,73.73c1.45,.23,2.57,.27,3.38,.14,2.79-.44,3-1.92,.61-4.43-1.19-1.25-2.64-1.98-4.35-2.19-2.01-.23-4.02-.46-6.04-.67-1.17-.13-2.82-.14-4.94-.04-2.07,.09-3.73-.08-4.97-.53-2.27-.82-4.6-1.32-7-1.5-13.79-1.05-27.56-2.38-41.3-4-3.5-.41-7.61-1.03-12.34-1.85-4.11-.72-8.22-1.39-12.34-2.02-2.09-.31-3.62-.02-4.59,.88-1.51,1.39-1.39,2.61,.37,3.67,2.79,1.67,5.76,2.72,8.91,3.13,1.92,.25,3.54,.64,4.87,1.19,2.75,1.14,4.64,1.72,5.67,1.75,7.13,.19,15.04,.78,23.75,1.75,7.29,.81,19.03,1.95,35.23,3.41,.43,.04,2.94,.2,7.54,.48,2.53,.16,5.04,.44,7.54,.83h0Z"/><path class="cls-2" d="M39.16,137.76c-.33-16.08-.59-32.17-.78-48.26-.02-1.77-.61-3.33-1.78-4.67-1.27-1.47-2.41-1.62-3.41-.45-.48,.57-.78,1.44-.89,2.6-.88,9.13-1.24,18.27-1.09,27.44,.13,7.73,.2,11.63,.2,11.69,.13,26.39,.36,52.77,.67,79.15,0,1.35,.36,2.52,1.04,3.51,.73,1.07,1.7,1.62,2.92,1.65,1.55,.05,2.58-.84,3.09-2.66,.53-1.9,.76-4.4,.7-7.5-.28-14.17-.43-28.33-.46-42.5,0-7.09-.08-13.76-.21-20h0Z"/><path class="cls-2" d="M617.09,106.05c-.42-.05-2.56-.05-6.42,.02-6.42,.11-12.83,.18-19.22,.19-1.27,0-2.44,.35-3.5,1.06-1.75,1.15-1.78,2.29-.08,3.42,1.71,1.14,3.58,1.69,5.59,1.64,1.81-.03,2.76-.05,2.85-.05,9.94,.52,16.05,.91,18.32,1.18,2.79,.33,5.44-.11,7.95-1.32,1.8-.87,1.96-1.98,.49-3.33-1.7-1.56-3.69-2.5-5.98-2.81h0Z"/><path class="cls-2" d="M642.01,559.69c.07,5.1,.32,11.48,.74,19.13,.46,8.37,.75,17.52,.88,27.44,.03,1.89,.72,3.54,2.08,4.96,.23,.24,.54,.37,.86,.36,1.37-.05,2.23-.74,2.56-2.07,.89-3.57,1.3-7.82,1.23-12.75-.64-41.58-1.22-83.34-1.74-125.28-.02-1.82-.84-3.15-2.45-4-1.09-.57-2.11-.46-3.05,.32-.62,.51-1.06,1.3-1.33,2.37-.43,1.73-.65,3.76-.66,6.09-.09,25.11,.07,46.53,.5,64.26,.15,6.39,.28,12.78,.38,19.17Z"/><path class="cls-2" d="M615.65,576.15c1.5-.44,2.24-1.65,2.23-3.64-.07-11.55,.16-21.46,.69-29.75,1.23-19.08,2.35-38.16,3.37-57.25,.15-2.76-.82-4.92-2.91-6.47-.24-.18-.57-.21-.85-.07-1.67,.87-2.59,2.3-2.76,4.29-.63,7.65-1.03,15.31-1.22,22.98-.04,1.63-.31,3.96-.8,6.97-.39,2.33-.55,4.68-.49,7.05,.17,7.5-.11,14.98-.84,22.44-.71,7.24-1.11,16.68-1.2,28.31-.01,1.73,.48,3.13,1.48,4.19,.94,1,2.04,1.32,3.3,.95h0Z"/><path class="cls-2" d="M36.38,494.51c.11-5.41-.06-8.74-.5-10-.89-2.55-2.45-3.28-4.69-2.19-1.79,.87-2.57,2.36-2.36,4.45,.17,1.69,.25,2.56,.25,2.62,.11,9.03,.05,20.07-.2,33.12-.25,13.1-.41,33.35-.48,60.76,0,.07-.08,6.4-.25,18.97-.11,8.09,.01,16.17,.36,24.26,.06,1.51,.75,2.53,2.06,3.07,1.75,.73,2.69,.04,2.81-2.06,.66-11.91,1.16-23.82,1.5-35.75,.13-4.41,.32-8.19,.59-11.36,.51-5.97,.79-9.74,.83-11.31,.35-12.77,.45-25.55,.3-38.33-.23-19.83-.31-31.92-.22-36.25Z"/><path class="cls-2" d="M62.58,570.99c1.04,.32,2.47,.44,4.28,.36,9.37-.41,15.13-.52,17.27-.34,2.05,.17,3.95-.26,5.69-1.31,2.16-1.31,1.95-2.47-.63-3.5-1.29-.52-2.63-.78-4.02-.77-1.66,0-2.52,.01-2.59,.01-5.83-.34-11.65-.76-17.46-1.27-2.01-.17-3.91,.21-5.69,1.16-1.6,.85-1.81,1.96-.62,3.33,.92,1.06,2.18,1.84,3.77,2.33h0Z"/><path class="cls-2" d="M79.63,592.94c-1.65,.39-2.05,1.3-1.19,2.72,.45,.74,1.16,1.36,2.14,1.86,2.97,1.51,6.13,2.21,9.48,2.08,2.33-.09,4.15-.02,5.48,.2,6.26,1.02,13.29,1.67,21.09,1.96,9.33,.35,19.97,1.5,31.92,3.45,1.43,.23,2.66,.28,3.69,.15,3.58-.47,4.19-1.82,1.83-4.05-.86-.81-1.97-1.44-3.34-1.9-3.94-1.31-7.98-2.05-12.13-2.21-5.91-.23-9.05-.37-9.42-.4-15.67-1.52-31.35-2.84-47.05-3.95-1.08-.08-1.91-.05-2.5,.09h0Z"/><path class="cls-2" d="M180.29,622.64c-15.97-1.09-31.48-1.65-46.51-1.66-2.21,0-6.47,.21-12.78,.62-4.26,.27-8.53,.32-12.81,.15-10.58-.44-21.15-.38-31.72,.17-2.77,.15-6.5,.24-11.2,.27-3.74,.03-7.47,.21-11.2,.54-1.75,.15-2.78,1-3.11,2.53-.07,.31,0,.65,.16,.94,1.07,1.77,2.66,2.64,4.77,2.61,.93-.02,1.42-.03,1.46-.02,15.17,.55,28.26,.79,39.28,.72,26.33-.16,52.67-.24,79.01-.25,.05,0,.54,.02,1.47,.05,1.77,.06,3.45-.29,5.05-1.05,2.45-1.17,2.8-2.62,1.03-4.33-.81-.78-1.77-1.21-2.9-1.29h0Z"/></g><g><path class="cls-2" d="M473.05,35.17c.67,.35,1.92,.58,3.75,.67,4.11,.21,11.55,.77,22.33,1.67,10.99,.92,26.29,1.19,45.89,.82,.01,0,2.42-.12,7.21-.37,2.83-.15,6.05-.13,9.65,.05,4.79,.24,14.96,.33,30.5,.28,2.37,0,6.19-.26,11.47-.75,3.83-.35,7.67-.45,11.53-.3,5.37,.21,8.95-.04,10.75-.73,2.96-1.15,3.4-2.68,1.31-4.59-.94-.87-2.05-1.33-3.32-1.38-17.23-.73-34.23-1.05-50.99-.97-22.59,.11-45.17-.09-67.75-.6-10-.23-20-.31-30-.25-1.67,0-3,.62-4.01,1.83-.21,.25-.32,.57-.33,.9-.03,1.76,.64,3,2.01,3.72h0Z"/><path class="cls-2" d="M645.19,128.01c.19,19.83,.39,39.67,.6,59.5,.05,4.43,.24,8.8,.58,13.12,.1,1.25,.74,2.06,1.93,2.44,1.65,.53,2.97,.31,3.98-.65,.69-.66,1.04-1.76,1.03-3.3-.21-28.27-.16-53.46,.13-75.55,.41-30.94,.5-58.52,.26-82.75-.02-2.57-1.2-3.67-3.54-3.28-.85,.14-1.48,.85-1.53,1.7-.54,9.83-.98,19.67-1.33,29.51-.07,1.97-.39,5.45-.97,10.46-.41,3.49-.56,7.01-.43,10.55,.11,3.42-.14,8.17-.77,14.25-.34,3.26-.44,7.26-.29,12,.23,7.31,.34,11.31,.35,12Z"/><path class="cls-2" d="M110.46,50.41c.61-2.65-.16-3.88-2.31-3.69-.93,.08-2,.51-3.19,1.28-3.81,2.47-7.25,5.37-10.34,8.69-2.25,2.42-3.4,3.65-3.43,3.68-7.97,8.18-15.92,16.38-23.85,24.61-3.03,3.14-4.68,6.73-4.96,10.78-.29,4.16-.51,13.33-.68,27.5-.07,5.35-.28,10.69-.65,16.02-.73,10.5-1.1,15.83-1.11,15.98-.42,7.59-.86,15.17-1.31,22.75-.13,2.06,.58,4.04,2.12,5.93,.2,.26,.5,.44,.82,.48,1.43,.22,2.45-.21,3.08-1.3,.34-.59,.55-1.65,.62-3.19,1.15-23.32,2.45-46.63,3.88-69.93,.33-5.24,.57-10.38,.72-15.41,.03-.94,.41-1.83,1.06-2.5l38.15-39.16c.69-.7,1.16-1.57,1.38-2.52h0Z"/><path class="cls-2" d="M162.99,49.39c-1.63-.36-3.06,.04-4.27,1.19-13.01,12.31-24.37,25.69-34.08,40.16-3.43,5.11-5.44,8.62-6.01,10.52-.45,1.48-1.43,3.42-2.94,5.81-5.24,8.31-9.59,14.64-13.05,18.98-.84,1.05-1.55,2.29-2.12,3.73-.38,.94-.03,2.02,.83,2.56,1.01,.64,2,.59,2.98-.14,1.11-.83,2.07-1.78,2.9-2.87,.97-1.27,1.48-1.92,1.51-1.96,18.77-22.43,36.91-45.36,54.44-68.78,1.76-2.35,2.66-3.87,2.7-4.58,.15-2.62-.81-4.16-2.89-4.62Z"/><path class="cls-2" d="M594.44,72.73c1.45,.23,2.57,.27,3.38,.14,2.79-.44,3-1.92,.61-4.43-1.19-1.25-2.64-1.98-4.35-2.19-2.01-.23-4.02-.46-6.04-.67-1.17-.13-2.82-.14-4.94-.04-2.07,.09-3.73-.08-4.97-.53-2.27-.82-4.6-1.32-7-1.5-13.79-1.05-27.56-2.38-41.3-4-3.5-.41-7.61-1.03-12.34-1.85-4.11-.72-8.22-1.39-12.34-2.02-2.09-.31-3.62-.02-4.59,.88-1.51,1.39-1.39,2.61,.37,3.67,2.79,1.67,5.76,2.72,8.91,3.13,1.92,.25,3.54,.64,4.87,1.19,2.75,1.14,4.64,1.72,5.67,1.75,7.13,.19,15.04,.78,23.75,1.75,7.29,.81,19.03,1.95,35.23,3.41,.43,.04,2.94,.2,7.54,.48,2.53,.16,5.04,.44,7.54,.83h0Z"/><path class="cls-2" d="M39.16,136.76c-.33-16.08-.59-32.17-.78-48.26-.02-1.77-.61-3.33-1.78-4.67-1.27-1.47-2.41-1.62-3.41-.45-.48,.57-.78,1.44-.89,2.6-.88,9.13-1.24,18.27-1.09,27.44,.13,7.73,.2,11.63,.2,11.69,.13,26.39,.36,52.77,.67,79.15,0,1.35,.36,2.52,1.04,3.51,.73,1.07,1.7,1.62,2.92,1.65,1.55,.05,2.58-.84,3.09-2.66,.53-1.9,.76-4.4,.7-7.5-.28-14.17-.43-28.33-.46-42.5,0-7.09-.08-13.76-.21-20h0Z"/><path class="cls-2" d="M617.09,105.05c-.42-.05-2.56-.05-6.42,.02-6.42,.11-12.83,.18-19.22,.19-1.27,0-2.44,.35-3.5,1.06-1.75,1.15-1.78,2.29-.08,3.42,1.71,1.14,3.58,1.69,5.59,1.64,1.81-.03,2.76-.05,2.85-.05,9.94,.52,16.05,.91,18.32,1.18,2.79,.33,5.44-.11,7.95-1.32,1.8-.87,1.96-1.98,.49-3.33-1.7-1.56-3.69-2.5-5.98-2.81h0Z"/><path class="cls-2" d="M642.01,558.69c.07,5.1,.32,11.48,.74,19.13,.46,8.37,.75,17.52,.88,27.44,.03,1.89,.72,3.54,2.08,4.96,.23,.24,.54,.37,.86,.36,1.37-.05,2.23-.74,2.56-2.07,.89-3.57,1.3-7.82,1.23-12.75-.64-41.58-1.22-83.34-1.74-125.28-.02-1.82-.84-3.15-2.45-4-1.09-.57-2.11-.46-3.05,.32-.62,.51-1.06,1.3-1.33,2.37-.43,1.73-.65,3.76-.66,6.09-.09,25.11,.07,46.53,.5,64.26,.15,6.39,.28,12.78,.38,19.17Z"/><path class="cls-2" d="M615.65,575.15c1.5-.44,2.24-1.65,2.23-3.64-.07-11.55,.16-21.46,.69-29.75,1.23-19.08,2.35-38.16,3.37-57.25,.15-2.76-.82-4.92-2.91-6.47-.24-.18-.57-.21-.85-.07-1.67,.87-2.59,2.3-2.76,4.29-.63,7.65-1.03,15.31-1.22,22.98-.04,1.63-.31,3.96-.8,6.97-.39,2.33-.55,4.68-.49,7.05,.17,7.5-.11,14.98-.84,22.44-.71,7.24-1.11,16.68-1.2,28.31-.01,1.73,.48,3.13,1.48,4.19,.94,1,2.04,1.32,3.3,.95h0Z"/><path class="cls-2" d="M36.38,493.51c.11-5.41-.06-8.74-.5-10-.89-2.55-2.45-3.28-4.69-2.19-1.79,.87-2.57,2.36-2.36,4.45,.17,1.69,.25,2.56,.25,2.62,.11,9.03,.05,20.07-.2,33.12-.25,13.1-.41,33.35-.48,60.76,0,.07-.08,6.4-.25,18.97-.11,8.09,.01,16.17,.36,24.26,.06,1.51,.75,2.53,2.06,3.07,1.75,.73,2.69,.04,2.81-2.06,.66-11.91,1.16-23.82,1.5-35.75,.13-4.41,.32-8.19,.59-11.36,.51-5.97,.79-9.74,.83-11.31,.35-12.77,.45-25.55,.3-38.33-.23-19.83-.31-31.92-.22-36.25Z"/><path class="cls-2" d="M62.58,569.99c1.04,.32,2.47,.44,4.28,.36,9.37-.41,15.13-.52,17.27-.34,2.05,.17,3.95-.26,5.69-1.31,2.16-1.31,1.95-2.47-.63-3.5-1.29-.52-2.63-.78-4.02-.77-1.66,0-2.52,.01-2.59,.01-5.83-.34-11.65-.76-17.46-1.27-2.01-.17-3.91,.21-5.69,1.16-1.6,.85-1.81,1.96-.62,3.33,.92,1.06,2.18,1.84,3.77,2.33h0Z"/><path class="cls-2" d="M79.63,591.94c-1.65,.39-2.05,1.3-1.19,2.72,.45,.74,1.16,1.36,2.14,1.86,2.97,1.51,6.13,2.21,9.48,2.08,2.33-.09,4.15-.02,5.48,.2,6.26,1.02,13.29,1.67,21.09,1.96,9.33,.35,19.97,1.5,31.92,3.45,1.43,.23,2.66,.28,3.69,.15,3.58-.47,4.19-1.82,1.83-4.05-.86-.81-1.97-1.44-3.34-1.9-3.94-1.31-7.98-2.05-12.13-2.21-5.91-.23-9.05-.37-9.42-.4-15.67-1.52-31.35-2.84-47.05-3.95-1.08-.08-1.91-.05-2.5,.09h0Z"/><path class="cls-2" d="M180.29,621.64c-15.97-1.09-31.48-1.65-46.51-1.66-2.21,0-6.47,.21-12.78,.62-4.26,.27-8.53,.32-12.81,.15-10.58-.44-21.15-.38-31.72,.17-2.77,.15-6.5,.24-11.2,.27-3.74,.03-7.47,.21-11.2,.54-1.75,.15-2.78,1-3.11,2.53-.07,.31,0,.65,.16,.94,1.07,1.77,2.66,2.64,4.77,2.61,.93-.02,1.42-.03,1.46-.02,15.17,.55,28.26,.79,39.28,.72,26.33-.16,52.67-.24,79.01-.25,.05,0,.54,.02,1.47,.05,1.77,.06,3.45-.29,5.05-1.05,2.45-1.17,2.8-2.62,1.03-4.33-.81-.78-1.77-1.21-2.9-1.29h0Z"/></g><g><path class="cls-2" d="M473.05,34.17c.67,.35,1.92,.58,3.75,.67,4.11,.21,11.55,.77,22.33,1.67,10.99,.92,26.29,1.19,45.89,.82,.01,0,2.42-.12,7.21-.37,2.83-.15,6.05-.13,9.65,.05,4.79,.24,14.96,.33,30.5,.28,2.37,0,6.19-.26,11.47-.75,3.83-.35,7.67-.45,11.53-.3,5.37,.21,8.95-.04,10.75-.73,2.96-1.15,3.4-2.68,1.31-4.59-.94-.87-2.05-1.33-3.32-1.38-17.23-.73-34.23-1.05-50.99-.97-22.59,.11-45.17-.09-67.75-.6-10-.23-20-.31-30-.25-1.67,0-3,.62-4.01,1.83-.21,.25-.32,.57-.33,.9-.03,1.76,.64,3,2.01,3.72h0Z"/><path class="cls-2" d="M645.19,127.01c.19,19.83,.39,39.67,.6,59.5,.05,4.43,.24,8.8,.58,13.12,.1,1.25,.74,2.06,1.93,2.44,1.65,.53,2.97,.31,3.98-.65,.69-.66,1.04-1.76,1.03-3.3-.21-28.27-.16-53.46,.13-75.55,.41-30.94,.5-58.52,.26-82.75-.02-2.57-1.2-3.67-3.54-3.28-.85,.14-1.48,.85-1.53,1.7-.54,9.83-.98,19.67-1.33,29.51-.07,1.97-.39,5.45-.97,10.46-.41,3.49-.56,7.01-.43,10.55,.11,3.42-.14,8.17-.77,14.25-.34,3.26-.44,7.26-.29,12,.23,7.31,.34,11.31,.35,12Z"/><path class="cls-2" d="M110.46,49.41c.61-2.65-.16-3.88-2.31-3.69-.93,.08-2,.51-3.19,1.28-3.81,2.47-7.25,5.37-10.34,8.69-2.25,2.42-3.4,3.65-3.43,3.68-7.97,8.18-15.92,16.38-23.85,24.61-3.03,3.14-4.68,6.73-4.96,10.78-.29,4.16-.51,13.33-.68,27.5-.07,5.35-.28,10.69-.65,16.02-.73,10.5-1.1,15.83-1.11,15.98-.42,7.59-.86,15.17-1.31,22.75-.13,2.06,.58,4.04,2.12,5.93,.2,.26,.5,.44,.82,.48,1.43,.22,2.45-.21,3.08-1.3,.34-.59,.55-1.65,.62-3.19,1.15-23.32,2.45-46.63,3.88-69.93,.33-5.24,.57-10.38,.72-15.41,.03-.94,.41-1.83,1.06-2.5l38.15-39.16c.69-.7,1.16-1.57,1.38-2.52h0Z"/><path class="cls-2" d="M162.99,48.39c-1.63-.36-3.06,.04-4.27,1.19-13.01,12.31-24.37,25.69-34.08,40.16-3.43,5.11-5.44,8.62-6.01,10.52-.45,1.48-1.43,3.42-2.94,5.81-5.24,8.31-9.59,14.64-13.05,18.98-.84,1.05-1.55,2.29-2.12,3.73-.38,.94-.03,2.02,.83,2.56,1.01,.64,2,.59,2.98-.14,1.11-.83,2.07-1.78,2.9-2.87,.97-1.27,1.48-1.92,1.51-1.96,18.77-22.43,36.91-45.36,54.44-68.78,1.76-2.35,2.66-3.87,2.7-4.58,.15-2.62-.81-4.16-2.89-4.62Z"/><path class="cls-2" d="M594.44,71.73c1.45,.23,2.57,.27,3.38,.14,2.79-.44,3-1.92,.61-4.43-1.19-1.25-2.64-1.98-4.35-2.19-2.01-.23-4.02-.46-6.04-.67-1.17-.13-2.82-.14-4.94-.04-2.07,.09-3.73-.08-4.97-.53-2.27-.82-4.6-1.32-7-1.5-13.79-1.05-27.56-2.38-41.3-4-3.5-.41-7.61-1.03-12.34-1.85-4.11-.72-8.22-1.39-12.34-2.02-2.09-.31-3.62-.02-4.59,.88-1.51,1.39-1.39,2.61,.37,3.67,2.79,1.67,5.76,2.72,8.91,3.13,1.92,.25,3.54,.64,4.87,1.19,2.75,1.14,4.64,1.72,5.67,1.75,7.13,.19,15.04,.78,23.75,1.75,7.29,.81,19.03,1.95,35.23,3.41,.43,.04,2.94,.2,7.54,.48,2.53,.16,5.04,.44,7.54,.83h0Z"/><path class="cls-2" d="M39.16,135.76c-.33-16.08-.59-32.17-.78-48.26-.02-1.77-.61-3.33-1.78-4.67-1.27-1.47-2.41-1.62-3.41-.45-.48,.57-.78,1.44-.89,2.6-.88,9.13-1.24,18.27-1.09,27.44,.13,7.73,.2,11.63,.2,11.69,.13,26.39,.36,52.77,.67,79.15,0,1.35,.36,2.52,1.04,3.51,.73,1.07,1.7,1.62,2.92,1.65,1.55,.05,2.58-.84,3.09-2.66,.53-1.9,.76-4.4,.7-7.5-.28-14.17-.43-28.33-.46-42.5,0-7.09-.08-13.76-.21-20h0Z"/><path class="cls-2" d="M617.09,104.05c-.42-.05-2.56-.05-6.42,.02-6.42,.11-12.83,.18-19.22,.19-1.27,0-2.44,.35-3.5,1.06-1.75,1.15-1.78,2.29-.08,3.42,1.71,1.14,3.58,1.69,5.59,1.64,1.81-.03,2.76-.05,2.85-.05,9.94,.52,16.05,.91,18.32,1.18,2.79,.33,5.44-.11,7.95-1.32,1.8-.87,1.96-1.98,.49-3.33-1.7-1.56-3.69-2.5-5.98-2.81h0Z"/><path class="cls-2" d="M642.01,557.69c.07,5.1,.32,11.48,.74,19.13,.46,8.37,.75,17.52,.88,27.44,.03,1.89,.72,3.54,2.08,4.96,.23,.24,.54,.37,.86,.36,1.37-.05,2.23-.74,2.56-2.07,.89-3.57,1.3-7.82,1.23-12.75-.64-41.58-1.22-83.34-1.74-125.28-.02-1.82-.84-3.15-2.45-4-1.09-.57-2.11-.46-3.05,.32-.62,.51-1.06,1.3-1.33,2.37-.43,1.73-.65,3.76-.66,6.09-.09,25.11,.07,46.53,.5,64.26,.15,6.39,.28,12.78,.38,19.17Z"/><path class="cls-2" d="M615.65,574.15c1.5-.44,2.24-1.65,2.23-3.64-.07-11.55,.16-21.46,.69-29.75,1.23-19.08,2.35-38.16,3.37-57.25,.15-2.76-.82-4.92-2.91-6.47-.24-.18-.57-.21-.85-.07-1.67,.87-2.59,2.3-2.76,4.29-.63,7.65-1.03,15.31-1.22,22.98-.04,1.63-.31,3.96-.8,6.97-.39,2.33-.55,4.68-.49,7.05,.17,7.5-.11,14.98-.84,22.44-.71,7.24-1.11,16.68-1.2,28.31-.01,1.73,.48,3.13,1.48,4.19,.94,1,2.04,1.32,3.3,.95h0Z"/><path class="cls-2" d="M36.38,492.51c.11-5.41-.06-8.74-.5-10-.89-2.55-2.45-3.28-4.69-2.19-1.79,.87-2.57,2.36-2.36,4.45,.17,1.69,.25,2.56,.25,2.62,.11,9.03,.05,20.07-.2,33.12-.25,13.1-.41,33.35-.48,60.76,0,.07-.08,6.4-.25,18.97-.11,8.09,.01,16.17,.36,24.26,.06,1.51,.75,2.53,2.06,3.07,1.75,.73,2.69,.04,2.81-2.06,.66-11.91,1.16-23.82,1.5-35.75,.13-4.41,.32-8.19,.59-11.36,.51-5.97,.79-9.74,.83-11.31,.35-12.77,.45-25.55,.3-38.33-.23-19.83-.31-31.92-.22-36.25Z"/><path class="cls-2" d="M62.58,568.99c1.04,.32,2.47,.44,4.28,.36,9.37-.41,15.13-.52,17.27-.34,2.05,.17,3.95-.26,5.69-1.31,2.16-1.31,1.95-2.47-.63-3.5-1.29-.52-2.63-.78-4.02-.77-1.66,0-2.52,.01-2.59,.01-5.83-.34-11.65-.76-17.46-1.27-2.01-.17-3.91,.21-5.69,1.16-1.6,.85-1.81,1.96-.62,3.33,.92,1.06,2.18,1.84,3.77,2.33h0Z"/><path class="cls-2" d="M79.63,590.94c-1.65,.39-2.05,1.3-1.19,2.72,.45,.74,1.16,1.36,2.14,1.86,2.97,1.51,6.13,2.21,9.48,2.08,2.33-.09,4.15-.02,5.48,.2,6.26,1.02,13.29,1.67,21.09,1.96,9.33,.35,19.97,1.5,31.92,3.45,1.43,.23,2.66,.28,3.69,.15,3.58-.47,4.19-1.82,1.83-4.05-.86-.81-1.97-1.44-3.34-1.9-3.94-1.31-7.98-2.05-12.13-2.21-5.91-.23-9.05-.37-9.42-.4-15.67-1.52-31.35-2.84-47.05-3.95-1.08-.08-1.91-.05-2.5,.09h0Z"/><path class="cls-2" d="M180.29,620.64c-15.97-1.09-31.48-1.65-46.51-1.66-2.21,0-6.47,.21-12.78,.62-4.26,.27-8.53,.32-12.81,.15-10.58-.44-21.15-.38-31.72,.17-2.77,.15-6.5,.24-11.2,.27-3.74,.03-7.47,.21-11.2,.54-1.75,.15-2.78,1-3.11,2.53-.07,.31,0,.65,.16,.94,1.07,1.77,2.66,2.64,4.77,2.61,.93-.02,1.42-.03,1.46-.02,15.17,.55,28.26,.79,39.28,.72,26.33-.16,52.67-.24,79.01-.25,.05,0,.54,.02,1.47,.05,1.77,.06,3.45-.29,5.05-1.05,2.45-1.17,2.8-2.62,1.03-4.33-.81-.78-1.77-1.21-2.9-1.29h0Z"/></g><g><path class="cls-2" d="M473.05,33.17c.67,.35,1.92,.58,3.75,.67,4.11,.21,11.55,.77,22.33,1.67,10.99,.92,26.29,1.19,45.89,.82,.01,0,2.42-.12,7.21-.37,2.83-.15,6.05-.13,9.65,.05,4.79,.24,14.96,.33,30.5,.28,2.37,0,6.19-.26,11.47-.75,3.83-.35,7.67-.45,11.53-.3,5.37,.21,8.95-.04,10.75-.73,2.96-1.15,3.4-2.68,1.31-4.59-.94-.87-2.05-1.33-3.32-1.38-17.23-.73-34.23-1.05-50.99-.97-22.59,.11-45.17-.09-67.75-.6-10-.23-20-.31-30-.25-1.67,0-3,.62-4.01,1.83-.21,.25-.32,.57-.33,.9-.03,1.76,.64,3,2.01,3.72h0Z"/><path class="cls-2" d="M645.19,126.01c.19,19.83,.39,39.67,.6,59.5,.05,4.43,.24,8.8,.58,13.12,.1,1.25,.74,2.06,1.93,2.44,1.65,.53,2.97,.31,3.98-.65,.69-.66,1.04-1.76,1.03-3.3-.21-28.27-.16-53.46,.13-75.55,.41-30.94,.5-58.52,.26-82.75-.02-2.57-1.2-3.67-3.54-3.28-.85,.14-1.48,.85-1.53,1.7-.54,9.83-.98,19.67-1.33,29.51-.07,1.97-.39,5.45-.97,10.46-.41,3.49-.56,7.01-.43,10.55,.11,3.42-.14,8.17-.77,14.25-.34,3.26-.44,7.26-.29,12,.23,7.31,.34,11.31,.35,12Z"/><path class="cls-2" d="M110.46,48.41c.61-2.65-.16-3.88-2.31-3.69-.93,.08-2,.51-3.19,1.28-3.81,2.47-7.25,5.37-10.34,8.69-2.25,2.42-3.4,3.65-3.43,3.68-7.97,8.18-15.92,16.38-23.85,24.61-3.03,3.14-4.68,6.73-4.96,10.78-.29,4.16-.51,13.33-.68,27.5-.07,5.35-.28,10.69-.65,16.02-.73,10.5-1.1,15.83-1.11,15.98-.42,7.59-.86,15.17-1.31,22.75-.13,2.06,.58,4.04,2.12,5.93,.2,.26,.5,.44,.82,.48,1.43,.22,2.45-.21,3.08-1.3,.34-.59,.55-1.65,.62-3.19,1.15-23.32,2.45-46.63,3.88-69.93,.33-5.24,.57-10.38,.72-15.41,.03-.94,.41-1.83,1.06-2.5l38.15-39.16c.69-.7,1.16-1.57,1.38-2.52h0Z"/><path class="cls-2" d="M162.99,47.39c-1.63-.36-3.06,.04-4.27,1.19-13.01,12.31-24.37,25.69-34.08,40.16-3.43,5.11-5.44,8.62-6.01,10.52-.45,1.48-1.43,3.42-2.94,5.81-5.24,8.31-9.59,14.64-13.05,18.98-.84,1.05-1.55,2.29-2.12,3.73-.38,.94-.03,2.02,.83,2.56,1.01,.64,2,.59,2.98-.14,1.11-.83,2.07-1.78,2.9-2.87,.97-1.27,1.48-1.92,1.51-1.96,18.77-22.43,36.91-45.36,54.44-68.78,1.76-2.35,2.66-3.87,2.7-4.58,.15-2.62-.81-4.16-2.89-4.62Z"/><path class="cls-2" d="M594.44,70.73c1.45,.23,2.57,.27,3.38,.14,2.79-.44,3-1.92,.61-4.43-1.19-1.25-2.64-1.98-4.35-2.19-2.01-.23-4.02-.46-6.04-.67-1.17-.13-2.82-.14-4.94-.04-2.07,.09-3.73-.08-4.97-.53-2.27-.82-4.6-1.32-7-1.5-13.79-1.05-27.56-2.38-41.3-4-3.5-.41-7.61-1.03-12.34-1.85-4.11-.72-8.22-1.39-12.34-2.02-2.09-.31-3.62-.02-4.59,.88-1.51,1.39-1.39,2.61,.37,3.67,2.79,1.67,5.76,2.72,8.91,3.13,1.92,.25,3.54,.64,4.87,1.19,2.75,1.14,4.64,1.72,5.67,1.75,7.13,.19,15.04,.78,23.75,1.75,7.29,.81,19.03,1.95,35.23,3.41,.43,.04,2.94,.2,7.54,.48,2.53,.16,5.04,.44,7.54,.83h0Z"/><path class="cls-2" d="M39.16,134.76c-.33-16.08-.59-32.17-.78-48.26-.02-1.77-.61-3.33-1.78-4.67-1.27-1.47-2.41-1.62-3.41-.45-.48,.57-.78,1.44-.89,2.6-.88,9.13-1.24,18.27-1.09,27.44,.13,7.73,.2,11.63,.2,11.69,.13,26.39,.36,52.77,.67,79.15,0,1.35,.36,2.52,1.04,3.51,.73,1.07,1.7,1.62,2.92,1.65,1.55,.05,2.58-.84,3.09-2.66,.53-1.9,.76-4.4,.7-7.5-.28-14.17-.43-28.33-.46-42.5,0-7.09-.08-13.76-.21-20h0Z"/><path class="cls-2" d="M617.09,103.05c-.42-.05-2.56-.05-6.42,.02-6.42,.11-12.83,.18-19.22,.19-1.27,0-2.44,.35-3.5,1.06-1.75,1.15-1.78,2.29-.08,3.42,1.71,1.14,3.58,1.69,5.59,1.64,1.81-.03,2.76-.05,2.85-.05,9.94,.52,16.05,.91,18.32,1.18,2.79,.33,5.44-.11,7.95-1.32,1.8-.87,1.96-1.98,.49-3.33-1.7-1.56-3.69-2.5-5.98-2.81h0Z"/><path class="cls-2" d="M642.01,556.69c.07,5.1,.32,11.48,.74,19.13,.46,8.37,.75,17.52,.88,27.44,.03,1.89,.72,3.54,2.08,4.96,.23,.24,.54,.37,.86,.36,1.37-.05,2.23-.74,2.56-2.07,.89-3.57,1.3-7.82,1.23-12.75-.64-41.58-1.22-83.34-1.74-125.28-.02-1.82-.84-3.15-2.45-4-1.09-.57-2.11-.46-3.05,.32-.62,.51-1.06,1.3-1.33,2.37-.43,1.73-.65,3.76-.66,6.09-.09,25.11,.07,46.53,.5,64.26,.15,6.39,.28,12.78,.38,19.17Z"/><path class="cls-2" d="M615.65,573.15c1.5-.44,2.24-1.65,2.23-3.64-.07-11.55,.16-21.46,.69-29.75,1.23-19.08,2.35-38.16,3.37-57.25,.15-2.76-.82-4.92-2.91-6.47-.24-.18-.57-.21-.85-.07-1.67,.87-2.59,2.3-2.76,4.29-.63,7.65-1.03,15.31-1.22,22.98-.04,1.63-.31,3.96-.8,6.97-.39,2.33-.55,4.68-.49,7.05,.17,7.5-.11,14.98-.84,22.44-.71,7.24-1.11,16.68-1.2,28.31-.01,1.73,.48,3.13,1.48,4.19,.94,1,2.04,1.32,3.3,.95h0Z"/><path class="cls-2" d="M36.38,491.51c.11-5.41-.06-8.74-.5-10-.89-2.55-2.45-3.28-4.69-2.19-1.79,.87-2.57,2.36-2.36,4.45,.17,1.69,.25,2.56,.25,2.62,.11,9.03,.05,20.07-.2,33.12-.25,13.1-.41,33.35-.48,60.76,0,.07-.08,6.4-.25,18.97-.11,8.09,.01,16.17,.36,24.26,.06,1.51,.75,2.53,2.06,3.07,1.75,.73,2.69,.04,2.81-2.06,.66-11.91,1.16-23.82,1.5-35.75,.13-4.41,.32-8.19,.59-11.36,.51-5.97,.79-9.74,.83-11.31,.35-12.77,.45-25.55,.3-38.33-.23-19.83-.31-31.92-.22-36.25Z"/><path class="cls-2" d="M62.58,567.99c1.04,.32,2.47,.44,4.28,.36,9.37-.41,15.13-.52,17.27-.34,2.05,.17,3.95-.26,5.69-1.31,2.16-1.31,1.95-2.47-.63-3.5-1.29-.52-2.63-.78-4.02-.77-1.66,0-2.52,.01-2.59,.01-5.83-.34-11.65-.76-17.46-1.27-2.01-.17-3.91,.21-5.69,1.16-1.6,.85-1.81,1.96-.62,3.33,.92,1.06,2.18,1.84,3.77,2.33h0Z"/><path class="cls-2" d="M79.63,589.94c-1.65,.39-2.05,1.3-1.19,2.72,.45,.74,1.16,1.36,2.14,1.86,2.97,1.51,6.13,2.21,9.48,2.08,2.33-.09,4.15-.02,5.48,.2,6.26,1.02,13.29,1.67,21.09,1.96,9.33,.35,19.97,1.5,31.92,3.45,1.43,.23,2.66,.28,3.69,.15,3.58-.47,4.19-1.82,1.83-4.05-.86-.81-1.97-1.44-3.34-1.9-3.94-1.31-7.98-2.05-12.13-2.21-5.91-.23-9.05-.37-9.42-.4-15.67-1.52-31.35-2.84-47.05-3.95-1.08-.08-1.91-.05-2.5,.09h0Z"/><path class="cls-2" d="M180.29,619.64c-15.97-1.09-31.48-1.65-46.51-1.66-2.21,0-6.47,.21-12.78,.62-4.26,.27-8.53,.32-12.81,.15-10.58-.44-21.15-.38-31.72,.17-2.77,.15-6.5,.24-11.2,.27-3.74,.03-7.47,.21-11.2,.54-1.75,.15-2.78,1-3.11,2.53-.07,.31,0,.65,.16,.94,1.07,1.77,2.66,2.64,4.77,2.61,.93-.02,1.42-.03,1.46-.02,15.17,.55,28.26,.79,39.28,.72,26.33-.16,52.67-.24,79.01-.25,.05,0,.54,.02,1.47,.05,1.77,.06,3.45-.29,5.05-1.05,2.45-1.17,2.8-2.62,1.03-4.33-.81-.78-1.77-1.21-2.9-1.29h0Z"/></g><g><path class="cls-3" d="M309.4,136.66c.18-.29,.13-.34-.16-.15-4.67,3.07-9.24,6.9-13.7,11.47-11.71,12.03-20.91,21.68-27.6,28.94l-11.21,9.96c-2.05,1.83-6.32,6.07-12.81,12.73-21.85,22.4-34.85,35.9-39,40.5-3.41,3.77-6.92,7.93-10.55,12.47-.53,.66-.47,.73,.2,.2,14.09-11.18,27.08-23.03,38.97-35.55,5.93-6.25,13.68-14.77,23.23-25.56l8.71-8.71,6-5.25c2.8-2.66,5.8-5.05,9.01-7.17,1.5-.99,2.96-1.67,4.38-2.02,1.65-.42,3.27-.62,4.86-.6,31.18,.35,62.29,3.7,93.33,10.06,.06,0,3.82,.86,11.29,2.56,5.17,1.17,10.38,2.13,15.63,2.86,1.31,.19,2.62,0,3.91-.55,1.34-.57,1.46-1.32,.35-2.27-1.29-1.11-2.8-2.01-4.53-2.72-5.71-2.34-11.57-4.24-17.58-5.71-25.91-6.33-52.21-9.65-78.9-9.98-5.35-.07-10.7-.14-16.05-.22-1.5-.03-2.6-.23-3.29-.6-1.68-.89-1.55-2.35,.4-4.37,4.69-4.83,9.72-11.61,15.11-20.32h0Z"/><path class="cls-3" d="M662.52,356.67c-20.89,26.03-42.38,51.56-64.46,76.59-3.61,4.1-7.29,8.08-11.03,11.95-3.77,3.9-7.55,7.78-11.36,11.65-2.61,2.65-5.77,6.35-9.47,11.08-3.34,4.28-6.5,7.95-9.49,11.01-30.77,31.55-61.91,62.72-93.42,93.53-8.53,8.34-16.07,15.38-22.62,21.13-18.44,16.17-34.64,30.81-48.59,43.91-3.23,3.03-2.97,4.66,.79,4.89,.1,0,1.34,.01,3.73,.01,87.21,0,174.42,.08,261.63,.24,1.87,0,3.63-.22,5.26-.67,.59-.17,.99-.7,.99-1.31V382.17c0-12.48-.1-21.4-.29-26.75-.75,.05-1.3,.47-1.67,1.25h0Z"/><path class="cls-3" d="M662.49,293.8c-3.43-2.96-6.84-5.92-10.23-8.87-2.89-2.51-6.21-5.55-9.98-9.12-6.46-6.11-13.04-12.1-19.73-17.96-17.73-15.53-35.11-31.42-52.16-47.69-6.56-6.25-11.41-10.84-14.55-13.75-24.99-23.17-50.48-45.8-76.46-67.89-14.95-12.71-29.47-25.89-43.56-39.54-4.27-4.13-9.09-8.74-14.48-13.81-5.33-5.03-10.59-10.15-15.78-15.34-5.53-5.55-11.56-10.51-18.08-14.88-4.95-3.32-9.6-7.01-13.96-11.06-3.57-3.32-5.81-6.08-6.73-8.28-.85-2.03-1.93-3.7-3.25-5-1.23-1.22-2.74-1.82-4.51-1.81-1.65,.02-2.52,.03-2.61,.02-1.67-.1-3.9-.15-6.69-.15H19.92c-1.51,0-2.33,.75-2.46,2.26-.26,3.17-.39,6.67-.39,10.49,.11,117.83,.17,235.67,.19,353.5,0,1.95,.53,3.63,1.59,5.04,.13,.17,1.35,1.36,3.64,3.55,2.59,2.47,5.28,4.84,8.07,7.11,0,0,0,0,.02,.01,.07,.06,.16,.08,.24,.12s.16,.1,.25,.13,.18,.02,.27,.03c.09,0,.18,.03,.26,.02,.09,0,.17-.05,.25-.08,.09-.03,.17-.04,.25-.08,.08-.04,.14-.12,.21-.18s.15-.1,.2-.17c0,0,0-.01,0-.02,8.61-10.73,17.67-21.32,27.19-31.77,18.47-20.27,36.87-40.62,55.2-61.03,12.03-13.41,30.25-32.72,54.66-57.95,3.41-3.53,8.03-8.34,13.84-14.44,14.97-15.71,33.63-34.75,56-57.11,36.71-36.71,68.66-68.01,95.86-93.9,1.81-1.72,1.98-3.34,.51-4.85-8.52-8.82-17.32-18.11-26.4-27.86-1.1-1.18-1.19-2.43-.26-3.76,.95-1.36,2.25-1.73,3.91-1.11,.77,.29,1.77,.98,3,2.07,8.75,7.77,17.34,15.58,25.75,23.42,.89,.83,1.85,.91,2.87,.24,4.76-3.14,9.44-6.38,14.05-9.73,2.45-1.78,4.68-2.67,6.68-2.66,1.76,0,2.16,.76,1.2,2.23-3.5,5.41-7.65,9.87-12.44,13.38-1.44,1.06-2.63,2.16-3.56,3.29-.8,.97-.74,1.88,.19,2.73,15.22,13.9,30.58,27.63,46.07,41.2,5.58,4.89,11.36,9.52,17.35,13.89,6.38,4.66,12.61,9.51,18.7,14.54,27.57,22.81,54.65,46.2,81.23,70.17,5.6,5.05,10.58,9.48,14.95,13.29,8.39,7.33,16.77,14.65,25.16,21.97,4.83,4.21,7.56,6.81,8.18,7.82,1.81,2.93,1.64,5.48-.5,7.63-2.21,2.22-3.93,4.15-5.16,5.8-.02,.03-.74,1.3-2.16,3.81-1.55,2.73-3.84,4.7-6.88,5.93-1.61,.65-3.16,.77-4.65,.36-1.03-.28-2.23-1.11-3.61-2.48-4.67-4.64-9.34-9.27-14.02-13.89-5.35-5.27-10.21-9.68-14.58-13.23-31.95-25.91-67.74-44.95-107.35-57.1-22.97-7.05-45.56-10.59-67.78-10.64-17.55-.03-36.01,2.1-55.38,6.39-.07,.01-1.16,.22-3.25,.61-3.56,.66-6.29,2.06-8.18,4.19-22.68,25.54-45.31,51.12-67.89,76.75-3.91,4.43-8.26,9.49-13.04,15.16-18.83,22.33-38.11,44.28-57.83,65.83-5.09,5.58-10.13,11.21-15.1,16.9-4.77,5.46-9.79,10.69-15.06,15.69-6.89,6.55-13.54,13.35-19.93,20.4-.93,1.03-1.78,1.79-2.53,2.28-3.15,2.07-3.98,.61-2.51-4.37,.13-.43-.06-.9-.45-1.12-2.27-1.3-4.37-2.8-6.31-4.5-3.91-3.44-4.67-7.54-2.26-12.29,1.17-2.3,2.09-3.84,2.78-4.61,12.99-14.57,26.16-28.99,39.49-43.25,5.82-6.23,11.37-12.69,16.65-19.38,.77-.97,.68-1.06-.27-.26-9.66,8.24-19.12,16.78-28.37,25.63-18.91,18.09-37.9,36.55-56.98,55.36h0c-.06,.06-.09,.13-.13,.2-.05,.07-.11,.14-.15,.22-.03,.07-.03,.16-.05,.23-.02,.08-.05,.16-.05,.24s.03,.16,.05,.24,.02,.16,.05,.23c.03,.08,.1,.15,.14,.22,.05,.07,.07,.14,.13,.2h0c5.04,5.02,10.29,10.17,15.76,15.46,5.84,5.64,11.14,11.75,15.91,18.32,2.71,3.73,5.31,6.72,7.81,8.96,11.77,10.51,23.42,21.15,34.96,31.92,5.23,4.87,10.18,9.33,14.86,13.37,32.5,28.05,53.69,45.91,63.56,53.58,7.96,6.19,16.75,13.65,26.37,22.38,18.99,17.23,33.49,30.57,43.5,40,4.36,4.11,10.46,8.56,18.29,13.37,3.04,1.87,5.19,3.31,6.45,4.34,2.01,1.65,3.88,3.47,5.6,5.45,1.85,2.14,3.76,4.18,5.71,6.13,.68,.68,1.6,1.07,2.56,1.08,25.61,.35,51.23,.33,76.85-.06,.7-.01,1.37-.28,1.88-.76,16.43-15.44,32.58-31.28,48.45-47.51,5.39-5.51,10.08-10.26,14.05-14.23,25.47-25.45,44.03-44.68,55.66-57.69,24.74-27.67,39.99-44.58,45.75-50.75,8.27-8.85,18.69-20.68,31.25-35.5,3.21-3.79,12.95-14.96,29.2-33.51,5.33-6.09,8.58-9.7,9.75-10.81,3.54-3.37,7.46-6.28,11.77-8.73,1.89-1.07,3.4-2.31,4.53-3.7,10.41-12.81,21.03-25.44,31.86-37.91,1.73-2,2.61-3.53,2.64-4.59,.35-13.35,.34-26.34-.03-38.97-.04-1.49-.63-2.73-1.77-3.71l.02,.02Z"/><path class="cls-3" d="M276.75,636.26c-1.84-1.25-2.78-1.9-2.82-1.93-12.99-9.76-24.71-18.33-35.14-25.72-18.65-13.21-36.23-26.37-52.73-39.5-2.23-1.77-4.24-3.78-6.03-6.01-.11-.14-.18-.29-.22-.44-.03-.1-.03-.21-.03-.31,0-.07-.02-.13-.01-.2,0-.08,.05-.16,.07-.24,.02-.08,.04-.16,.08-.24,.03-.06,.08-.1,.12-.15,.06-.08,.12-.17,.21-.24,.13-.1,.27-.19,.43-.24,1.73-.53,3.43-.38,5.1,.46,.21,.11,1.55,1.03,4.02,2.76,10.2,7.15,20.2,14.58,29.99,22.27,4.43,3.47,8.34,6.42,11.75,8.85,4,2.85,8.01,5.68,12.03,8.5,.39,.27,.5,.2,.35-.2-.13-.33-.42-.69-.87-1.07-8.62-7.3-17.26-14.58-25.92-21.84-6.29-5.26-12.71-10.35-19.26-15.26-8.01-6-13.32-10.03-15.91-12.09-15.68-12.47-31.1-25.26-46.25-38.37-5.38-4.66-10.55-8.86-15.51-12.61-9.71-7.34-15.64-11.74-17.77-13.21-12.33-8.47-23.91-18.64-34.75-30.5-12.85-14.05-27.45-28.87-43.8-44.45-1.69-1.61-3.65-3.06-5.86-4.33-.03-.02-.07-.03-.11-.04h-.15s-.04,.02-.06,.03c-.02,0-.04,.02-.06,.03s-.03,.03-.04,.04c-.02,.02-.04,.03-.05,.06h0s-.03,.07-.04,.11c-.27,1.23-.41,2.47-.41,3.74,.11,74.7,.16,149.4,.16,224.11,0,.03-.02,.46-.06,1.29-.1,2.29,.95,3.37,3.15,3.22,1.17-.08,1.78-.12,1.83-.12,86.09,.03,172.18,.01,258.28-.06,1.27,0,1.56-.54,.85-1.59-1.19-1.77-2.7-3.27-4.53-4.51h-.03Z"/><path class="cls-3" d="M664.3,256.42c.12-77.5,.2-155,.23-232.5,0-1.54-.09-2.74-.28-3.61-.21-.96-1.05-1.64-2.03-1.64l-287.74,.04c-.54-.06-.97-.05-1.31,.03l-7.02,.14c-1.2,.03-1.41,.52-.63,1.48,1.24,1.52,2.89,2.12,4.96,1.81,1.64-.25,3.89-.1,6.75,.46,1.37,.86,4.18,3.06,8.44,6.6,13.77,11.47,30.5,24.5,50.19,39.07,5.55,4.11,10.83,8.18,15.85,12.21,8.4,6.75,16.83,13.46,25.29,20.14,4.6,3.63,7.61,6.29,9.04,7.96,1.65,1.93,1.58,3.13-.2,3.61-.75,.2-1.64,.13-2.67-.2-1.82-.58-3.11-1.13-3.88-1.66-4.79-3.32-11.33-8.18-19.61-14.59-.99-.77-6.18-4.96-15.55-12.57-6.35-5.16-12.89-10.09-19.61-14.78l-.04,.46h0c19.48,17.99,35.38,31.78,47.69,41.35,11.99,9.32,22.74,18.24,32.25,26.75,8.47,7.59,16.46,14.49,23.99,20.7,5.83,4.81,10.94,9.09,15.33,12.84,9.81,8.36,19.82,16.47,30.03,24.34,5.62,4.33,10.85,8.46,15.69,12.39,8.8,7.14,15.24,12.09,19.33,14.86,9.31,6.3,17.81,13.55,25.49,21.76,9.48,10.13,19.35,19.6,29.62,28.4,.82,.71,1.18,.52,1.08-.56-.46-5.1-.69-10.2-.68-15.29h0Z"/><path class="cls-3" d="M386.77,34.02c.89,.75,1.77,1.57,2.65,2.46-.88-.89-1.77-1.71-2.65-2.46Z"/><path class="cls-3" d="M441.78,655.35c-.28-.21-.67-.35-1.17-.39,.5,.05,.89,.18,1.17,.39Z"/><path class="cls-3" d="M389.42,36.48c.96,.97,2.13,2.01,3.52,3.14-1.39-1.12-2.56-2.17-3.52-3.14Z"/><path class="cls-1" d="M442.58,657.78s.01,0,.02,.01h.06s-.07-.02-.1-.04c0,0,.01,0,.02,.01v.02Z"/><path class="cls-1" d="M470.28,656.86h0s-.06-.02-.08-.03c.02,.01,.05,.02,.07,.03h.01Z"/><path class="cls-2" d="M681.38,5.11c-.38-2.22-1.59-3.61-3.63-4.18-.63-.17-2.82-.26-6.57-.26C451.11,.67,231.05,.61,10.98,.5c-3.72,0-5.95,.15-6.69,.48C1.75,2.11,.48,4.34,.48,7.67V654.67c0,1.9,.67,3.33,2.02,4.3,.89,.63,2.28,.95,4.18,.95,155.35,.02,310.7,0,466.05-.04,26.17,.08,52.34,.17,78.51,.26,.83,0,5.65-.07,14.48-.24,4.84-.09,9.68,0,14.51,.27,3.57,.2,12.91,.1,28-.29,18.31,.05,36.61,.06,54.92,.04,1.36,0,3.75,.07,7.16,.22,3.09,.13,5.48,.06,7.17-.22,1.59-.27,2.72-1.07,3.4-2.4,.4-.78,.6-2.04,.6-3.79V10.23c0-3.01-.03-4.72-.1-5.12h0ZM280.43,642.36c-86.1,.07-172.19,.09-258.28,.06-.05,0-.66,.04-1.83,.12-2.2,.15-3.25-.93-3.15-3.22,.04-.83,.06-1.26,.06-1.29,0-74.71-.05-149.41-.16-224.11,0-1.27,.14-2.51,.41-3.74,0-.04,.02-.07,.04-.11h0s.03-.04,.05-.06c.01-.01,.03-.03,.04-.04,.02-.01,.04-.02,.06-.03,.02,0,.04-.02,.06-.03h.15s.08,.02,.11,.04c2.21,1.27,4.17,2.72,5.86,4.33,16.35,15.58,30.95,30.4,43.8,44.45,10.84,11.86,22.42,22.03,34.75,30.5,2.13,1.47,8.06,5.87,17.77,13.21,4.96,3.75,10.13,7.95,15.51,12.61,15.15,13.11,30.57,25.9,46.25,38.37,2.59,2.06,7.9,6.09,15.91,12.09,6.55,4.91,12.97,10,19.26,15.26,8.66,7.26,17.3,14.54,25.92,21.84,.45,.38,.74,.74,.87,1.07,.15,.4,.04,.47-.35,.2-4.02-2.82-8.03-5.65-12.03-8.5-3.41-2.43-7.32-5.38-11.75-8.85-9.79-7.69-19.79-15.12-29.99-22.27-2.47-1.73-3.81-2.65-4.02-2.76-1.67-.84-3.37-.99-5.1-.46-.16,.05-.31,.14-.43,.24-.08,.07-.14,.16-.21,.24-.04,.05-.09,.09-.12,.15-.04,.07-.05,.16-.08,.24-.02,.08-.06,.15-.07,.24,0,.07,.01,.13,.01,.2,0,.1,0,.21,.03,.31,.05,.16,.12,.31,.22,.44,1.79,2.23,3.8,4.24,6.03,6.01,16.5,13.13,34.08,26.29,52.73,39.5,10.43,7.39,22.15,15.96,35.14,25.72,.04,.03,.98,.68,2.82,1.93,1.83,1.24,3.34,2.74,4.53,4.51,.71,1.05,.42,1.58-.85,1.59h.03Zm160.18,12.6c.5,.05,.89,.18,1.17,.39-.28-.21-.67-.35-1.17-.39Zm2.02,2.84h-.03s-.01,0-.02-.01-.01,0-.02-.01c.03,.02,.06,.03,.1,.04h-.03v-.02Zm27.66-.94h0s-.05-.02-.07-.03c.03,.01,.05,.03,.08,.03h-.01Zm6.7,2.21v-.05h0v.05Zm187.49-18.39c0,.61-.4,1.14-.99,1.31-1.63,.45-3.39,.68-5.26,.67-87.21-.16-174.42-.24-261.63-.24-2.39,0-3.63,0-3.73-.01-3.76-.23-4.02-1.86-.79-4.89,13.95-13.1,30.15-27.74,48.59-43.91,6.55-5.75,14.09-12.79,22.62-21.13,31.51-30.81,62.65-61.98,93.42-93.53,2.99-3.06,6.15-6.73,9.49-11.01,3.7-4.73,6.86-8.43,9.47-11.08,3.81-3.87,7.59-7.75,11.36-11.65,3.74-3.87,7.42-7.85,11.03-11.95,22.08-25.03,43.57-50.56,64.46-76.59,.37-.78,.92-1.2,1.67-1.25,.19,5.35,.29,14.27,.29,26.75v258.51h0Zm-.19-304.2c-.03,1.06-.91,2.59-2.64,4.59-10.83,12.47-21.45,25.1-31.86,37.91-1.13,1.39-2.64,2.63-4.53,3.7-4.31,2.45-8.23,5.36-11.77,8.73-1.17,1.11-4.42,4.72-9.75,10.81-16.25,18.55-25.99,29.72-29.2,33.51-12.56,14.82-22.98,26.65-31.25,35.5-5.76,6.17-21.01,23.08-45.75,50.75-11.63,13.01-30.19,32.24-55.66,57.69-3.97,3.97-8.66,8.72-14.05,14.23-15.87,16.23-32.02,32.07-48.45,47.51-.51,.48-1.18,.75-1.88,.76-25.62,.39-51.24,.41-76.85,.06-.96-.01-1.88-.4-2.56-1.08-1.95-1.95-3.86-3.99-5.71-6.13-1.72-1.98-3.59-3.8-5.6-5.45-1.26-1.03-3.41-2.47-6.45-4.34-7.83-4.81-13.93-9.26-18.29-13.37-10.01-9.43-24.51-22.77-43.5-40-9.62-8.73-18.41-16.19-26.37-22.38-9.87-7.67-31.06-25.53-63.56-53.58-4.68-4.04-9.63-8.5-14.86-13.37-11.54-10.77-23.19-21.41-34.96-31.92-2.5-2.24-5.1-5.23-7.81-8.96-4.77-6.57-10.07-12.68-15.91-18.32-5.47-5.29-10.72-10.44-15.76-15.46h0c-.06-.06-.09-.13-.13-.2-.05-.07-.11-.14-.14-.22-.03-.08-.03-.16-.05-.23-.02-.08-.05-.16-.05-.24s.03-.16,.05-.24,.02-.16,.05-.23c.03-.08,.1-.15,.15-.22,.04-.07,.07-.14,.13-.2h0c19.08-18.81,38.07-37.27,56.98-55.36,9.25-8.85,18.71-17.39,28.37-25.63,.95-.8,1.04-.71,.27,.26-5.28,6.69-10.83,13.15-16.65,19.38-13.33,14.26-26.5,28.68-39.49,43.25-.69,.77-1.61,2.31-2.78,4.61-2.41,4.75-1.65,8.85,2.26,12.29,1.94,1.7,4.04,3.2,6.31,4.5,.39,.22,.58,.69,.45,1.12-1.47,4.98-.64,6.44,2.51,4.37,.75-.49,1.6-1.25,2.53-2.28,6.39-7.05,13.04-13.85,19.93-20.4,5.27-5,10.29-10.23,15.06-15.69,4.97-5.69,10.01-11.32,15.1-16.9,19.72-21.55,39-43.5,57.83-65.83,4.78-5.67,9.13-10.73,13.04-15.16,22.58-25.63,45.21-51.21,67.89-76.75,1.89-2.13,4.62-3.53,8.18-4.19,2.09-.39,3.18-.6,3.25-.61,19.37-4.29,37.83-6.42,55.38-6.39,22.22,.05,44.81,3.59,67.78,10.64,39.61,12.15,75.4,31.19,107.35,57.1,4.37,3.55,9.23,7.96,14.58,13.23,4.68,4.62,9.35,9.25,14.02,13.89,1.38,1.37,2.58,2.2,3.61,2.48,1.49,.41,3.04,.29,4.65-.36,3.04-1.23,5.33-3.2,6.88-5.93,1.42-2.51,2.14-3.78,2.16-3.81,1.23-1.65,2.95-3.58,5.16-5.8,2.14-2.15,2.31-4.7,.5-7.63-.62-1.01-3.35-3.61-8.18-7.82-8.39-7.32-16.77-14.64-25.16-21.97-4.37-3.81-9.35-8.24-14.95-13.29-26.58-23.97-53.66-47.36-81.23-70.17-6.09-5.03-12.32-9.88-18.7-14.54-5.99-4.37-11.77-9-17.35-13.89-15.49-13.57-30.85-27.3-46.07-41.2-.93-.85-.99-1.76-.19-2.73,.93-1.13,2.12-2.23,3.56-3.29,4.79-3.51,8.94-7.97,12.44-13.38,.96-1.47,.56-2.22-1.2-2.23-2,0-4.23,.88-6.68,2.66-4.61,3.35-9.29,6.59-14.05,9.73-1.02,.67-1.98,.59-2.87-.24-8.41-7.84-17-15.65-25.75-23.42-1.23-1.09-2.23-1.78-3-2.07-1.66-.62-2.96-.25-3.91,1.11-.93,1.33-.84,2.58,.26,3.76,9.08,9.75,17.88,19.04,26.4,27.86,1.47,1.51,1.3,3.13-.51,4.85-27.2,25.89-59.15,57.19-95.86,93.9-22.37,22.36-41.03,41.4-56,57.11-5.81,6.1-10.43,10.91-13.84,14.44-24.41,25.23-42.63,44.54-54.66,57.95-18.33,20.41-36.73,40.76-55.2,61.03-9.52,10.45-18.58,21.04-27.19,31.77,0,0,0,.01,0,.02-.06,.07-.14,.11-.2,.17-.07,.06-.13,.13-.21,.18-.08,.04-.17,.05-.25,.08-.09,.03-.17,.07-.25,.08-.09,0-.18-.01-.26-.02-.09,0-.18,0-.27-.03s-.16-.08-.25-.13c-.08-.04-.16-.06-.24-.12,0,0,0,0-.02-.01-2.79-2.27-5.48-4.64-8.07-7.11-2.29-2.19-3.51-3.38-3.64-3.55-1.06-1.41-1.59-3.09-1.59-5.04-.02-117.83-.08-235.67-.19-353.5,0-3.82,.13-7.32,.39-10.49,.13-1.51,.95-2.26,2.46-2.26H349.73c2.79,0,5.02,.05,6.69,.15,.09,0,.96,0,2.61-.02,1.77-.01,3.28,.59,4.51,1.81,1.32,1.3,2.4,2.97,3.25,5,.92,2.2,3.16,4.96,6.73,8.28,4.36,4.05,9.01,7.74,13.96,11.06,6.52,4.37,12.55,9.33,18.08,14.88,5.19,5.19,10.45,10.31,15.78,15.34,5.39,5.07,10.21,9.68,14.48,13.81,14.09,13.65,28.61,26.83,43.56,39.54,25.98,22.09,51.47,44.72,76.46,67.89,3.14,2.91,7.99,7.5,14.55,13.75,17.05,16.27,34.43,32.16,52.16,47.69,6.69,5.86,13.27,11.85,19.73,17.96,3.77,3.57,7.09,6.61,9.98,9.12,3.39,2.95,6.8,5.91,10.23,8.87,1.14,.98,1.73,2.22,1.77,3.71,.37,12.63,.38,25.62,.03,38.97v-.02ZM293.89,161.35c.69,.37,1.79,.57,3.29,.6,5.35,.08,10.7,.15,16.05,.22,26.69,.33,52.99,3.65,78.9,9.98,6.01,1.47,11.87,3.37,17.58,5.71,1.73,.71,3.24,1.61,4.53,2.72,1.11,.95,.99,1.7-.35,2.27-1.29,.55-2.6,.74-3.91,.55-5.25-.73-10.46-1.69-15.63-2.86-7.47-1.7-11.23-2.55-11.29-2.56-31.04-6.36-62.15-9.71-93.33-10.06-1.59-.02-3.21,.18-4.86,.6-1.42,.35-2.88,1.03-4.38,2.02-3.21,2.12-6.21,4.51-9.01,7.17l-6,5.25-8.71,8.71c-9.55,10.79-17.3,19.31-23.23,25.56-11.89,12.52-24.88,24.37-38.97,35.55-.67,.53-.73,.46-.2-.2,3.63-4.54,7.14-8.7,10.55-12.47,4.15-4.6,17.15-18.1,39-40.5,6.49-6.66,10.76-10.9,12.81-12.73l11.21-9.96c6.69-7.26,15.89-16.91,27.6-28.94,4.46-4.57,9.03-8.4,13.7-11.47,.29-.19,.34-.14,.16,.15-5.39,8.71-10.42,15.49-15.11,20.32-1.95,2.02-2.08,3.48-.4,4.37h0Zm370.01,110.92c-10.27-8.8-20.14-18.27-29.62-28.4-7.68-8.21-16.18-15.46-25.49-21.76-4.09-2.77-10.53-7.72-19.33-14.86-4.84-3.93-10.07-8.06-15.69-12.39-10.21-7.87-20.22-15.98-30.03-24.34-4.39-3.75-9.5-8.03-15.33-12.84-7.53-6.21-15.52-13.11-23.99-20.7-9.51-8.51-20.26-17.43-32.25-26.75-12.31-9.57-28.21-23.36-47.69-41.35h0c-.59-.57-1.24-1.04-1.94-1.41s-1.45-.63-2.26-.78c-.17-.03-.33-.08-.47-.15-.15-.07-.28-.16-.4-.26-3.47-3.01-6.85-5.9-10.16-8.68-4.96-4.17-9.74-8.07-14.33-11.72s-9.01-7.03-13.25-10.16c-2.57-1.89-4.32-4.08-5.27-6.59-.06-.15-.07-.31-.03-.45,.03-.14,.11-.27,.22-.37,.15-.12,.29-.21,.42-.26,.13-.05,.26-.08,.38-.07s.23,.06,.33,.14c.1,.08,.2,.19,.29,.34,.19,.31,.44,.53,.69,.63,1.81,.69,3.61,1.65,5.4,2.88,.89,.62,1.78,1.3,2.67,2.05s1.77,1.57,2.65,2.46c.96,.97,2.13,2.01,3.52,3.14s2.99,2.33,4.81,3.61c1.16,.82,2.33,1.68,3.5,2.59,1.17,.9,2.34,1.85,3.52,2.84,.76,.64,1.52,1.26,2.3,1.88,.77,.62,1.55,1.22,2.34,1.82,1.42,1.08,2.62,2.06,3.61,2.95,.33,.3,.63,.58,.91,.86,2.89,2.85,5.6,5.87,8.12,9.04,.84,1.06,1.66,2.13,2.47,3.22h0c6.72,4.69,13.26,9.62,19.61,14.78,9.37,7.61,14.56,11.8,15.55,12.57,8.28,6.41,14.82,11.27,19.61,14.59,.77,.53,2.06,1.08,3.88,1.66,1.03,.33,1.92,.4,2.67,.2,1.78-.48,1.85-1.68,.2-3.61-1.43-1.67-4.44-4.33-9.04-7.96-8.46-6.68-16.89-13.39-25.29-20.14-5.02-4.03-10.3-8.1-15.85-12.21-19.69-14.57-36.42-27.6-50.19-39.07-4.26-3.54-7.07-5.74-8.44-6.6-2.86-.56-5.11-.71-6.75-.46-2.07,.31-3.72-.29-4.96-1.81-.78-.96-.57-1.45,.63-1.48l7.02-.14c.33-.07,.76-.09,1.31-.03l287.74-.04c.98,0,1.82,.68,2.03,1.64,.19,.87,.28,2.07,.28,3.61-.03,77.5-.11,155-.23,232.5,0,5.09,.22,10.19,.68,15.29,.1,1.08-.26,1.27-1.08,.56h0Z"/></g></svg>