<?xml version="1.0" encoding="UTF-8"?>
<svg id="Layer_2" xmlns="http://www.w3.org/2000/svg" viewBox="0 0 262.48 36.13"><defs><style>.cls-1{fill:#421610;}</style></defs><g id="Layer_1-2"><g><path class="cls-1" d="M32.17,7.61c-1.02,.62-1.9,1.51-2.64,2.66-.74,1.15-1.41,2.45-2.01,3.91-.6,1.45-1.17,3-1.71,4.65-.54,1.65-1.12,3.29-1.75,4.92-.62,1.63-1.32,3.19-2.11,4.69-.79,1.5-1.73,2.81-2.83,3.96-1.1,1.14-2.38,2.05-3.86,2.73-1.47,.68-3.22,1.01-5.24,1.01-1.84,0-3.42-.28-4.74-.83-1.32-.55-2.38-1.29-3.19-2.21-.81-.92-1.39-1.96-1.73-3.12-.34-1.16-.45-2.35-.33-3.57,.12-1.22,.45-2.41,1-3.57,.54-1.16,1.28-2.2,2.23-3.12,.94-.92,2.08-1.66,3.41-2.21,1.33-.55,2.84-.83,4.52-.83,1.2,0,2.22,.18,3.07,.53,.85,.35,1.52,.8,1.99,1.35,.48,.54,.75,1.16,.83,1.84,.08,.69-.07,1.36-.45,2.03-.38,.66-.98,1.29-1.81,1.86-.83,.58-1.92,1.03-3.27,1.36l-.07-.33c1.06-.27,1.94-.65,2.63-1.16,.69-.51,1.18-1.07,1.48-1.7,.3-.62,.43-1.25,.38-1.89-.04-.64-.26-1.23-.65-1.76-.39-.53-.93-.96-1.63-1.3-.7-.33-1.53-.5-2.51-.5-1.4,0-2.65,.27-3.76,.81-1.11,.54-2.05,1.25-2.83,2.13-.78,.88-1.39,1.88-1.84,3.01-.45,1.13-.73,2.28-.81,3.46-.09,1.17,0,2.33,.28,3.46,.28,1.13,.74,2.13,1.4,3.01,.65,.88,1.51,1.58,2.58,2.13,1.06,.54,2.34,.81,3.82,.81,1.68,0,3.13-.34,4.34-1.01,1.21-.68,2.25-1.58,3.14-2.73,.89-1.14,1.65-2.45,2.29-3.94,.64-1.48,1.26-3.04,1.84-4.65,.59-1.62,1.18-3.25,1.78-4.89,.6-1.64,1.29-3.19,2.08-4.64,.79-1.45,1.7-2.75,2.74-3.89,1.04-1.14,2.3-2.02,3.79-2.64l.13,.2Zm-10.8,6.15c-.07,.49-.22,.9-.45,1.23s-.51,.6-.83,.8c-.32,.2-.66,.34-1.03,.43-.37,.09-.7,.13-1.01,.13-1.13,0-2.12-.29-2.96-.86-.84-.58-1.47-1.3-1.89-2.16-.42-.86-.6-1.8-.53-2.81,.07-1.01,.42-1.94,1.06-2.81,.64-.86,1.61-1.58,2.89-2.16,1.28-.58,2.96-.86,5.02-.86,1.26,0,2.58,.11,3.94,.33,1.36,.22,2.74,.47,4.12,.73,1.38,.27,2.75,.51,4.1,.73,1.35,.22,2.64,.33,3.86,.33,1.53,0,2.83-.16,3.89-.48,1.06-.32,1.92-.72,2.58-1.2,.65-.48,1.11-1,1.38-1.56,.27-.57,.37-1.09,.3-1.56-.07-.48-.28-.88-.65-1.2-.37-.32-.85-.48-1.45-.48l-.03-.33c.91,0,1.66,.17,2.24,.52,.59,.34,.98,.78,1.18,1.3,.2,.52,.19,1.09-.03,1.7-.22,.61-.69,1.17-1.41,1.7-.72,.52-1.7,.96-2.94,1.31-1.24,.35-2.77,.53-4.59,.53-1.24,0-2.5-.09-3.77-.27-1.27-.18-2.55-.37-3.82-.58-1.27-.21-2.53-.4-3.77-.58-1.24-.18-2.45-.27-3.62-.27-1.95,0-3.54,.27-4.77,.8-1.23,.53-2.17,1.19-2.83,1.98-.65,.79-1.05,1.64-1.18,2.56-.13,.92-.07,1.77,.2,2.56,.27,.79,.7,1.45,1.31,1.98,.61,.53,1.33,.8,2.18,.8,.31,0,.63-.04,.96-.12,.33-.08,.65-.21,.95-.4,.3-.19,.55-.43,.76-.71,.21-.29,.35-.64,.42-1.06l.23,.03Z"/><path class="cls-1" d="M35.1,8.71v.33h-2.36v-.33h2.36Zm0,22.93v.33h-2.36v-.33h2.36Zm-.66-22.93h2.36V31.98h-2.36V8.71Zm.53,11.04h10.2v.33h-10.2v-.33Zm3.52-10.7h-2.36v-.33h2.36v.33Zm0,22.93h-2.36v-.33h2.36v.33Zm5.68-23.27v.33h-2.33v-.33h2.33Zm0,22.93v.33h-2.33v-.33h2.33Zm-.63-22.93h2.33V31.98h-2.33V8.71Zm4.06,.33h-2.36v-.33h2.36v.33Zm0,22.93h-2.36v-.33h2.36v.33Z"/><path class="cls-1" d="M56.47,19.86c.31-.12,.6-.32,.86-.6,.27-.28,.48-.63,.65-1.06,.17-.43,.25-.96,.25-1.58h.33v7.18l-.33-.03c0-.62-.08-1.15-.25-1.58s-.38-.78-.65-1.05c-.27-.27-.55-.46-.86-.58-.31-.12-.61-.18-.9-.18h-3.59v11.27h4.65c1.06,0,1.9-.42,2.51-1.25,.61-.83,1.15-2.02,1.61-3.57h.33l-.83,5.15h-12.33v-.33h1.73V9.04h-1.73v-.33h11.67l.86,5.15h-.37c-.44-1.55-.98-2.74-1.6-3.57-.62-.83-1.46-1.25-2.53-1.25h-3.99v11h3.59c.29,0,.59-.06,.9-.18Z"/><path class="cls-1" d="M104.8,7.61c-1.02,.62-1.9,1.51-2.64,2.66-.74,1.15-1.41,2.45-2.01,3.91-.6,1.45-1.17,3-1.71,4.65-.54,1.65-1.12,3.29-1.75,4.92-.62,1.63-1.32,3.19-2.11,4.69-.79,1.5-1.73,2.81-2.83,3.96-1.1,1.14-2.38,2.05-3.86,2.73-1.47,.68-3.22,1.01-5.24,1.01-1.84,0-3.42-.28-4.74-.83-1.32-.55-2.38-1.29-3.19-2.21-.81-.92-1.39-1.96-1.73-3.12-.34-1.16-.45-2.35-.33-3.57,.12-1.22,.45-2.41,1-3.57,.54-1.16,1.28-2.2,2.23-3.12,.94-.92,2.08-1.66,3.41-2.21,1.33-.55,2.84-.83,4.52-.83,1.2,0,2.22,.18,3.07,.53,.85,.35,1.52,.8,1.99,1.35,.48,.54,.75,1.16,.83,1.84,.08,.69-.07,1.36-.45,2.03-.38,.66-.98,1.29-1.81,1.86-.83,.58-1.92,1.03-3.27,1.36l-.07-.33c1.06-.27,1.94-.65,2.63-1.16,.69-.51,1.18-1.07,1.48-1.7,.3-.62,.43-1.25,.38-1.89-.04-.64-.26-1.23-.65-1.76-.39-.53-.93-.96-1.63-1.3-.7-.33-1.53-.5-2.51-.5-1.4,0-2.65,.27-3.76,.81-1.11,.54-2.05,1.25-2.83,2.13-.78,.88-1.39,1.88-1.84,3.01-.45,1.13-.73,2.28-.81,3.46-.09,1.17,0,2.33,.28,3.46,.28,1.13,.74,2.13,1.4,3.01,.65,.88,1.51,1.58,2.58,2.13,1.06,.54,2.34,.81,3.82,.81,1.68,0,3.13-.34,4.34-1.01,1.21-.68,2.25-1.58,3.14-2.73,.89-1.14,1.65-2.45,2.29-3.94,.64-1.48,1.26-3.04,1.84-4.65,.59-1.62,1.18-3.25,1.78-4.89,.6-1.64,1.29-3.19,2.08-4.64,.79-1.45,1.7-2.75,2.74-3.89,1.04-1.14,2.3-2.02,3.79-2.64l.13,.2Zm-10.8,6.15c-.07,.49-.22,.9-.45,1.23s-.51,.6-.83,.8c-.32,.2-.66,.34-1.03,.43-.37,.09-.7,.13-1.01,.13-1.13,0-2.12-.29-2.96-.86-.84-.58-1.47-1.3-1.89-2.16-.42-.86-.6-1.8-.53-2.81,.07-1.01,.42-1.94,1.06-2.81,.64-.86,1.61-1.58,2.89-2.16,1.28-.58,2.96-.86,5.02-.86,1.26,0,2.58,.11,3.94,.33,1.36,.22,2.74,.47,4.12,.73,1.38,.27,2.75,.51,4.1,.73,1.35,.22,2.64,.33,3.86,.33,1.53,0,2.83-.16,3.89-.48,1.06-.32,1.92-.72,2.58-1.2,.65-.48,1.11-1,1.38-1.56,.27-.57,.37-1.09,.3-1.56-.07-.48-.28-.88-.65-1.2-.37-.32-.85-.48-1.45-.48l-.03-.33c.91,0,1.66,.17,2.24,.52,.59,.34,.98,.78,1.18,1.3,.2,.52,.19,1.09-.03,1.7-.22,.61-.69,1.17-1.41,1.7-.72,.52-1.7,.96-2.94,1.31-1.24,.35-2.77,.53-4.59,.53-1.24,0-2.5-.09-3.77-.27-1.27-.18-2.55-.37-3.82-.58-1.27-.21-2.53-.4-3.77-.58-1.24-.18-2.45-.27-3.62-.27-1.95,0-3.54,.27-4.77,.8-1.23,.53-2.17,1.19-2.83,1.98-.65,.79-1.05,1.64-1.18,2.56-.13,.92-.07,1.77,.2,2.56,.27,.79,.7,1.45,1.31,1.98,.61,.53,1.33,.8,2.18,.8,.31,0,.63-.04,.96-.12,.33-.08,.65-.21,.95-.4,.3-.19,.55-.43,.76-.71,.21-.29,.35-.64,.42-1.06l.23,.03Z"/><path class="cls-1" d="M107.06,31.64V9.04h-1.7v-.33h6.02c1.2,0,2.2,.16,3.02,.47,.82,.31,1.48,.73,1.99,1.25,.51,.52,.88,1.11,1.1,1.76,.22,.65,.33,1.32,.33,2.01,0,.58-.08,1.16-.23,1.75-.16,.59-.4,1.15-.73,1.68-.33,.53-.76,1.01-1.3,1.45-.53,.43-1.19,.76-1.96,.98l5.05,11.6h1.43v.33h-5.58v-.33h1.56l-4.82-11.3-1.83,.03v11.27h1.7v.33h-5.75v-.33h1.7Zm4.32-11.6c.71,0,1.31-.18,1.81-.55,.5-.37,.9-.83,1.21-1.4,.31-.57,.54-1.19,.68-1.88,.14-.69,.22-1.35,.22-1.99s-.07-1.27-.22-1.89c-.14-.62-.37-1.17-.68-1.66-.31-.49-.71-.88-1.21-1.18-.5-.3-1.1-.45-1.81-.45h-1.96v11h1.96Z"/><path class="cls-1" d="M121.75,8.71v.33h-2.33v-.33h2.33Zm11.9,0V24.86c0,1.53-.18,2.78-.53,3.76-.35,.98-.81,1.73-1.38,2.28-.57,.54-1.21,.91-1.93,1.11-.72,.2-1.46,.3-2.21,.3-1.06,0-2-.12-2.81-.35-.81-.23-1.48-.64-2.03-1.23-.54-.59-.95-1.39-1.23-2.41-.28-1.02-.42-2.32-.42-3.89V8.71h2.36V26.13c0,1.06,.13,1.96,.38,2.69,.25,.73,.59,1.32,1.01,1.78,.42,.45,.91,.79,1.46,1,.55,.21,1.12,.32,1.7,.32,.64,0,1.27-.11,1.89-.33,.62-.22,1.18-.6,1.68-1.13,.5-.53,.9-1.25,1.21-2.16,.31-.91,.47-2.06,.47-3.46V8.71h.37Zm-8.48,.33h-2.36v-.33h2.36v.33Zm5.58-.33h5.65v.27c-.58,0-1.05,.12-1.41,.37-.37,.24-.65,.6-.85,1.06-.2,.47-.34,1.03-.42,1.68-.08,.65-.12,1.39-.12,2.21l.03,8.87h-.37V14.29c0-.8-.02-1.52-.07-2.18-.04-.65-.15-1.21-.32-1.66-.17-.45-.42-.8-.75-1.05-.33-.24-.8-.37-1.4-.37v-.33Z"/><path class="cls-1" d="M136.77,13.86l.83-5.15h7.31l-.7,.33h-2.96c-1.06,0-1.91,.42-2.53,1.25-.62,.83-1.16,2.02-1.63,3.57h-.33Zm6.45,17.78v.33h-2.33v-.33h2.33Zm-.63-22.93h2.33V31.98h-2.33V8.71Zm7.81,5.15c-.47-1.55-1-2.74-1.61-3.57-.61-.83-1.45-1.25-2.51-1.25h-2.99l-.7-.33h7.31l.83,5.15h-.33Zm-3.76,18.12h-2.36v-.33h2.36v.33Z"/><path class="cls-1" d="M153.63,8.71v.33h-2.36v-.33h2.36Zm0,22.93v.33h-2.36v-.33h2.36Zm-.66-22.93h2.36V31.98h-2.36V8.71Zm.53,11.04h10.2v.33h-10.2v-.33Zm3.52-10.7h-2.36v-.33h2.36v.33Zm0,22.93h-2.36v-.33h2.36v.33Zm5.68-23.27v.33h-2.33v-.33h2.33Zm0,22.93v.33h-2.33v-.33h2.33Zm-.63-22.93h2.33V31.98h-2.33V8.71Zm4.06,.33h-2.36v-.33h2.36v.33Zm0,22.93h-2.36v-.33h2.36v.33Z"/><path class="cls-1" d="M209.33,8.01c-.95,.58-1.78,1.38-2.49,2.41-.71,1.03-1.35,2.19-1.91,3.49-.57,1.3-1.1,2.69-1.6,4.17-.5,1.48-1.01,2.98-1.55,4.49,2.19-.13,4.09-.54,5.68-1.23,1.6-.69,2.92-1.53,3.97-2.53,1.05-1,1.83-2.09,2.34-3.29,.51-1.2,.76-2.38,.76-3.56,0-1.26-.22-2.35-.65-3.26-.43-.91-1.01-1.65-1.75-2.23-.73-.58-1.57-1-2.53-1.28-.95-.28-1.96-.42-3.02-.42-1.86,0-3.52,.29-4.99,.88-1.46,.59-2.7,1.33-3.71,2.23-1.01,.9-1.77,1.88-2.29,2.94-.52,1.06-.78,2.08-.78,3.04s.28,1.81,.85,2.54c.57,.73,1.43,1.21,2.61,1.43l-.03,.33c-1.31-.24-2.33-.75-3.06-1.51-.73-.76-1.17-1.65-1.33-2.66-.16-1.01-.01-2.07,.43-3.19,.44-1.12,1.18-2.14,2.21-3.07s2.36-1.7,3.99-2.31c1.63-.61,3.56-.91,5.8-.91,1.35,0,2.65,.16,3.91,.47,1.25,.31,2.36,.8,3.32,1.46s1.73,1.51,2.31,2.53c.58,1.02,.86,2.24,.86,3.66,0,1.2-.29,2.38-.86,3.56-.58,1.17-1.48,2.24-2.71,3.21s-2.79,1.77-4.69,2.41c-1.89,.64-4.16,1.01-6.8,1.1-.62,1.71-1.32,3.35-2.09,4.94-.78,1.58-1.72,2.99-2.84,4.22-1.12,1.23-2.44,2.22-3.96,2.96-1.52,.74-3.34,1.11-5.47,1.11-1.84,0-3.42-.28-4.74-.83-1.32-.55-2.38-1.29-3.19-2.21-.81-.92-1.39-1.96-1.73-3.12-.34-1.16-.45-2.35-.33-3.57,.12-1.22,.45-2.41,1-3.57,.54-1.16,1.28-2.2,2.23-3.12,.94-.92,2.08-1.66,3.41-2.21,1.33-.55,2.84-.83,4.52-.83,1.2,0,2.18,.22,2.96,.65,.78,.43,1.33,.99,1.68,1.68,.34,.69,.48,1.45,.42,2.28s-.35,1.65-.85,2.44c-.5,.8-1.21,1.53-2.13,2.19-.92,.66-2.06,1.16-3.41,1.5l-.07-.33c1.06-.27,1.98-.7,2.74-1.3s1.36-1.27,1.79-2.03c.43-.75,.7-1.52,.8-2.31,.1-.79,.02-1.51-.23-2.18-.26-.66-.69-1.21-1.31-1.63-.62-.42-1.42-.63-2.39-.63-1.4,0-2.65,.27-3.76,.81-1.11,.54-2.05,1.25-2.83,2.13-.78,.88-1.39,1.88-1.84,3.01-.45,1.13-.73,2.28-.81,3.46-.09,1.17,0,2.33,.28,3.46,.28,1.13,.74,2.13,1.4,3.01,.65,.88,1.51,1.58,2.58,2.13,1.06,.54,2.34,.81,3.82,.81,1.68,0,3.13-.33,4.34-.98,1.21-.65,2.26-1.54,3.16-2.66,.9-1.12,1.67-2.4,2.33-3.86,.65-1.45,1.27-2.97,1.86-4.55,.59-1.58,1.19-3.19,1.79-4.82,.61-1.63,1.3-3.16,2.08-4.6,.78-1.44,1.68-2.74,2.71-3.91s2.27-2.08,3.71-2.74l.07,.33Z"/><path class="cls-1" d="M217.97,20.34c0-3.88,.56-6.84,1.68-8.89,1.12-2.05,2.92-3.07,5.4-3.07s4.32,.98,5.45,2.94c1.13,1.96,1.7,4.97,1.7,9.02,0,3.83-.57,6.79-1.71,8.86-1.14,2.07-2.95,3.11-5.43,3.11s-4.28-1.03-5.4-3.09c-1.12-2.06-1.68-5.02-1.68-8.87Zm2.53,0c0,3.94,.37,6.86,1.1,8.76,.73,1.89,1.89,2.84,3.49,2.84s2.73-.95,3.47-2.84c.74-1.89,1.11-4.81,1.11-8.76s-.37-6.9-1.11-8.79c-.74-1.89-1.9-2.84-3.47-2.84s-2.76,.95-3.49,2.84c-.73,1.89-1.1,4.83-1.1,8.79Z"/><path class="cls-1" d="M234.83,13.79c0-.86,.14-1.63,.43-2.29,.29-.66,.68-1.22,1.18-1.68,.5-.45,1.08-.8,1.75-1.03,.66-.23,1.38-.35,2.16-.35,.71,0,1.31,.12,1.81,.35,.5,.23,.93,.48,1.3,.75,.37,.27,.68,.52,.93,.75,.25,.23,.5,.35,.75,.35,.18,0,.32-.09,.43-.27,.11-.18,.15-.51,.13-1v-.7l.27-.03v8.01h-.23c-.13-1.13-.36-2.18-.68-3.14-.32-.96-.71-1.79-1.18-2.49s-.99-1.25-1.58-1.65c-.59-.4-1.19-.6-1.81-.6-.49,0-.96,.09-1.43,.27-.47,.18-.88,.43-1.25,.75-.37,.32-.66,.71-.9,1.18s-.35,.98-.35,1.53c0,1.02,.25,1.92,.76,2.69,.51,.78,1.15,1.51,1.91,2.19,.76,.69,1.59,1.35,2.48,1.98,.89,.63,1.71,1.3,2.48,1.99,.76,.7,1.4,1.47,1.91,2.31,.51,.84,.76,1.81,.76,2.89,0,1-.19,1.85-.57,2.56-.38,.71-.86,1.29-1.46,1.75-.6,.45-1.26,.78-1.98,.98-.72,.2-1.42,.3-2.11,.3s-1.35-.12-1.93-.35c-.58-.23-1.09-.49-1.55-.78-.45-.29-.84-.55-1.16-.78-.32-.23-.58-.35-.78-.35-.18,0-.32,.09-.43,.27-.11,.18-.17,.5-.17,.96l.03,.73h-.27v-7.51h.23c.15,1.35,.44,2.5,.85,3.44,.41,.94,.9,1.71,1.46,2.31,.57,.6,1.17,1.03,1.83,1.3,.65,.27,1.3,.4,1.94,.4,.53,0,1.05-.09,1.55-.27,.5-.18,.93-.43,1.3-.75,.37-.32,.66-.7,.88-1.13,.22-.43,.33-.91,.33-1.45,0-1.17-.25-2.19-.75-3.04-.5-.85-1.12-1.62-1.86-2.31-.74-.69-1.55-1.33-2.41-1.93s-1.67-1.23-2.41-1.91c-.74-.68-1.36-1.42-1.86-2.24-.5-.82-.75-1.81-.75-2.96Z"/><path class="cls-1" d="M248.52,13.86l.83-5.15h7.31l-.7,.33h-2.96c-1.06,0-1.91,.42-2.53,1.25-.62,.83-1.16,2.02-1.63,3.57h-.33Zm6.45,17.78v.33h-2.33v-.33h2.33Zm-.63-22.93h2.33V31.98h-2.33V8.71Zm7.81,5.15c-.47-1.55-1-2.74-1.61-3.57-.61-.83-1.45-1.25-2.51-1.25h-2.99l-.7-.33h7.31l.83,5.15h-.33Zm-3.76,18.12h-2.36v-.33h2.36v.33Z"/></g></g></svg>