<svg width="33" height="15" viewBox="0 0 33 15" fill="none" xmlns="http://www.w3.org/2000/svg">
    <path d="M12.2549 11.1291C11.1255 11.1147 9.71174 11.1541 8.01603 11.2438C6.16073 11.3422 4.13354 11.3744 1.93665 11.3443C1.51806 11.3404 1.14946 11.5715 0.828564 12.0412C0.774328 12.1206 0.744051 12.2291 0.744735 12.3423C0.749247 12.8267 0.897899 13.1358 1.19078 13.2626C1.97691 13.6044 2.91589 13.7819 4.00772 13.795C13.2165 13.8877 22.4649 14.0031 31.7528 14.141C32.1559 14.1479 32.4543 13.8683 32.6502 13.306C32.7816 12.9253 32.7621 12.5641 32.5939 12.226C32.484 12.003 32.3112 11.8415 32.0756 11.7379C31.6946 11.5727 31.2462 11.4794 30.7304 11.458C25.1715 11.2336 20.4284 11.1259 16.5009 11.1418C15.0855 11.1458 13.6701 11.1428 12.2549 11.1291Z" fill="#1A0906"/>
    <path d="M8.73121 1.68905C8.82145 2.2224 9.08581 2.49313 9.52644 2.50485C12.0839 2.5687 14.2769 2.72596 16.1097 2.9768C20.3281 3.5577 24.5471 4.09974 28.7687 4.60652C29.379 4.68068 29.8619 4.35454 30.215 3.628C30.256 3.54459 30.2643 3.42821 30.2346 3.32821C30.05 2.7315 29.7378 2.39548 29.298 2.32015C27.6073 2.0389 25.9133 1.83884 24.2161 1.71288C23.8554 1.68625 23.3409 1.57299 22.6768 1.37678C22.1628 1.22112 21.6433 1.14655 21.1183 1.14957C19.457 1.15212 17.8023 0.995839 16.1541 0.680707C14.5546 0.374329 12.4665 0.160603 9.89208 0.0396139C9.50911 0.0228133 9.19681 0.185194 8.95734 0.530381C8.73144 0.854828 8.65533 1.24104 8.73121 1.68905Z" fill="#1A0906"/>
</svg>
