<?xml version="1.0" encoding="UTF-8"?><svg id="Layer_1" xmlns="http://www.w3.org/2000/svg" viewBox="0 0 40 40"><defs><style>.cls-1{fill:#1a0906;}</style></defs><path class="cls-1" d="M35.33,17.85c-.44-3.46-1.86-6.49-4.25-9.09-2.21-2.4-4.85-3.92-7.93-4.56-2.39-.5-4.76-.42-7.11,.23-3.49,.97-6.28,2.93-8.38,5.87-1.5,2.12-2.47,4.44-2.91,6.97-.13,.77-.2,1.56-.21,2.37-.04,3.7,1.03,7.07,3.2,10.11,.6,.84,1.31,1.64,2.13,2.39,2.81,2.57,6.08,3.91,9.82,3.99,.79,.02,1.59-.02,2.37-.13,3.21-.44,5.98-1.76,8.31-3.97,.56-.53,1.09-1.12,1.59-1.77,2.26-2.94,3.42-6.29,3.48-10.04,.01-.81-.03-1.6-.13-2.37h0Zm-3.14,6.69c-.03,.14-.07,.28-.1,.42-.03,.11-.05,.22-.08,.32-.17,.62-.36,1.15-.58,1.58-.04,.07-.07,.14-.11,.21-.11,.19-.23,.39-.35,.58-.38,.57-.84,1.12-1.38,1.66-.71,.7-1.46,1.32-2.24,1.85-.31,.21-.63,.41-.96,.6-.16,.09-.33,.18-.49,.27-.5,.26-1,.48-1.52,.68-.17,.07-.35,.13-.52,.18-.35,.12-.71,.22-1.08,.31-.36,.09-.73,.16-1.11,.22-.79,.13-1.55,.2-2.27,.22-.76,.02-1.52-.03-2.28-.15-.25-.04-.5-.09-.74-.15s-.48-.13-.71-.22c-.47-.17-.92-.38-1.35-.63-.96-.56-1.78-1.16-2.46-1.8-1.41-1.32-2.52-2.83-3.32-4.51-.16-.34-.31-.68-.44-1.03-.14-.35-.26-.71-.37-1.07-.11-.37-.21-.74-.3-1.12-.16-.69-.26-1.37-.32-2.06-.03-.41-.05-.82-.04-1.22,0-.41,.03-.81,.07-1.22,.04-.4,.1-.81,.18-1.21,.05-.27,.12-.54,.19-.8,.09-.35,.19-.69,.31-1.03,.11-.34,.24-.68,.38-1.02,.07-.17,.14-.34,.21-.51,.22-.51,.47-1.01,.75-1.51,.44-.8,.98-1.52,1.6-2.14,.37-.37,.78-.72,1.22-1.02,.14-.1,.3-.2,.45-.3,.24-.15,.5-.29,.77-.42,.27-.14,.57-.27,.87-.4,.16-.06,.31-.13,.47-.18,.31-.12,.63-.23,.95-.32,.16-.05,.32-.1,.48-.14,.32-.09,.64-.17,.97-.24,.32-.07,.65-.13,.98-.18,.66-.1,1.32-.16,1.99-.18s1.35,0,2.04,.06c.82,.07,1.6,.26,2.36,.56,.65,.26,1.27,.57,1.86,.91,1.17,.69,2.21,1.55,3.11,2.57,.45,.51,.87,1.06,1.25,1.65,.11,.18,.22,.35,.33,.53,.21,.36,.4,.72,.58,1.08,.26,.55,.49,1.1,.67,1.66,.12,.37,.23,.75,.32,1.14,.14,.57,.23,1.15,.29,1.74,.04,.39,.06,.79,.07,1.19,0,.6-.02,1.21-.09,1.83-.03,.25-.06,.5-.1,.75-.02,.13-.04,.26-.06,.39-.04,.26-.09,.52-.15,.79s-.11,.54-.18,.81h0s0,0,0,0Z"/><g><path class="cls-1" d="M27.94,15.75c-.12-.23-.28-.35-.5-.35-.04,0-.07,.01-.1,.04-.75,.7-1.55,1.34-2.38,1.95l-.5,.33c-.05,0-.09,0-.12-.03l.28-.27s0-.08,.02-.11c.05-.05,.11-.08,.17-.09,.59-.57,1.18-1.15,1.77-1.72,.3-.3,.46-.45,.47-.46,.14-.22,.1-.47-.12-.75-.14-.17-.28-.17-.41,0-.71,.89-1.45,1.72-2.23,2.49l-.58,.59s0,0-.01,0c0,0,0,0,0,0,0,0,0,0,0,0h-.02s0,0,0,0c0,0,0,0,0,0,0,0,0,0,0,0l-.03-.05c.81-1.12,1.71-2.23,2.7-3.35,.11-.13,.12-.26,.01-.39-.11-.14-.26-.24-.45-.31-.17-.06-.3-.01-.39,.15-.65,1.15-1.36,2.26-2.14,3.34-.24,.32-.37,.5-.41,.57-.06,.1-.1,.12-.12,.03,0-.02,0-.05,0-.08,.06-.23,.15-.44,.28-.64,.56-1.21,1.24-2.33,2.05-3.38,0,0,.06-.06,.16-.17,.11-.12,.14-.25,.08-.38-.04-.08-.14-.18-.29-.29-.97-.67-1.99-1.13-3.07-1.4-1.75-.43-3.48-.32-5.19,.33-1.22,.46-2.31,1.18-3.26,2.16-.21,.21-.32,.33-.34,.36-.1,.13-.16,.29-.19,.47-.01,.08,.02,.17,.08,.23,.85,.74,1.57,1.58,2.17,2.51l-.55-.35c-.67-.58-1.27-1.17-1.83-1.77-.12-.12-.23-.12-.35,0-.19,.21-.33,.41-.43,.6-.41,.77-.72,1.58-.91,2.42-.18,.77-.25,1.56-.21,2.36,.08,1.57,.52,3.05,1.32,4.44,.13,.22,.2,.34,.22,.36,.08,.12,.19,.21,.32,.29,.06,.04,.14,.03,.2-.01l2.15-1.51h.06c-.57,.63-1.2,1.2-1.9,1.73-.18,.13-.23,.31-.14,.51,.09,.23,.3,.41,.61,.54,.09,.04,.19,0,.25-.08,.6-.91,1.26-1.76,1.98-2.54,.04-.04,.06-.04,.06,.01,0,.03-.01,.06-.04,.1-.55,.86-1.14,1.71-1.76,2.54-.07,.1-.08,.23-.02,.33,.18,.3,.41,.45,.68,.44,.04,0,.07-.02,.09-.06,.59-1.04,1.21-2.06,1.85-3.06,.02-.03,.04-.05,.06-.06,.09-.06,.11-.02,.05,.13-.42,1.17-.97,2.2-1.65,3.1-.16,.22-.13,.39,.11,.52,2.69,1.5,5.45,1.64,8.29,.44,.27-.12,.52-.26,.76-.44,.05-.04,.07-.12,.02-.17-.82-1.09-1.48-2.28-1.98-3.57-.01-.03,0-.06,0-.08,.02-.03,.04-.02,.07,.03,0,.02,.02,.04,.03,.06,.77,1.07,1.46,2.23,2.08,3.47,.02,.03,.05,.04,.08,.03,.41-.18,.79-.43,1.13-.75,1.09-1.03,1.9-2.23,2.43-3.6,.29-.74,.47-1.51,.55-2.31,.18-1.85-.16-3.64-1.02-5.37h0Zm-13.36-2.06l.44,.51c.62,.8,1.09,1.67,1.41,2.62,.01,.04,0,.04-.02,0-.74-.97-1.35-2.01-1.84-3.14h0Zm5.73,10.97c-.62,.12-1.2,.11-1.76-.05-.57-.16-1.11-.45-1.6-.85-.61-.49-1.04-1.07-1.31-1.75-.25-.64-.33-1.33-.25-2.09,.14-1.2,.7-2.18,1.69-2.95,.51-.4,1.1-.65,1.76-.77,.62-.11,1.24-.08,1.87,.08,1.24,.32,2.16,1.08,2.75,2.3,.42,.85,.53,1.71,.36,2.58-.16,.77-.51,1.47-1.06,2.1-.64,.73-1.46,1.2-2.45,1.39h0Zm5.57,1.9s-.03,0-.05-.01c-.81-.68-1.49-1.49-2.06-2.45-.09-.14-.08-.18,.02-.1,.42,.39,.83,.8,1.22,1.23,.35,.38,.64,.81,.88,1.28,.01,.03,.01,.05,0,.06Z"/><path class="cls-1" d="M22.49,19.63c-.04-.13-.09-.26-.15-.38s-.11-.24-.18-.36c-.1-.17-.2-.34-.32-.5-.16-.22-.34-.4-.55-.54-.12-.09-.26-.16-.4-.22-.44-.19-.87-.28-1.32-.26-.11,0-.22,.02-.33,.04-.06,0-.11,.02-.17,.03-.28,.06-.56,.17-.85,.32-.15,.08-.28,.16-.41,.25-.26,.18-.48,.39-.66,.63-.09,.12-.18,.25-.25,.38-.04,.06-.07,.13-.1,.2-.06,.13-.12,.27-.16,.41s-.07,.28-.1,.43c-.01,.07-.02,.15-.02,.22-.01,.15-.01,.3,0,.46,.02,.28,.07,.54,.15,.79,.07,.2,.15,.39,.26,.57,.08,.13,.17,.26,.28,.39,.14,.17,.3,.32,.48,.47,.44,.35,.91,.57,1.41,.64,.23,.03,.46,.04,.7,0,.16-.02,.32-.05,.47-.08,.23-.06,.44-.14,.65-.25,.07-.04,.14-.07,.2-.12,.13-.08,.26-.18,.39-.28,.19-.16,.35-.33,.5-.53s.27-.41,.37-.64c.07-.15,.13-.31,.18-.48,.03-.11,.06-.22,.07-.34,.05-.34,.02-.69-.09-1.06-.02-.07-.04-.13-.06-.2h0Z"/></g></svg>