<svg width="110" height="110" viewBox="0 0 110 110" fill="none" xmlns="http://www.w3.org/2000/svg">
<path d="M85.1005 59.7595C85.3221 58.5663 85.7184 57.5947 86.2894 56.8447C86.8604 56.0947 87.5337 55.545 88.3093 55.1955C89.0934 54.8376 89.9158 54.6586 90.7766 54.6586C91.6545 54.6586 92.4087 54.8419 93.0394 55.2083C93.6786 55.5748 94.3434 56.0862 95.0337 56.7424C95.5451 57.2112 95.9968 57.5649 96.3889 57.8035C96.7809 58.0336 97.2326 58.1487 97.744 58.1487C98.5366 58.1487 99.2227 57.8887 99.8022 57.3688C100.39 56.849 100.795 56.1117 101.017 55.1572L103.113 55.2211C102.883 56.3972 102.483 57.3518 101.912 58.0847C101.349 58.8092 100.684 59.3419 99.9173 59.6828C99.1587 60.0151 98.3619 60.1813 97.5266 60.1813C96.6914 60.1813 95.9712 60.0024 95.3661 59.6444C94.761 59.2779 94.1175 58.7708 93.4357 58.1231C92.9244 57.6458 92.4513 57.3007 92.0167 57.0876C91.5906 56.8745 91.0962 56.768 90.5337 56.768C89.7326 56.768 89.0295 57.0151 88.4244 57.5095C87.8192 58.0038 87.4144 58.7623 87.2099 59.785L85.1005 59.7595Z" fill="black"/>
<path d="M59.7596 24.5009C58.5664 24.2794 57.5948 23.883 56.8448 23.312C56.0948 22.741 55.5451 22.0677 55.1957 21.2921C54.8377 20.508 54.6587 19.6856 54.6587 18.8248C54.6587 17.947 54.842 17.1927 55.2085 16.562C55.5749 15.9228 56.0863 15.258 56.7425 14.5677C57.2113 14.0563 57.565 13.6046 57.8036 13.2126C58.0337 12.8205 58.1488 12.3688 58.1488 11.8575C58.1488 11.0649 57.8888 10.3788 57.369 9.79924C56.8491 9.21117 56.1119 8.80634 55.1573 8.58475L55.2212 6.48816C56.3974 6.71827 57.3519 7.11884 58.0849 7.68986C58.8093 8.25236 59.342 8.91714 59.6829 9.68418C60.0153 10.4427 60.1815 11.2396 60.1815 12.0748C60.1815 12.91 60.0025 13.6302 59.6445 14.2353C59.2781 14.8404 58.771 15.4839 58.1232 16.1657C57.646 16.6771 57.3008 17.1501 57.0877 17.5847C56.8746 18.0109 56.7681 18.5052 56.7681 19.0677C56.7681 19.8688 57.0153 20.572 57.5096 21.1771C58.0039 21.7822 58.7624 22.187 59.7852 22.3916L59.7596 24.5009Z" fill="black"/>
<path d="M79.7322 36.8821C79.0452 35.8817 78.6384 34.9144 78.5118 33.9803C78.3853 33.0462 78.4727 32.1814 78.774 31.3859C79.0753 30.5784 79.5303 29.8703 80.139 29.2616C80.7597 28.6409 81.4226 28.2371 82.1277 28.0503C82.8389 27.8574 83.6705 27.7489 84.6227 27.7248C85.3157 27.6947 85.8852 27.6254 86.3312 27.5169C86.7711 27.4024 87.1719 27.1644 87.5335 26.8028C88.0939 26.2423 88.3953 25.5734 88.4375 24.796C88.4857 24.0125 88.2506 23.205 87.7324 22.3733L89.2601 20.936C89.929 21.9304 90.3207 22.8886 90.4352 23.8106C90.5497 24.7206 90.4563 25.5674 90.155 26.3508C89.8537 27.1222 89.4077 27.8032 88.8171 28.3938C88.2265 28.9844 87.5907 29.367 86.9097 29.5418C86.2227 29.7106 85.4092 29.807 84.469 29.8311C83.7699 29.8552 83.1914 29.9456 82.7334 30.1023C82.2814 30.2529 81.8565 30.5271 81.4588 30.9249C80.8923 31.4914 80.5699 32.1633 80.4915 32.9407C80.4132 33.7182 80.6633 34.5408 81.2418 35.4086L79.7322 36.8821Z" fill="black"/>
<path d="M36.8822 29.8692C35.8818 30.5562 34.9145 30.963 33.9804 31.0896C33.0463 31.2161 32.1815 31.1288 31.386 30.8274C30.5785 30.5261 29.8704 30.0711 29.2617 29.4624C28.641 28.8417 28.2372 28.1788 28.0504 27.4737C27.8575 26.7626 27.7491 25.9309 27.725 24.9787C27.6948 24.2857 27.6255 23.7162 27.517 23.2702C27.4025 22.8303 27.1645 22.4295 26.8029 22.068C26.2424 21.5075 25.5735 21.2062 24.7961 21.164C24.0126 21.1158 23.2051 21.3508 22.3734 21.8691L20.9361 20.3414C21.9305 19.6724 22.8887 19.2807 23.8108 19.1662C24.7208 19.0517 25.5675 19.1451 26.3509 19.4464C27.1223 19.7478 27.8033 20.1937 28.3939 20.7843C28.9845 21.3749 29.3672 22.0107 29.5419 22.6917C29.7107 23.3787 29.8071 24.1923 29.8312 25.1324C29.8553 25.8315 29.9457 26.41 30.1024 26.868C30.2531 27.32 30.5273 27.7449 30.925 28.1426C31.4915 28.7091 32.1635 29.0316 32.9409 29.1099C33.7183 29.1882 34.5409 28.9381 35.4087 28.3596L36.8822 29.8692Z" fill="black"/>
<path d="M6.1005 59.7595C6.32209 58.5663 6.7184 57.5947 7.28942 56.8447C7.86044 56.0947 8.53374 55.545 9.3093 55.1955C10.0934 54.8376 10.9158 54.6586 11.7766 54.6586C12.6545 54.6586 13.4087 54.8419 14.0394 55.2083C14.6786 55.5748 15.3434 56.0862 16.0337 56.7424C16.5451 57.2112 16.9968 57.5649 17.3889 57.8035C17.7809 58.0336 18.2326 58.1487 18.744 58.1487C19.5366 58.1487 20.2227 57.8887 20.8022 57.3688C21.3903 56.849 21.7951 56.1117 22.0167 55.1572L24.1133 55.2211C23.8832 56.3972 23.4826 57.3518 22.9116 58.0847C22.3491 58.8092 21.6843 59.3419 20.9173 59.6828C20.1587 60.0151 19.3619 60.1813 18.5266 60.1813C17.6914 60.1813 16.9712 60.0024 16.3661 59.6444C15.761 59.2779 15.1175 58.7708 14.4357 58.1231C13.9244 57.6458 13.4513 57.3007 13.0167 57.0876C12.5906 56.8745 12.0962 56.768 11.5337 56.768C10.7326 56.768 10.0295 57.0151 9.42436 57.5095C8.81925 58.0038 8.41442 58.7623 8.20987 59.785L6.1005 59.7595Z" fill="black"/>
<path d="M59.7596 103.501C58.5664 103.279 57.5948 102.883 56.8448 102.312C56.0948 101.741 55.5451 101.068 55.1957 100.292C54.8377 99.508 54.6587 98.6856 54.6587 97.8248C54.6587 96.947 54.842 96.1927 55.2085 95.562C55.5749 94.9228 56.0863 94.258 56.7425 93.5677C57.2113 93.0563 57.565 92.6046 57.8036 92.2126C58.0337 91.8205 58.1488 91.3688 58.1488 90.8575C58.1488 90.0649 57.8888 89.3788 57.369 88.7992C56.8491 88.2112 56.1119 87.8063 55.1573 87.5847L55.2212 85.4882C56.3974 85.7183 57.3519 86.1188 58.0849 86.6899C58.8093 87.2524 59.342 87.9171 59.6829 88.6842C60.0153 89.4427 60.1815 90.2396 60.1815 91.0748C60.1815 91.91 60.0025 92.6302 59.6445 93.2353C59.2781 93.8404 58.771 94.4839 58.1232 95.1657C57.646 95.6771 57.3008 96.1501 57.0877 96.5847C56.8746 97.0109 56.7681 97.5052 56.7681 98.0677C56.7681 98.8688 57.0153 99.572 57.5096 100.177C58.0039 100.782 58.7624 101.187 59.7852 101.392L59.7596 103.501Z" fill="black"/>
<path d="M23.8709 92.7434C23.1839 91.743 22.7771 90.7757 22.6505 89.8416C22.524 88.9075 22.6113 88.0427 22.9127 87.2472C23.214 86.4397 23.669 85.7316 24.2777 85.1229C24.8984 84.5022 25.5613 84.0984 26.2664 83.9116C26.9775 83.7187 27.8092 83.6103 28.7614 83.5862C29.4544 83.556 30.0239 83.4867 30.4699 83.3782C30.9098 83.2637 31.3106 83.0257 31.6722 82.6641C32.2326 82.1036 32.5339 81.4347 32.5761 80.6573C32.6243 79.8738 32.3893 79.0663 31.871 78.2346L33.3987 76.7973C34.0677 77.7917 34.4594 78.7499 34.5739 79.672C34.6884 80.582 34.595 81.4287 34.2937 82.2121C33.9924 82.9835 33.5464 83.6645 32.9558 84.2551C32.3652 84.8457 31.7294 85.2284 31.0484 85.4031C30.3614 85.5719 29.5478 85.6683 28.6077 85.6924C27.9086 85.7165 27.3301 85.8069 26.8721 85.9636C26.4201 86.1143 25.9952 86.3885 25.5975 86.7862C25.031 87.3527 24.7086 88.0247 24.6302 88.8021C24.5519 89.5795 24.802 90.4021 25.3805 91.2699L23.8709 92.7434Z" fill="black"/>
<path d="M92.7435 85.7306C91.7431 86.4176 90.7759 86.8244 89.8418 86.9509C88.9077 87.0775 88.0429 86.9901 87.2474 86.6888C86.4398 86.3874 85.7317 85.9324 85.123 85.3238C84.5023 84.703 84.0985 84.0401 83.9117 83.335C83.7189 82.6239 83.6104 81.7923 83.5863 80.8401C83.5561 80.147 83.4868 79.5775 83.3784 79.1316C83.2639 78.6916 83.0258 78.2909 82.6642 77.9293C82.1038 77.3688 81.4348 77.0675 80.6574 77.0253C79.874 76.9771 79.0664 77.2121 78.2348 77.7304L76.7975 76.2027C77.7918 75.5338 78.75 75.142 79.6721 75.0275C80.5821 74.913 81.4288 75.0064 82.2122 75.3078C82.9836 75.6091 83.6646 76.055 84.2552 76.6456C84.8458 77.2362 85.2285 77.872 85.4033 78.553C85.572 79.24 85.6684 80.0536 85.6925 80.9937C85.7166 81.6928 85.807 82.2714 85.9637 82.7294C86.1144 83.1814 86.3886 83.6062 86.7863 84.004C87.3528 84.5705 88.0248 84.8929 88.8022 84.9712C89.5796 85.0496 90.4022 84.7995 91.27 84.2209L92.7435 85.7306Z" fill="black"/>
<path d="M57.8257 68.5501C60.9534 68.1737 63.6966 66.9187 66.0554 64.7852C68.2319 62.815 69.6157 60.4508 70.2057 57.6916C70.6635 55.5491 70.6016 53.4215 70.019 51.3076C69.1525 48.1672 67.392 45.6495 64.7377 43.7531C62.8293 42.3904 60.7332 41.5063 58.4484 41.1017C57.7495 40.9776 57.0364 40.9089 56.3092 40.8968C52.9635 40.838 49.9125 41.778 47.1563 43.7157C46.3939 44.2514 45.671 44.8857 44.9897 45.6175C42.6544 48.1231 41.4409 51.0557 41.3513 54.4153C41.3318 55.1278 41.3693 55.8386 41.4649 56.5465C41.8524 59.4284 43.0384 61.9233 45.025 64.0323C45.5042 64.5418 46.0341 65.0206 46.6169 65.4688C49.2707 67.5115 52.2915 68.5725 55.6791 68.6508C56.4084 68.6682 57.124 68.6343 57.8257 68.5501ZM51.7867 65.6963C51.6619 65.6666 51.5362 65.6359 51.4104 65.6041C51.3115 65.5789 51.2148 65.5537 51.1213 65.5275C50.5569 65.3722 50.0809 65.196 49.6921 65.0002C49.6277 64.9677 49.5654 64.9342 49.5052 64.9007C49.3302 64.8023 49.1563 64.6954 48.9845 64.58C48.4692 64.2359 47.9703 63.8182 47.4878 63.3289C46.8541 62.687 46.299 62.0125 45.8204 61.3075C45.6298 61.0253 45.4511 60.7378 45.2842 60.4461C45.2008 60.3003 45.1217 60.1523 45.0447 60.0044C44.8138 59.5584 44.6119 59.1009 44.437 58.6329C44.3784 58.4765 44.324 58.3191 44.2718 58.1607C44.1674 57.8437 44.077 57.5205 43.9974 57.1931C43.9189 56.8656 43.8522 56.5329 43.7984 56.1949C43.6857 55.4858 43.6212 54.8059 43.6061 54.1562C43.5911 53.4712 43.6375 52.7888 43.7452 52.1078C43.7803 51.8837 43.8262 51.6628 43.8818 51.4463C43.9374 51.2297 44.0026 51.0165 44.0786 50.8075C44.2306 50.3886 44.4224 49.9849 44.655 49.5953C45.1677 48.7364 45.7113 48.0048 46.2867 47.4005C47.4872 46.1389 48.8492 45.1539 50.3717 44.4456C50.6756 44.3044 50.9869 44.1728 51.3047 44.0541C51.6225 43.9344 51.9456 43.8264 52.2762 43.728C52.6068 43.6308 52.9428 43.5443 53.2862 43.4685C53.9096 43.3314 54.5285 43.2413 55.1462 43.1972C55.5163 43.1707 55.8854 43.1613 56.2533 43.169C56.6212 43.1767 56.988 43.2004 57.3537 43.2412C57.7193 43.282 58.0838 43.3399 58.4483 43.4138C58.6913 43.4634 58.9332 43.5205 59.1739 43.5851C59.4857 43.6683 59.7963 43.7622 60.1047 43.8656C60.4131 43.9702 60.7205 44.0843 61.0267 44.2092C61.1792 44.2721 61.3318 44.3372 61.4843 44.4044C61.9409 44.6071 62.3942 44.8344 62.8441 45.0841C63.569 45.4872 64.2129 45.9711 64.7738 46.5334C65.1105 46.8711 65.418 47.2374 65.6954 47.6313C65.7864 47.7611 65.8752 47.8974 65.963 48.04C66.0935 48.2556 66.2208 48.4862 66.3427 48.7327C66.4656 48.9792 66.583 49.2417 66.6973 49.5202C66.7549 49.6606 66.8104 49.8009 66.8626 49.9423C66.9682 50.225 67.0652 50.5088 67.1535 50.7946C67.1972 50.938 67.2397 51.0804 67.2791 51.2249C67.3577 51.5128 67.4289 51.8017 67.4892 52.0927C67.5507 52.3838 67.6024 52.6768 67.6467 52.9709C67.7329 53.5602 67.7848 54.1556 67.8 54.7583C67.8152 55.361 67.795 55.9699 67.7391 56.5861C67.6733 57.3175 67.501 58.0226 67.2222 58.7025C66.9826 59.2886 66.7053 59.8435 66.3916 60.3683C65.7631 61.4167 64.9865 62.3412 64.0619 63.1431C63.599 63.544 63.0997 63.9137 62.5628 64.2522C62.4033 64.3526 62.2426 64.4499 62.082 64.5429C61.7597 64.7289 61.4343 64.8999 61.1045 65.0549C60.611 65.2878 60.1101 65.4866 59.6018 65.6511C59.2625 65.76 58.9201 65.8551 58.5745 65.933C58.0555 66.0515 57.5303 66.1347 56.9965 66.1836C56.6403 66.2166 56.2819 66.2335 55.9194 66.2355C55.3761 66.2384 54.8243 66.2071 54.2661 66.1416C54.0435 66.1156 53.8177 66.0842 53.5875 66.0486C53.4725 66.0308 53.3564 66.0119 53.2392 65.9919C53.0058 65.9519 52.7682 65.9066 52.5263 65.857C52.2844 65.8073 52.0393 65.7534 51.791 65.6941L51.7867 65.6963Z" fill="#1A0906"/>
<path d="M60.5269 62.0873C60.7371 61.9857 60.843 61.8385 60.8456 61.6435C60.8457 61.6116 60.8329 61.5784 60.8082 61.5505C60.1798 60.8692 59.5947 60.1542 59.0526 59.4055L58.7533 58.9542C58.7458 58.9061 58.7567 58.87 58.7848 58.8436L59.0265 59.0941C59.0642 59.0827 59.0986 59.0904 59.1298 59.1174C59.1738 59.1615 59.2017 59.2129 59.2145 59.2737C59.7312 59.8091 60.25 60.3423 60.771 60.8734C61.0406 61.1475 61.1803 61.2873 61.19 61.2938C61.391 61.4235 61.6172 61.3882 61.8697 61.1879C62.025 61.0646 62.0243 60.9421 61.8684 60.8181C61.0634 60.179 60.3144 59.5052 59.6216 58.7977L59.093 58.2698C59.093 58.2698 59.0866 58.2622 59.0844 58.258C59.0834 58.2548 59.0823 58.2526 59.0812 58.2494C59.0812 58.2473 59.0791 58.2441 59.0791 58.2419L59.0791 58.227C59.0791 58.227 59.0802 58.2228 59.0813 58.2206C59.0813 58.2185 59.0834 58.2164 59.0845 58.2143C59.0867 58.2111 59.0899 58.2079 59.0932 58.2058L59.1363 58.1817C60.1457 58.9143 61.1538 59.729 62.1618 60.6267C62.2767 60.729 62.3952 60.7333 62.516 60.6395C62.6401 60.5425 62.7319 60.4101 62.7937 60.2412C62.849 60.0893 62.8051 59.9738 62.6631 59.8937C61.6243 59.3058 60.6179 58.6584 59.644 57.9507C59.3592 57.736 59.1882 57.612 59.1313 57.5795C59.0366 57.5264 59.027 57.4901 59.1014 57.4726C59.1229 57.4675 59.1477 57.4688 59.1746 57.4754C59.3823 57.5316 59.5759 57.6175 59.7565 57.7342C60.8461 58.2438 61.8644 58.8656 62.8124 59.5998C62.8189 59.6052 62.8694 59.6525 62.965 59.7418C63.0757 59.8451 63.1898 59.8707 63.3083 59.8174C63.3849 59.7839 63.4712 59.6973 63.5685 59.5585C64.1724 58.6996 64.5956 57.7857 64.8402 56.818C65.2337 55.258 65.1383 53.7076 64.5551 52.1656C64.1398 51.0706 63.4917 50.0907 62.6108 49.2249C62.4174 49.0346 62.31 48.9324 62.2885 48.9162C62.1702 48.8299 62.0282 48.7732 61.8625 48.7451C61.786 48.7316 61.7085 48.7587 61.6577 48.8158C60.9861 49.5718 60.2276 50.2131 59.3832 50.7385L59.6977 50.251C60.2246 49.6599 60.76 49.119 61.305 48.6282C61.4183 48.5259 61.4185 48.4236 61.3046 48.3192C61.1176 48.1491 60.9381 48.0175 60.7671 47.9254C60.0692 47.5494 59.3408 47.2712 58.581 47.0896C57.8847 46.9225 57.172 46.8533 56.4451 46.882C55.0214 46.9387 53.682 47.3211 52.4258 48.0315C52.2264 48.1438 52.1175 48.2078 52.098 48.2215C51.9934 48.2962 51.906 48.3903 51.8357 48.5037C51.8022 48.5588 51.8063 48.6303 51.8461 48.6861L53.209 50.6197L53.2003 50.6729C52.6405 50.1617 52.1228 49.5902 51.6473 48.9571C51.526 48.7951 51.371 48.7511 51.1824 48.8262C50.9744 48.9085 50.8124 49.0883 50.6955 49.3654C50.6619 49.4461 50.6908 49.5391 50.7639 49.5877C51.5853 50.13 52.3495 50.7283 53.0554 51.3815C53.0952 51.417 53.0908 51.434 53.0445 51.4314C53.0187 51.4312 52.9886 51.4192 52.9542 51.3965C52.1736 50.893 51.4103 50.3608 50.6632 49.7999C50.5762 49.7352 50.4577 49.7278 50.3639 49.7824C50.0879 49.9451 49.9549 50.1454 49.9641 50.3842C49.964 50.4161 49.9833 50.4472 50.0145 50.4646C50.95 51.0047 51.8726 51.566 52.7833 52.1464C52.8081 52.1626 52.8274 52.1798 52.8413 52.2002C52.8939 52.2795 52.8562 52.2952 52.7271 52.2482C51.6727 51.8626 50.7392 51.3598 49.9266 50.7419C49.7321 50.5931 49.5758 50.6248 49.4558 50.8358C48.0955 53.2334 47.9572 55.7058 49.0399 58.253C49.1438 58.4959 49.2757 58.723 49.4378 58.9333C49.4743 58.9827 49.5442 58.9929 49.5939 58.9571C50.5852 58.2358 51.6633 57.6539 52.8295 57.2113C52.8554 57.2019 52.8823 57.2032 52.9006 57.2151C52.9317 57.2357 52.922 57.2548 52.8735 57.2746C52.8519 57.2829 52.8347 57.2923 52.8218 57.3018C51.8521 57.9785 50.8051 58.5916 49.6785 59.1411C49.6505 59.1548 49.6385 59.1877 49.6503 59.2166C49.8099 59.5878 50.0363 59.9277 50.3295 60.2372C51.263 61.2185 52.3467 61.9539 53.5806 62.4423C54.2519 62.7083 54.9471 62.8786 55.6663 62.9543C57.3371 63.13 58.9573 62.8407 60.5269 62.0883L60.5269 62.0873ZM62.4159 50.1408L61.9541 50.5321C61.2324 51.0799 60.441 51.4949 59.58 51.7772C59.5444 51.7886 59.5423 51.7833 59.5714 51.7611C60.4473 51.106 61.3951 50.5655 62.4159 50.1408ZM52.4811 55.1865C52.3704 54.6323 52.3878 54.1081 52.5322 53.6128C52.682 53.0993 52.9383 52.6242 53.3023 52.1851C53.7483 51.6466 54.2757 51.2612 54.8858 51.0289C55.4645 50.8092 56.0936 50.7402 56.775 50.824C57.8612 50.9562 58.7494 51.4682 59.4397 52.3589C59.7972 52.8214 60.0285 53.35 60.1316 53.9424C60.2283 54.4964 60.2033 55.0546 60.0566 55.616C59.7664 56.7261 59.071 57.5416 57.9725 58.0616C57.2017 58.4267 56.4219 58.5264 55.6351 58.3616C54.9366 58.2158 54.3042 57.8926 53.7379 57.3931C53.077 56.8096 52.6588 56.0737 52.4811 55.1865ZM50.754 60.1621C50.7465 60.1492 50.7508 60.1333 50.7659 60.1153C51.3793 59.3992 52.1183 58.7919 52.9842 58.2923C53.1146 58.2146 53.1459 58.2213 53.0789 58.3134C52.7226 58.6886 52.3514 59.0487 51.9661 59.3938C51.6176 59.7051 51.2315 59.9638 50.81 60.1679C50.7862 60.1794 50.7625 60.1771 50.754 60.1621Z" fill="#1A0906"/>
<path d="M57.0305 57.1775C57.148 57.1391 57.2622 57.0954 57.3732 57.0484C57.4843 57.0014 57.5921 56.9491 57.6967 56.8935C57.853 56.8097 58.0029 56.7161 58.1453 56.6129C58.3416 56.4708 58.5057 56.3081 58.6386 56.1249C58.7185 56.0148 58.7866 55.8971 58.8429 55.7707C59.0183 55.3822 59.0967 54.9896 59.0772 54.5908C59.0721 54.4916 59.0615 54.3913 59.0446 54.291C59.0361 54.2408 59.0265 54.1907 59.0148 54.1405C58.9572 53.8884 58.8609 53.635 58.7269 53.3801C58.6583 53.2495 58.5832 53.1262 58.5005 53.0104C58.3363 52.7798 58.1462 52.5798 57.928 52.4106C57.8194 52.3265 57.7044 52.2498 57.5818 52.1805C57.5237 52.1469 57.4635 52.1165 57.4043 52.0883C57.2839 52.0307 57.1612 51.9827 57.0353 51.9443C56.9094 51.9059 56.7803 51.876 56.649 51.8556C56.5833 51.8455 56.5165 51.8374 56.4498 51.8315C56.3152 51.8196 56.1785 51.8184 56.0374 51.8246C55.7854 51.8373 55.5473 51.8789 55.3221 51.9515C55.1421 52.0096 54.9707 52.0859 54.8079 52.1814C54.686 52.2528 54.5684 52.336 54.4552 52.4288C54.3052 52.5532 54.1627 52.6969 54.0299 52.8588C53.7091 53.2492 53.5154 53.6675 53.4497 54.1135C53.4202 54.3157 53.4164 54.5246 53.4396 54.738C53.4554 54.8809 53.4799 55.0208 53.5151 55.1575C53.5684 55.3615 53.6434 55.5562 53.742 55.7436C53.7742 55.8057 53.8095 55.8668 53.8471 55.9278C53.9222 56.049 54.0081 56.1659 54.1036 56.2786C54.2464 56.4473 54.4055 56.5979 54.5807 56.7295C54.7559 56.8611 54.9473 56.9747 55.1549 57.0703C55.2937 57.1334 55.4389 57.189 55.5917 57.2362C55.6929 57.2669 55.7951 57.2902 55.8974 57.306C56.2063 57.3525 56.5251 57.3287 56.8527 57.2346C56.913 57.217 56.9723 57.1994 57.0316 57.1797L57.0316 57.1776L57.0305 57.1775Z" fill="#1A0906"/>
</svg>
