<svg width="100%" height="67" viewBox="0 0 778 67" fill="none" xmlns="http://www.w3.org/2000/svg">
<g filter="url(#filter0_i_1168_2465)">
<path d="M13.1604 66V52.8396H19.7901V13.1604H13.1604V19.7901H0V0H52.8396V19.7901H39.6792V13.1604H33.0495V52.8396H39.6792V66H13.1604Z" fill="#29374C"/>
<path d="M62.2295 66V52.8396H68.8592V13.1604H62.2295V0H87.6598V13.1604H82.0196V26.3208H95.18V13.1604H89.5398V0H114.97V13.1604H108.34V52.8396H114.97V66H89.5398V52.8396H95.18V39.6792H82.0196V52.8396H87.6598V66H62.2295Z" fill="#29374C"/>
<path d="M124.579 66V52.8396H131.208V13.1604H124.579V0H170.789V19.7901H157.628V13.1604H144.468V26.3208H157.628V39.4813H144.468V52.6417H157.628V46.012H170.789V65.8021H124.579V66Z" fill="#29374C"/>
<path d="M233.038 66V52.8396H239.667V13.1604H233.038V19.7901H219.877V0H272.717V19.7901H259.556V13.1604H252.927V52.8396H259.556V66H233.137H233.038Z" fill="#29374C"/>
<path d="M282.107 66V52.8396H288.736V13.1604H282.107V0H317.729L328.317 10.5877V29.0915L324.359 33.0495L328.317 37.0075V52.8396H334.946V66H309.516V52.8396H315.156V39.6792H301.996V52.8396H307.636V66H282.206H282.107ZM301.897 26.4198H315.057V13.1604H301.897V26.3208V26.4198Z" fill="#29374C"/>
<path d="M344.341 0H369.771V13.1604H364.131V52.8396H377.291V13.1604H371.651V0H397.081V13.1604H390.452V55.5112L379.864 66.099H361.36L350.773 55.5112V13.1604H344.143V0H344.341Z" fill="#29374C"/>
<path d="M419.841 66V52.8396H426.471V13.1604H419.841V19.7901H406.681V0H459.52V19.7901H446.36V13.1604H439.73V52.8396H446.36V66H419.94H419.841Z" fill="#29374C"/>
<path d="M468.933 66V52.8396H475.563V13.1604H468.933V0H494.364V13.1604H488.723V26.3208H501.884V13.1604H496.244V0H521.674V13.1604H515.044V52.8396H521.674V66H496.244V52.8396H501.884V39.6792H488.723V52.8396H494.364V66H468.933Z" fill="#29374C"/>
<path d="M570.838 66V52.8396H577.468V13.1604H570.838V0H606.461L617.048 10.5877V29.0915L606.461 39.6792H590.628V52.8396H597.258V66H570.838ZM590.628 26.4198H603.789V13.1604H590.628V26.3208V26.4198Z" fill="#29374C"/>
<path d="M637.049 66L626.461 55.4123V10.5877L637.049 0H655.553L666.141 10.5877V55.5112L655.553 66.099H637.049V66ZM639.721 52.8396H652.881V13.1604H639.721V52.8396Z" fill="#29374C"/>
<path d="M675.531 46.2099H688.691V52.8396H701.852V39.6792H686.02L675.432 29.0915V10.5877L686.02 0H704.523L715.111 10.5877V19.7901H701.951V13.1604H688.79V26.3208H704.424L715.21 36.9085V55.4123L704.622 66H686.119L675.531 55.4123V46.2099Z" fill="#29374C"/>
<path d="M737.779 66V52.8396H744.409V13.1604H737.779V19.7901H724.619V0H777.458V19.7901H764.298V13.1604H757.668V52.8396H764.298V66H737.878H737.779Z" fill="#29374C"/>
</g>
<defs>
<filter id="filter0_i_1168_2465" x="0" y="0" width="781.458" height="70.099" filterUnits="userSpaceOnUse" color-interpolation-filters="sRGB">
<feFlood flood-opacity="0" result="BackgroundImageFix"/>
<feBlend mode="normal" in="SourceGraphic" in2="BackgroundImageFix" result="shape"/>
<feColorMatrix in="SourceAlpha" type="matrix" values="0 0 0 0 0 0 0 0 0 0 0 0 0 0 0 0 0 0 127 0" result="hardAlpha"/>
<feOffset dx="4" dy="4"/>
<feGaussianBlur stdDeviation="7.5"/>
<feComposite in2="hardAlpha" operator="arithmetic" k2="-1" k3="1"/>
<feColorMatrix type="matrix" values="0 0 0 0 0.0318809 0 0 0 0 0.0792469 0 0 0 0 0.150296 0 0 0 1 0"/>
<feBlend mode="normal" in2="shape" result="effect1_innerShadow_1168_2465"/>
</filter>
</defs>
</svg>

