<svg xmlns="http://www.w3.org/2000/svg" xmlns:xlink="http://www.w3.org/1999/xlink" width="481.25" height="68.078125" style="width:481.25px;height:68.078125px;font-family:Asana-Math, Asana;background:transparent;"><g><g><g><g><g></g></g><g><g><g><g transform="matrix(1,0,0,1,27.78125,41.515625)"><path transform="matrix(0.017,0,0,-0.017,0,0)" d="M125 390L69 107C68 99 56 61 56 31C56 6 67 -9 86 -9C121 -9 156 11 234 74L265 99L255 117L210 86C181 66 161 56 150 56C141 56 136 64 136 76C136 102 150 183 179 328L192 390L299 390L310 440C272 436 238 434 200 434C216 528 227 577 245 631L234 646C214 634 187 622 156 610L131 440C87 419 61 408 43 403L41 390ZM700 365C703 403 708 435 716 476C705 481 701 482 696 482C665 482 634 458 598 407C559 351 520 291 504 256L536 408C540 425 542 438 542 450C542 470 534 482 519 482C498 482 460 461 386 408L358 388L365 368L397 389C425 407 436 412 445 412C455 412 462 403 462 390C462 332 419 126 379 -2L389 -9C404 -4 420 -1 443 4L456 6L482 126C500 209 523 262 567 319C601 363 628 384 650 384C665 384 675 379 686 365ZM1212 473L1205 482L1137 465L1127 414C1112 336 1087 268 1056 221C997 130 919 59 879 59C871 59 866 68 866 85C866 99 868 112 873 137L930 408C933 424 935 438 935 451C935 470 926 482 912 482C892 482 854 461 780 408L752 388L759 368L791 389C819 407 830 412 839 412C848 412 856 403 856 392C856 388 855 378 854 374L791 77C789 68 787 44 787 30C787 7 802 -11 822 -11C885 -11 1006 101 1090 239L1053 97C1046 73 1042 46 1042 31C1042 6 1053 -9 1072 -9C1098 -9 1134 12 1232 85L1222 103L1196 86C1172 70 1146 59 1135 59C1127 59 1122 66 1122 76C1122 112 1197 416 1212 473ZM1306 148C1301 97 1295 62 1284 16C1322 -2 1356 -11 1391 -11C1440 -11 1486 7 1537 47C1588 87 1609 124 1609 174C1609 228 1577 257 1503 271L1460 279C1400 290 1381 307 1381 348C1381 401 1426 442 1483 442C1524 442 1562 424 1578 397L1578 342L1601 342C1605 377 1609 404 1620 455C1581 474 1553 482 1520 482C1468 482 1407 452 1359 404C1333 377 1322 352 1322 316C1322 260 1353 228 1419 215L1482 203C1526 195 1542 177 1542 138C1542 73 1496 29 1425 29C1390 29 1359 40 1331 64L1331 148ZM1788 390L1732 107C1731 99 1719 61 1719 31C1719 6 1730 -9 1749 -9C1784 -9 1819 11 1897 74L1928 99L1918 117L1873 86C1844 66 1824 56 1813 56C1804 56 1799 64 1799 76C1799 102 1813 183 1842 328L1855 390L1962 390L1973 440C1935 436 1901 434 1863 434C1879 528 1890 577 1908 631L1897 646C1877 634 1850 622 1819 610L1794 440C1750 419 1724 408 1706 403L1704 390ZM2103 471C2103 386 2141 339 2225 319L2320 296C2374 283 2401 248 2401 191C2401 96 2330 30 2227 30C2173 30 2135 42 2091 73L2091 172L2061 172C2055 117 2048 72 2037 20C2086 -5 2139 -18 2192 -18C2347 -18 2480 99 2480 234C2480 313 2437 355 2336 377L2271 391C2205 405 2175 442 2175 508C2175 595 2242 658 2334 658C2383 658 2416 645 2446 613L2446 537L2476 537C2480 591 2487 629 2501 672C2456 696 2416 706 2369 706C2245 706 2103 614 2103 471ZM2892 330L2915 330C2923 395 2930 432 2939 458C2915 473 2880 482 2843 482C2798 483 2725 463 2668 400C2614 352 2575 241 2575 136C2575 40 2617 -11 2697 -11C2751 -11 2799 9 2854 54L2904 95L2896 115L2881 105C2809 57 2771 40 2736 40C2680 40 2651 80 2651 159C2651 267 2686 371 2735 409C2756 425 2780 433 2811 433C2856 433 2892 414 2892 390ZM2973 152C2973 46 3018 -11 3101 -11C3156 -11 3216 15 3261 57C3323 116 3367 230 3367 331C3367 425 3317 482 3234 482C3130 482 2973 382 2973 152ZM3197 444C3258 444 3291 399 3291 315C3291 219 3260 113 3216 60C3198 39 3172 27 3141 27C3083 27 3049 72 3049 151C3049 264 3088 387 3137 427C3150 438 3173 444 3197 444ZM3767 365C3770 403 3775 435 3783 476C3772 481 3768 482 3763 482C3732 482 3701 458 3665 407C3626 351 3587 291 3571 256L3603 408C3607 425 3609 438 3609 450C3609 470 3601 482 3586 482C3565 482 3527 461 3453 408L3425 388L3432 368L3464 389C3492 407 3503 412 3512 412C3522 412 3529 403 3529 390C3529 332 3486 126 3446 -2L3456 -9C3471 -4 3487 -1 3510 4L3523 6L3549 126C3567 209 3590 262 3634 319C3668 363 3695 384 3717 384C3732 384 3742 379 3753 365ZM4115 111L4091 94C4038 56 3990 36 3954 36C3907 36 3878 73 3878 133C3878 158 3881 185 3886 214C3903 218 4012 248 4037 259C4122 296 4161 342 4161 404C4161 451 4127 482 4077 482C4009 496 3899 423 3862 349C3832 299 3802 180 3802 113C3802 35 3846 -11 3918 -11C3975 -11 4031 17 4123 92ZM3900 274C3917 343 3937 386 3966 412C3984 428 4015 440 4039 440C4068 440 4087 420 4087 388C4087 344 4052 297 4000 272C3972 258 3936 247 3891 237Z" stroke="rgb(35,27,27)" stroke-opacity="1" stroke-width="8" fill="rgb(35,27,27)" fill-opacity="1"></path></g></g><g><g transform="matrix(1,0,0,1,103.859375,41.515625)"><path transform="matrix(0.017,0,0,-0.017,0,0)" d="M604 347L604 406L65 406L65 347ZM604 134L604 193L65 193L65 134Z" stroke="rgb(35,27,27)" stroke-opacity="1" stroke-width="8" fill="rgb(35,27,27)" fill-opacity="1"></path></g></g><g><g><g><g><g transform="matrix(1,0,0,1,120.3125,16.5875)"><path transform="matrix(0.0119,0,0,-0.0119,0,0)" d="M125 390L69 107C68 99 56 61 56 31C56 6 67 -9 86 -9C121 -9 156 11 234 74L265 99L255 117L210 86C181 66 161 56 150 56C141 56 136 64 136 76C136 102 150 183 179 328L192 390L299 390L310 440C272 436 238 434 200 434C216 528 227 577 245 631L234 646C214 634 187 622 156 610L131 440C87 419 61 408 43 403L41 390ZM349 152C349 46 394 -11 477 -11C532 -11 592 15 637 57C699 116 743 230 743 331C743 425 693 482 610 482C506 482 349 382 349 152ZM573 444C634 444 667 399 667 315C667 219 636 113 592 60C574 39 548 27 517 27C459 27 425 72 425 151C425 264 464 387 513 427C526 438 549 444 573 444ZM900 390L844 107C843 99 831 61 831 31C831 6 842 -9 861 -9C896 -9 931 11 1009 74L1040 99L1030 117L985 86C956 66 936 56 925 56C916 56 911 64 911 76C911 102 925 183 954 328L967 390L1074 390L1085 440C1047 436 1013 434 975 434C991 528 1002 577 1020 631L1009 646C989 634 962 622 931 610L906 440C862 419 836 408 818 403L816 390ZM1378 204L1349 77C1345 60 1343 42 1343 26C1343 4 1352 -9 1367 -9C1390 -9 1431 17 1513 85L1506 106C1482 86 1453 59 1431 59C1422 59 1416 68 1416 82C1416 87 1416 90 1417 93L1509 472L1499 481L1466 463C1425 478 1408 482 1381 482C1353 482 1333 477 1306 464C1244 433 1211 403 1186 354C1142 265 1111 145 1111 67C1111 23 1126 -11 1145 -11C1182 -11 1262 41 1378 204ZM1426 414C1404 305 1385 253 1351 201C1294 117 1233 59 1201 59C1189 59 1183 72 1183 99C1183 163 1211 280 1246 360C1270 415 1293 433 1341 433C1364 433 1382 429 1426 414ZM1801 722L1789 733C1737 707 1701 698 1629 691L1625 670L1673 670C1697 670 1707 663 1707 648C1707 645 1707 640 1704 622C1693 567 1620 182 1605 132C1592 82 1586 52 1586 31C1586 6 1597 -9 1616 -9C1642 -9 1678 12 1776 85L1766 103L1740 86C1711 67 1689 56 1679 56C1672 56 1666 66 1666 76C1666 82 1667 89 1670 104ZM2409 103L2064 692L1902 692L1897 664L1932 662C1977 660 2011 615 2012 606L1919 102C1907 40 1901 32 1865 28L1834 25L1829 -3L1940 0C1952 0 1953 0 2050 -3L2055 25L2013 28C1973 31 1964 39 1964 72C1964 80 1965 91 1967 102L2047 566L2385 -11L2435 -11L2529 542C2550 655 2552 659 2589 662L2626 664L2629 691L2416 692L2411 664L2458 662C2484 661 2494 654 2494 638C2494 631 2411 116 2409 103ZM3096 473L3089 482L3021 465L3011 414C2996 336 2971 268 2940 221C2881 130 2803 59 2763 59C2755 59 2750 68 2750 85C2750 99 2752 112 2757 137L2814 408C2817 424 2819 438 2819 451C2819 470 2810 482 2796 482C2776 482 2738 461 2664 408L2636 388L2643 368L2675 389C2703 407 2714 412 2723 412C2732 412 2740 403 2740 392C2740 388 2739 378 2738 374L2675 77C2673 68 2671 44 2671 30C2671 7 2686 -11 2706 -11C2769 -11 2890 101 2974 239L2937 97C2930 73 2926 46 2926 31C2926 6 2937 -9 2956 -9C2982 -9 3018 12 3116 85L3106 103L3080 86C3056 70 3030 59 3019 59C3011 59 3006 66 3006 76C3006 112 3081 416 3096 473ZM3889 103L3863 86C3834 67 3812 56 3802 56C3795 56 3789 65 3789 76C3789 86 3791 95 3796 116L3871 413C3875 430 3878 446 3878 454C3878 471 3868 482 3852 482C3823 482 3785 464 3724 421C3661 376 3626 341 3577 272L3607 409C3611 429 3614 444 3614 451C3614 470 3604 482 3588 482C3558 482 3512 460 3457 418C3413 384 3393 363 3328 275L3361 408C3365 424 3367 439 3367 451C3367 470 3358 482 3344 482C3323 482 3285 461 3211 408L3183 388L3190 368C3227 391 3262 414 3269 414C3280 414 3287 404 3287 389C3287 338 3246 145 3205 2L3208 -9L3276 6L3298 108C3322 219 3349 278 3404 338C3446 384 3491 414 3519 414C3526 414 3530 406 3530 393C3530 358 3508 244 3467 69L3451 2L3456 -9L3525 6L3546 113C3562 194 3596 269 3640 318C3695 379 3745 414 3777 414C3785 414 3790 405 3790 389C3790 365 3787 351 3765 264C3725 105 3709 84 3709 31C3709 6 3720 -9 3739 -9C3765 -9 3801 12 3899 85ZM4171 722L4159 733C4107 707 4071 698 3999 691L3995 670L4043 670C4067 670 4077 663 4077 646C4077 639 4076 628 4075 622L3974 71C3973 68 3973 64 3973 61C3973 22 4021 -11 4076 -11C4113 -11 4164 8 4207 39C4303 107 4369 244 4369 376C4369 414 4360 453 4348 468C4341 477 4328 482 4313 482C4289 482 4259 474 4231 460C4180 433 4147 403 4085 324ZM4258 424C4284 424 4297 401 4297 352C4297 288 4276 202 4246 137C4213 68 4173 36 4119 36C4073 36 4048 59 4048 101C4048 135 4063 276 4144 361C4177 395 4229 424 4258 424ZM4726 111L4702 94C4649 56 4601 36 4565 36C4518 36 4489 73 4489 133C4489 158 4492 185 4497 214C4514 218 4623 248 4648 259C4733 296 4772 342 4772 404C4772 451 4738 482 4688 482C4620 496 4510 423 4473 349C4443 299 4413 180 4413 113C4413 35 4457 -11 4529 -11C4586 -11 4642 17 4734 92ZM4511 274C4528 343 4548 386 4577 412C4595 428 4626 440 4650 440C4679 440 4698 420 4698 388C4698 344 4663 297 4611 272C4583 258 4547 247 4502 237ZM5154 365C5157 403 5162 435 5170 476C5159 481 5155 482 5150 482C5119 482 5088 458 5052 407C5013 351 4974 291 4958 256L4990 408C4994 425 4996 438 4996 450C4996 470 4988 482 4973 482C4952 482 4914 461 4840 408L4812 388L4819 368L4851 389C4879 407 4890 412 4899 412C4909 412 4916 403 4916 390C4916 332 4873 126 4833 -2L4843 -9C4858 -4 4874 -1 4897 4L4910 6L4936 126C4954 209 4977 262 5021 319C5055 363 5082 384 5104 384C5119 384 5129 379 5140 365ZM5922 425C5922 603 5818 706 5638 706C5401 706 5227 523 5227 272C5227 83 5321 -18 5497 -18C5769 -18 5922 207 5922 425ZM5834 409C5834 221 5745 24 5534 24C5390 24 5315 110 5315 277C5315 425 5373 664 5607 664C5723 664 5834 610 5834 409ZM6296 437L6280 437L6301 549C6317 635 6345 673 6391 673C6421 673 6448 658 6463 634L6473 638C6478 654 6488 685 6496 705L6501 720C6485 727 6454 733 6431 733C6420 733 6404 730 6396 726C6372 715 6290 654 6267 630C6245 608 6233 578 6222 521L6207 442C6166 422 6146 414 6121 405L6116 383L6197 383L6188 327C6158 132 6121 -54 6099 -123C6081 -182 6051 -213 6015 -213C5992 -213 5981 -206 5963 -184L5949 -188C5945 -211 5931 -259 5926 -268C5935 -273 5950 -276 5961 -276C6002 -276 6056 -245 6095 -198C6166 -114 6186 -18 6270 383L6374 383C6378 402 6385 425 6391 439L6387 446C6358 439 6359 437 6296 437ZM6604 664L6651 662C6675 661 6686 653 6686 636C6686 629 6680 576 6677 559L6605 125C6590 36 6587 31 6547 28L6511 25L6508 -3L6540 -3L6634 0L6728 -3L6760 -3L6763 25L6711 28C6685 30 6675 37 6675 57C6675 63 6676 74 6677 78L6766 613C6773 652 6778 657 6817 661L6852 664L6855 692L6749 689C6732 689 6714 689 6671 690L6607 692ZM6857 388L6864 368L6896 389C6933 412 6936 414 6943 414C6954 414 6961 404 6961 389C6961 338 6920 145 6879 2L6886 -9C6911 -2 6934 4 6956 8C6975 134 6996 199 7042 268C7096 352 7171 414 7216 414C7227 414 7233 405 7233 390C7233 372 7230 351 7222 319L7170 107C7161 70 7157 47 7157 31C7157 6 7168 -9 7187 -9C7213 -9 7249 12 7347 85L7337 103L7311 86C7282 67 7260 56 7250 56C7243 56 7237 65 7237 76C7237 81 7238 92 7239 96L7305 372C7312 401 7316 429 7316 446C7316 469 7305 482 7285 482C7243 482 7174 444 7115 389C7077 354 7049 320 6997 247L7035 408C7039 426 7041 438 7041 449C7041 470 7033 482 7018 482C6997 482 6958 460 6885 408ZM7513 390L7457 107C7456 99 7444 61 7444 31C7444 6 7455 -9 7474 -9C7509 -9 7544 11 7622 74L7653 99L7643 117L7598 86C7569 66 7549 56 7538 56C7529 56 7524 64 7524 76C7524 102 7538 183 7567 328L7580 390L7687 390L7698 440C7660 436 7626 434 7588 434C7604 528 7615 577 7633 631L7622 646C7602 634 7575 622 7544 610L7519 440C7475 419 7449 408 7431 403L7429 390ZM8048 111L8024 94C7971 56 7923 36 7887 36C7840 36 7811 73 7811 133C7811 158 7814 185 7819 214C7836 218 7945 248 7970 259C8055 296 8094 342 8094 404C8094 451 8060 482 8010 482C7942 496 7832 423 7795 349C7765 299 7735 180 7735 113C7735 35 7779 -11 7851 -11C7908 -11 7964 17 8056 92ZM7833 274C7850 343 7870 386 7899 412C7917 428 7948 440 7972 440C8001 440 8020 420 8020 388C8020 344 7985 297 7933 272C7905 258 7869 247 7824 237ZM8476 365C8479 403 8484 435 8492 476C8481 481 8477 482 8472 482C8441 482 8410 458 8374 407C8335 351 8296 291 8280 256L8312 408C8316 425 8318 438 8318 450C8318 470 8310 482 8295 482C8274 482 8236 461 8162 408L8134 388L8141 368L8173 389C8201 407 8212 412 8221 412C8231 412 8238 403 8238 390C8238 332 8195 126 8155 -2L8165 -9C8180 -4 8196 -1 8219 4L8232 6L8258 126C8276 209 8299 262 8343 319C8377 363 8404 384 8426 384C8441 384 8451 379 8462 365ZM8662 420C8683 420 8699 421 8725 424C8614 304 8572 221 8572 121C8572 44 8618 -11 8682 -11C8820 -11 8973 236 8973 384C8973 441 8947 482 8911 482C8898 482 8886 478 8878 470L8828 423L8839 404C8848 410 8857 413 8866 413C8893 413 8909 390 8909 350C8909 202 8812 39 8724 39C8675 39 8644 81 8644 146C8644 251 8683 342 8781 464L8771 482C8751 473 8738 470 8710 470C8682 470 8640 472 8611 475L8599 476C8593 477 8588 477 8587 477C8575 477 8566 475 8555 470C8541 443 8530 407 8517 352L8539 352L8556 394C8563 411 8583 422 8607 422C8640 422 8624 420 8662 420ZM9266 204L9237 77C9233 60 9231 42 9231 26C9231 4 9240 -9 9255 -9C9278 -9 9319 17 9401 85L9394 106C9370 86 9341 59 9319 59C9310 59 9304 68 9304 82C9304 87 9304 90 9305 93L9397 472L9387 481L9354 463C9313 478 9296 482 9269 482C9241 482 9221 477 9194 464C9132 433 9099 403 9074 354C9030 265 8999 145 8999 67C8999 23 9014 -11 9033 -11C9070 -11 9150 41 9266 204ZM9314 414C9292 305 9273 253 9239 201C9182 117 9121 59 9089 59C9077 59 9071 72 9071 99C9071 163 9099 280 9134 360C9158 415 9181 433 9229 433C9252 433 9270 429 9314 414ZM9689 722L9677 733C9625 707 9589 698 9517 691L9513 670L9561 670C9585 670 9595 663 9595 648C9595 645 9595 640 9592 622C9581 567 9508 182 9493 132C9480 82 9474 52 9474 31C9474 6 9485 -9 9504 -9C9530 -9 9566 12 9664 85L9654 103L9628 86C9599 67 9577 56 9567 56C9560 56 9554 66 9554 76C9554 82 9555 89 9558 104ZM9746 148C9741 97 9735 62 9724 16C9762 -2 9796 -11 9831 -11C9880 -11 9926 7 9977 47C10028 87 10049 124 10049 174C10049 228 10017 257 9943 271L9900 279C9840 290 9821 307 9821 348C9821 401 9866 442 9923 442C9964 442 10002 424 10018 397L10018 342L10041 342C10045 377 10049 404 10060 455C10021 474 9993 482 9960 482C9908 482 9847 452 9799 404C9773 377 9762 352 9762 316C9762 260 9793 228 9859 215L9922 203C9966 195 9982 177 9982 138C9982 73 9936 29 9865 29C9830 29 9799 40 9771 64L9771 148Z" stroke="rgb(35,27,27)" stroke-opacity="1" stroke-width="8" fill="rgb(35,27,27)" fill-opacity="1"></path></g></g></g></g><g><g><g><g transform="matrix(1,0,0,1,151.6875,61.009375)"><path transform="matrix(0.0119,0,0,-0.0119,0,0)" d="M34 388L41 368L73 389C110 412 113 414 120 414C130 414 138 404 138 391C138 384 134 361 130 347L64 107C56 76 51 49 51 30C51 6 62 -9 81 -9C107 -9 143 12 241 85L231 103L205 86C176 67 153 56 144 56C137 56 131 66 131 76C131 86 133 95 138 116L215 420C219 437 221 448 221 456C221 473 212 482 196 482C174 482 137 461 62 408ZM228 712C199 712 170 679 170 645C170 620 185 604 209 604C240 604 264 633 264 671C264 695 249 712 228 712ZM301 388L308 368L340 389C377 412 380 414 387 414C398 414 405 404 405 389C405 338 364 145 323 2L330 -9C355 -2 378 4 400 8C419 134 440 199 486 268C540 352 615 414 660 414C671 414 677 405 677 390C677 372 674 351 666 319L614 107C605 70 601 47 601 31C601 6 612 -9 631 -9C657 -9 693 12 791 85L781 103L755 86C726 67 704 56 694 56C687 56 681 65 681 76C681 81 682 92 683 96L749 372C756 401 760 429 760 446C760 469 749 482 729 482C687 482 618 444 559 389C521 354 493 320 441 247L479 408C483 426 485 438 485 449C485 470 477 482 462 482C441 482 402 460 329 408ZM957 390L901 107C900 99 888 61 888 31C888 6 899 -9 918 -9C953 -9 988 11 1066 74L1097 99L1087 117L1042 86C1013 66 993 56 982 56C973 56 968 64 968 76C968 102 982 183 1011 328L1024 390L1131 390L1142 440C1104 436 1070 434 1032 434C1048 528 1059 577 1077 631L1066 646C1046 634 1019 622 988 610L963 440C919 419 893 408 875 403L873 390ZM1492 111L1468 94C1415 56 1367 36 1331 36C1284 36 1255 73 1255 133C1255 158 1258 185 1263 214C1280 218 1389 248 1414 259C1499 296 1538 342 1538 404C1538 451 1504 482 1454 482C1386 496 1276 423 1239 349C1209 299 1179 180 1179 113C1179 35 1223 -11 1295 -11C1352 -11 1408 17 1500 92ZM1277 274C1294 343 1314 386 1343 412C1361 428 1392 440 1416 440C1445 440 1464 420 1464 388C1464 344 1429 297 1377 272C1349 258 1313 247 1268 237ZM1920 365C1923 403 1928 435 1936 476C1925 481 1921 482 1916 482C1885 482 1854 458 1818 407C1779 351 1740 291 1724 256L1756 408C1760 425 1762 438 1762 450C1762 470 1754 482 1739 482C1718 482 1680 461 1606 408L1578 388L1585 368L1617 389C1645 407 1656 412 1665 412C1675 412 1682 403 1682 390C1682 332 1639 126 1599 -2L1609 -9C1624 -4 1640 -1 1663 4L1676 6L1702 126C1720 209 1743 262 1787 319C1821 363 1848 384 1870 384C1885 384 1895 379 1906 365ZM2106 420C2127 420 2143 421 2169 424C2058 304 2016 221 2016 121C2016 44 2062 -11 2126 -11C2264 -11 2417 236 2417 384C2417 441 2391 482 2355 482C2342 482 2330 478 2322 470L2272 423L2283 404C2292 410 2301 413 2310 413C2337 413 2353 390 2353 350C2353 202 2256 39 2168 39C2119 39 2088 81 2088 146C2088 251 2127 342 2225 464L2215 482C2195 473 2182 470 2154 470C2126 470 2084 472 2055 475L2043 476C2037 477 2032 477 2031 477C2019 477 2010 475 1999 470C1985 443 1974 407 1961 352L1983 352L2000 394C2007 411 2027 422 2051 422C2084 422 2068 420 2106 420ZM2710 204L2681 77C2677 60 2675 42 2675 26C2675 4 2684 -9 2699 -9C2722 -9 2763 17 2845 85L2838 106C2814 86 2785 59 2763 59C2754 59 2748 68 2748 82C2748 87 2748 90 2749 93L2841 472L2831 481L2798 463C2757 478 2740 482 2713 482C2685 482 2665 477 2638 464C2576 433 2543 403 2518 354C2474 265 2443 145 2443 67C2443 23 2458 -11 2477 -11C2514 -11 2594 41 2710 204ZM2758 414C2736 305 2717 253 2683 201C2626 117 2565 59 2533 59C2521 59 2515 72 2515 99C2515 163 2543 280 2578 360C2602 415 2625 433 2673 433C2696 433 2714 429 2758 414ZM3133 722L3121 733C3069 707 3033 698 2961 691L2957 670L3005 670C3029 670 3039 663 3039 648C3039 645 3039 640 3036 622C3025 567 2952 182 2937 132C2924 82 2918 52 2918 31C2918 6 2929 -9 2948 -9C2974 -9 3010 12 3108 85L3098 103L3072 86C3043 67 3021 56 3011 56C3004 56 2998 66 2998 76C2998 82 2999 89 3002 104ZM4012 347L4012 406L3473 406L3473 347ZM4012 134L4012 193L3473 193L3473 134ZM4743 -3L4743 27L4691 30C4636 33 4626 44 4626 96L4626 700L4385 598L4392 548L4542 614L4542 96C4542 44 4531 33 4477 30L4421 27L4421 -3C4575 0 4575 0 4586 0C4617 0 4727 -3 4743 -3Z" stroke="rgb(35,27,27)" stroke-opacity="1" stroke-width="8" fill="rgb(35,27,27)" fill-opacity="1"></path></g></g></g></g><g><g transform="matrix(1,0,0,1,169.53125,38.868750000000006)"><path transform="matrix(0.0255,0,0,-0.0255,0,0)" d="M788 13L772 -310L62 -310L420 133L66 620L754 620L768 346L732 346C718 428 694 486 662 522C626 559 572 578 498 578L246 578L524 194L214 -205L512 -205C592 -205 648 -190 680 -162C714 -132 734 -74 746 13Z" stroke="rgb(35,27,27)" stroke-opacity="1" stroke-width="8" fill="rgb(35,27,27)" fill-opacity="1"></path></g></g></g><g><g transform="matrix(1,0,0,1,243,41.515625)"><path transform="matrix(0.017,0,0,-0.017,0,0)" d="M235 722L223 733C171 707 135 698 63 691L59 670L107 670C131 670 141 663 141 646C141 639 140 628 139 622L38 71C37 68 37 64 37 61C37 22 85 -11 140 -11C177 -11 228 8 271 39C367 107 433 244 433 376C433 414 424 453 412 468C405 477 392 482 377 482C353 482 323 474 295 460C244 433 211 403 149 324ZM322 424C348 424 361 401 361 352C361 288 340 202 310 137C277 68 237 36 183 36C137 36 112 59 112 101C112 135 127 276 208 361C241 395 293 424 322 424ZM479 152C479 46 524 -11 607 -11C662 -11 722 15 767 57C829 116 873 230 873 331C873 425 823 482 740 482C636 482 479 382 479 152ZM703 444C764 444 797 399 797 315C797 219 766 113 722 60C704 39 678 27 647 27C589 27 555 72 555 151C555 264 594 387 643 427C656 438 679 444 703 444ZM1397 473L1390 482L1322 465L1312 414C1297 336 1272 268 1241 221C1182 130 1104 59 1064 59C1056 59 1051 68 1051 85C1051 99 1053 112 1058 137L1115 408C1118 424 1120 438 1120 451C1120 470 1111 482 1097 482C1077 482 1039 461 965 408L937 388L944 368L976 389C1004 407 1015 412 1024 412C1033 412 1041 403 1041 392C1041 388 1040 378 1039 374L976 77C974 68 972 44 972 30C972 7 987 -11 1007 -11C1070 -11 1191 101 1275 239L1238 97C1231 73 1227 46 1227 31C1227 6 1238 -9 1257 -9C1283 -9 1319 12 1417 85L1407 103L1381 86C1357 70 1331 59 1320 59C1312 59 1307 66 1307 76C1307 112 1382 416 1397 473ZM1484 388L1491 368L1523 389C1560 412 1563 414 1570 414C1581 414 1588 404 1588 389C1588 338 1547 145 1506 2L1513 -9C1538 -2 1561 4 1583 8C1602 134 1623 199 1669 268C1723 352 1798 414 1843 414C1854 414 1860 405 1860 390C1860 372 1857 351 1849 319L1797 107C1788 70 1784 47 1784 31C1784 6 1795 -9 1814 -9C1840 -9 1876 12 1974 85L1964 103L1938 86C1909 67 1887 56 1877 56C1870 56 1864 65 1864 76C1864 81 1865 92 1866 96L1932 372C1939 401 1943 429 1943 446C1943 469 1932 482 1912 482C1870 482 1801 444 1742 389C1704 354 1676 320 1624 247L1662 408C1666 426 1668 438 1668 449C1668 470 1660 482 1645 482C1624 482 1585 460 1512 408ZM2140 390L2084 107C2083 99 2071 61 2071 31C2071 6 2082 -9 2101 -9C2136 -9 2171 11 2249 74L2280 99L2270 117L2225 86C2196 66 2176 56 2165 56C2156 56 2151 64 2151 76C2151 102 2165 183 2194 328L2207 390L2314 390L2325 440C2287 436 2253 434 2215 434C2231 528 2242 577 2260 631L2249 646C2229 634 2202 622 2171 610L2146 440C2102 419 2076 408 2058 403L2056 390ZM2340 -180C2339 -187 2339 -193 2339 -198C2339 -241 2376 -276 2421 -276C2527 -276 2637 -152 2696 33L2837 473L2826 482C2797 471 2774 465 2752 463L2717 331C2705 284 2670 211 2637 162C2602 111 2553 67 2531 67C2519 67 2510 90 2511 115L2527 322C2529 353 2531 391 2531 419C2531 464 2524 482 2507 482C2494 482 2480 475 2432 442L2350 386L2361 368L2411 398C2416 401 2427 410 2436 410C2450 410 2458 391 2458 358C2458 357 2458 351 2457 343L2440 100L2439 60C2439 18 2457 -11 2482 -11C2519 -11 2603 74 2678 187L2629 16C2578 -161 2528 -234 2458 -234C2423 -234 2396 -207 2396 -172C2396 -167 2397 -159 2398 -150L2388 -146Z" stroke="rgb(35,27,27)" stroke-opacity="1" stroke-width="8" fill="rgb(35,27,27)" fill-opacity="1"></path></g></g><g><g><g><g><g transform="matrix(1,0,0,1,291.890625,44.525)"><path transform="matrix(0.0119,0,0,-0.0119,0,0)" d="M34 388L41 368L73 389C110 412 113 414 120 414C130 414 138 404 138 391C138 384 134 361 130 347L64 107C56 76 51 49 51 30C51 6 62 -9 81 -9C107 -9 143 12 241 85L231 103L205 86C176 67 153 56 144 56C137 56 131 66 131 76C131 86 133 95 138 116L215 420C219 437 221 448 221 456C221 473 212 482 196 482C174 482 137 461 62 408ZM228 712C199 712 170 679 170 645C170 620 185 604 209 604C240 604 264 633 264 671C264 695 249 712 228 712ZM301 388L308 368L340 389C377 412 380 414 387 414C398 414 405 404 405 389C405 338 364 145 323 2L330 -9C355 -2 378 4 400 8C419 134 440 199 486 268C540 352 615 414 660 414C671 414 677 405 677 390C677 372 674 351 666 319L614 107C605 70 601 47 601 31C601 6 612 -9 631 -9C657 -9 693 12 791 85L781 103L755 86C726 67 704 56 694 56C687 56 681 65 681 76C681 81 682 92 683 96L749 372C756 401 760 429 760 446C760 469 749 482 729 482C687 482 618 444 559 389C521 354 493 320 441 247L479 408C483 426 485 438 485 449C485 470 477 482 462 482C441 482 402 460 329 408ZM957 390L901 107C900 99 888 61 888 31C888 6 899 -9 918 -9C953 -9 988 11 1066 74L1097 99L1087 117L1042 86C1013 66 993 56 982 56C973 56 968 64 968 76C968 102 982 183 1011 328L1024 390L1131 390L1142 440C1104 436 1070 434 1032 434C1048 528 1059 577 1077 631L1066 646C1046 634 1019 622 988 610L963 440C919 419 893 408 875 403L873 390ZM1492 111L1468 94C1415 56 1367 36 1331 36C1284 36 1255 73 1255 133C1255 158 1258 185 1263 214C1280 218 1389 248 1414 259C1499 296 1538 342 1538 404C1538 451 1504 482 1454 482C1386 496 1276 423 1239 349C1209 299 1179 180 1179 113C1179 35 1223 -11 1295 -11C1352 -11 1408 17 1500 92ZM1277 274C1294 343 1314 386 1343 412C1361 428 1392 440 1416 440C1445 440 1464 420 1464 388C1464 344 1429 297 1377 272C1349 258 1313 247 1268 237ZM1920 365C1923 403 1928 435 1936 476C1925 481 1921 482 1916 482C1885 482 1854 458 1818 407C1779 351 1740 291 1724 256L1756 408C1760 425 1762 438 1762 450C1762 470 1754 482 1739 482C1718 482 1680 461 1606 408L1578 388L1585 368L1617 389C1645 407 1656 412 1665 412C1675 412 1682 403 1682 390C1682 332 1639 126 1599 -2L1609 -9C1624 -4 1640 -1 1663 4L1676 6L1702 126C1720 209 1743 262 1787 319C1821 363 1848 384 1870 384C1885 384 1895 379 1906 365ZM2106 420C2127 420 2143 421 2169 424C2058 304 2016 221 2016 121C2016 44 2062 -11 2126 -11C2264 -11 2417 236 2417 384C2417 441 2391 482 2355 482C2342 482 2330 478 2322 470L2272 423L2283 404C2292 410 2301 413 2310 413C2337 413 2353 390 2353 350C2353 202 2256 39 2168 39C2119 39 2088 81 2088 146C2088 251 2127 342 2225 464L2215 482C2195 473 2182 470 2154 470C2126 470 2084 472 2055 475L2043 476C2037 477 2032 477 2031 477C2019 477 2010 475 1999 470C1985 443 1974 407 1961 352L1983 352L2000 394C2007 411 2027 422 2051 422C2084 422 2068 420 2106 420ZM2710 204L2681 77C2677 60 2675 42 2675 26C2675 4 2684 -9 2699 -9C2722 -9 2763 17 2845 85L2838 106C2814 86 2785 59 2763 59C2754 59 2748 68 2748 82C2748 87 2748 90 2749 93L2841 472L2831 481L2798 463C2757 478 2740 482 2713 482C2685 482 2665 477 2638 464C2576 433 2543 403 2518 354C2474 265 2443 145 2443 67C2443 23 2458 -11 2477 -11C2514 -11 2594 41 2710 204ZM2758 414C2736 305 2717 253 2683 201C2626 117 2565 59 2533 59C2521 59 2515 72 2515 99C2515 163 2543 280 2578 360C2602 415 2625 433 2673 433C2696 433 2714 429 2758 414ZM3133 722L3121 733C3069 707 3033 698 2961 691L2957 670L3005 670C3029 670 3039 663 3039 648C3039 645 3039 640 3036 622C3025 567 2952 182 2937 132C2924 82 2918 52 2918 31C2918 6 2929 -9 2948 -9C2974 -9 3010 12 3108 85L3098 103L3072 86C3043 67 3021 56 3011 56C3004 56 2998 66 2998 76C2998 82 2999 89 3002 104Z" stroke="rgb(35,27,27)" stroke-opacity="1" stroke-width="8" fill="rgb(35,27,27)" fill-opacity="1"></path></g></g></g></g></g><g><g transform="matrix(1,0,0,1,330.484375,41.515625)"><path transform="matrix(0.017,0,0,-0.017,0,0)" d="M328 111L304 94C251 56 203 36 167 36C120 36 91 73 91 133C91 158 94 185 99 214C116 218 225 248 250 259C335 296 374 342 374 404C374 451 340 482 290 482C222 496 112 423 75 349C45 299 15 180 15 113C15 35 59 -11 131 -11C188 -11 244 17 336 92ZM113 274C130 343 150 386 179 412C197 428 228 440 252 440C281 440 300 420 300 388C300 344 265 297 213 272C185 258 149 247 104 237ZM639 722L627 733C575 707 539 698 467 691L463 670L511 670C535 670 545 663 545 648C545 645 545 640 542 622C531 567 458 182 443 132C430 82 424 52 424 31C424 6 435 -9 454 -9C480 -9 516 12 614 85L604 103L578 86C549 67 527 56 517 56C510 56 504 66 504 76C504 82 505 89 508 104ZM936 204L907 77C903 60 901 42 901 26C901 4 910 -9 925 -9C948 -9 989 17 1071 85L1064 106C1040 86 1011 59 989 59C980 59 974 68 974 82C974 87 974 90 975 93L1067 472L1057 481L1024 463C983 478 966 482 939 482C911 482 891 477 864 464C802 433 769 403 744 354C700 265 669 145 669 67C669 23 684 -11 703 -11C740 -11 820 41 936 204ZM984 414C962 305 943 253 909 201C852 117 791 59 759 59C747 59 741 72 741 99C741 163 769 280 804 360C828 415 851 433 899 433C922 433 940 429 984 414ZM1284 -11C1340 -11 1455 62 1498 125C1539 186 1573 296 1573 371C1573 438 1550 482 1514 482C1472 482 1419 456 1367 409C1326 374 1306 348 1270 289L1294 408C1297 425 1299 440 1299 452C1299 471 1291 482 1277 482C1256 482 1218 461 1144 408L1116 388L1123 368L1155 389C1183 407 1194 412 1203 412C1213 412 1220 403 1220 389C1220 381 1218 361 1216 351L1158 8C1148 -52 1129 -143 1109 -233L1101 -270L1108 -276C1129 -269 1149 -264 1181 -259L1223 3C1244 -4 1266 -11 1284 -11ZM1251 165C1273 293 1380 424 1463 424C1489 424 1501 402 1501 356C1501 275 1461 156 1408 80C1388 51 1356 36 1315 36C1284 36 1259 43 1233 59ZM1638 148C1633 97 1627 62 1616 16C1654 -2 1688 -11 1723 -11C1772 -11 1818 7 1869 47C1920 87 1941 124 1941 174C1941 228 1909 257 1835 271L1792 279C1732 290 1713 307 1713 348C1713 401 1758 442 1815 442C1856 442 1894 424 1910 397L1910 342L1933 342C1937 377 1941 404 1952 455C1913 474 1885 482 1852 482C1800 482 1739 452 1691 404C1665 377 1654 352 1654 316C1654 260 1685 228 1751 215L1814 203C1858 195 1874 177 1874 138C1874 73 1828 29 1757 29C1722 29 1691 40 1663 64L1663 148ZM2323 111L2299 94C2246 56 2198 36 2162 36C2115 36 2086 73 2086 133C2086 158 2089 185 2094 214C2111 218 2220 248 2245 259C2330 296 2369 342 2369 404C2369 451 2335 482 2285 482C2217 496 2107 423 2070 349C2040 299 2010 180 2010 113C2010 35 2054 -11 2126 -11C2183 -11 2239 17 2331 92ZM2108 274C2125 343 2145 386 2174 412C2192 428 2223 440 2247 440C2276 440 2295 420 2295 388C2295 344 2260 297 2208 272C2180 258 2144 247 2099 237ZM2866 722L2854 733C2802 707 2766 698 2694 691L2690 670L2738 670C2762 670 2772 663 2772 646C2772 638 2771 629 2770 622L2742 468C2712 477 2685 482 2660 482C2591 482 2497 410 2451 323C2420 265 2400 170 2400 86C2400 21 2415 -11 2444 -11C2471 -11 2508 6 2542 33C2596 77 2629 116 2696 217L2673 126C2662 82 2657 50 2657 24C2657 3 2666 -9 2683 -9C2700 -9 2724 3 2758 28L2839 88L2829 107L2785 76C2771 66 2755 59 2746 59C2738 59 2732 68 2732 82C2732 90 2733 99 2740 128ZM2497 59C2481 59 2472 73 2472 98C2472 224 2518 380 2567 418C2580 428 2599 433 2626 433C2670 433 2699 427 2732 410L2720 351C2683 171 2542 59 2497 59ZM3272 646L3345 646C3423 646 3459 641 3462 629C3465 621 3467 602 3466 592L3462 528L3490 528L3517 692L3426 691C3338 690 3270 689 3235 689C3198 689 3134 690 3048 691L2953 692L2935 528L2964 528L2979 588C2984 610 2991 626 2997 633C3003 640 3041 646 3078 646L3190 646L3104 125C3088 34 3086 31 3046 28L2995 25L2991 -3L3048 -2C3088 -1 3117 0 3133 0C3152 0 3183 -1 3222 -2L3266 -3L3269 25L3210 28C3184 29 3174 37 3174 58C3174 67 3175 74 3178 93ZM3526 388L3533 368L3565 389C3602 412 3605 414 3612 414C3622 414 3630 404 3630 391C3630 384 3626 361 3622 347L3556 107C3548 76 3543 49 3543 30C3543 6 3554 -9 3573 -9C3599 -9 3635 12 3733 85L3723 103L3697 86C3668 67 3645 56 3636 56C3629 56 3623 66 3623 76C3623 86 3625 95 3630 116L3707 420C3711 437 3713 448 3713 456C3713 473 3704 482 3688 482C3666 482 3629 461 3554 408ZM3720 712C3691 712 3662 679 3662 645C3662 620 3677 604 3701 604C3732 604 3756 633 3756 671C3756 695 3741 712 3720 712ZM4499 103L4473 86C4444 67 4422 56 4412 56C4405 56 4399 65 4399 76C4399 86 4401 95 4406 116L4481 413C4485 430 4488 446 4488 454C4488 471 4478 482 4462 482C4433 482 4395 464 4334 421C4271 376 4236 341 4187 272L4217 409C4221 429 4224 444 4224 451C4224 470 4214 482 4198 482C4168 482 4122 460 4067 418C4023 384 4003 363 3938 275L3971 408C3975 424 3977 439 3977 451C3977 470 3968 482 3954 482C3933 482 3895 461 3821 408L3793 388L3800 368C3837 391 3872 414 3879 414C3890 414 3897 404 3897 389C3897 338 3856 145 3815 2L3818 -9L3886 6L3908 108C3932 219 3959 278 4014 338C4056 384 4101 414 4129 414C4136 414 4140 406 4140 393C4140 358 4118 244 4077 69L4061 2L4066 -9L4135 6L4156 113C4172 194 4206 269 4250 318C4305 379 4355 414 4387 414C4395 414 4400 405 4400 389C4400 365 4397 351 4375 264C4335 105 4319 84 4319 31C4319 6 4330 -9 4349 -9C4375 -9 4411 12 4509 85ZM4874 111L4850 94C4797 56 4749 36 4713 36C4666 36 4637 73 4637 133C4637 158 4640 185 4645 214C4662 218 4771 248 4796 259C4881 296 4920 342 4920 404C4920 451 4886 482 4836 482C4768 496 4658 423 4621 349C4591 299 4561 180 4561 113C4561 35 4605 -11 4677 -11C4734 -11 4790 17 4882 92ZM4659 274C4676 343 4696 386 4725 412C4743 428 4774 440 4798 440C4827 440 4846 420 4846 388C4846 344 4811 297 4759 272C4731 258 4695 247 4650 237Z" stroke="rgb(35,27,27)" stroke-opacity="1" stroke-width="8" fill="rgb(35,27,27)" fill-opacity="1"></path></g></g><g><g><g><g><g transform="matrix(1,0,0,1,414.875,44.525)"><path transform="matrix(0.0119,0,0,-0.0119,0,0)" d="M34 388L41 368L73 389C110 412 113 414 120 414C130 414 138 404 138 391C138 384 134 361 130 347L64 107C56 76 51 49 51 30C51 6 62 -9 81 -9C107 -9 143 12 241 85L231 103L205 86C176 67 153 56 144 56C137 56 131 66 131 76C131 86 133 95 138 116L215 420C219 437 221 448 221 456C221 473 212 482 196 482C174 482 137 461 62 408ZM228 712C199 712 170 679 170 645C170 620 185 604 209 604C240 604 264 633 264 671C264 695 249 712 228 712ZM301 388L308 368L340 389C377 412 380 414 387 414C398 414 405 404 405 389C405 338 364 145 323 2L330 -9C355 -2 378 4 400 8C419 134 440 199 486 268C540 352 615 414 660 414C671 414 677 405 677 390C677 372 674 351 666 319L614 107C605 70 601 47 601 31C601 6 612 -9 631 -9C657 -9 693 12 791 85L781 103L755 86C726 67 704 56 694 56C687 56 681 65 681 76C681 81 682 92 683 96L749 372C756 401 760 429 760 446C760 469 749 482 729 482C687 482 618 444 559 389C521 354 493 320 441 247L479 408C483 426 485 438 485 449C485 470 477 482 462 482C441 482 402 460 329 408ZM957 390L901 107C900 99 888 61 888 31C888 6 899 -9 918 -9C953 -9 988 11 1066 74L1097 99L1087 117L1042 86C1013 66 993 56 982 56C973 56 968 64 968 76C968 102 982 183 1011 328L1024 390L1131 390L1142 440C1104 436 1070 434 1032 434C1048 528 1059 577 1077 631L1066 646C1046 634 1019 622 988 610L963 440C919 419 893 408 875 403L873 390ZM1492 111L1468 94C1415 56 1367 36 1331 36C1284 36 1255 73 1255 133C1255 158 1258 185 1263 214C1280 218 1389 248 1414 259C1499 296 1538 342 1538 404C1538 451 1504 482 1454 482C1386 496 1276 423 1239 349C1209 299 1179 180 1179 113C1179 35 1223 -11 1295 -11C1352 -11 1408 17 1500 92ZM1277 274C1294 343 1314 386 1343 412C1361 428 1392 440 1416 440C1445 440 1464 420 1464 388C1464 344 1429 297 1377 272C1349 258 1313 247 1268 237ZM1920 365C1923 403 1928 435 1936 476C1925 481 1921 482 1916 482C1885 482 1854 458 1818 407C1779 351 1740 291 1724 256L1756 408C1760 425 1762 438 1762 450C1762 470 1754 482 1739 482C1718 482 1680 461 1606 408L1578 388L1585 368L1617 389C1645 407 1656 412 1665 412C1675 412 1682 403 1682 390C1682 332 1639 126 1599 -2L1609 -9C1624 -4 1640 -1 1663 4L1676 6L1702 126C1720 209 1743 262 1787 319C1821 363 1848 384 1870 384C1885 384 1895 379 1906 365ZM2106 420C2127 420 2143 421 2169 424C2058 304 2016 221 2016 121C2016 44 2062 -11 2126 -11C2264 -11 2417 236 2417 384C2417 441 2391 482 2355 482C2342 482 2330 478 2322 470L2272 423L2283 404C2292 410 2301 413 2310 413C2337 413 2353 390 2353 350C2353 202 2256 39 2168 39C2119 39 2088 81 2088 146C2088 251 2127 342 2225 464L2215 482C2195 473 2182 470 2154 470C2126 470 2084 472 2055 475L2043 476C2037 477 2032 477 2031 477C2019 477 2010 475 1999 470C1985 443 1974 407 1961 352L1983 352L2000 394C2007 411 2027 422 2051 422C2084 422 2068 420 2106 420ZM2710 204L2681 77C2677 60 2675 42 2675 26C2675 4 2684 -9 2699 -9C2722 -9 2763 17 2845 85L2838 106C2814 86 2785 59 2763 59C2754 59 2748 68 2748 82C2748 87 2748 90 2749 93L2841 472L2831 481L2798 463C2757 478 2740 482 2713 482C2685 482 2665 477 2638 464C2576 433 2543 403 2518 354C2474 265 2443 145 2443 67C2443 23 2458 -11 2477 -11C2514 -11 2594 41 2710 204ZM2758 414C2736 305 2717 253 2683 201C2626 117 2565 59 2533 59C2521 59 2515 72 2515 99C2515 163 2543 280 2578 360C2602 415 2625 433 2673 433C2696 433 2714 429 2758 414ZM3133 722L3121 733C3069 707 3033 698 2961 691L2957 670L3005 670C3029 670 3039 663 3039 648C3039 645 3039 640 3036 622C3025 567 2952 182 2937 132C2924 82 2918 52 2918 31C2918 6 2929 -9 2948 -9C2974 -9 3010 12 3108 85L3098 103L3072 86C3043 67 3021 56 3011 56C3004 56 2998 66 2998 76C2998 82 2999 89 3002 104Z" stroke="rgb(35,27,27)" stroke-opacity="1" stroke-width="8" fill="rgb(35,27,27)" fill-opacity="1"></path></g></g></g></g></g></g></g><g><g></g></g><line stroke-dasharray="1" style="fill:none;stroke-width:[object Object];stroke:rgba(0, 0, 0, 0);" x1="2.5" y1="2.5" x2="22.1875" y2="2.5"></line><line stroke-dasharray="1" style="fill:none;stroke-width:[object Object];stroke:rgba(0, 0, 0, 0);" x1="2.5" y1="2.5" x2="2.5" y2="65.578125"></line><line stroke-dasharray="1" style="fill:none;stroke-width:[object Object];stroke:rgba(0, 0, 0, 0);" x1="22.1875" y1="2.5" x2="22.1875" y2="65.578125"></line><line stroke-dasharray="1" style="fill:none;stroke-width:[object Object];stroke:rgba(0, 0, 0, 0);" x1="2.5" y1="65.578125" x2="22.1875" y2="65.578125"></line><line stroke-dasharray="1" style="fill:none;stroke-width:[object Object];stroke:rgba(0, 0, 0, 0);" x1="22.1875" y1="2.5" x2="459.0625" y2="2.5"></line><line stroke-dasharray="1" style="fill:none;stroke-width:[object Object];stroke:rgba(0, 0, 0, 0);" x1="22.1875" y1="2.5" x2="22.1875" y2="65.578125"></line><line stroke-dasharray="1" style="fill:none;stroke-width:[object Object];stroke:rgba(0, 0, 0, 0);" x1="459.0625" y1="2.5" x2="459.0625" y2="65.578125"></line><line stroke-dasharray="1" style="fill:none;stroke-width:[object Object];stroke:rgba(0, 0, 0, 0);" x1="22.1875" y1="65.578125" x2="459.0625" y2="65.578125"></line><line stroke-dasharray="1" style="fill:none;stroke-width:[object Object];stroke:rgba(0, 0, 0, 0);" x1="459.0625" y1="2.5" x2="478.75" y2="2.5"></line><line stroke-dasharray="1" style="fill:none;stroke-width:[object Object];stroke:rgba(0, 0, 0, 0);" x1="459.0625" y1="2.5" x2="459.0625" y2="65.578125"></line><line stroke-dasharray="1" style="fill:none;stroke-width:[object Object];stroke:rgba(0, 0, 0, 0);" x1="478.75" y1="2.5" x2="478.75" y2="65.578125"></line><line stroke-dasharray="1" style="fill:none;stroke-width:[object Object];stroke:rgba(0, 0, 0, 0);" x1="459.0625" y1="65.578125" x2="478.75" y2="65.578125"></line></g></g></g></svg>
