<svg id="Layer_1" data-name="Layer 1" xmlns="http://www.w3.org/2000/svg" viewBox="0 0 29.92 24.19"><path d="M29.08.57a7.89,7.89,0,0,1-.44.88A7,7,0,0,1,27.41,3a9.91,9.91,0,0,0-.94.78c0,.06.28,0,.28,0s1-.14,1.38-.26a13.2,13.2,0,0,0,1.6-.64l.19-.11a.35.35,0,0,1-.08.2,9.93,9.93,0,0,1-.91,1.21A23.6,23.6,0,0,1,27,5.89a.35.35,0,0,0-.2.29c0,.09,0,2.61-.08,3.19s-.76,3.12-1,3.64a22.47,22.47,0,0,1-1.34,2.74,22.23,22.23,0,0,1-3.63,4.43,22.45,22.45,0,0,1-4.39,2.7,18.73,18.73,0,0,1-6.06,1.29,18.65,18.65,0,0,1-7.26-1.05A22.23,22.23,0,0,1,0,21.56l1.52.07a11.29,11.29,0,0,0,3.19-.4c.55-.16,1-.31,1.28-.44a16.93,16.93,0,0,0,3.47-1.9l-1.67-.2a5.22,5.22,0,0,1-2.16-.93,9.27,9.27,0,0,1-2.16-2.69l-.16-.38,2.6,0-1.1-.52a11.3,11.3,0,0,1-1.19-.71,8.71,8.71,0,0,1-1.33-1.34,4.73,4.73,0,0,1-.84-1.94,6.8,6.8,0,0,1-.29-1.69l.48.24a7.4,7.4,0,0,0,1.55.51L4,9.3a5.79,5.79,0,0,1-1.22-1A12.46,12.46,0,0,1,1.4,5.75a5.61,5.61,0,0,1-.16-2.4,8.72,8.72,0,0,1,.81-2.22A15.21,15.21,0,0,0,4.49,3.59a14.05,14.05,0,0,0,3.14,2,16.06,16.06,0,0,0,4.84,1.7c2.17.43,2.25.13,2.25.13a6.32,6.32,0,0,1,.17-3.63,5.94,5.94,0,0,1,3-3.14A6.89,6.89,0,0,1,22.08.13a7.07,7.07,0,0,1,2.75,1.39c.33.35.08.62,1,.27S27.87,1.05,28.5.72l.62-.36Z"/></svg>
