<svg width="18" height="24" viewBox="0 0 18 24" fill="none" xmlns="http://www.w3.org/2000/svg">
    <path fill-rule="evenodd" clip-rule="evenodd" d="M0 17.1286V21.4271C0 22.1094 0.276561 22.7633 0.76915 23.245C1.26095 23.7276 1.9293 23.9985 2.625 23.9985H14.875C15.5715 23.9985 16.239 23.7276 16.7318 23.245C17.2236 22.7633 17.5 22.1093 17.5 21.4271V17.1286C17.5 16.6564 17.108 16.2715 16.625 16.2715C16.142 16.2715 15.75 16.6564 15.75 17.1286V21.4271C15.75 21.6542 15.6582 21.8729 15.4936 22.033C15.3299 22.1941 15.1068 22.2842 14.875 22.2842H2.62501C2.39317 22.2842 2.17091 22.1943 2.00646 22.033C1.84279 21.8727 1.75001 21.6542 1.75001 21.4271V17.1286C1.75001 16.6564 1.35802 16.2715 0.875011 16.2715C0.392001 16.2715 1.06812e-05 16.6564 1.06812e-05 17.1286H0Z" fill="#231B1B"/>
    <path fill-rule="evenodd" clip-rule="evenodd" d="M7.8385 2.21595V16.3851C7.8385 16.8358 8.23049 17.2018 8.7135 17.2018C9.19651 17.2018 9.5885 16.8358 9.5885 16.3851V2.21742L13.3439 5.89716C13.6861 6.2314 14.24 6.2314 14.582 5.89716C14.9233 5.56292 14.9233 5.01936 14.582 4.68512C14.582 4.68512 12.1207 2.27404 10.5684 0.753442C10.0758 0.270922 9.40825 0 8.71155 0C8.01585 0 7.34825 0.270912 6.8557 0.753442C5.30435 2.27311 2.8438 4.68248 2.8438 4.68248C2.50259 5.01768 2.50259 5.56028 2.8438 5.8953C3.18599 6.22954 3.7399 6.22954 4.0819 5.8953L7.83835 2.21556L7.8385 2.21595Z" fill="#231B1B"/>
</svg>
