<svg width="120" height="65" viewBox="0 0 120 65" fill="none" xmlns="http://www.w3.org/2000/svg">
<path d="M77.9397 56.4001L93.8196 40.5201L55.1396 1.83008L16.4496 40.5201L32.3297 56.4001H1.38965V62.2701H118.61V56.4001H77.9296H77.9397ZM38.2496 37.7901C38.2496 37.7901 44.2096 27.9501 53.9996 27.9501C56.4396 27.9501 58.6497 28.5601 60.5797 29.4801L57.7596 32.3001C56.6896 31.5701 55.3996 31.1401 54.0096 31.1401C50.3396 31.1401 47.3596 34.1201 47.3596 37.7901C47.3596 39.1801 47.7896 40.4801 48.5196 41.5401L45.2197 44.8401C40.7797 41.9301 38.2596 37.7801 38.2596 37.7801L38.2496 37.7901ZM57.0496 36.4701C57.2296 36.8801 57.3196 37.3201 57.3196 37.7901C57.3196 39.6301 55.8297 41.1101 53.9996 41.1201C53.5296 41.1201 53.0797 41.0201 52.6796 40.8501L57.0496 36.4801V36.4701ZM50.9496 39.1101C50.7696 38.7101 50.6796 38.2601 50.6796 37.7901C50.6796 35.9501 52.1696 34.4701 53.9996 34.4701C54.4697 34.4701 54.9196 34.5701 55.3196 34.7401L50.9496 39.1101ZM53.9996 47.6301C51.5597 47.6301 49.3496 47.0201 47.4196 46.1001L50.2397 43.2801C51.3097 44.0101 52.5997 44.4401 53.9897 44.4401C57.6597 44.4401 60.6396 41.4601 60.6396 37.7901C60.6396 36.4001 60.2096 35.1001 59.4796 34.0401L62.7796 30.7401C67.2197 33.6501 69.7396 37.8001 69.7396 37.8001C69.7396 37.8001 63.7797 47.6401 53.9897 47.6401L53.9996 47.6301Z" fill="#280D0A"/>
</svg>
