<svg id="Layer_5" xmlns="http://www.w3.org/2000/svg" viewBox="0 0 21.43 22.07">
<defs><style>.cls-1{fill:none;stroke:#000;stroke-miterlimit:10;stroke-width:1.3px;}</style></defs>
<path class="cls-1" d="M18.55,5.55V1.28c0-.16-.13-.3-.29-.3-.75,0-2.84,.06-5.14,.91-2.88,1.05-5.28,2.31-5.28,2.31,0,0-.99,.07-1.51,2.08s-.89,4.45-.89,4.45L1.52,15.84c-.09,.12-.08,.3,.04,.4l4.5,4.09c.06,.05,.13,.08,.2,.08h1.78c.09,0,.17-.04,.22-.1l5.95-6.69c.1-.12,.1-.3,0-.41l-1.64-1.68s1.53-1.41,1.88-2.11,.5-1.36,.45-1.85c-.05-.43,2.71-1.46,3.47-1.74,.12-.04,.19-.15,.19-.28Z"/>
<path class="cls-1" d="M3.29,13.52L7.82,7.68c.11-.14,.31-.16,.44-.03l2.3,2.19c.12,.11,.13,.29,.02,.41l-1.46,1.94s-1.19,2.18,.53,1.33,2.6-1.74,2.6-1.74"/>
<line class="cls-1" x1=".92" y1="20.62" x2="16.41" y2="20.62"/>
</svg>